<svg id="Layer_2" data-name="Layer 2" xmlns="http://www.w3.org/2000/svg" xmlns:xlink="http://www.w3.org/1999/xlink" viewBox="0 0 1920 1920"><defs><style>.cls-1{stroke:#020202;stroke-miterlimit:10;stroke-width:5px;fill:url(#linear-gradient);}</style><linearGradient id="linear-gradient" x1="949.82" y1="381.88" x2="964.49" y2="1391.81" gradientUnits="userSpaceOnUse"><stop offset="0.21" stop-color="#9d9d9d"/><stop offset="0.23" stop-color="#aea898"/><stop offset="0.3" stop-color="#dac48d"/><stop offset="0.35" stop-color="#f5d686"/><stop offset="0.38" stop-color="#ffdc83"/><stop offset="0.61" stop-color="#acacac"/><stop offset="0.81" stop-color="#ead193"/><stop offset="1" stop-color="#b2b2b2"/></linearGradient></defs><path class="cls-1" d="M455.51,1068.42l48-183.5c.11-.44.2-.88.28-1.32,4.9-29.06,38.14-60.09,38.14-60.09l85.94-72.71a17,17,0,0,0,2.85-3.14C650.6,719,811.14,583,839.21,559.29a16.4,16.4,0,0,0,5.23-8.38c5.92-22.36,26.17-46.29,31.44-52.24a15.52,15.52,0,0,1,3.53-3c37.34-23,210.58-3.19,230-.88a15.14,15.14,0,0,0,3.56,0c37.34-4.41,82.46,35.69,92.79,45.4a16.24,16.24,0,0,1,3.72,5.27c9.71,22.35,20.54,89.92,22.78,104.35a15,15,0,0,1-.13,5c-4.65,26.25,36.73,83.06,49,99.15a16.35,16.35,0,0,0,7.67,5.62C1330,773.73,1399,846.77,1412.53,861.44a16.25,16.25,0,0,1,3.53,6.08c13.75,42.9,45.76,201.94,48.18,214a14.3,14.3,0,0,1,.23,1.46c5.6,50.3-33.39,102.19-41.41,112.26a16.26,16.26,0,0,0-2,3.36c-10.16,22.54-134.17,130.14-157.62,150.36a16.09,16.09,0,0,1-8.25,3.75c-28.32,4.07-49.46,27.78-53.4,32.48a13.64,13.64,0,0,0-1.12,1.58c-14.41,22.47-121.35,44.73-138.87,48.24a16.14,16.14,0,0,1-5.19.2c-45.51-5.49-112.9-49.59-128.79-60.35a15.76,15.76,0,0,0-7.08-2.66c-47.34-5.41-142-75.08-163.13-91a15.74,15.74,0,0,1-5.28-6.94c-7.3-18.93-41.42-27.54-50.65-29.55a16,16,0,0,1-4.76-1.88c-26.69-15.76-123.27-86.93-141-100a16.1,16.1,0,0,1-4-4.35c-11.6-18.46-62.52-41-86.9-51A16.15,16.15,0,0,1,455.51,1068.42Z"/><path d="M701.59,1240.92a17.24,17.24,0,0,1-6.86-14.64c.15-3.86-5.85-3.86-6,0a22.79,22.79,0,0,0,8.61,18.88c3,2.36,7.28-1.86,4.25-4.24Z"/><path d="M504.59,871.91a121.68,121.68,0,0,0,18,58.78c2,3.28,7.22.27,5.18-3a115.52,115.52,0,0,1-17.16-55.75c-.17-3.85-6.17-3.87-6,0Z"/><path d="M552,1139.27l40.11,18.82c3.48,1.63,6.53-3.54,3-5.18L555,1134.09c-3.48-1.63-6.53,3.54-3,5.18Z"/><path d="M930.29,1370.29A119.15,119.15,0,0,0,915,1339.83c-2.21-3.13-7.41-.14-5.18,3a113.81,113.81,0,0,1,14.72,29c1.23,3.64,7,2.08,5.78-1.59Z"/><path d="M1195.35,1387.5a24.4,24.4,0,0,1-21.57,0c-3.47-1.64-6.52,3.53-3,5.18a31,31,0,0,0,27.63,0c3.49-1.64.44-6.82-3-5.18Z"/><path d="M1280.42,757.63c8.3,12.51,13.95,26.41,15.22,41.45.33,3.82,6.33,3.86,6,0-1.36-16.12-7.13-31-16-44.48-2.13-3.21-7.33-.2-5.19,3Z"/><path d="M841.56,550.16c-8.13,35.58,5.74,70.43,19,102.91,1.44,3.53,7.24,2,5.78-1.6-12.77-31.31-26.85-65.35-19-99.71.86-3.76-4.92-5.36-5.79-1.6Z"/><path d="M1466.68,1083.74a247.78,247.78,0,0,0-42.54-57.28c-2.73-2.74-7,1.5-4.24,4.24a242.33,242.33,0,0,1,41.6,56.07c1.83,3.4,7,.37,5.18-3Z"/></svg>