<svg xmlns="http://www.w3.org/2000/svg" xmlns:xlink="http://www.w3.org/1999/xlink" viewBox="0 0 1920 1920"><defs><style>.cls-1{stroke:#020202;stroke-miterlimit:10;stroke-width:5px;fill:url(#linear-gradient);}.cls-2{fill:url(#linear-gradient-2);}.cls-3{fill:url(#linear-gradient-3);}.cls-4{fill:url(#linear-gradient-4);}.cls-5{fill:url(#linear-gradient-5);}.cls-6{fill:url(#linear-gradient-6);}</style><linearGradient id="linear-gradient" x1="950.94" y1="401.92" x2="965.11" y2="1377.14" gradientUnits="userSpaceOnUse"><stop offset="0.05" stop-color="#9d9d9d"/><stop offset="0.06" stop-color="#a3978e"/><stop offset="0.12" stop-color="#bb8151"/><stop offset="0.17" stop-color="#cd7125"/><stop offset="0.21" stop-color="#d8670a"/><stop offset="0.23" stop-color="#dc6300"/><stop offset="0.43" stop-color="#acacac"/><stop offset="0.65" stop-color="#ffa911"/><stop offset="0.81" stop-color="#b2b2b2"/><stop offset="0.96" stop-color="#b44300"/></linearGradient><linearGradient id="linear-gradient-2" x1="1120.91" y1="538.48" x2="1121.64" y2="588.33" gradientUnits="userSpaceOnUse"><stop offset="0.02" stop-color="#fafafa"/><stop offset="0.24" stop-color="#ebebeb"/><stop offset="0.72" stop-color="#d0d0d0"/><stop offset="1" stop-color="#c6c6c6"/></linearGradient><linearGradient id="linear-gradient-3" x1="542.98" y1="872.51" x2="599.06" y2="872.51" gradientUnits="userSpaceOnUse"><stop offset="0" stop-color="#b4b4b4"/><stop offset="0.41" stop-color="#dadada"/><stop offset="0.78" stop-color="#f5f5f5"/><stop offset="1" stop-color="#fff"/></linearGradient><linearGradient id="linear-gradient-4" x1="570.74" y1="848.17" x2="571.45" y2="896.73" gradientUnits="userSpaceOnUse"><stop offset="0.02" stop-color="#fff"/><stop offset="0.38" stop-color="#e0e0e0"/><stop offset="0.77" stop-color="#c5c5c5"/><stop offset="1" stop-color="#bbb"/></linearGradient><linearGradient id="linear-gradient-5" x1="1326.89" y1="860.43" x2="1327.6" y2="909.24" gradientUnits="userSpaceOnUse"><stop offset="0.02" stop-color="#fbfbfb"/><stop offset="0.22" stop-color="#eee"/><stop offset="0.71" stop-color="#d3d3d3"/><stop offset="1" stop-color="#c9c9c9"/></linearGradient><linearGradient id="linear-gradient-6" x1="1118.55" y1="1321.54" x2="1119.39" y2="1379.01" gradientUnits="userSpaceOnUse"><stop offset="0.02" stop-color="#d3d3d3"/><stop offset="0.28" stop-color="#c1c1c1"/><stop offset="0.73" stop-color="#a6a6a6"/><stop offset="1" stop-color="#9c9c9c"/></linearGradient></defs><g id="Layer_3" data-name="Layer 3"><path class="cls-1" d="M831.18,579.15C789.66,611.07,535.3,837.79,517.65,853.53a19.86,19.86,0,0,0-1.83,1.84c-52.53,60.11-27.42,194.81-20.82,225.57a21,21,0,0,0,6.73,11.43c60.73,52.74,479.27,301.11,515.35,322.49a20.83,20.83,0,0,0,5.69,2.34c129.43,31.58,391.22-289.09,404.63-305.64.35-.44.69-.88,1-1.35,32.34-47.41-37.93-199.6-57.85-240.54a21,21,0,0,0-13.3-11c-41.78-11.6-128.4-126.62-149.2-154.9a20.89,20.89,0,0,1-4.06-13.23c1.59-41.46-17.23-116.91-22.68-137.76a20.82,20.82,0,0,0-5.86-9.94c-67.13-62.87-269.38-37.69-292.18-34.62a31.49,31.49,0,0,1-3.51.17c-15.25.2-35.38,46.08-42,62.14A20.87,20.87,0,0,1,831.18,579.15Z"/><path class="cls-2" d="M1090.48,545.9c25.75-4.34,53.61,15.92,57.09,41.91.44,3.24,2.45,6,6,6,2.91,0,6.43-2.79,6-6-4.58-34.19-38.15-59.23-72.28-53.48-7.6,1.28-4.38,12.84,3.19,11.57Z"/><path class="cls-3" d="M544,894.32c-.78-5.54,4.59-9.79,9.32-12.77l42.31-26.62a226.13,226.13,0,0,0-51.26,38c1.36-8.91,9.57-14.91,17.09-19.88l37.6-24.84c-22.82,10.11-39.84,29.65-56.08,48.6"/><path class="cls-4" d="M550,894.32c-.19-3.64,3.61-5.81,6.35-7.59,4.76-3.07,9.59-6,14.38-9.05l27.93-17.57c6.53-4.11.74-14.07-6.06-10.36a237.29,237.29,0,0,0-52.47,38.94l10,5.84c1.93-9.83,12.42-15,20.06-20.08l31.88-21.05c6.54-4.33.91-13.53-6.06-10.37-23.49,10.67-40.82,30.32-57.3,49.54-5,5.83,3.45,14.36,8.49,8.48,15.86-18.49,32.25-37.38,54.87-47.65L596,843q-18.39,12.15-36.78,24.3c-8.94,5.93-18.47,12.8-20.67,24-1.11,5.69,5.54,10.24,10,5.83a225.76,225.76,0,0,1,50-37.06l-6.06-10.36-34.69,21.83c-8.36,5.26-20.51,11.11-19.91,22.74.39,7.69,12.39,7.73,12,0Z"/><path class="cls-5" d="M1296.34,864.05c5.94,10.53,16.47,15.94,27.08,20.74,10.14,4.58,24.14,10.82,23.5,24-.37,7.72,11.63,7.7,12,0,.64-13.32-9-23.69-19.93-29.79s-25.64-9.25-32.29-21c-3.8-6.73-14.17-.69-10.36,6Z"/><path class="cls-6" d="M1162.56,1316.09c-14.87,10.49-29.64,21.15-44.71,31.35-7,4.76-14.18,9.38-21.54,13.64-3.66,2.13-7.37,4.17-11.14,6.09q-3.24,1.65-6.52,3.18c-1.1.51-4.67,2.87-5.75,2.74l5.18,3-.19-.4v6.06c-1,1.7,4-1.73,4.7-2.13l5-2.92q5.78-3.42,11.51-6.89,11.07-6.69,22-13.55,22.34-14,44.25-28.6c6.39-4.27.39-14.67-6-10.36q-39.86,26.6-81.1,51c-4.62,2.72-14.67,6.51-10.56,13.66,3.9,6.79,13,.7,17.9-1.59,13.72-6.46,26.6-14.54,39.13-23,14.81-10,29.33-20.53,44-30.84,6.26-4.42.27-14.82-6.06-10.36Z"/><path d="M1202.53,695.05c-2.81,7.12,11.25,50.45,11.25,50.45"/><path d="M1033.27,1419.3c-26.3,1.72-42.33-77.55-42.33-77.55"/></g></svg>