<svg xmlns="http://www.w3.org/2000/svg" xmlns:xlink="http://www.w3.org/1999/xlink" viewBox="0 0 1920 1920"><defs><style>.cls-1{stroke:#020202;stroke-miterlimit:10;stroke-width:5px;fill:url(#linear-gradient);}</style><linearGradient id="linear-gradient" x1="950.94" y1="401.92" x2="965.11" y2="1377.14" gradientUnits="userSpaceOnUse"><stop offset="0.05" stop-color="#9d9d9d"/><stop offset="0.06" stop-color="#a3978e"/><stop offset="0.12" stop-color="#bb8151"/><stop offset="0.17" stop-color="#cd7125"/><stop offset="0.21" stop-color="#d8670a"/><stop offset="0.23" stop-color="#dc6300"/><stop offset="0.43" stop-color="#acacac"/><stop offset="0.65" stop-color="#ffa911"/><stop offset="0.81" stop-color="#b2b2b2"/><stop offset="0.96" stop-color="#b44300"/></linearGradient></defs><g id="Layer_3" data-name="Layer 3"><path class="cls-1" d="M831.18,579.15C789.66,611.07,535.3,837.79,517.65,853.53a19.86,19.86,0,0,0-1.83,1.84c-52.53,60.11-27.42,194.81-20.82,225.57a21,21,0,0,0,6.73,11.43c60.73,52.74,479.27,301.11,515.35,322.49a20.83,20.83,0,0,0,5.69,2.34c129.43,31.58,391.22-289.09,404.63-305.64.35-.44.69-.88,1-1.35,32.34-47.41-37.93-199.6-57.85-240.54a21,21,0,0,0-13.3-11c-41.78-11.6-128.4-126.62-149.2-154.9a20.89,20.89,0,0,1-4.06-13.23c1.59-41.46-17.23-116.91-22.68-137.76a20.82,20.82,0,0,0-5.86-9.94c-67.13-62.87-269.38-37.69-292.18-34.62a31.49,31.49,0,0,1-3.51.17c-15.25.2-35.38,46.08-42,62.14A20.87,20.87,0,0,1,831.18,579.15Z"/><path d="M1202.69,697.19c-2.81,10.4,11.25,73.69,11.25,73.69"/><path d="M1017.08,1414.85c-26.3,1.89-42.33-84.85-42.33-84.85"/></g></svg>