<svg id="Layer_2" data-name="Layer 2" xmlns="http://www.w3.org/2000/svg" xmlns:xlink="http://www.w3.org/1999/xlink" viewBox="0 0 1920 1920"><defs><style>.cls-1{stroke:#020202;stroke-miterlimit:10;stroke-width:5px;fill:url(#linear-gradient);}</style><linearGradient id="linear-gradient" x1="453.43" y1="960" x2="1466.57" y2="960" gradientUnits="userSpaceOnUse"><stop offset="0" stop-color="#9d9d9d"/><stop offset="1" stop-color="#494949"/></linearGradient></defs><path class="cls-1" d="M453.43,1082.18l51.75-198c4.5-29.25,38.25-60.75,38.25-60.75l87.75-74.25c15.75-27,213.75-193.5,213.75-193.5,4.5-27,33.75-58.5,33.75-58.5,33.75-27,234-2.25,234-2.25,42.75-6.75,96.75,47.25,96.75,47.25,11.25,20.25,24.75,110.25,24.75,110.25-9,29.25,51.75,105.75,51.75,105.75,45,11.25,130.5,105.75,130.5,105.75,13.5,38.25,49.5,218.25,49.5,218.25,6.75,56.25-42.75,114.75-42.75,114.75-4.5,20.25-162,155.25-162,155.25-33.75,2.25-58.5,33.75-58.5,33.75-13.5,24.75-141.75,49.5-141.75,49.5-51.75-4.5-135-63-135-63-51.75-2.25-171-94.5-171-94.5-4.5-24.75-54-33.75-54-33.75-24.75-13.5-146.25-103.5-146.25-103.5C543.43,1115.93,453.43,1082.18,453.43,1082.18Z"/><path d="M703.13,1240.83a17.21,17.21,0,0,1-6.86-14.63c.16-3.87-5.84-3.86-6,0a22.8,22.8,0,0,0,8.62,18.88c3,2.35,7.28-1.86,4.24-4.25Z"/><path d="M506.13,871.83a121.66,121.66,0,0,0,18,58.77c2,3.28,7.21.27,5.18-3a115.39,115.39,0,0,1-17.17-55.74c-.16-3.85-6.16-3.87-6,0Z"/><path d="M553.5,1139.19,593.62,1158c3.47,1.63,6.52-3.54,3-5.18L556.53,1134c-3.48-1.63-6.53,3.54-3,5.18Z"/><path d="M931.84,1370.21a114.61,114.61,0,0,0-18.79-31.07c-2.5-3-6.72,1.31-4.24,4.24a106,106,0,0,1,17.24,28.42c1.44,3.53,7.25,2,5.79-1.59Z"/><path d="M1197.61,1387.14a69.13,69.13,0,0,1-39,0c-3.71-1.08-5.3,4.71-1.59,5.78a75.13,75.13,0,0,0,42.19,0c3.7-1.08,2.13-6.87-1.59-5.79Z"/><path d="M1281.67,756.83A227.29,227.29,0,0,1,1297.19,829c.18,3.85,6.18,3.87,6,0a232.39,232.39,0,0,0-15.74-73.79c-1.39-3.55-7.2-2-5.78,1.6Z"/><path d="M843.74,550.08c-10.18,63.65,6.88,126.84,23.9,187.73,1,3.71,6.83,2.14,5.79-1.59-16.7-59.72-33.9-122.09-23.9-184.54.6-3.78-5.18-5.41-5.79-1.6Z"/><path d="M1468.22,1083.65a364.93,364.93,0,0,0-60-85.17c-2.66-2.82-6.9,1.43-4.25,4.24a359.23,359.23,0,0,1,59.1,84c1.75,3.45,6.93.41,5.18-3Z"/></svg>