<svg id="Layer_2" data-name="Layer 2" xmlns="http://www.w3.org/2000/svg" xmlns:xlink="http://www.w3.org/1999/xlink" viewBox="0 0 1920 1920"><defs><style>.cls-1{fill:url(#linear-gradient);}.cls-2{fill:url(#linear-gradient-2);}.cls-3{fill:url(#linear-gradient-3);}.cls-4{fill:url(#linear-gradient-4);}</style><linearGradient id="linear-gradient" x1="540.23" y1="745.23" x2="785.1" y2="916.69" gradientUnits="userSpaceOnUse"><stop offset="0" stop-color="#505050"/><stop offset="0.74" stop-color="#508250"/></linearGradient><linearGradient id="linear-gradient-2" x1="1456.29" y1="1281.69" x2="1338.7" y2="1207.64" gradientTransform="translate(127.98 -168.47) rotate(3.39)" gradientUnits="userSpaceOnUse"><stop offset="0" stop-color="#005d1d"/><stop offset="1" stop-color="#5a5a5a"/></linearGradient><linearGradient id="linear-gradient-3" x1="969.8" y1="1240.28" x2="1037.53" y2="1283.22" gradientUnits="userSpaceOnUse"><stop offset="0" stop-color="#5a5a5a"/><stop offset="0.53" stop-color="#508250"/><stop offset="0.77" stop-color="#506650"/><stop offset="1" stop-color="#505050"/></linearGradient><linearGradient id="linear-gradient-4" x1="693.96" y1="838.87" x2="1407.94" y2="1291.31" gradientUnits="userSpaceOnUse"><stop offset="0" stop-color="#646464"/><stop offset="0.04" stop-color="#5a625c"/><stop offset="0.12" stop-color="#3e5e48"/><stop offset="0.21" stop-color="#125627"/><stop offset="0.25" stop-color="#00531a"/><stop offset="0.27" stop-color="#145528"/><stop offset="0.33" stop-color="#32573e"/><stop offset="0.38" stop-color="#48594d"/><stop offset="0.43" stop-color="#565a57"/><stop offset="0.47" stop-color="#5a5a5a"/><stop offset="0.68" stop-color="#8c5000"/><stop offset="0.71" stop-color="#7c4e10"/><stop offset="0.77" stop-color="#644a28"/><stop offset="0.84" stop-color="#534839"/><stop offset="0.91" stop-color="#494643"/><stop offset="1" stop-color="#464646"/></linearGradient></defs><path class="cls-1" d="M944.55,523.24c12.14-9.24,29.54-2.47,32.63,12.68,1.92,9.44,3.09,18.27,3.88,25.53,1.63,15-14.18,69.88-24.43,78.27-14.18,11.6-50.57,95.13-59.76,116.57a21.09,21.09,0,0,1-6.42,8.34L716.24,900.1c-64.39,50.07-107.7,123.38-121.07,205-1.34,8.2-2.35,14.53-2.89,18a20.93,20.93,0,0,0-.21,4.68c1.11,18.4-36.61,76.11-51.41,98a20.41,20.41,0,0,1-17,9.11c-25.53-.19-45.56-10.93-55.95-17.94a21.07,21.07,0,0,1-8.6-13,34.67,34.67,0,0,0-8.24-15.51,21,21,0,0,0-14.07-6.62c-5.25-.44-11.79-3.71-17.16-7a21.21,21.21,0,0,1-9.72-15c-1.9-12.4-16.73-20.55-25.89-24.45a21.66,21.66,0,0,1-9.09-7.12c-6.66-9.26-29.48-18.89-46.9-25.18-12.11-4.37-17.45-18.84-11.17-30.3,24.22-44.16,83.86-127.83,91.67-138.75a19.94,19.94,0,0,0,1.31-2.06c16.75-30.4,130.26-140.63,148.52-158.28a21,21,0,0,0,3.78-4.94c14.6-26.28,80.13-82.38,80.13-82.38C667.77,668,771.82,620,788.3,612.42a20,20,0,0,1,4.16-1.4C837.15,601.53,908,551.05,944.55,523.24Z"/><path d="M944.55,523.24A20.9,20.9,0,0,1,956.94,519l1.66.11.83.05.82.16,1.64.31,1.58.51.8.25.75.35,1.52.7,1.42.87.71.44c.22.16.43.34.65.51l1.3,1c.41.38.78.79,1.18,1.18a21.7,21.7,0,0,1,2.1,2.58,15.77,15.77,0,0,1,.86,1.42,13.06,13.06,0,0,1,.79,1.47,19.88,19.88,0,0,1,1.16,3.12,65.56,65.56,0,0,1,1.4,6.51c.4,2.18.78,4.37,1.12,6.57.69,4.38,1.27,8.79,1.76,13.2s0,8.89-.66,13.27a242.76,242.76,0,0,1-14.67,51.12,70.07,70.07,0,0,1-6.15,11.81,18.73,18.73,0,0,1-2.12,2.59c-.81.79-1.65,1.48-2.4,2.3l-1.1,1.24-1,1.3c-.7.86-1.32,1.78-2,2.68-2.53,3.63-4.82,7.44-7,11.28s-4.33,7.75-6.39,11.68c-4.14,7.85-8.06,15.82-11.9,23.82-7.66,16-15,32.21-22.07,48.48l-5.28,12.22c-.44,1-.84,2-1.33,3.07a21.37,21.37,0,0,1-6.32,7.87l-21,16.43-83.87,65.71L743.79,880.1l-21,16.43-5.24,4.11c-1.73,1.38-3.42,2.8-5.14,4.2l-5.12,4.21c-.84.72-1.72,1.38-2.54,2.13l-2.46,2.23-4.91,4.45c-1.63,1.5-3.31,2.93-4.85,4.53l-9.38,9.36-8.94,9.79-1.12,1.23L672.06,944l-2.12,2.55-4.23,5.1a329.9,329.9,0,0,0-29.81,43.76l-3.21,5.79c-1.08,1.93-2.17,3.85-3.11,5.85-2,4-4,7.89-5.86,11.88l-5.33,12.12c-1.69,4.08-3.2,8.23-4.81,12.34a335.92,335.92,0,0,0-14.27,50.93c-.78,4.34-1.66,8.65-2.36,13l-2.09,13.14-.5,3.25a17.41,17.41,0,0,0-.16,3l0,.76c0,.26,0,.62,0,.92a14.37,14.37,0,0,1-.06,1.87c-.07.61-.12,1.22-.21,1.81l-.33,1.75a75.52,75.52,0,0,1-4.29,13,250.57,250.57,0,0,1-11.9,24.09c-4.31,7.82-8.85,15.49-13.5,23.08s-9.45,15.1-14.33,22.55l-3.68,5.56-1.85,2.78-.93,1.38-.47.69-.53.75a23.11,23.11,0,0,1-11.88,8.51,21.68,21.68,0,0,1-3.64.79c-.62.07-1.24.14-1.87.16a18,18,0,0,1-1.8,0c-2.27-.06-4.55-.12-6.82-.35s-4.52-.51-6.78-.8-4.49-.78-6.7-1.32a106.13,106.13,0,0,1-25.49-9.42c-2-1-4-2.16-5.95-3.32-1-.58-1.93-1.19-2.89-1.79s-1.86-1.19-2.91-2a23.45,23.45,0,0,1-8.25-12.08c-.18-.59-.32-1.2-.47-1.77s-.23-1-.38-1.49a30.21,30.21,0,0,0-1-2.91,32.27,32.27,0,0,0-2.84-5.47,34.89,34.89,0,0,0-3.81-4.86,16.82,16.82,0,0,0-4.67-3.41,20,20,0,0,0-5.61-1.79c-.49-.07-1-.14-1.48-.19l-.87-.09a9.25,9.25,0,0,1-.94-.13,25.27,25.27,0,0,1-3.58-.85,58.17,58.17,0,0,1-12.55-6c-.48-.28-1-.62-1.53-1s-1-.72-1.49-1.11a23.52,23.52,0,0,1-2.7-2.58,24.16,24.16,0,0,1-4-6.25,26.7,26.7,0,0,1-1.22-3.49c-.14-.6-.3-1.2-.4-1.8l-.17-.91-.15-.7a17,17,0,0,0-2.12-5.39,26.29,26.29,0,0,0-3.73-4.77,42.48,42.48,0,0,0-4.75-4.08,65.26,65.26,0,0,0-11.06-6.45c-1-.48-1.92-.86-3-1.35a25.3,25.3,0,0,1-3.25-1.73,23.75,23.75,0,0,1-5.56-4.89c-.19-.24-.39-.48-.58-.74l-.28-.37-.23-.28-.92-1.12c-.32-.37-.71-.71-1.06-1.06a12.31,12.31,0,0,0-1.12-1c-.8-.66-1.58-1.34-2.46-2l-1.29-.93-1.34-.88a108.76,108.76,0,0,0-11.36-6.33c-3.93-1.92-8-3.71-12-5.39s-8.18-3.27-12.33-4.79l-1.55-.57-1.7-.72-.85-.37-.81-.46c-.53-.31-1.09-.59-1.6-.94a25.16,25.16,0,0,1-5.44-5,26.29,26.29,0,0,1-3.58-6.45,26.62,26.62,0,0,1-1.45-7.22,25.81,25.81,0,0,1,.83-7.32c.14-.6.39-1.17.58-1.75a11.49,11.49,0,0,1,.68-1.71l.8-1.66.83-1.47c2.21-3.88,4.39-7.78,6.71-11.58l3.44-5.74,3.51-5.67c9.41-15.12,19.19-30,29.12-44.71s20-29.36,30.28-43.88q7.67-10.91,15.43-21.73l1.95-2.71,1-1.35.82-1.27.42-.65.44-.74.89-1.47c.58-1,1.25-1.91,1.88-2.85,1.24-1.9,2.63-3.65,3.95-5.47s2.74-3.55,4.15-5.28c11.29-13.84,23.38-26.89,35.57-39.83s24.63-25.62,37.14-38.24,25.14-25.11,37.83-37.53L549.22,781l4.8-4.62,2.4-2.31,1.2-1.16c.38-.36.75-.74,1.1-1.13a21.31,21.31,0,0,0,1.9-2.52c.53-.88,1.12-1.86,1.74-2.81l1.81-2.86.46-.71.5-.67,1-1.35a213.83,213.83,0,0,1,17.4-20.31c6.1-6.48,12.44-12.72,18.84-18.88q19.27-18.45,39.51-35.8l0,0h0c3-2,6-4,9.13-5.83,1.55-.91,3.08-1.86,4.65-2.74l4.71-2.64c3.12-1.78,6.31-3.44,9.47-5.14s6.36-3.35,9.56-5c12.77-6.59,25.66-13,38.58-19.23s25.91-12.43,38.92-18.53l19.54-9.08,9.8-4.5a31,31,0,0,1,5-2l5.24-1.24a157.56,157.56,0,0,0,20.36-7c6.64-2.74,13.14-5.81,19.54-9.06,12.8-6.51,25.22-13.77,37.4-21.37C898.2,557.26,921.65,540.6,944.55,523.24Zm0,0c-22.87,17.39-46.3,34.09-70.64,49.37-12.18,7.62-24.58,14.9-37.38,21.43-6.4,3.27-12.91,6.34-19.54,9.11a157,157,0,0,1-20.36,7.06l-5.24,1.26a31.55,31.55,0,0,0-4.95,2L776.67,618l-19.51,9.17q-19.47,9.22-38.83,18.69t-38.44,19.46c-3.18,1.67-6.36,3.33-9.51,5.06s-6.32,3.4-9.42,5.2l-4.67,2.66c-1.56.89-3.07,1.85-4.61,2.77-3.11,1.8-6,3.84-9,5.83l0,0q-20.06,17.49-39.18,36c-6.35,6.2-12.62,12.47-18.64,19-3.06,3.21-5.95,6.56-8.88,9.87s-5.67,6.78-8.21,10.38l-1,1.32-.49.67-.43.69-1.74,2.78c-.58.92-1.13,1.84-1.75,2.86a21,21,0,0,1-2.08,2.81c-.38.44-.79.86-1.21,1.27l-1.19,1.16L555.56,778l-4.76,4.65-18.95,18.71Q513,820.09,494.32,839.1c-12.41,12.69-24.73,25.47-36.82,38.45s-24,26.12-35.09,39.89c-1.38,1.72-2.71,3.48-4.05,5.22s-2.63,3.52-3.81,5.34c-.59.91-1.24,1.8-1.76,2.73l-.82,1.38-.42.69-.47.76-1,1.53-1,1.36-1.92,2.72Q399.56,950,392,961q-15.16,21.88-30,44c-9.84,14.75-19.54,29.61-28.83,44.69l-3.48,5.66L326.3,1061c-2.29,3.79-4.42,7.65-6.59,11.49l-.8,1.44-.64,1.34a7.74,7.74,0,0,0-.54,1.38,13.65,13.65,0,0,0-.46,1.41,20.67,20.67,0,0,0-.64,5.86,19,19,0,0,0,4.07,10.93,20.06,20.06,0,0,0,4.31,4c.41.27.85.49,1.27.74l.64.37.68.28,1.36.58,1.58.58c4.19,1.53,8.37,3.14,12.51,4.84s8.24,3.52,12.29,5.5a110.32,110.32,0,0,1,11.9,6.61l1.45.94,1.41,1c.95.66,1.85,1.43,2.76,2.19a16.58,16.58,0,0,1,1.32,1.21c.43.43.88.83,1.29,1.3l1.2,1.45.29.36.22.29c.14.2.3.38.45.57a18.72,18.72,0,0,0,4.41,3.86,21.34,21.34,0,0,0,2.63,1.4c.94.42,2.06.89,3.07,1.38a69.92,69.92,0,0,1,11.92,6.93,46.25,46.25,0,0,1,5.34,4.59,30.49,30.49,0,0,1,4.45,5.7,21.54,21.54,0,0,1,2.73,6.93l.2.93.14.73c.08.49.21,1,.32,1.44a21.92,21.92,0,0,0,1,2.79,19,19,0,0,0,3.16,4.93,17.51,17.51,0,0,0,2.11,2c.37.31.77.59,1.17.87s.81.53,1.29.81a55.38,55.38,0,0,0,11.45,5.45,21,21,0,0,0,2.9.69,5.77,5.77,0,0,0,.71.1l.78.09c.61.05,1.22.14,1.82.23a25.16,25.16,0,0,1,7,2.26,21.62,21.62,0,0,1,6,4.42,39.69,39.69,0,0,1,4.39,5.61,36.15,36.15,0,0,1,3.28,6.33c.43,1.12.83,2.24,1.15,3.4.17.57.3,1.16.44,1.74s.23,1,.38,1.45a18.61,18.61,0,0,0,6.48,9.57c.74.55,1.72,1.17,2.61,1.76s1.83,1.16,2.76,1.72c1.86,1.11,3.75,2.18,5.68,3.17a101.64,101.64,0,0,0,24.32,9c2.1.52,4.24.87,6.37,1.26s4.28.63,6.44.77,4.31.28,6.47.35c.57,0,1.05,0,1.53,0s1-.07,1.45-.12a17.35,17.35,0,0,0,2.86-.62,18.24,18.24,0,0,0,9.4-6.73l.44-.6.46-.69.93-1.38,1.85-2.76,3.68-5.53q7.33-11.07,14.34-22.36c4.66-7.53,9.21-15.12,13.5-22.84a247,247,0,0,0,11.79-23.59,72.53,72.53,0,0,0,4.1-12.22l.29-1.52c.08-.51.12-1,.18-1.5a10.23,10.23,0,0,0,.06-1.45c0-.25,0-.45,0-.74l0-.91a23.65,23.65,0,0,1,.21-3.66l.54-3.33,2.14-13.16c.73-4.38,1.64-8.77,2.46-13.16A339.26,339.26,0,0,1,610,1042.1c1.65-4.14,3.22-8.33,5-12.44l5.48-12.22c1.95-4,4-8,6-12,1-2,2.09-3.94,3.18-5.88l3.3-5.83a332.22,332.22,0,0,1,30.42-44l4.31-5.11,2.16-2.56,1.07-1.28,1.14-1.23,9.09-9.81,9.54-9.38c1.55-1.6,3.27-3,4.92-4.53l5-4.45,2.5-2.23c.82-.75,1.72-1.41,2.58-2.13l5.19-4.21c1.73-1.39,3.45-2.82,5.2-4.19l5.27-4.07,21.09-16.28,42.17-32.55,84.35-65.1L890,764.4a20.7,20.7,0,0,0,4.5-4.7,21.37,21.37,0,0,0,1.64-2.82c.46-1,.88-2,1.33-3l5.34-12.2c7.18-16.25,14.55-32.41,22.29-48.4,3.88-8,7.84-15.94,12-23.78,2.08-3.93,4.21-7.82,6.45-11.66s4.54-7.65,7.09-11.28c.66-.9,1.28-1.82,2-2.68l1-1.3,1.12-1.25c.75-.82,1.64-1.54,2.41-2.3a18.44,18.44,0,0,0,2.11-2.55,69.2,69.2,0,0,0,6.15-11.76,241.93,241.93,0,0,0,14.73-51.06c.62-4.38,1.24-8.83.68-13.24s-1.06-8.82-1.74-13.2q-.51-3.29-1.1-6.57c-.43-2.17-.75-4.38-1.39-6.5A22.09,22.09,0,0,0,975.5,531a12.05,12.05,0,0,0-.78-1.46,15.77,15.77,0,0,0-.86-1.42,20,20,0,0,0-2.1-2.57c-.39-.4-.76-.81-1.16-1.19l-1.3-1c-.22-.17-.43-.35-.65-.51l-.71-.44-1.42-.87-1.51-.7-.75-.35-.8-.25-1.58-.51-1.63-.32-.82-.15-.83-.06-1.66-.11A21,21,0,0,0,944.55,523.24Z"/><path class="cls-2" d="M1605.57,1006h0a8.71,8.71,0,0,1-3.29,8.77c-21.72,16.24-32.41,29.49-32.41,29.49-8.94,9.69-17.62,40.86-20.39,51.49a8.48,8.48,0,0,1-3.74,5.15c-26.46,16.12-25.91,63.11-25,77.93a8.6,8.6,0,0,1-2.82,7c-12.32,10.84-18.52,34.09-20.43,42.56a8.6,8.6,0,0,0,.57,5.5c6.33,13.75.22,34.27-1.18,38.56a9.69,9.69,0,0,0-.36,1.7c-2.21,16.58-37.94,35.85-46.69,40.33a8.51,8.51,0,0,0-3.25,2.88c-8,12-25.37,43.64-30.88,53.77a8.71,8.71,0,0,1-5.66,4.33c-54.8,13-113.34-104.7-121-120.66a8.86,8.86,0,0,1-.85-3.85c.22-28.29,14.26-118.5,16.89-135.13a8.63,8.63,0,0,1,2.26-4.6c96.34-102.54,62.62-93.47,96.76-102.65,30.1-8.09,161-9.25,193-9.42A8.71,8.71,0,0,1,1605.57,1006Z"/><path d="M1605.57,1006a8.7,8.7,0,0,1-2.39,8c-2.21,1.89-4.61,3.54-6.85,5.39q-6.82,5.43-13.24,11.34a166.36,166.36,0,0,0-12.2,12.43c-1,1.09-1.87,2.22-2.75,3.37s-1.63,2.4-2.31,3.69a82.92,82.92,0,0,0-3.84,7.8c-2.33,5.32-4.28,10.81-6.08,16.33s-3.43,11.1-5,16.7l-1.12,4.21a9.44,9.44,0,0,1-1.87,4,8.51,8.51,0,0,1-1.63,1.54l-1.82,1.21a18.13,18.13,0,0,0-1.75,1.27c-.56.45-1.14.88-1.68,1.36a42.42,42.42,0,0,0-5.86,6.34,53.62,53.62,0,0,0-4.57,7.35,71.74,71.74,0,0,0-3.45,8c-1,2.72-1.78,5.5-2.5,8.3a122.46,122.46,0,0,0-2.87,17.11,164.84,164.84,0,0,0-.75,17.35q0,4.35.28,8.68l.07,1.08a11.61,11.61,0,0,1,0,1.18,9.78,9.78,0,0,1-.43,2.32,9,9,0,0,1-2.52,4,48.66,48.66,0,0,0-10.07,13.76,103.7,103.7,0,0,0-6.5,16c-.88,2.75-1.68,5.52-2.38,8.32-.36,1.4-.69,2.8-1,4.21a7.48,7.48,0,0,0,.12,3.76,9.25,9.25,0,0,0,.32.88c.13.28.28.68.42,1,.28.7.59,1.4.83,2.12a36.76,36.76,0,0,1,1.1,4.37,44.84,44.84,0,0,1,.6,4.45c.07,1.49.18,3,.14,4.46a65.41,65.41,0,0,1-.67,8.85q-.62,4.38-1.65,8.69c-.35,1.43-.72,2.86-1.14,4.28-.2.7-.48,1.46-.58,2-.07.3-.1.61-.16,1l-.22,1.18a23.41,23.41,0,0,1-4,8.35,66.4,66.4,0,0,1-12.52,12.65,155.71,155.71,0,0,1-14.38,10.18q-7.42,4.69-15.2,8.81l-1,.51a5.62,5.62,0,0,0-.74.45,6.56,6.56,0,0,0-1.27,1.14,5.82,5.82,0,0,0-.52.68l-.58.9-1.15,1.81c-1.52,2.44-3,4.91-4.48,7.41-5.86,10-11.44,20.18-17,30.35l-4.17,7.65-2.07,3.83-1,1.92a10.83,10.83,0,0,1-1.6,2.21,10.94,10.94,0,0,1-4.55,2.92,22.81,22.81,0,0,1-2.39.56c-.75.16-1.51.3-2.28.39a38.89,38.89,0,0,1-9.21.21,50.33,50.33,0,0,1-9-1.72,62.18,62.18,0,0,1-8.47-3.24,85,85,0,0,1-15.24-9.39,137.62,137.62,0,0,1-13.35-11.68c-4.2-4.13-8.17-8.48-12-13a309.94,309.94,0,0,1-21-28.12c-6.5-9.73-12.54-19.74-18.26-29.92q-4.28-7.65-8.29-15.43c-1.34-2.6-2.66-5.21-3.94-7.84l-1-2-.25-.52c-.09-.21-.19-.42-.27-.64a12,12,0,0,1-.43-1.32,11.14,11.14,0,0,1-.34-2.75l.07-2.24c.06-1.47.09-3,.17-4.43l.3-4.38c.16-2.94.49-5.83.74-8.74q.86-8.71,1.91-17.39c1.39-11.56,2.93-23.09,4.55-34.61s3.37-23,5.15-34.51l2.73-17.23,1.39-8.61.36-2.16.17-1.07c.06-.38.16-.85.27-1.26a10.61,10.61,0,0,1,2.57-4.46c16-16.84,31.71-34,46.53-51.8,7.4-8.93,14.56-18.06,21.22-27.55,1.67-2.36,3.3-4.76,5-7.16a72.63,72.63,0,0,1,5.27-7.09,19.14,19.14,0,0,1,3.47-3,22.81,22.81,0,0,1,4.07-2c2.79-1.06,5.61-1.78,8.42-2.54,1.42-.37,2.81-.77,4.23-1.09l4.31-.89,2.16-.44,2.17-.3,4.33-.6c2.89-.45,5.79-.64,8.68-1l4.35-.44,4.35-.33c11.59-1,23.21-1.45,34.82-2,23.23-1,46.48-1.54,69.72-2q17.43-.33,34.86-.49l17.44-.14,4.36,0a10.77,10.77,0,0,1,4.29.56A8.74,8.74,0,0,1,1605.57,1006Zm0,0a8.73,8.73,0,0,0-5.46-6.33,10.71,10.71,0,0,0-4.28-.54l-4.36,0-17.44.18q-17.43.23-34.86.59c-23.24.51-46.47,1.29-69.68,2.47-5.8.35-11.61.62-17.4,1.06l-8.69.63-8.68.76-4.33.39-4.33.49c-2.87.36-5.77.59-8.63,1.08l-4.29.65-2.15.32-2.11.46-4.21.93c-1.4.34-2.8.76-4.2,1.14-2.78.79-5.59,1.56-8.23,2.6a20.88,20.88,0,0,0-3.72,1.87,16.62,16.62,0,0,0-3.08,2.74,72.19,72.19,0,0,0-5,7c-1.61,2.42-3.21,4.85-4.86,7.25-6.57,9.63-13.65,18.9-21,28-14.64,18.12-30.17,35.48-46,52.57a7,7,0,0,0-1.71,3,6.87,6.87,0,0,0-.17.88l-.17,1.07-.32,2.16L1305,1128l-2.49,17.25q-2.45,17.25-4.74,34.52c-1.53,11.51-3,23-4.27,34.56s-2.48,23.1-2.87,34.52l-.06,2.12a6.33,6.33,0,0,0,.44,2.31c0,.12.1.24.16.36l.22.47.95,1.94q1.92,3.89,3.92,7.74,4,7.7,8.25,15.25c5.68,10.08,11.71,20,18.13,29.56a304.67,304.67,0,0,0,20.64,27.72,160.94,160.94,0,0,0,24.49,24,83.56,83.56,0,0,0,14.34,9,57.16,57.16,0,0,0,7.77,3,45.22,45.22,0,0,0,8.1,1.62,34.42,34.42,0,0,0,8.18-.12,19.77,19.77,0,0,0,2-.33,17.15,17.15,0,0,0,1.86-.41,6.47,6.47,0,0,0,2.72-1.7,7.23,7.23,0,0,0,1-1.31l1-1.9,2.1-3.82,4.24-7.63c5.67-10.16,11.44-20.26,17.46-30.25q2.26-3.75,4.63-7.45l1.22-1.85.61-.92a9.25,9.25,0,0,1,.82-1,10.21,10.21,0,0,1,2-1.73,11,11,0,0,1,1.14-.67l1-.49c5.13-2.63,10.17-5.45,15.08-8.47a152.6,152.6,0,0,0,14.2-9.77,64,64,0,0,0,12.1-11.88,20.69,20.69,0,0,0,3.58-7.24l.2-1c.06-.35.11-.77.21-1.17.21-.91.46-1.5.66-2.2.43-1.36.8-2.74,1.16-4.13.71-2.77,1.28-5.58,1.71-8.4a62.57,62.57,0,0,0,.76-8.52c.06-1.42,0-2.83-.07-4.25a39,39,0,0,0-.52-4.19,32.71,32.71,0,0,0-1-4.08c-.22-.67-.49-1.3-.74-2-.13-.33-.22-.61-.39-1a10,10,0,0,1-.41-1.16,9.69,9.69,0,0,1-.09-4.87c.33-1.42.69-2.84,1.07-4.26.75-2.83,1.6-5.63,2.53-8.41a105.38,105.38,0,0,1,6.83-16.19c.67-1.31,1.47-2.55,2.19-3.83l1.22-1.84c.4-.63.81-1.23,1.27-1.82a42.58,42.58,0,0,1,5.93-6.59,7.5,7.5,0,0,0,2.14-3.27,8.1,8.1,0,0,0,.38-2,8.3,8.3,0,0,0,0-1l0-1.09c-.14-2.91-.19-5.83-.17-8.75a164.36,164.36,0,0,1,1-17.46c1.33-11.56,3.89-23.16,9.29-33.57a54.33,54.33,0,0,1,4.69-7.4,43.15,43.15,0,0,1,6-6.39c.56-.48,1.15-.91,1.72-1.37a20,20,0,0,1,1.79-1.27,13.28,13.28,0,0,0,3.36-2.63,9.13,9.13,0,0,0,1.82-3.8l1.14-4.21a267.67,267.67,0,0,1,11.26-33,84.83,84.83,0,0,1,3.88-7.82c.68-1.28,1.52-2.48,2.32-3.69s1.82-2.28,2.77-3.38a168.6,168.6,0,0,1,12.25-12.4q6.42-5.89,13.27-11.31c2.24-1.84,4.65-3.49,6.86-5.37a8.78,8.78,0,0,0,2.23-3.68A9,9,0,0,0,1605.57,1006Z"/><path class="cls-3" d="M1412.49,1378.93c-16,4.11-24.67,8.33-28.42,10.45a6.36,6.36,0,0,1-4.85.6c-19.88-5.54-86.92-12.3-100.81-13.66a6.22,6.22,0,0,1-3.86-1.84c-15.33-16-84.94-27.85-84.94-27.85-43.51-10-90,13.17-94.63,15.57a4.7,4.7,0,0,1-.83.35c-17.08,5.83-21.81,13.6-23.1,17.83a6.27,6.27,0,0,1-4.59,4.15c-20.23,4.79-87.09,15.47-94.58,16.66a5.82,5.82,0,0,1-1.38.08c-29.31-1.75-64.85-52.88-69.73-60.1a6.19,6.19,0,0,1-.8-1.8c-5.2-19.47-44.08-65.87-48.5-71.1a5.67,5.67,0,0,1-.69-1.06c-16.95-32.14-140.67-59.35-149.88-61.34a6.51,6.51,0,0,1-1.06-.33c-18.72-7.72-72.08-5.37-96.85-3.77a6,6,0,0,1-4.8-10.19c35.23-34.08,157.69-66,171.82-69.6a6.55,6.55,0,0,1,2.68-.1c117.68,20.43,232.94,66.89,240.68,70a8.63,8.63,0,0,0,.86.28c298.73,74.63,239.84,59,298.78,74.65,49.37,13.1,91.08,81.53,103.36,103.49A5.91,5.91,0,0,1,1412.49,1378.93Z"/><path d="M1412.49,1378.93c-4.63,1.21-9.22,2.54-13.73,4.12a98.16,98.16,0,0,0-13.21,5.56,13,13,0,0,1-3.26,1.48,6.91,6.91,0,0,1-3.55-.2l-3.48-.86c-1.17-.26-2.34-.48-3.51-.73-4.69-1-9.41-1.71-14.13-2.46-18.91-2.88-37.91-5.06-56.93-7.12l-14.26-1.49-7.14-.7a14,14,0,0,1-1.79-.24,6.24,6.24,0,0,1-3.13-1.8l-1.31-1.21a52.74,52.74,0,0,0-12.28-7.23c-4.36-1.94-8.84-3.6-13.37-5.12-9.06-3-18.31-5.49-27.6-7.71s-18.66-4.16-28.07-5.85c-18.66-4.41-38.16-3.22-56.68,1.13a185.65,185.65,0,0,0-27.22,8.67q-3.31,1.33-6.57,2.81c-1.08.49-2.16,1-3.23,1.51l-1.6.78c-.55.26-1,.54-1.66.8a63.61,63.61,0,0,0-12.85,6,33.51,33.51,0,0,0-5.47,4.35,19.36,19.36,0,0,0-4,5.56c-.22.52-.43,1-.6,1.58a7,7,0,0,1-.86,1.84,7.29,7.29,0,0,1-3.1,2.56,9.26,9.26,0,0,1-1.86.56l-1.76.4c-1.17.27-2.34.54-3.51.78-9.38,2-18.79,3.7-28.21,5.41-18.83,3.39-37.69,6.58-56.56,9.69l-3.55.58a8.16,8.16,0,0,1-2.05.16l-1.87-.19-.93-.1c-.31,0-.61-.12-.91-.18l-1.83-.37c-1.19-.32-2.39-.65-3.56-1a60.39,60.39,0,0,1-13-6.63,133.39,133.39,0,0,1-22-18.81,253.64,253.64,0,0,1-18.74-21.93c-1.47-1.91-2.9-3.83-4.32-5.78l-2.1-2.93-1-1.49a19.06,19.06,0,0,1-1.08-1.67,7.37,7.37,0,0,1-.45-1.05l-.29-.94c-.18-.53-.33-1.07-.52-1.61l-.61-1.6c-.22-.54-.46-1.07-.69-1.6-1-2.12-2-4.21-3.17-6.26a242.28,242.28,0,0,0-15.64-23.78c-5.62-7.69-11.47-15.22-17.46-22.64q-4.5-5.57-9.1-11l-1.16-1.38a11.46,11.46,0,0,1-1.17-1.81,22.91,22.91,0,0,0-1.84-2.73,36.68,36.68,0,0,0-4.67-4.92,78.94,78.94,0,0,0-11.33-8.12c-4-2.44-8.21-4.63-12.46-6.7-8.52-4.12-17.34-7.69-26.25-11s-18-6.29-27.08-9.09c-18.22-5.6-36.69-10.44-55.25-14.79l-7-1.59-1.74-.38c-.31-.07-.54-.1-.92-.21l-1.18-.37-3.21-1.09a12.5,12.5,0,0,0-1.65-.45l-1.67-.4-1.68-.41-1.72-.29-3.45-.59-3.5-.43a267.15,267.15,0,0,0-28.36-1.54c-9.51-.08-19,.13-28.56.5q-7.15.29-14.29.68l-7.14.43-.44,0h-.53c-.41,0-.82,0-1.22,0l-1.23-.2c-.41-.12-.81-.26-1.2-.4a8.6,8.6,0,0,1-3.88-3.14,8.44,8.44,0,0,1-1.46-4.8,8.21,8.21,0,0,1,1.64-4.81c.26-.32.54-.63.81-.93a8.31,8.31,0,0,1,.72-.67l1.38-1.25c.93-.82,1.84-1.67,2.82-2.4l2.9-2.28,3-2.12c2-1.45,4.06-2.68,6.1-4a241.94,241.94,0,0,1,25.62-13.51,575.21,575.21,0,0,1,53.62-21.06c18.15-6.22,36.5-11.78,54.95-17q6.92-1.93,13.87-3.77l7-1.81c.62-.15,1-.3,1.94-.46a8.47,8.47,0,0,1,2.41-.05c.44.05.72.12,1,.17l.88.17,1.77.33c9.41,1.81,18.86,3.47,28.2,5.59,4.69,1,9.38,2,14,3.05l14,3.33c2.33.57,4.67,1.1,7,1.7l6.95,1.8,13.9,3.63c18.48,5.06,36.87,10.41,55.12,16.19s36.4,11.92,54.41,18.4c4.51,1.63,9,3.24,13.49,4.93s9,3.35,13.44,5.07,8.92,3.46,13.37,5.25l3.33,1.35.41.16.34.11.35.11.43.11,1.74.45,7,1.76q111.22,28.23,222.52,56.21c18.56,4.62,37.14,9.17,55.6,14.18l6.93,1.86c2.31.62,4.62,1.21,6.91,1.94,1.15.34,2.29.69,3.41,1.14s2.24.83,3.36,1.27c2.18,1,4.4,1.89,6.51,3s4.21,2.27,6.29,3.46c1,.61,2,1.27,3,1.91l1.51,1,1.48,1c4,2.65,7.73,5.65,11.43,8.68a205.31,205.31,0,0,1,20.5,20c6.4,7.11,12.37,14.6,18,22.29s11,15.64,16.07,23.76q3.79,6.08,7.36,12.31c.6,1,1.19,2.07,1.76,3.12a5.76,5.76,0,0,1,.62,3.48,6,6,0,0,1-1.52,3.19A6.55,6.55,0,0,1,1412.49,1378.93Zm0,0a6.41,6.41,0,0,0,3-1.81,5.87,5.87,0,0,0,1.51-3.18,5.65,5.65,0,0,0-.61-3.47c-.58-1-1.17-2.08-1.77-3.12q-3.57-6.22-7.38-12.3-7.6-12.16-16.11-23.72c-5.69-7.68-11.67-15.16-18.08-22.25a205.12,205.12,0,0,0-20.52-20,124.31,124.31,0,0,0-23.75-15.92c-2.11-1.12-4.32-2-6.5-3-1.11-.43-2.24-.83-3.36-1.25s-2.25-.78-3.4-1.11c-2.27-.71-4.59-1.3-6.9-1.91l-6.94-1.82c-18.48-4.92-37.08-9.37-55.66-13.91q-111.52-27.06-223-54.45l-7-1.71-1.74-.43a12.17,12.17,0,0,1-1.89-.6l-3.32-1.31q-6.66-2.61-13.38-5.12t-13.44-5c-4.49-1.65-9-3.23-13.5-4.81q-27-9.48-54.44-17.92c-18.26-5.62-36.64-10.81-55.1-15.7l-13.89-3.51-6.94-1.74c-2.32-.57-4.65-1.08-7-1.63l-13.95-3.22c-4.66-1-9.34-2-14-3-9.32-2.06-18.73-3.67-28.1-5.42l-3.4-.62a4.09,4.09,0,0,0-1.16,0c-.29,0-1,.25-1.55.38l-6.91,1.84q-6.91,1.86-13.8,3.82Q721.14,1138,694,1147.21a565.43,565.43,0,0,0-53.12,21,237.88,237.88,0,0,0-25.08,13.27c-2,1.29-4,2.49-5.87,3.88l-2.86,2-2.74,2.15c-.93.7-1.77,1.49-2.63,2.26l-1.28,1.15c-.19.18-.48.41-.59.55l-.37.41a3.27,3.27,0,0,0,0,3.84,3.5,3.5,0,0,0,1.61,1.31l.5.17.54.09h.57a1.61,1.61,0,0,0,.37,0l.45,0,7.18-.41c4.78-.27,9.57-.48,14.37-.67,9.58-.36,19.18-.55,28.8-.45a272.17,272.17,0,0,1,28.89,1.62l3.62.45,3.63.63,1.81.31,1.81.44,1.81.44a15.26,15.26,0,0,1,1.81.5l3.58,1.22a5.25,5.25,0,0,1,.52.17c.2.06.56.13.83.19l1.76.39,7,1.61q28,6.58,55.51,15.11c9.16,2.86,18.27,5.93,27.27,9.3s17.92,7,26.59,11.28c4.34,2.14,8.62,4.41,12.77,7A80.77,80.77,0,0,1,845,1257a39.64,39.64,0,0,1,5.14,5.51,24.7,24.7,0,0,1,2.13,3.23A8.22,8.22,0,0,0,853,1267l1.14,1.38c3.07,3.69,6.08,7.41,9.07,11.17,6,7.51,11.78,15.13,17.38,22.93a244.45,244.45,0,0,1,15.68,24.26c1.17,2.13,2.27,4.31,3.25,6.56.24.57.49,1.13.72,1.7l.65,1.75c.21.59.38,1.21.56,1.81l.24.78a4,4,0,0,0,.25.6c.14.3.54.84.86,1.33l1,1.46,2.05,2.92c1.38,1.93,2.79,3.85,4.22,5.74a251.69,251.69,0,0,0,18.34,21.82,131.23,131.23,0,0,0,21.36,18.58,57.86,57.86,0,0,0,12.41,6.44c1.09.38,2.2.7,3.31,1a32.87,32.87,0,0,0,3.38.62l1.7.2a6.44,6.44,0,0,0,1.51-.12l3.54-.55c18.89-3,37.77-6,56.61-9.24,9.42-1.63,18.84-3.28,28.19-5.17,1.17-.23,2.34-.48,3.5-.74l1.74-.38a7.89,7.89,0,0,0,1.57-.45,5.47,5.47,0,0,0,2.37-1.93,5.11,5.11,0,0,0,.67-1.39c.19-.6.43-1.19.68-1.77a21.24,21.24,0,0,1,4.37-6,35.36,35.36,0,0,1,5.77-4.52,65.26,65.26,0,0,1,13.14-6c.46-.17,1-.5,1.57-.75l1.63-.78c1.09-.52,2.18-1,3.28-1.5,2.19-1,4.41-1.89,6.64-2.78a186.88,186.88,0,0,1,27.47-8.5,144.8,144.8,0,0,1,28.5-3.65,117,117,0,0,1,14.38.54l3.57.42,3.56.57c2.37.42,4.67,1,7,1.37q14.12,2.63,28.07,6c9.29,2.26,18.54,4.78,27.6,7.85,4.53,1.55,9,3.23,13.39,5.2a53.18,53.18,0,0,1,12.32,7.34l1.31,1.23a6,6,0,0,0,1.37,1.09,5.73,5.73,0,0,0,1.63.65,11.14,11.14,0,0,0,1.76.24l7.13.73,14.27,1.52c19,2.1,38,4.31,56.92,7.21,4.72.76,9.44,1.53,14.12,2.49,1.17.25,2.35.47,3.51.74l3.48.86a7,7,0,0,0,3.53.21,12.53,12.53,0,0,0,3.25-1.48,98.13,98.13,0,0,1,13.22-5.53C1403.27,1381.46,1407.86,1380.13,1412.49,1378.93Z"/><path class="cls-4" d="M944,523.68a9.74,9.74,0,0,1,9.94-4.85c26.42,4.06,83.85,33.35,91.29,43,8.19,10.65,75.33,55.73,86,60.64s47.49,39.34,55.68,41.8,102.35,63.11,111.35,68.84c8.63,5.5,78,60.57,83.94,65.25a7.83,7.83,0,0,0,.83.59c24.08,15.15,74.93,73.7,78.76,78.14.16.18.32.35.49.52,12.08,12,79.17,71.42,86.44,77.86a9.49,9.49,0,0,0,1.38,1c11.47,7,37.61,31.89,51.44,45.37a9.74,9.74,0,0,1-2.56,15.73c-33.06,16.05-122.85,47.66-129,49.81-.23.08-.44.14-.67.2-29.82,7.87-103.86,80.26-108.6,84.92-.16.16-.33.31-.5.45-30.77,25.57-35.87,95.11-36.7,114.06a9.52,9.52,0,0,1-3.73,7.22c-6.2,4.67-10.9,11-13.8,15.65a9.68,9.68,0,0,1-9.87,4.41c-20.71-3.64-65.55-2.78-65.55-2.78-3.28-1.09,7.64,6.56-3.28-1.09-10-7-33-3.91-36.63-3.36-.32.05-.62.11-.93.19-17.82,4.59-65.06,23.93-65.06,23.93-11.63,3.88-43.9-11.18-51-14.61a9,9,0,0,0-3-.89c-17.68-1.82-37.49,7.38-45.25,11.45a9.63,9.63,0,0,1-7.2.71,95.1,95.1,0,0,0-12.95-3,9.64,9.64,0,0,1-7.38-5.48c-4.71-10.1-10.79-20.58-12.5-23.47a8.58,8.58,0,0,0-1-1.44c-18.74-21.21-84.32-56.93-88.72-59.32-.16-.08-.3-.17-.46-.27-20.11-12.58-82.53-35-87.84-36.88l-.73-.23c-24.11-6.52-69.5-13-69.5-13-22.27-2.78-48.48,3.11-55.85,4.94a9.59,9.59,0,0,1-3.88.2c-30.81-4.79-57,15.38-61.77,19.33a9.78,9.78,0,0,1-1.81,1.16c-5.46,2.78-9.11,7.56-11.15,10.93a9.67,9.67,0,0,1-6.44,4.53c-20.41,4-51.83,21.73-60.11,26.55a9.74,9.74,0,0,1-4.5,1.3l-2,.09a9.76,9.76,0,0,1-8.55-15.12c15.46-23.38,35.92-63.74,35.92-63.74,8.57-17.87,9.2-23.81,8.61-25.79a9.68,9.68,0,0,1-.2-4.72L594.92,981a9.82,9.82,0,0,1,3.72-5.85c32.77-24.45,245-186.52,268.43-204.38a9.61,9.61,0,0,0,3-3.88C878.46,747.18,924,663.17,930.59,651a9.1,9.1,0,0,1,1.79-2.34c23.08-21.4,12.91-101.58,10.42-118.8a9.71,9.71,0,0,1,1.17-6.2Z"/><path d="M944,523.68a9.83,9.83,0,0,1,3.69-3.69,9.72,9.72,0,0,1,5.06-1.27A67.29,67.29,0,0,1,963,520.86c3.4.92,6.75,2,10.08,3.16s6.62,2.4,9.89,3.7a366.29,366.29,0,0,1,38.22,17.95,184.11,184.11,0,0,1,18,11,50.09,50.09,0,0,1,4.15,3.27c1.36,1.14,2.31,2.67,3.6,3.86a100.64,100.64,0,0,0,8,6.91c5.5,4.39,11.17,8.58,16.87,12.7s11.48,8.15,17.28,12.14c11.62,8,23.33,15.78,35.35,23.11,1.51.91,3,1.8,4.56,2.65s3.17,1.53,4.66,2.49c3,1.87,5.81,4,8.61,6.13,5.58,4.3,11,8.79,16.45,13.25s10.87,9,16.44,13.26c2.79,2.14,5.59,4.27,8.57,6.12a23.19,23.19,0,0,0,2.3,1.24c.76.31,1.66.59,2.44,1,1.61.76,3.14,1.62,4.69,2.47,6.14,3.46,12.17,7.1,18.18,10.76s12,7.37,18,11.09q17.94,11.16,35.76,22.49L1283,722.92l8.91,5.68,4.45,2.83,2.23,1.42,2.19,1.51c5.72,4.14,11.3,8.43,16.88,12.72L1334.32,760l33.27,26,8.29,6.53,4.15,3.27,2.07,1.63c.35.29.69.53,1,.76l1.08.74c6,3.88,11.29,8.56,16.59,13.22,10.48,9.45,20.41,19.48,30.14,29.67s19.21,20.62,28.53,31.19l1.75,2c.57.64,1.18,1.38,1.7,1.92,1.27,1.2,2.51,2.43,3.81,3.62,2.56,2.4,5.16,4.77,7.76,7.15l15.67,14.14,31.54,28.1,15.81,14,7.92,7,4,3.49c.67.5,1.16.88,2,1.41s1.53,1,2.24,1.49a212.28,212.28,0,0,1,16.51,13.38c5.31,4.66,10.52,9.42,15.67,14.23s10.26,9.67,15.33,14.57l1,.92c.16.16.31.29.48.47l.51.56a10.64,10.64,0,0,1,1.68,2.5,10.89,10.89,0,0,1,1.06,5.89,11.21,11.21,0,0,1-2.11,5.6,11.77,11.77,0,0,1-2.12,2.17,8.81,8.81,0,0,1-1.25.84l-.66.37c-.22.12-.4.2-.61.3-12.79,6.08-25.86,11.37-39,16.59s-26.28,10.2-39.47,15.13-26.43,9.76-39.69,14.53l-10,3.55c-.36.14-1,.32-1.39.45l-1.19.38a20.9,20.9,0,0,0-2.37.84c-.79.33-1.58.62-2.36,1l-2.31,1.11a144,144,0,0,0-17.75,10.9c-11.45,8-22.35,16.9-33,26s-21.11,18.55-31.37,28.15q-7.7,7.2-15.26,14.55l-1.9,1.86-2,1.8c-1.29,1.08-2.41,2.37-3.6,3.57a67.4,67.4,0,0,0-6.19,8.12,101.11,101.11,0,0,0-9.35,18.41,167.87,167.87,0,0,0-6.4,19.83,282.5,282.5,0,0,0-7.23,41.23c-.36,3.48-.68,7-.93,10.45l-.34,5.23-.14,2.62c-.06.89,0,1.66-.18,2.83a12,12,0,0,1-2.56,6,11.73,11.73,0,0,1-1.14,1.2c-.39.37-.89.74-1.17,1-.66.51-1.29,1-1.93,1.59a53.07,53.07,0,0,0-6.88,7.39c-1,1.34-2,2.72-3,4.14l-.69,1.07-.35.54-.44.66a12.33,12.33,0,0,1-2.24,2.38,12,12,0,0,1-6,2.58,11.63,11.63,0,0,1-3.28,0l-2.64-.39c-6.81-1-13.81-1.45-20.79-1.81-14-.65-28.06-.75-42.07-.55h-.49l-.32-.14h0c-.78,1.59,3.73-2.27,2.3-3.21-.18-.37-.16-.26-.14-.25l.17.17c.29.28.68.62,1.07,1l.32.27c-.71,1.93,2-3.9-1.36,4.53-2.5-.75-1-.41-1.63-.62l-.36-.25-1.36-.94-2.67-1.86c-.46-.34-.81-.49-1.22-.75a8.16,8.16,0,0,0-1.24-.67,35.6,35.6,0,0,0-11.77-2.65,89.06,89.06,0,0,0-12.65,0c-2.11.15-4.23.35-6.33.62l-1.57.21a10.08,10.08,0,0,0-1.33.27l-3.06.86c-8.18,2.47-16.33,5.43-24.43,8.44s-16.19,6.16-24.24,9.36l-12,4.84-.85.34-1,.28a17.92,17.92,0,0,1-1.93.35,24.55,24.55,0,0,1-3.62.1,46,46,0,0,1-6.84-.86,104.93,104.93,0,0,1-12.85-3.55c-4.17-1.41-8.27-3-12.32-4.65s-8.06-3.44-12-5.3l-1.48-.71-.75-.35c-.21-.11-.38-.18-.57-.26a7.25,7.25,0,0,0-1.13-.34c-.19,0-.35-.06-.57-.08l-.77,0a48.76,48.76,0,0,0-6.17-.09,80.26,80.26,0,0,0-24.47,5.7,119.89,119.89,0,0,0-11.63,5.21l-.71.37c-.28.14-.6.3-.91.43a12.24,12.24,0,0,1-1.94.64,12.07,12.07,0,0,1-4.06.26,12.26,12.26,0,0,1-2-.38l-1.58-.44c-1-.29-2.06-.57-3.09-.83-2.06-.53-4.12-1-6.18-1.38l-1.53-.25-.38-.06-.5-.09c-.34,0-.67-.14-1-.22a12.21,12.21,0,0,1-6.59-4.55,12.37,12.37,0,0,1-1-1.74l-.72-1.51q-1.38-2.91-2.85-5.77-2.94-5.75-6.13-11.37l-1.6-2.81-.81-1.39-.4-.7c-.11-.18-.22-.36-.34-.52a4.06,4.06,0,0,0-.36-.46c-.11-.14-.34-.36-.51-.54l-1.09-1.12-2.19-2.24a185.67,185.67,0,0,0-20.13-15.9c-3.5-2.5-7.11-4.87-10.69-7.27s-7.24-4.71-10.92-7q-11-6.89-22.23-13.39c-3.74-2.18-7.5-4.32-11.27-6.45l-5.66-3.17-2.84-1.56-.75-.42-.77-.45-1.37-.8A236.5,236.5,0,0,0,869,1204.61c-15.85-6.9-32-13.17-48.23-19.25l-12.19-4.49c-1-.36-2.07-.78-2.9-1l-3.12-.8c-2.07-.55-4.18-1-6.27-1.51-8.41-1.91-16.91-3.55-25.42-5.09s-17.07-3-25.62-4.29l-6.42-1-1.61-.23c-.5-.09-1-.13-1.56-.18l-3.15-.32c-4.23-.3-8.5-.35-12.77-.23A183.66,183.66,0,0,0,694.2,1169c-4.23.75-8.42,1.62-12.62,2.65a11.71,11.71,0,0,1-3.88.28l-3.27-.37c-1-.1-2.08-.24-3.13-.33l-3.15,0a53.08,53.08,0,0,0-6.3.24,29.88,29.88,0,0,0-3.14.37l-3.13.47a80.33,80.33,0,0,0-12.23,3.38c-2,.66-3.94,1.57-5.91,2.36s-3.86,1.78-5.73,2.81a96,96,0,0,0-10.87,6.69c-.87.61-1.72,1.24-2.56,1.89-.43.32-.83.65-1.24,1l-.31.24-.4.31c-.27.2-.54.38-.81.55s-.55.31-.82.45l-.68.37c-.44.22-.86.5-1.29.76a27.44,27.44,0,0,0-2.42,1.79,29.41,29.41,0,0,0-4.18,4.45c-.63.82-1.22,1.67-1.76,2.54a16.5,16.5,0,0,1-1,1.5,12.34,12.34,0,0,1-1.3,1.41,11.61,11.61,0,0,1-3.21,2.09,11.79,11.79,0,0,1-1.82.61l-1.64.37c-1,.24-2.06.45-3.09.72l-3.07.87c-4.08,1.26-8.13,2.67-12.11,4.31-8,3.2-15.77,7-23.46,10.88q-5.76,3-11.43,6.12c-1.91,1-3.72,2.1-5.68,3.21a11.34,11.34,0,0,1-3.57,1.21,13.49,13.49,0,0,1-1.81.15l-1.64.06a11.41,11.41,0,0,1-7.08-2.2,11.55,11.55,0,0,1-4.19-6.09,11.12,11.12,0,0,1,.48-7.39,11.82,11.82,0,0,1,.87-1.65c.3-.52.59-.93.89-1.39l1.76-2.72c4.66-7.27,9-14.74,13.31-22.27s8.44-15.13,12.52-22.77q3.06-5.75,6.06-11.51l1.48-2.87,1.38-2.91c.92-1.95,1.81-3.92,2.66-5.89a79.24,79.24,0,0,0,4.28-12,15.86,15.86,0,0,0,.45-3,4.34,4.34,0,0,0-.1-1.21,10.18,10.18,0,0,1-.36-1.81,10.84,10.84,0,0,1,.18-3.64l.66-3.18,5.33-25.48L591.4,993.49l2.66-12.75a10.67,10.67,0,0,1,3.64-6l5.22-4,20.74-15.72,41.5-31.43,83-62.87,82.94-62.93,20.73-15.74,10.37-7.87c1.72-1.32,3.47-2.62,5.16-3.94a9.34,9.34,0,0,0,2-2.44c.52-.93.91-1.95,1.38-2.93,3.6-7.9,7.58-15.62,11.52-23.35s8-15.4,12.05-23.07q12.12-23,24.5-45.93L925,661.16l3.1-5.73,1.55-2.86a22.69,22.69,0,0,1,1.65-2.81,56.18,56.18,0,0,0,4.28-4.88,24.45,24.45,0,0,0,1.78-2.72,25.29,25.29,0,0,0,1.53-2.86,64.45,64.45,0,0,0,4.31-12.24,144,144,0,0,0,3.55-25.74c.46-8.66.47-17.35.14-26s-.94-17.32-1.78-26q-.64-6.48-1.45-12.93l-.87-6.45A9.74,9.74,0,0,1,944,523.68Zm0,0a9.74,9.74,0,0,0-1.16,6.28l.88,6.45q.82,6.45,1.47,12.93c.85,8.63,1.49,17.29,1.81,26s.34,17.36-.13,26a143.43,143.43,0,0,1-3.51,25.76A64.89,64.89,0,0,1,939,639.35a30.46,30.46,0,0,1-1.53,2.88A24.53,24.53,0,0,1,935.7,645a52.55,52.55,0,0,1-4.28,4.89,23.51,23.51,0,0,0-1.63,2.8l-1.55,2.86-3.09,5.72L919,672.68q-12.32,22.94-24.46,46-6.06,11.52-12,23.11c-3.92,7.74-7.87,15.47-11.45,23.36-.46,1-.84,2-1.38,3a9.69,9.69,0,0,1-2.1,2.54c-1.72,1.36-3.45,2.65-5.17,4l-10.34,7.9-20.69,15.8-82.74,63.21L666,924.77l-41.34,31.64L604,972.23l-5.13,3.93a8.83,8.83,0,0,0-3,5l-2.6,12.75-20.79,102-5.19,25.5-.65,3.19a8.46,8.46,0,0,0-.14,2.83,9.14,9.14,0,0,0,.29,1.38,7,7,0,0,1,.22,2,18.71,18.71,0,0,1-.51,3.46,81.32,81.32,0,0,1-4.36,12.5q-1.29,3-2.66,6l-1.4,3-1.49,2.91q-3,5.8-6,11.56-6.09,11.54-12.44,22.91c-4.27,7.57-8.62,15.1-13.29,22.47l-1.77,2.75c-.28.45-.61.94-.85,1.36a9.45,9.45,0,0,0-.64,1.22,8.1,8.1,0,0,0-.32,5.34,8.53,8.53,0,0,0,3.08,4.43,8.3,8.3,0,0,0,5.12,1.56l1.61-.07a9.93,9.93,0,0,0,1.43-.12,8.27,8.27,0,0,0,2.56-.88c1.8-1,3.75-2.17,5.63-3.22q5.7-3.2,11.49-6.22c7.74-4,15.58-7.83,23.69-11.13,4-1.69,8.18-3.16,12.38-4.48l3.19-.92c1.07-.29,2.16-.51,3.24-.77l1.54-.36a8.74,8.74,0,0,0,1.25-.42,7.79,7.79,0,0,0,2.21-1.46,7.66,7.66,0,0,0,.9-1c.28-.37.47-.67.8-1.2.6-1,1.24-1.91,1.93-2.82a32.31,32.31,0,0,1,4.69-5,31.78,31.78,0,0,1,2.79-2.1c.5-.3,1-.62,1.51-.9l.75-.4c.22-.11.42-.23.61-.34s.37-.24.53-.36l.57-.46c.44-.35.87-.71,1.31-1,.87-.69,1.77-1.34,2.66-2a99.63,99.63,0,0,1,11.26-7c1.92-1.08,3.94-2,5.93-3s4.05-1.79,6.16-2.49a84.58,84.58,0,0,1,12.81-3.61l3.31-.51a30.84,30.84,0,0,1,3.31-.41,57.59,57.59,0,0,1,6.69-.29l3.36,0c1.11.08,2.23.22,3.34.33l3.2.34a8.09,8.09,0,0,0,2.58-.2c4.23-1.06,8.53-2,12.83-2.76a187.5,187.5,0,0,1,26.13-3,130,130,0,0,1,13.24.2l3.33.32c.56.06,1.11.1,1.67.19l1.62.23,6.45,1q12.89,2,25.73,4.23c8.57,1.53,17.12,3.15,25.64,5.06,2.12.51,4.26,1,6.38,1.51l3.19.82c1.27.34,2.22.74,3.25,1.09l12.25,4.47c16.29,6,32.52,12.3,48.52,19.21a239.42,239.42,0,0,1,23.66,11.48l1.45.84.63.36c.15.1.45.25.67.38l2.87,1.56,5.7,3.17c3.8,2.13,7.57,4.29,11.34,6.47q11.28,6.54,22.37,13.45c3.71,2.28,7.36,4.67,11,7s7.27,4.82,10.83,7.36a189.78,189.78,0,0,1,20.7,16.33l2.36,2.41,1.18,1.21c.21.22.38.37.61.64s.44.55.64.83.38.56.54.84l.42.71.82,1.42,1.63,2.85q3.23,5.7,6.23,11.53,1.5,2.92,2.92,5.9l.68,1.43a8,8,0,0,0,.63,1,7.27,7.27,0,0,0,1.73,1.68,7.12,7.12,0,0,0,2.18,1c.2,0,.39.1.59.13l.31,0,.42.06,1.68.28c2.21.4,4.38.9,6.52,1.44,1.07.28,2.14.56,3.2.86l1.55.44a7,7,0,0,0,1.2.22,7.49,7.49,0,0,0,2.41-.15,9,9,0,0,0,1.14-.38c.19-.08.35-.17.56-.27l.74-.38a126.23,126.23,0,0,1,12.1-5.44,85.39,85.39,0,0,1,26-6.06,53.77,53.77,0,0,1,6.83.1l.86.06a9.47,9.47,0,0,1,1,.15,11.48,11.48,0,0,1,2,.59c.31.12.64.27.91.4l.73.35,1.45.69q5.85,2.73,11.8,5.2c4,1.64,8,3.18,12,4.55a98.76,98.76,0,0,0,12.22,3.39,40.23,40.23,0,0,0,6.06.78,20.88,20.88,0,0,0,2.87-.07c.42-.08.92-.12,1.27-.23l.55-.13.67-.27,12.1-4.85c8.08-3.19,16.18-6.34,24.34-9.37s16.34-6,24.77-8.52l3.21-.9a16.09,16.09,0,0,1,1.86-.37l1.65-.23c2.2-.28,4.41-.48,6.62-.64a94.53,94.53,0,0,1,13.36,0,40.19,40.19,0,0,1,13.47,3.12,11.57,11.57,0,0,1,1.62.87c.51.32,1.13.65,1.54,1l2.66,1.86,1.32.92.32.21c-.4-.07,1.31.44-1-.19-3.52,8.24-1,2.23-1.92,4l-.3-.26c-.43-.37-.86-.74-1.34-1.22-.12-.12-.25-.25-.4-.42a3.85,3.85,0,0,1-.61-.91c-1.63-1.25,3.27-5.29,2.74-3.6a4.32,4.32,0,0,1,.84.21l-.81-.13c14.15-.19,28.25-.07,42.4.6,7.07.37,14.14.84,21.26,1.9l2.59.4a7.26,7.26,0,0,0,5.6-1.55,7.53,7.53,0,0,0,1.37-1.45l.3-.43.36-.58.75-1.13c1-1.51,2.08-3,3.2-4.42a58,58,0,0,1,7.52-8c.7-.61,1.41-1.2,2.15-1.76a9.38,9.38,0,0,0,.87-.71,6.5,6.5,0,0,0,.68-.71,7.29,7.29,0,0,0,1.57-3.63c.08-.58.1-1.57.15-2.44l.15-2.66.37-5.3c.26-3.54.6-7.06,1-10.59a286.89,286.89,0,0,1,7.47-41.88,172.12,172.12,0,0,1,6.63-20.32,106.25,106.25,0,0,1,9.81-19.16,71.41,71.41,0,0,1,6.63-8.63c1.28-1.3,2.49-2.67,3.9-3.86l1.93-1.73,1.88-1.82q7.6-7.37,15.37-14.55c10.35-9.58,20.87-19,31.65-28.11s21.8-18,33.45-26.07a148,148,0,0,1,18.28-11.09l2.45-1.15c.82-.38,1.69-.69,2.53-1a27.5,27.5,0,0,1,2.6-.91l1.33-.41c.42-.14.66-.19,1.13-.36l10-3.5q19.9-7.05,39.72-14.32c13.21-4.86,26.39-9.8,39.49-14.92s26.17-10.35,38.84-16.3l.58-.28.49-.28a5.79,5.79,0,0,0,.93-.62,8,8,0,0,0,3.15-5.74,8,8,0,0,0-.76-4.37,7.94,7.94,0,0,0-1.24-1.86l-.38-.42c-.13-.15-.31-.31-.46-.46l-.94-.92q-7.55-7.38-15.22-14.62c-5.12-4.81-10.28-9.58-15.54-14.24s-10.59-9.24-16.22-13.29c-.7-.52-1.43-.95-2.14-1.44a28.32,28.32,0,0,1-2.3-1.66l-4-3.51-7.88-7-15.75-14.08-31.41-28.25-15.61-14.24c-2.59-2.39-5.18-4.78-7.74-7.2-1.3-1.2-2.55-2.45-3.83-3.68-.7-.73-1.19-1.35-1.79-2l-1.73-2q-13.89-15.88-28.34-31.28c-9.66-10.22-19.52-20.27-29.9-29.73-5.24-4.65-10.52-9.35-16.35-13.16l-1.1-.77a12.39,12.39,0,0,1-1.09-.82l-2.07-1.64-4.13-3.29L1366.8,787l-33.14-26.2-16.63-13c-5.57-4.31-11.13-8.64-16.8-12.78l-2.15-1.49-2.22-1.44-4.44-2.85-8.88-5.72-17.79-11.38q-17.8-11.37-35.68-22.6-9-5.61-18-11.14c-6-3.68-12-7.34-18.14-10.8-1.53-.86-3.07-1.72-4.64-2.47-.79-.41-1.58-.65-2.44-1a24,24,0,0,1-2.34-1.28c-3-1.88-5.8-4-8.59-6.17-5.56-4.33-11-8.83-16.41-13.31s-10.84-9-16.4-13.3c-2.79-2.14-5.6-4.27-8.57-6.14-1.47-1-3.11-1.62-4.64-2.5s-3.06-1.75-4.57-2.66c-12-7.34-23.72-15.19-35.33-23.15q-8.7-6-17.27-12.16c-5.71-4.13-11.37-8.32-16.87-12.72a100.9,100.9,0,0,1-8-6.93c-1.3-1.2-2.24-2.73-3.6-3.85a44.91,44.91,0,0,0-4.13-3.27,183.9,183.9,0,0,0-18-11,363.3,363.3,0,0,0-38.2-18c-3.27-1.3-6.56-2.55-9.88-3.71s-6.67-2.25-10.07-3.17a66.63,66.63,0,0,0-10.32-2.15,9.71,9.71,0,0,0-5.06,1.26A9.9,9.9,0,0,0,944,523.68Z"/></svg>