<svg xmlns="http://www.w3.org/2000/svg" xmlns:xlink="http://www.w3.org/1999/xlink" viewBox="0 0 1920 1920"><defs><style>.cls-1,.cls-2,.cls-3{stroke:#000;stroke-miterlimit:10;stroke-width:5px;}.cls-1{fill:url(#linear-gradient);}.cls-2{fill:none;}.cls-3{fill:url(#linear-gradient-2);}</style><linearGradient id="linear-gradient" x1="540.34" y1="744.55" x2="1410.71" y2="1296.09" gradientUnits="userSpaceOnUse"><stop offset="0" stop-color="#005d1d"/><stop offset="0.04" stop-color="#066021"/><stop offset="0.1" stop-color="#17672b"/><stop offset="0.16" stop-color="#32743d"/><stop offset="0.22" stop-color="#508250"/><stop offset="0.45" stop-color="#00531a"/><stop offset="0.47" stop-color="#135923"/><stop offset="0.57" stop-color="#506d41"/><stop offset="0.64" stop-color="#767953"/><stop offset="0.68" stop-color="#857e5a"/><stop offset="0.87" stop-color="#688055"/><stop offset="1" stop-color="#464646"/></linearGradient><linearGradient id="linear-gradient-2" x1="824.69" y1="1170.13" x2="991.42" y2="1275.78" gradientUnits="userSpaceOnUse"><stop offset="0" stop-color="#1e1eba"/><stop offset="0.06" stop-color="#2421b5"/><stop offset="0.13" stop-color="#352ba6"/><stop offset="0.21" stop-color="#503b8e"/><stop offset="0.3" stop-color="#76516d"/><stop offset="0.35" stop-color="#8c5d5a"/><stop offset="0.4" stop-color="#6d467e"/><stop offset="0.49" stop-color="#3c20b7"/><stop offset="0.56" stop-color="#1d09db"/><stop offset="0.59" stop-color="#1100e9"/><stop offset="0.64" stop-color="#2115df"/><stop offset="0.7" stop-color="#3530d2"/><stop offset="0.76" stop-color="#4240cb"/><stop offset="0.8" stop-color="#4646c8"/><stop offset="1" stop-color="#464646"/></linearGradient></defs><g id="Layer_3" data-name="Layer 3"><path class="cls-1" d="M1206.7,687.1C1130.76,643.23,1051.45,547,968.76,543.66s-592.31,378-604.13,467.44,101.25,192.38,131.63,197.44c24.12,4,132.29-27.57,163.62-36.5,5.11-1.46,8.18-2.31,8.5-2.31,30.38,0,148.5,18.56,167.07,37.12s54,140.06,108,163.69,142.87-31.88,163.68-38.81c30.38-10.13,101.25-16.88,126.57-3.38s108,43.88,131.62,35.44,108-109.69,111.38-150.19,113.06-189,69.18-229.5-113.06-135-167.06-173.81S1206.7,687.1,1206.7,687.1Z"/><path class="cls-2" d="M750.23,1079.45c-17.72,37.12-81.85,90.28-81.85,90.28"/><path class="cls-3" d="M807.6,1193.51c53.16,12.65,202.5,59.9,202.5,59.9"/><path class="cls-2" d="M1545.88,984.1c-27,58.5-114.75,96.75-114.75,96.75"/><path class="cls-2" d="M958.61,544.35c29.72,40.16-37.43,125-37.43,125"/></g></svg>