<svg xmlns="http://www.w3.org/2000/svg" xmlns:xlink="http://www.w3.org/1999/xlink" viewBox="0 0 1920 1920"><defs><style>.cls-1{fill:url(#linear-gradient);}.cls-2{fill:url(#linear-gradient-2);}.cls-3{fill:url(#linear-gradient-3);}.cls-4{fill:url(#linear-gradient-4);}</style><linearGradient id="linear-gradient" x1="540.34" y1="744.55" x2="1410.71" y2="1296.09" gradientUnits="userSpaceOnUse"><stop offset="0" stop-color="#002916"/><stop offset="0.04" stop-color="#002f18"/><stop offset="0.1" stop-color="#00401d"/><stop offset="0.17" stop-color="#005b25"/><stop offset="0.25" stop-color="#008131"/><stop offset="0.25" stop-color="#008331"/><stop offset="0.4" stop-color="#006b39"/><stop offset="0.51" stop-color="#005d3e"/><stop offset="0.53" stop-color="#0c6644"/><stop offset="0.59" stop-color="#318158"/><stop offset="0.66" stop-color="#4c9466"/><stop offset="0.71" stop-color="#5ca06e"/><stop offset="0.75" stop-color="#62a471"/><stop offset="1" stop-color="#00472d"/></linearGradient><linearGradient id="linear-gradient-2" x1="541.64" y1="938.73" x2="729.94" y2="938.73" gradientTransform="matrix(1.17, -0.12, 0.02, 1.01, 147.2, -237.27)" gradientUnits="userSpaceOnUse"><stop offset="0" stop-color="#9087ff"/><stop offset="1" stop-color="#fff"/></linearGradient><linearGradient id="linear-gradient-3" x1="-1912.43" y1="1137" x2="-1772.49" y2="1137" gradientTransform="matrix(0.84, 0.54, -0.67, 1.03, 2792.28, 954.23)" xlink:href="#linear-gradient-2"/><linearGradient id="linear-gradient-4" x1="1594.68" y1="4623.69" x2="1734.62" y2="4623.69" gradientTransform="matrix(0.78, -1.25, 1.04, 0.65, -4722.67, 331.81)" xlink:href="#linear-gradient-2"/></defs><g id="Layer_3" data-name="Layer 3"><path class="cls-1" d="M1206.7,687.1C1130.76,643.23,1051.45,547,968.76,543.66s-592.31,378-604.13,467.44,101.25,192.38,131.63,197.44c24.12,4,132.29-27.57,163.62-36.5,5.11-1.46,8.18-2.31,8.5-2.31,30.38,0,148.5,18.56,167.07,37.12s54,140.06,108,163.69,142.87-31.88,163.68-38.81c30.38-10.13,101.25-16.88,126.57-3.38s108,43.88,131.62,35.44,108-109.69,111.38-150.19,113.06-189,69.18-229.5-113.06-135-167.06-173.81S1206.7,687.1,1206.7,687.1Z"/><path d="M1206.56,687.31c-7.16-4.18-14.17-8.64-21-13.31s-13.6-9.53-20.23-14.54c-13.29-10-26.22-20.37-39.21-30.7s-26-20.69-39.29-30.57q-10-7.46-20.26-14.43t-21-13.27c-7.19-4.11-14.47-8.07-22-11.49a183.8,183.8,0,0,0-23.13-8.83,142,142,0,0,0-24.19-4.95l-6.15-.44a29.79,29.79,0,0,0-6,.13,71.23,71.23,0,0,0-12,2.55,195.76,195.76,0,0,0-23.13,8.76c-7.56,3.35-15,7-22.36,10.77-14.71,7.6-29.13,15.79-43.37,24.28-28.48,17-56.26,35.12-83.75,53.67q-20.61,13.93-40.93,28.3t-40.45,29q-80.37,58.69-157.16,122.1c-25.49,21.21-50.64,42.85-75,65.32-12.19,11.24-24.2,22.67-35.88,34.43s-23.06,23.8-33.71,36.46c-5.33,6.32-10.46,12.81-15.21,19.55a118.28,118.28,0,0,0-12.32,21.28,49.91,49.91,0,0,0-2,5.72,35.16,35.16,0,0,0-1.08,5.94,96.8,96.8,0,0,0-.69,12.28,120.17,120.17,0,0,0,2.73,24.48c3.42,16.14,9.73,31.58,17.44,46.19a277.39,277.39,0,0,0,27.29,41.39,333.89,333.89,0,0,0,33.6,36.53c6,5.65,12.33,11.06,18.86,16.13a143.23,143.23,0,0,0,20.64,13.62,57.13,57.13,0,0,0,5.58,2.56,25.69,25.69,0,0,0,5.81,1.63,58.92,58.92,0,0,0,12.23-.15c8.21-.84,16.38-2.25,24.51-3.86,16.25-3.23,32.38-7.15,48.45-11.26s32.07-8.51,48.05-13l23.92-6.87c4-1.15,8-2.32,12-3.43l1.54-.41a4.16,4.16,0,0,1,1-.15l.79,0c1,0,2.1,0,3.14.07,2.09.07,4.17.2,6.25.33,16.61,1.23,33.09,3.47,49.52,6s32.77,5.6,49,9.23c8.12,1.82,16.2,3.8,24.22,6.09a183.87,183.87,0,0,1,23.7,8.27l2.87,1.37c1,.46,1.87,1,2.81,1.53a30.22,30.22,0,0,1,5.35,3.83,10,10,0,0,1,1.15,1.2l1.1,1.24,1.91,2.61c1.16,1.78,2.31,3.56,3.34,5.39,4.2,7.29,7.74,14.82,11.32,22.32,7.09,15,14,30.13,21.39,44.93a406,406,0,0,0,24.42,43.08,185.21,185.21,0,0,0,14.82,19.66,104.24,104.24,0,0,0,17.86,16.54l1.22.89,1.29.79,2.56,1.58a23.31,23.31,0,0,0,2.65,1.42l2.68,1.33c.91.43,1.87.73,2.8,1.11s1.86.73,2.81,1l2.9.83a28.92,28.92,0,0,0,2.91.76,88.75,88.75,0,0,0,24.15,1.82,146.7,146.7,0,0,0,24.24-3.46,231.46,231.46,0,0,0,23.71-6.71,428.82,428.82,0,0,0,45.73-19l22.44-10.79a98.42,98.42,0,0,1,11.76-4.93c4-1.31,8.11-2.38,12.2-3.34a313.46,313.46,0,0,1,49.67-6.92c8.35-.52,16.72-.72,25.11-.48a154.26,154.26,0,0,1,25.17,2.59,66,66,0,0,1,12.41,3.7c1,.43,2,1,3,1.42l2.71,1.39q2.74,1.37,5.54,2.65c7.47,3.43,15.12,6.56,22.82,9.53,15.42,5.92,31.1,11.22,47,15.58,8,2.18,16,4.12,24,5.51,4,.7,8.07,1.28,12.09,1.57a51.86,51.86,0,0,0,11.78-.23l1.4-.23c.44-.11.86-.25,1.3-.37a14.06,14.06,0,0,0,2.5-1,39.56,39.56,0,0,0,5-3,106.55,106.55,0,0,0,9.44-7.61c6.1-5.44,11.9-11.3,17.53-17.32,11.24-12.06,21.83-24.77,31.86-37.89a409.16,409.16,0,0,0,27.8-40.89,192,192,0,0,0,11.17-21.84c.84-1.86,1.47-3.78,2.2-5.66.38-.94.62-1.91.93-2.87s.65-1.9.85-2.87l.67-2.89c.25-1,.3-1.92.46-2.88l.2-1.44.2-1.68c.16-1.11.36-2.2.6-3.26a90.13,90.13,0,0,1,3.82-12.23c1.5-4,3.15-7.8,4.86-11.62,3.42-7.64,7.1-15.11,10.84-22.54,7.47-14.86,15.23-29.53,22.67-44.34s14.65-29.71,21-45c3.19-7.61,6.15-15.31,8.72-23.12a162.37,162.37,0,0,0,6.06-23.79c1.33-8,1.84-16.23.3-24a32,32,0,0,0-4.21-10.88,21.54,21.54,0,0,0-1.67-2.37l-.91-1.13c-.32-.36-.67-.7-1-1l-1-1-1.13-1.09-2.24-2.18c-12-11.64-23.1-24-34.11-36.47-21.93-25-43.24-50.41-65.58-74.93-11.16-12.27-22.64-24.23-34.63-35.67l-4.53-4.24c-1.52-1.41-3-2.86-4.59-4.18-3.15-2.69-6.25-5.43-9.42-8.09l-9.81-7.6-10.09-7.29-80.79-58.22Zm.27-.42,81.06,57.87,81.19,57.7,10.16,7.2,9.94,7.57c3.22,2.64,6.37,5.36,9.55,8,1.61,1.32,3.11,2.76,4.65,4.16l4.6,4.22c12.14,11.36,23.76,23.26,35,35.45,22.61,24.36,44.21,49.6,66.34,74.31,11.11,12.3,22.32,24.53,34.28,35.9l2.23,2.14c.74.7,1.49,1.41,2.29,2.22.38.4.78.78,1.16,1.19l1.05,1.28a26.54,26.54,0,0,1,1.94,2.69,35.65,35.65,0,0,1,4.84,12.17c1.75,8.53,1.23,17.18-.08,25.5a166.25,166.25,0,0,1-6,24.47c-2.56,8-5.49,15.81-8.66,23.53-6.36,15.43-13.54,30.46-20.94,45.35s-15.07,29.62-22.5,44.43c-3.7,7.41-7.34,14.84-10.69,22.36-1.68,3.76-3.28,7.54-4.72,11.35a86.81,86.81,0,0,0-3.59,11.52c-.21,1-.38,1.92-.51,2.87l-.17,1.41-.22,1.64c-.18,1.08-.25,2.21-.51,3.26l-.74,3.17c-.22,1.07-.6,2.07-.9,3.1s-.59,2.07-1,3.06c-.77,2-1.44,4-2.31,5.94a197.69,197.69,0,0,1-11.42,22.49,416.21,416.21,0,0,1-28.08,41.48q-7.55,10-15.61,19.55t-16.58,18.77c-5.72,6.1-11.6,12-17.9,17.65a109.84,109.84,0,0,1-9.93,8,44.61,44.61,0,0,1-5.68,3.44,19.55,19.55,0,0,1-3.28,1.28c-.57.16-1.14.33-1.7.47l-1.68.29a57.71,57.71,0,0,1-13,.27,125,125,0,0,1-12.6-1.63c-8.3-1.45-16.44-3.42-24.5-5.63s-16-4.68-23.94-7.34-15.76-5.48-23.53-8.5-15.49-6.21-23.1-9.72c-1.9-.89-3.8-1.8-5.68-2.74l-2.82-1.46c-.88-.41-1.73-.85-2.62-1.24a61,61,0,0,0-11.41-3.42,148.65,148.65,0,0,0-24.3-2.55c-8.21-.26-16.44-.09-24.66.41a308.63,308.63,0,0,0-48.88,6.68c-4,.92-8,2-11.82,3.19a95.84,95.84,0,0,0-11.2,4.68l-22.46,10.73a432.38,432.38,0,0,1-46.28,19c-15.85,5.28-32.28,9.42-49.2,10.25a93.16,93.16,0,0,1-25.33-2c-1-.18-2.07-.54-3.1-.82l-3.08-.9c-1-.35-2-.76-3-1.14s-2-.74-3-1.21l-2.88-1.44a25.62,25.62,0,0,1-2.83-1.53l-2.73-1.7-1.36-.84-1.29-1a107.76,107.76,0,0,1-18.51-17.29,188.08,188.08,0,0,1-15.06-20.14c-18.36-28-31.68-58.68-45.59-88.75-3.52-7.49-7-15-11.05-22.15-1-1.8-2.08-3.51-3.17-5.21l-1.75-2.43-1-1.09a7.59,7.59,0,0,0-1-1,27,27,0,0,0-4.74-3.42c-.88-.48-1.73-1-2.64-1.46l-2.74-1.33a179.79,179.79,0,0,0-23.22-8.28c-7.93-2.32-16-4.34-24-6.21-16.14-3.71-32.43-6.8-48.79-9.48s-32.8-5-49.29-6.28c-2.06-.15-4.12-.29-6.17-.37-1-.06-2.06-.06-3.09-.09h-.76c-.2,0-.18,0-.52.08l-1.48.38c-4,1.09-8,2.23-12,3.36l-24,6.74c-16,4.46-32,8.81-48.12,12.91s-32.25,8-48.56,11.18c-8.16,1.59-16.37,3-24.68,3.83a60.34,60.34,0,0,1-12.61.11,27.39,27.39,0,0,1-6.15-1.73,58.15,58.15,0,0,1-5.72-2.64,147,147,0,0,1-20.85-13.8c-6.59-5.1-12.91-10.52-19-16.19a336.25,336.25,0,0,1-33.83-36.65,284.87,284.87,0,0,1-27.61-41.55c-7.84-14.68-14.26-30.25-17.85-46.6a122.59,122.59,0,0,1-2.95-24.9,97.8,97.8,0,0,1,.6-12.57,38.54,38.54,0,0,1,1.11-6.3,54.13,54.13,0,0,1,2.08-6,121.34,121.34,0,0,1,12.42-21.83c4.77-6.86,9.89-13.45,15.21-19.86,10.63-12.82,22-25,33.61-36.88s23.6-23.43,35.74-34.78c24.3-22.68,49.31-44.58,74.74-66s51.32-42.21,77.56-62.59,52.77-40.38,79.68-59.86Q715.61,684,736,669.74t41.16-28.09c27.63-18.47,55.67-36.32,84.38-53.09,14.36-8.37,28.9-16.45,43.75-23.95,7.43-3.74,15-7.32,22.6-10.63a198.7,198.7,0,0,1,23.49-8.64,74.32,74.32,0,0,1,12.37-2.52,31.56,31.56,0,0,1,6.37-.07l6.26.5a143.71,143.71,0,0,1,24.49,5.24,186.47,186.47,0,0,1,23.27,9.12c7.55,3.52,14.83,7.56,22,11.75a473.4,473.4,0,0,1,41.18,28.08c13.29,10,26.22,20.38,39.16,30.78s25.87,20.8,39.13,30.78c6.61,5,13.36,9.84,20.18,14.56S1199.66,682.69,1206.83,686.89Z"/><path d="M1020.52,1288.53c-8.25-3.1-16.4-6.43-24.59-9.66l-24.41-10.1c-8.14-3.35-16.18-6.93-24.26-10.43l-24.19-10.62q-12-5.49-24-11.06-6-2.76-12-5.6c-4-1.87-8-3.76-11.9-5.74l-11.84-5.88-11.77-6c-3.89-2.06-7.75-4.19-11.62-6.29s-7.66-4.38-11.46-6.6l.1-.17c3.89,2.06,7.74,4.19,11.66,6.19s7.84,4,11.79,5.93l11.87,5.78,11.93,5.65q23.91,11.2,48,22,48.15,21.67,96.71,42.44Z"/><path d="M1422.79,1068.34c6.84-.87,13.66-1.81,20.44-3s13.54-2.33,20.26-3.77l10-2.24q5-1.15,10-2.49c6.61-1.77,13.16-3.79,19.57-6.14,12.84-4.52,25.39-10.37,35.76-19a45.15,45.15,0,0,0,12.33-15.72,34.47,34.47,0,0,0,2.87-9.67,42.66,42.66,0,0,0,.14-10.23l.2,0a40.15,40.15,0,0,1,.32,10.33,35.63,35.63,0,0,1-2.55,10,46.08,46.08,0,0,1-12.29,16.48,86.21,86.21,0,0,1-17.14,11.53,150.31,150.31,0,0,1-19,8.23,269.2,269.2,0,0,1-40,10.52,371.86,371.86,0,0,1-41,5.44Z"/><path class="cls-2" d="M810.33,660.13C853,631,885.58,612.57,892,609a14.81,14.81,0,0,1,2.41-1.06c9.4-3.16,68.71-22,121.1-12.13,4.59.85,7.95,4,8.53,8.07,1.85,13-1.22,29.22-4,40.07-1.57,6.18-8.83,10.39-15.59,9-57-12-129,5.91-183.57,25.16C807.46,682.82,798.77,668,810.33,660.13Z"/><path class="cls-3" d="M483.08,1081.53c-16.06-8.33-49.19-15.14-54.06.61s7.83,35.84,13.86,44.74c17.81,26.28,92.55,47.52,92.55,47.52C515.64,1159.44,483.08,1081.53,483.08,1081.53Z"/><path class="cls-4" d="M1347.42,1264.79c-12.48,23.41-26.45,69.26-9.49,72s42.16-19,53.4-29.15c33.18-30,71.36-134.85,71.36-134.85C1442,1202.79,1347.42,1264.79,1347.42,1264.79Z"/></g></svg>