<svg xmlns="http://www.w3.org/2000/svg" xmlns:xlink="http://www.w3.org/1999/xlink" viewBox="0 0 1482.75 1206"><defs><style>.cls-1{fill:url(#linear-gradient);}</style><linearGradient id="linear-gradient" x1="307.05" y1="354.49" x2="1177.42" y2="906.03" gradientUnits="userSpaceOnUse"><stop offset="0" stop-color="#002916"/><stop offset="0.05" stop-color="#003219"/><stop offset="0.12" stop-color="#004920"/><stop offset="0.21" stop-color="#006f2b"/><stop offset="0.25" stop-color="#008331"/><stop offset="0.32" stop-color="#007329"/><stop offset="0.4" stop-color="#006320"/><stop offset="0.47" stop-color="#005d1d"/><stop offset="0.71" stop-color="#62a471"/><stop offset="0.76" stop-color="#509264"/><stop offset="0.92" stop-color="#165c3c"/><stop offset="1" stop-color="#00472d"/></linearGradient></defs><g id="Layer_3" data-name="Layer 3"><path class="cls-1" d="M973.41,297C897.47,253.17,818.16,157,735.47,153.61S143.16,531.61,131.34,621,232.59,813.42,263,818.48c24.12,4,132.29-27.56,163.62-36.5,5.11-1.46,8.18-2.31,8.5-2.31,30.38,0,148.5,18.56,167.07,37.12s54,140.07,108,163.69S853,948.61,873.84,941.67c30.38-10.13,101.25-16.88,126.57-3.38s108,43.88,131.62,35.44S1240,864,1243.41,823.54s113.06-189,69.18-229.5-113.06-135-167.06-173.81S973.41,297,973.41,297Z"/><path d="M973.27,297.26c-7.16-4.19-14.17-8.65-21-13.31s-13.6-9.54-20.23-14.54c-13.29-10-26.22-20.38-39.21-30.71s-26-20.68-39.3-30.56q-10-7.45-20.25-14.44t-21-13.27c-7.19-4.11-14.47-8.07-22-11.49a186.47,186.47,0,0,0-23.14-8.83,141.72,141.72,0,0,0-24.18-5l-6.15-.43a29.09,29.09,0,0,0-6,.12,72.23,72.23,0,0,0-12,2.55,195.76,195.76,0,0,0-23.13,8.76c-7.56,3.35-15,7-22.36,10.77-14.71,7.61-29.13,15.8-43.37,24.28-28.48,17-56.26,35.12-83.75,53.67q-20.61,13.94-40.93,28.3t-40.45,29q-80.37,58.68-157.16,122.09c-25.49,21.22-50.64,42.86-75,65.33-12.19,11.23-24.2,22.67-35.88,34.42S173.6,557.8,163,570.46c-5.33,6.33-10.46,12.82-15.21,19.56a117.85,117.85,0,0,0-12.32,21.27,49.91,49.91,0,0,0-2,5.72,35.35,35.35,0,0,0-1.08,5.94,96.91,96.91,0,0,0-.69,12.28,120.09,120.09,0,0,0,2.73,24.48c3.42,16.15,9.73,31.59,17.44,46.19a277.39,277.39,0,0,0,27.29,41.39,333.89,333.89,0,0,0,33.6,36.53c6,5.66,12.33,11.06,18.86,16.13a142.4,142.4,0,0,0,20.64,13.62,54.87,54.87,0,0,0,5.58,2.56,25.18,25.18,0,0,0,5.81,1.63,58.92,58.92,0,0,0,12.23-.15c8.21-.84,16.38-2.25,24.51-3.86,16.25-3.23,32.38-7.15,48.45-11.26s32.07-8.51,48.05-13l23.92-6.87c4-1.15,8-2.31,12-3.43l1.54-.4a3.37,3.37,0,0,1,1-.15h.79c1,0,2.1,0,3.14.07,2.09.07,4.17.2,6.25.33,16.61,1.23,33.09,3.47,49.52,6s32.77,5.59,49,9.22c8.12,1.82,16.2,3.81,24.22,6.09a185.4,185.4,0,0,1,23.7,8.27l2.87,1.37c1,.47,1.87,1,2.81,1.53a30.74,30.74,0,0,1,5.35,3.83,10,10,0,0,1,1.15,1.2l1.1,1.25,1.91,2.6c1.16,1.78,2.31,3.57,3.34,5.4,4.2,7.29,7.73,14.81,11.32,22.32,7.09,15,14,30.13,21.39,44.92a405,405,0,0,0,24.42,43.08,184.2,184.2,0,0,0,14.82,19.66,103.85,103.85,0,0,0,17.86,16.54l1.22.89,1.29.79,2.56,1.58A23.31,23.31,0,0,0,708,977l2.68,1.33c.91.43,1.87.74,2.8,1.11s1.86.74,2.81,1l2.9.83c1,.26,1.91.6,2.91.77a88.74,88.74,0,0,0,24.15,1.81,145.64,145.64,0,0,0,24.24-3.46,231.46,231.46,0,0,0,23.71-6.71,428.82,428.82,0,0,0,45.73-19L862.32,944a98.42,98.42,0,0,1,11.76-4.93c4-1.3,8.11-2.38,12.2-3.33A313.48,313.48,0,0,1,936,928.82c8.35-.52,16.72-.72,25.11-.48a153.18,153.18,0,0,1,25.17,2.6,65.24,65.24,0,0,1,12.41,3.69c1,.44,2,1,3,1.42l2.71,1.4q2.75,1.35,5.54,2.65c7.47,3.42,15.12,6.56,22.82,9.53,15.42,5.91,31.1,11.21,47,15.58,8,2.17,16,4.11,24,5.51a119.36,119.36,0,0,0,12.09,1.56,52.46,52.46,0,0,0,11.78-.22l1.4-.24c.44-.11.86-.24,1.3-.36a14.91,14.91,0,0,0,2.5-1,39.56,39.56,0,0,0,5-3,104.78,104.78,0,0,0,9.44-7.61c6.1-5.44,11.9-11.3,17.53-17.31,11.24-12.07,21.83-24.78,31.86-37.9a410.18,410.18,0,0,0,27.8-40.88,193,193,0,0,0,11.17-21.85c.84-1.86,1.47-3.77,2.2-5.66.38-.94.62-1.91.93-2.86s.65-1.91.85-2.88l.67-2.89c.25-1,.3-1.92.46-2.88l.2-1.44.2-1.68c.16-1.11.36-2.2.6-3.26a90.58,90.58,0,0,1,3.82-12.23c1.5-3.94,3.15-7.8,4.86-11.62,3.42-7.63,7.1-15.1,10.84-22.54,7.47-14.86,15.23-29.52,22.67-44.33s14.65-29.71,21-44.95c3.19-7.62,6.15-15.32,8.72-23.13a162.37,162.37,0,0,0,6.06-23.79c1.33-8,1.84-16.23.3-24a32.07,32.07,0,0,0-4.21-10.89,21.54,21.54,0,0,0-1.67-2.37l-.91-1.13c-.32-.36-.67-.69-1-1s-.66-.69-1-1.05l-1.13-1.1-2.24-2.18c-12-11.64-23.1-24-34.11-36.46-21.93-25-43.24-50.42-65.58-74.94-11.16-12.26-22.64-24.23-34.63-35.66l-4.53-4.25c-1.52-1.4-3-2.85-4.59-4.18-3.15-2.69-6.25-5.43-9.42-8.08l-9.81-7.6L1135,413.54l-80.79-58.23Zm.27-.43,81.06,57.87,81.19,57.71,10.16,7.2,9.94,7.56c3.22,2.64,6.37,5.36,9.55,8,1.61,1.32,3.11,2.76,4.65,4.16l4.6,4.22c12.14,11.37,23.76,23.27,35,35.45,22.61,24.37,44.21,49.61,66.34,74.31,11.11,12.3,22.32,24.53,34.28,35.91l2.23,2.13c.74.7,1.49,1.41,2.29,2.22.38.4.78.79,1.16,1.19l1,1.28a25.59,25.59,0,0,1,1.94,2.7,35.6,35.6,0,0,1,4.84,12.16c1.75,8.53,1.23,17.18-.08,25.5a166.25,166.25,0,0,1-6,24.47c-2.56,8-5.49,15.81-8.66,23.53-6.36,15.43-13.54,30.46-20.94,45.35s-15.07,29.62-22.5,44.43c-3.7,7.41-7.34,14.84-10.69,22.36-1.68,3.76-3.28,7.54-4.72,11.36a86.22,86.22,0,0,0-3.59,11.51c-.21,1-.38,1.92-.51,2.87l-.17,1.41-.22,1.64c-.18,1.08-.25,2.21-.51,3.26l-.74,3.18c-.22,1.06-.6,2.06-.9,3.09s-.59,2.07-1,3.06c-.76,2-1.43,4-2.3,5.94a196,196,0,0,1-11.42,22.49,415.05,415.05,0,0,1-28.08,41.48q-7.55,10-15.61,19.55t-16.58,18.77c-5.72,6.1-11.6,12-17.9,17.65a109.84,109.84,0,0,1-9.93,8,43.49,43.49,0,0,1-5.68,3.44,18.73,18.73,0,0,1-3.28,1.28c-.57.16-1.14.33-1.7.47l-1.68.29a57.14,57.14,0,0,1-13,.28c-4.26-.31-8.45-.92-12.6-1.64-8.3-1.44-16.44-3.42-24.5-5.63s-16-4.67-23.94-7.33-15.76-5.49-23.53-8.51-15.49-6.21-23.1-9.72c-1.9-.89-3.8-1.79-5.68-2.74l-2.82-1.46c-.88-.41-1.73-.85-2.62-1.24a60.27,60.27,0,0,0-11.41-3.41,147.56,147.56,0,0,0-24.3-2.56c-8.21-.25-16.44-.08-24.66.41a308.63,308.63,0,0,0-48.88,6.68c-4,.92-8,2-11.82,3.2a95.75,95.75,0,0,0-11.2,4.67l-22.46,10.74a434.46,434.46,0,0,1-46.28,19c-15.85,5.27-32.28,9.41-49.2,10.24a92.77,92.77,0,0,1-25.33-2,30.77,30.77,0,0,1-3.1-.82l-3.08-.9c-1-.34-2-.76-3-1.14s-2-.74-3-1.2L706,980.78a25.62,25.62,0,0,1-2.83-1.53l-2.73-1.69-1.36-.85-1.29-1a107.37,107.37,0,0,1-18.51-17.29,188,188,0,0,1-15.06-20.13c-18.36-28-31.68-58.69-45.59-88.75-3.52-7.5-7-15-11-22.16-1-1.8-2.08-3.51-3.17-5.21l-1.75-2.43-1-1.09a8.2,8.2,0,0,0-1-1.05,27,27,0,0,0-4.74-3.42c-.88-.48-1.73-1-2.64-1.46l-2.74-1.33a181.26,181.26,0,0,0-23.22-8.27c-7.93-2.33-16-4.35-24-6.22-16.14-3.71-32.43-6.8-48.79-9.48s-32.8-5-49.29-6.28c-2.06-.15-4.12-.29-6.17-.37-1-.06-2.06-.06-3.09-.09h-.76c-.2,0-.18,0-.52.09l-1.48.38c-4,1.08-8,2.23-12,3.35l-24,6.74c-16,4.47-32,8.81-48.12,12.91s-32.25,8-48.56,11.18c-8.16,1.6-16.37,3-24.68,3.83a59.67,59.67,0,0,1-12.61.11,26.87,26.87,0,0,1-6.15-1.73,55.92,55.92,0,0,1-5.72-2.64,147,147,0,0,1-20.85-13.79c-6.59-5.1-12.91-10.52-19-16.2A336.25,336.25,0,0,1,177.8,748.3a284.87,284.87,0,0,1-27.61-41.55c-7.84-14.68-14.26-30.25-17.85-46.6a122.59,122.59,0,0,1-3-24.9,97.64,97.64,0,0,1,.6-12.56,38.47,38.47,0,0,1,1.11-6.31,53.27,53.27,0,0,1,2.08-6,121.08,121.08,0,0,1,12.42-21.84c4.77-6.86,9.89-13.44,15.21-19.85,10.63-12.83,22-25,33.61-36.89S218,508.36,230.16,497c24.3-22.68,49.31-44.58,74.74-65.95s51.32-42.22,77.56-62.6,52.77-40.37,79.68-59.86q20.17-14.62,40.59-28.91t41.16-28.1c27.63-18.46,55.67-36.32,84.38-53.09,14.36-8.37,28.9-16.44,43.75-23.94,7.43-3.75,15-7.33,22.6-10.63a197,197,0,0,1,23.49-8.65,74.3,74.3,0,0,1,12.37-2.51,31.56,31.56,0,0,1,6.37-.08l6.26.5a143.71,143.71,0,0,1,24.49,5.24,188,188,0,0,1,23.27,9.12c7.55,3.52,14.83,7.56,22,11.75a475.64,475.64,0,0,1,41.18,28.08c13.29,10,26.22,20.38,39.16,30.78S919.09,259,932.35,269c6.61,5,13.36,9.84,20.18,14.55S966.37,292.63,973.54,296.83Z"/><path d="M787.17,898.61c-16.89-5.29-33.42-11.44-49.8-17.92-8.23-3.18-16.32-6.65-24.47-10-4.07-1.7-8.09-3.5-12.12-5.25l-12.11-5.31c-8-3.7-16-7.34-24-11.14q-6-2.88-11.88-5.81c-4-1.94-7.91-3.91-11.81-6s-7.84-4-11.72-6.15l-11.59-6.43q-5.73-3.33-11.41-6.77c-3.77-2.3-7.45-4.79-11.12-7.24l.24-.44c3.89,2.05,7.75,4.17,11.67,6.17s7.84,4,11.79,5.91L630.75,828l11.94,5.64q23.91,11.16,48,21.91,48.12,21.73,96.65,42.58Z"/><path d="M1189.49,678.13c13.58-2.79,27-5.59,40.3-8.74l9.92-2.46q4.95-1.26,9.84-2.69c6.53-1.83,13-3.8,19.31-6.14a156.3,156.3,0,0,0,18.51-7.74A92,92,0,0,0,1304.11,640a57,57,0,0,0,7-6.69,38,38,0,0,0,9.6-27.29l.49-.08a40,40,0,0,1,.35,10.37,35.77,35.77,0,0,1-2.55,10.06,46.25,46.25,0,0,1-12.31,16.57,87,87,0,0,1-17.16,11.6,151.58,151.58,0,0,1-19,8.27,268.56,268.56,0,0,1-40,10.47,371.89,371.89,0,0,1-41,5.36Z"/></g></svg>