<svg id="Layer_2" data-name="Layer 2" xmlns="http://www.w3.org/2000/svg" xmlns:xlink="http://www.w3.org/1999/xlink" viewBox="0 0 1920 1920"><defs><style>.cls-1,.cls-2,.cls-3,.cls-4,.cls-5{stroke:#000;stroke-miterlimit:10;stroke-width:5px;}.cls-1{fill:url(#linear-gradient);}.cls-2{fill:url(#linear-gradient-2);}.cls-3{fill:url(#linear-gradient-3);}.cls-4{fill:url(#linear-gradient-4);}.cls-5{fill:none;}</style><linearGradient id="linear-gradient" x1="578.35" y1="870.24" x2="942.61" y2="870.24" gradientUnits="userSpaceOnUse"><stop offset="0.02" stop-color="#707070"/><stop offset="1"/></linearGradient><linearGradient id="linear-gradient-2" x1="574.92" y1="1187.48" x2="1007.27" y2="1187.48" gradientUnits="userSpaceOnUse"><stop offset="0.19" stop-color="#3e3e3e"/><stop offset="0.44" stop-color="#272727"/><stop offset="0.79" stop-color="#0c0c0c"/><stop offset="1" stop-color="#020202"/></linearGradient><linearGradient id="linear-gradient-3" x1="914.46" y1="952.51" x2="1345.08" y2="952.51" gradientUnits="userSpaceOnUse"><stop offset="0" stop-color="#313131"/><stop offset="1" stop-color="#141414"/></linearGradient><linearGradient id="linear-gradient-4" x1="726.62" y1="760.43" x2="1068.31" y2="760.43" gradientUnits="userSpaceOnUse"><stop offset="0.3" stop-color="#1d1d1d"/><stop offset="0.67" stop-color="#0c0c0c"/><stop offset="1" stop-color="#020202"/></linearGradient></defs><path class="cls-1" d="M723,744.33,679.5,805.52a2.72,2.72,0,0,1-.34.42c-33.15,34.85-58.88,93.24-61.94,100.34a3.79,3.79,0,0,0-.32,1.48c-.52,22-23.27,51.46-37.56,67.88a4,4,0,0,0,4,6.5c41.26-10.17,106.56,7.91,111,9.16a3.61,3.61,0,0,1,.46.17c29.44,12.88,94.63,2.37,99.1,1.63a4.05,4.05,0,0,0,.47-.12c26-8,106.64-5.27,114-5a4.21,4.21,0,0,1,1.06.19c31.94,10.19,33.25-32.34,33.24-39.62a3.9,3.9,0,0,0-.5-1.92c-20.37-36.51-108.28-144.93-115.48-153.8a4,4,0,0,0-1.12-1c-31-17.64-84.39-42.71-97.58-48.85A4,4,0,0,0,723,744.33Z"/><path class="cls-2" d="M582.15,980.55l58.78-31.44a13.65,13.65,0,0,1,7.68-1.56l286,25.71a13.67,13.67,0,0,1,12.21,11L1007,1298.17a13.55,13.55,0,0,1,.22,3.42l-7,113a13.68,13.68,0,0,1-20.44,11h0a13.73,13.73,0,0,0-9.66-1.5l-11.23,2.41a13.69,13.69,0,0,1-12.54-3.7l-27.19-27.2a13.47,13.47,0,0,0-2.89-2.2l-31.39-17.94a13.5,13.5,0,0,1-4.15-3.67l-22.26-29.67a13.74,13.74,0,0,0-3.23-3.09l-33.55-22.87a13.62,13.62,0,0,1-3-2.78l-64.53-81.07-48.68-58.76c-.17-.2-.33-.41-.49-.62l-41-55.71a13.57,13.57,0,0,1-1.63-2.9l-9.83-23.87a13.6,13.6,0,0,0-4.1-5.47l-22-17.57a13.76,13.76,0,0,1-1.13-1l-37.68-37.68a13.73,13.73,0,0,1-3.31-5.35l-8.83-26.49A13.68,13.68,0,0,1,582.15,980.55Z"/><path class="cls-3" d="M1081.37,545.22,1336,492.69a7.52,7.52,0,0,1,8.5,10.16L1289.4,640.67a7.36,7.36,0,0,0-.49,2.23c-3.12,41.25-86.11,173.67-95.3,188.23a7.47,7.47,0,0,0-1,2.61c-4.23,24.26-38,67.86-41.66,72.53a8.19,8.19,0,0,0-.59.86c-14.44,24.82-28.79,109.78-30,117.16a6.9,6.9,0,0,1-.25,1l-38.37,121.8a7.37,7.37,0,0,0-.3,1.81c-.72,15.36-18.36,49.84-22.66,58a7.29,7.29,0,0,0-.86,3.66c.8,23.85-8.88,36.85-12.36,40.73a7.47,7.47,0,0,0-1.7,3.17l-11.22,44.88a7.42,7.42,0,0,0-.17.92c-1.82,15.13-20.09,47.87-24.37,55.36a7.5,7.5,0,0,0-.95,3.27c-.62,9.91-6.08,30.58-11.17,48.1-2.21,7.62-13.17,7.07-14.61-.72l-36.49-197a7.35,7.35,0,0,1-.12-1.14l-1.66-54.73c0-.26,0-.51,0-.77l5-69.58a6.88,6.88,0,0,0-.09-1.81l-8.24-47.83a3,3,0,0,1-.06-.42l-6.7-58.61c0-.16,0-.32-.07-.48l-11.69-65.12c0-.3-.09-.61-.11-.91l-6.6-120.53a7.54,7.54,0,0,1,1-4.12l91.29-161a7.5,7.5,0,0,1,1-1.41l64.75-69.74a7.75,7.75,0,0,1,1-.9l4.87-3.64A7.38,7.38,0,0,1,1081.37,545.22Z"/><path class="cls-4" d="M732.55,737.41C789,722.34,931.89,637,952.39,624.67a7.93,7.93,0,0,0,3.23-3.73c6.38-15.46,33.19-25.79,38.73-27.78a8.11,8.11,0,0,1,2-.44c18.68-1.75,24.21-14.26,25.59-18.65a7.86,7.86,0,0,1,1.73-3.05c7.47-8,21.65-14.44,33.87-18.82a8,8,0,0,1,9.54,11.76c-17.72,29-30.91,63.9-32.72,68.77a7.71,7.71,0,0,1-.52,1.13L936.29,807.12c-15.19,20.25,0,160.31,0,160.31,0,5.37-8.56-3.15-12-6.86a7.7,7.7,0,0,1-1.87-3.28c-6.62-24.61-36.1-42.27-45.58-47.4a8.22,8.22,0,0,1-3.74-4.34c-6.24-16.09-38.89-27.8-42.71-29.12l-.72-.21c-33.23-7.71-59.62-37-64.61-42.78a7.15,7.15,0,0,0-1.83-1.44c-10.09-5.84-19.94-55.85-22.17-67.86a8,8,0,0,0-2.43-4.4L729.19,751A8,8,0,0,1,732.55,737.41Z"/><polyline class="cls-5" points="905.91 1394.37 851.91 1313.37 862.04 1289.74"/><polyline class="cls-5" points="639.29 1087.24 703.41 1119.31 721.97 1122.68"/><line class="cls-5" x1="873.85" y1="908.37" x2="823.22" y2="899.93"/><polyline class="cls-5" points="954.85 623.18 939.66 650.18 936.29 668.74"/><line class="cls-5" x1="1150.6" y1="906.68" x2="1103.35" y2="964.06"/></svg>