<svg xmlns="http://www.w3.org/2000/svg" xmlns:xlink="http://www.w3.org/1999/xlink" viewBox="0 0 1920 1920"><defs><style>.cls-1,.cls-2,.cls-3,.cls-4{stroke:#000;stroke-miterlimit:10;stroke-width:5px;}.cls-1{fill:url(#linear-gradient);}.cls-2{fill:url(#linear-gradient-2);}.cls-3{fill:url(#linear-gradient-3);}.cls-4{fill:url(#linear-gradient-4);}</style><linearGradient id="linear-gradient" x1="737.76" y1="800.25" x2="1084.53" y2="800.25" gradientUnits="userSpaceOnUse"><stop offset="0" stop-color="#323232"/><stop offset="1" stop-color="#141414"/></linearGradient><linearGradient id="linear-gradient-2" x1="588.05" y1="888.9" x2="952.87" y2="888.9" gradientUnits="userSpaceOnUse"><stop offset="0" stop-color="#323232"/><stop offset="1" stop-color="#0a0a0a"/></linearGradient><linearGradient id="linear-gradient-3" x1="587.41" y1="1181.84" x2="1005.91" y2="1181.84" gradientUnits="userSpaceOnUse"><stop offset="0.02" stop-color="#0a0a0a"/><stop offset="1" stop-color="#0a0a0a"/></linearGradient><linearGradient id="linear-gradient-4" x1="920.95" y1="960" x2="1332.59" y2="960" gradientUnits="userSpaceOnUse"><stop offset="0" stop-color="#282828"/><stop offset="1" stop-color="#141414"/></linearGradient></defs><g id="Layer_3" data-name="Layer 3"><path class="cls-1" d="M1084,611.15c2.82-9.1-6.33-17.33-15.2-13.67-31.58,13-86.46,36.07-94,42.33C964,648.67,745,744.17,738.64,763.91c-5.6,17.49,17,68,22.2,79.29a11.22,11.22,0,0,0,3,3.89C792.11,870.83,866.73,918,877,924.5a11.61,11.61,0,0,1,2.14,1.75c23.42,24.45,50.08,55.36,65.57,73.64a11.39,11.39,0,0,0,19.5-3.84C986.85,925.32,1060.81,686.23,1084,611.15Z"/><path class="cls-2" d="M946.79,997,748.15,764.6a7.26,7.26,0,0,0-7.25-2.43C676.26,778,605.32,959.52,588.58,1004.71c-1.92,5.17,1.54,10.82,6.75,11,42.73,1.69,82.48-20.2,95.22-28a7.11,7.11,0,0,1,7.51,0c27.69,17,179.59,23.9,247,26.17,8,.27,10.83-11.19,3.76-15.19h0A7.64,7.64,0,0,1,946.79,997Z"/><path class="cls-3" d="M594.46,1001.42,651.86,974a14.68,14.68,0,0,1,7.5-1.36l279.27,22.42c5.94.47,10.8,4.4,11.93,9.63l44.09,205.4A505.25,505.25,0,0,1,1004.7,1351l-2,28.86c-.61,8.82-11.37,14-20,9.62h0a14.75,14.75,0,0,0-9.42-1.3l-11,2.1a14.48,14.48,0,0,1-12.25-3.23l-26.55-23.71a13.05,13.05,0,0,0-2.81-1.92L890.1,1345.8a13,13,0,0,1-4.06-3.2l-21.73-25.87a12.88,12.88,0,0,0-3.16-2.7l-32.75-19.94a12.72,12.72,0,0,1-2.92-2.43l-63-70.68-37.72-40.65q-10.07-10.85-19.47-22.28l-30.82-37.42a12.14,12.14,0,0,1-1.59-2.52l-9.6-20.82a12.14,12.14,0,0,0-4-4.77h0a498.13,498.13,0,0,1-42.23-33.78l-17.11-15.28a11.77,11.77,0,0,1-3.22-4.66l-8.63-23.1C586,1010.19,588.73,1004.16,594.46,1001.42Z"/><path class="cls-4" d="M1075.05,596.72a9.7,9.7,0,0,1,2.28-2.33c32.36-23,251.74-67,251.74-67,24.26,0-84.54,234.16-90.65,247.27a9,9,0,0,1-.6,1.1c-14.37,23-87.76,146.32-95.3,159a9.93,9.93,0,0,0-1,2.21c-13.49,44.28-111.45,352.23-142.06,448.43-3.21,10.1-18.08,9.37-20.22-1-23-111.84-55.78-502.35-58.27-532.29a10,10,0,0,1,.39-3.73C938.9,789.8,1063.33,613.26,1075.05,596.72Z"/></g></svg>