<svg id="Layer_2" data-name="Layer 2" xmlns="http://www.w3.org/2000/svg" xmlns:xlink="http://www.w3.org/1999/xlink" viewBox="0 0 1920 1920"><defs><style>.cls-1,.cls-2,.cls-3,.cls-4,.cls-5{stroke:#000;stroke-miterlimit:10;stroke-width:5px;}.cls-1{fill:url(#linear-gradient);}.cls-2{fill:url(#linear-gradient-2);}.cls-3{fill:url(#linear-gradient-3);}.cls-4{fill:url(#linear-gradient-4);}.cls-5{fill:none;}</style><linearGradient id="linear-gradient" x1="919.5" y1="960" x2="1354.88" y2="960" gradientUnits="userSpaceOnUse"><stop offset="0" stop-color="#ccc"/><stop offset="0.3" stop-color="#9b9b9b"/><stop offset="0.61" stop-color="#6f6f6f"/><stop offset="0.86" stop-color="#545454"/><stop offset="1" stop-color="#4a4a4a"/></linearGradient><linearGradient id="linear-gradient-2" x1="565.13" y1="864.52" x2="939.76" y2="864.52" gradientUnits="userSpaceOnUse"><stop offset="0.02" stop-color="#bdbdbd"/><stop offset="1" stop-color="#515151"/></linearGradient><linearGradient id="linear-gradient-3" x1="722.06" y1="754.15" x2="1084.88" y2="754.15" gradientUnits="userSpaceOnUse"><stop offset="0" stop-color="#acacac"/><stop offset="0.22" stop-color="#8c8c8c"/><stop offset="0.57" stop-color="#606060"/><stop offset="0.84" stop-color="#454545"/><stop offset="1" stop-color="#3b3b3b"/></linearGradient><linearGradient id="linear-gradient-4" x1="565.13" y1="1188.66" x2="1000.5" y2="1188.66" gradientUnits="userSpaceOnUse"><stop offset="0.02" stop-color="#c5c5c5"/><stop offset="0.31" stop-color="#959595"/><stop offset="0.62" stop-color="#696969"/><stop offset="0.86" stop-color="#4e4e4e"/><stop offset="1" stop-color="#444"/></linearGradient></defs><path class="cls-1" d="M1084.88,542.34l270-55.68-60.76,151.87c-1.68,42.19-96.18,190.69-96.18,190.69-3.38,25.31-42.19,74.25-42.19,74.25-15.19,25.31-30.37,118.12-30.37,118.12l-38.82,123.19c0,16.88-23.62,60.75-23.62,60.75,1.68,30.38-13.5,43.88-13.5,43.88l-11.82,47.25c-1.68,16.87-25.31,57.37-25.31,57.37,0,16.88-20.25,79.31-20.25,79.31l-42.18-227.81-1.69-55.69,5.06-70.87L944.81,1030,938.06,971l-11.81-65.81L919.5,782l92.81-163.69,65.81-70.87Z"/><path class="cls-2" d="M722.06,736.41,676.5,800.53c-35.44,37.13-62.44,101.25-62.44,101.25,0,32.06-48.94,81-48.94,81,38.82-21.94,126.57,3.38,126.57,3.38,30.37,13.5,99.56,1.68,99.56,1.68,27-8.43,114.75-5.06,114.75-5.06,35.44,11.81,33.75-40.5,33.75-40.5C919.5,905.16,823.31,787,823.31,787,787.88,766.78,722.06,736.41,722.06,736.41Z"/><path class="cls-3" d="M722.06,736.41C762.56,739.78,960,620,960,620c5.06-18.56,40.5-30.38,40.5-30.38,23.62-1.68,27-20.25,27-20.25,13.5-16.87,57.38-27,57.38-27-25.32,32.07-45.57,87.75-45.57,87.75L941.44,803.91c-15.19,20.25,0,160.31,0,160.31,0,6.75-13.5-8.44-13.5-8.44C921.19,925.41,879,905.16,879,905.16c-3.38-18.57-43.88-32.07-43.88-32.07-37.12-8.43-65.81-43.87-65.81-43.87-11.81-3.38-23.62-70.88-23.62-70.88Z"/><polygon class="cls-4" points="565.13 982.78 637.69 943.97 938.06 970.97 1000.5 1296.66 992.06 1433.34 968.44 1419.84 944.81 1424.91 911.06 1391.16 875.63 1370.91 850.31 1337.16 813.19 1311.84 747.38 1229.16 698.44 1170.09 656.25 1112.72 644.44 1084.03 619.13 1063.78 578.63 1023.28 565.13 982.78"/><polyline class="cls-5" points="911.06 1391.16 857.06 1310.16 867.19 1286.53"/><polyline class="cls-5" points="644.44 1084.03 708.56 1116.09 727.13 1119.47"/><line class="cls-5" x1="879" y1="905.16" x2="828.38" y2="896.72"/><polyline class="cls-5" points="960 619.97 944.81 646.97 941.44 665.53"/><line class="cls-5" x1="1155.75" y1="903.47" x2="1108.5" y2="960.84"/></svg>