<svg id="Layer_2" data-name="Layer 2" xmlns="http://www.w3.org/2000/svg" xmlns:xlink="http://www.w3.org/1999/xlink" viewBox="0 0 1920 1920"><defs><style>.cls-1{fill:url(#linear-gradient);}.cls-2{fill:url(#linear-gradient-2);}.cls-3{fill:url(#linear-gradient-3);}.cls-4{fill:url(#linear-gradient-4);}.cls-5{fill:url(#radial-gradient);}.cls-6{fill:none;stroke:#000;stroke-miterlimit:10;stroke-width:5px;}</style><linearGradient id="linear-gradient" x1="320.26" y1="762.4" x2="1076.84" y2="762.4" gradientUnits="userSpaceOnUse"><stop offset="0" stop-color="#030200"/><stop offset="0.2" stop-color="#100f0e"/><stop offset="0.5" stop-color="#202020"/><stop offset="1" stop-color="#0e0e0e"/></linearGradient><linearGradient id="linear-gradient-2" x1="537.59" y1="1099.96" x2="371.24" y2="1191.01" gradientUnits="userSpaceOnUse"><stop offset="0" stop-color="#020202"/><stop offset="0.05" stop-color="#0c0c0c"/><stop offset="0.14" stop-color="#171717"/><stop offset="0.27" stop-color="#1e1e1e"/><stop offset="0.64" stop-color="#202020"/><stop offset="0.87" stop-color="#0d0d0d"/><stop offset="1"/></linearGradient><linearGradient id="linear-gradient-3" x1="552.52" y1="1089.87" x2="812.42" y2="1089.87" gradientUnits="userSpaceOnUse"><stop offset="0" stop-color="#050505"/><stop offset="0.5" stop-color="#020202"/><stop offset="1" stop-color="#020202"/></linearGradient><linearGradient id="linear-gradient-4" x1="750.71" y1="1287.51" x2="1329.53" y2="1287.51" gradientUnits="userSpaceOnUse"><stop offset="0.14" stop-color="#020202"/><stop offset="0.62" stop-color="#0d0d0d"/><stop offset="1" stop-color="#030303"/></linearGradient><radialGradient id="radial-gradient" cx="1153.17" cy="869.94" r="442.93" gradientUnits="userSpaceOnUse"><stop offset="0" stop-color="#292929"/><stop offset="0.55" stop-color="#181818"/><stop offset="1" stop-color="#020202"/></radialGradient></defs><path class="cls-1" d="M541.62,1059.48s-16.87-30.37-13.5-56.53c2.73-21.17-12.22-41.23-18-48.11a10.3,10.3,0,0,1-2.35-4.92c-3.06-18-51.53-55.21-64.86-65.14a10.84,10.84,0,0,0-7.48-2.12l-32.16,2.79a10.82,10.82,0,0,1-4.91-.7l-22.46-8.69a10.59,10.59,0,0,1-2.47-1.35l-32.2-23.34a9.22,9.22,0,0,1-.78-.62L324,836.38a11,11,0,0,1-3.75-8.11c-.26-20.87,8.23-61.62,11.15-74.95a10.88,10.88,0,0,1,4.62-6.77l.69-.46a10.92,10.92,0,0,0,4.39-5.9l5.6-18.21,9.42-25.89a10.8,10.8,0,0,1,2.08-3.5L369.5,679.8l21.92-26.47a10.93,10.93,0,0,1,6.46-3.78l55.48-10.16c.34-.06.68-.14,1-.23l30.12-8.5a11.14,11.14,0,0,1,4.63-.29c20.58,3.16,50.17,7.49,53.82,8,.25,0,.5.06.75.08l43.81,3.31c.35,0,.7,0,1,0l39.53-.83c.3,0,.59,0,.89,0l41.14,2.47c.4,0,.8,0,1.21,0,14.65-.76,47.67-3.24,57.4-4a10.85,10.85,0,0,1,5.27.91h0a10.93,10.93,0,0,0,9.88-.5l3.76-2.14a10.9,10.9,0,0,1,7-1.33c27.31,4,16.46,7.91,16.46,7.91,15.59-6.56,125.27-68.94,131.36-72.41l.52-.31c28.19-18.1,128-107,128-107,5.29-4.27,24.13-.15,34.14,2.45a11,11,0,0,1,8,8.24c34.79,157.06-184.35,531.54-213.58,580.53a10.93,10.93,0,0,1-9.37,5.33l-311.91.83"/><path d="M541.62,1059.48a136.47,136.47,0,0,1-10.9-27.26,105.64,105.64,0,0,1-2.85-14.44,70.5,70.5,0,0,1-.07-14.74,45,45,0,0,0-.73-14.5,62.54,62.54,0,0,0-4.7-13.79A85.87,85.87,0,0,0,515,962.14c-1.39-2-2.87-3.94-4.41-5.83a19.44,19.44,0,0,1-2.25-3,11.55,11.55,0,0,1-1.25-3.62,22.38,22.38,0,0,0-2.75-6.58,56.32,56.32,0,0,0-4.12-6,122.38,122.38,0,0,0-9.7-10.93c-6.85-7-14.18-13.46-21.66-19.76s-15.19-12.35-23-18.24l-2.94-2.2c-.51-.37-.95-.71-1.43-1a9.54,9.54,0,0,0-1.51-.73,9.93,9.93,0,0,0-3.27-.67,35.21,35.21,0,0,0-3.55.25l-14.64,1.33-14.64,1.33a12.67,12.67,0,0,1-4-.13,11.91,11.91,0,0,1-1.94-.55l-1.73-.66-6.86-2.63-13.73-5.25a13,13,0,0,1-3.48-1.93l-3-2.14-6-4.3-11.92-8.6-6-4.3-3-2.15c-1-.72-2-1.39-3-2.28l-11.09-9.66L322.68,837a12.3,12.3,0,0,1-3.7-7.24,28.53,28.53,0,0,1-.1-3.87l0-1.87.09-1.86c.09-2.48.31-4.93.51-7.39.47-4.91,1-9.81,1.74-14.67,1.37-9.74,3.08-19.42,4.93-29.06.92-4.83,1.9-9.64,2.91-14.44l.76-3.61a13.17,13.17,0,0,1,1.54-3.89,12.62,12.62,0,0,1,2.75-3.17,18.67,18.67,0,0,1,1.62-1.16,10.09,10.09,0,0,0,1.24-1,9.38,9.38,0,0,0,2.5-3.92l.53-1.72,2.15-7c1.47-4.68,2.75-9.44,4.52-14l5-13.85,2.5-6.92.31-.87c.12-.33.26-.66.41-1a13.07,13.07,0,0,1,1-1.86,14.76,14.76,0,0,1,1.28-1.59l1.21-1.38,9.68-11,9.35-11.33L386.82,656l2.34-2.83c.41-.49.73-.91,1.24-1.48a12.15,12.15,0,0,1,1.58-1.46,12.65,12.65,0,0,1,3.77-2,13.94,13.94,0,0,1,2.05-.51l1.8-.34,28.91-5.37L443,639.25l7.23-1.34,1.8-.34.91-.16.74-.18,3.5-1,14.14-4,7.07-2,3.54-1,1.77-.5a13.72,13.72,0,0,1,2.09-.45,13.28,13.28,0,0,1,2.19-.11,16.37,16.37,0,0,1,2.06.23l3.64.54,7.27,1.07,14.54,2.15L530,634.28l7.27,1.07,3.63.54,1.82.27c.69.1,1,.13,1.67.18l29.33,2.18,7.33.54,3.66.28,1.83.13.92.07c.33,0,.51,0,.77,0l14.63-.31,14.7-.32,7.35-.17,1.84,0c.64,0,1.15,0,2,0,.4,0,.68,0,1,0l.91,0,1.84.11,29.35,1.72,7.34.44.92,0c.32,0,.5,0,.76,0h.36l.45,0,.92-.06,3.66-.26,14.65-1,29.3-2.06,7.33-.51.91-.07c.31,0,.73,0,1.09,0a12.74,12.74,0,0,1,2.23.17,13.27,13.27,0,0,1,2.17.55c.36.12.7.26,1,.41s.44.19.68.26a8.57,8.57,0,0,0,6.94-.57l1.56-.88,1.59-.92.81-.46c.33-.18.66-.35,1-.51a13.5,13.5,0,0,1,4.31-1.15,12.9,12.9,0,0,1,2.24,0c.37,0,.78.08,1.09.13l.92.14c2.45.37,4.91.79,7.37,1.3a50.46,50.46,0,0,1,7.47,2.07,14.46,14.46,0,0,1,2,.93,5.34,5.34,0,0,1,.53.32c.18.13.35.23.55.4a5.64,5.64,0,0,1,.58.54l.3.35a4.58,4.58,0,0,1,.31.46,3.7,3.7,0,0,1,.45,1.22,3.54,3.54,0,0,1-.07,1.52,4.16,4.16,0,0,1-1.19,1.87,6.75,6.75,0,0,1-1.2.87,9.11,9.11,0,0,1-1.21.56l-1.76-4.51c1.5-.72,3-1.38,4.51-2.14l4.54-2.31,9.06-4.78q9-4.86,18-9.8,18-9.9,35.9-20L878,583l17.88-10.13,4.46-2.54,1.06-.61c.26-.14.66-.45,1-.67l2.08-1.43c2.79-1.85,5.5-3.92,8.22-6,10.85-8.23,21.41-16.94,31.95-25.66S965.6,518.35,976,509.44s20.72-17.9,31-26.92L1022.43,469l3.85-3.4,1.92-1.7,1-.88a3.23,3.23,0,0,1,.26-.23l.41-.3a5.58,5.58,0,0,1,.8-.49,15.08,15.08,0,0,1,5.93-1.5,40,40,0,0,1,5.47,0,123.63,123.63,0,0,1,20.67,3.54l2.52.63c.38.09.9.24,1.4.4a15.18,15.18,0,0,1,1.45.59,13.27,13.27,0,0,1,4.85,3.88,13.05,13.05,0,0,1,1.63,2.68,13.57,13.57,0,0,1,.94,2.92l1,5.14c.15.85.34,1.71.47,2.57l.36,2.58.71,5.17.46,5.18.24,2.6c.06.86.08,1.73.13,2.59l.24,5.2c.09,1.73,0,3.46.08,5.19s0,3.46,0,5.19l-.16,5.18c-1,27.66-5.92,54.9-12.38,81.61s-14.68,53-23.72,78.9-19.09,51.48-29.73,76.77S991.31,809.24,979.57,834s-23.92,49.36-36.47,73.73-25.47,48.56-38.72,72.56-26.82,47.82-40.82,71.4l-2.64,4.41a13.17,13.17,0,0,1-1.64,2.3,12.36,12.36,0,0,1-7.47,4,14,14,0,0,1-1.44.11H826l-41.1,0-82.2-.11-164.4-.32,164.39-1.2,82.2-.54,41.1-.28,20.55-.1h2.57l1.26,0a10.73,10.73,0,0,0,1.13-.08,9.74,9.74,0,0,0,4.17-1.64,9.94,9.94,0,0,0,3-3.38l2.61-4.43q20.79-35.41,40.42-71.51T940,906.17c24.82-48.81,48.23-98.36,69.31-148.87,10.54-25.25,20.43-50.77,29.44-76.59s17-52,23.4-78.53c3.19-13.27,5.95-26.64,8.06-40.1a331.39,331.39,0,0,0,4-40.57l.15-5.09c0-1.69,0-3.39,0-5.08s0-3.39-.08-5.08l-.24-5.07c0-.85-.06-1.7-.13-2.54l-.23-2.52-.45-5.05-.7-5-.34-2.51c-.13-.83-.31-1.65-.46-2.48l-1-5a8.39,8.39,0,0,0-1.66-3.65A8.45,8.45,0,0,0,1066,470c-.3-.15-.62-.26-.93-.38s-.62-.19-1.07-.3l-2.46-.62a120.06,120.06,0,0,0-19.8-3.38,33.29,33.29,0,0,0-4.79,0,10.8,10.8,0,0,0-4,.93,1.22,1.22,0,0,0-.29.18l-.12.07-.21.19-.93.82-1.92,1.71-3.85,3.41-15.43,13.59q-15.45,13.56-31,27t-31.37,26.62c-10.56,8.76-21.16,17.47-32.15,25.79-2.76,2.07-5.5,4.16-8.42,6.1l-2.15,1.48c-.39.25-.66.47-1.15.76l-1.17.66-4.46,2.54-17.89,10.12-35.84,20.15q-17.94,10-36,20-9,4.93-18.08,9.81L781.46,642l-4.62,2.34c-1.55.78-3.19,1.51-4.78,2.26l-1.75-4.51a2.91,2.91,0,0,0,.74-.42,1.41,1.41,0,0,0-.17.37,1.38,1.38,0,0,0,0,.61,1.33,1.33,0,0,0,.13.38c.17.21-.13-.12-.49-.3a9,9,0,0,0-1.35-.62,44.92,44.92,0,0,0-6.68-1.84c-2.34-.49-4.72-.9-7.11-1.26l-.9-.14a7.41,7.41,0,0,0-.74-.09,8.54,8.54,0,0,0-1.43,0,8.81,8.81,0,0,0-2.76.73c-.21.1-.43.21-.64.33l-.78.44-1.6.92-1.63.92a12.54,12.54,0,0,1-2.05.91,13.32,13.32,0,0,1-8.79,0c-.35-.11-.71-.28-1-.41l-.67-.26a9.43,9.43,0,0,0-1.39-.35,7.55,7.55,0,0,0-1.42-.11c-.26,0-.45,0-.75,0l-.92.06-7.34.51-29.37,2-14.68,1-3.67.24-.92.07-.46,0h-.56c-.35,0-.79,0-1.07,0l-.92-.06-7.34-.45-29.35-1.8-1.83-.11-.92-.06c-.3,0-.63,0-.85,0-.42,0-1.13,0-1.72,0l-1.84,0-7.35.15-14.69.29-14.77.27c-.79,0-1.38-.07-2-.11l-1.83-.14-3.67-.29-7.33-.56-29.32-2.25c-.52,0-1.45-.13-2-.22l-1.82-.27-3.64-.55-7.27-1.09-14.54-2.19-14.54-2.19L493,633.1l-3.64-.55a13.42,13.42,0,0,0-1.58-.18,8.16,8.16,0,0,0-1.48.07,10.39,10.39,0,0,0-1.5.32l-1.77.5-3.54,1-7.08,2-14.16,3.95-3.57,1-1.05.24-.91.16-1.8.33-7.24,1.3-14.47,2.62L400.29,651l-1.81.33a9.14,9.14,0,0,0-1.52.37,9,9,0,0,0-2.67,1.42,13.52,13.52,0,0,0-2.25,2.36l-2.35,2.83-9.41,11.31L370.86,681l-9.77,11c-.79.93-1.71,1.86-2.25,2.64a9.32,9.32,0,0,0-.77,1.34,6.22,6.22,0,0,0-.29.71l-.32.86-2.52,6.89-5.05,13.78c-1.8,4.56-3.08,9.28-4.57,13.94l-2.18,7-.56,1.78a12.72,12.72,0,0,1-.83,1.94,12.55,12.55,0,0,1-2.56,3.32,13.36,13.36,0,0,1-1.65,1.29,16.68,16.68,0,0,0-1.37,1A9.32,9.32,0,0,0,333,753.7l-.78,3.59c-1,4.78-2,9.57-3,14.37-1.88,9.59-3.63,19.22-5,28.89-.72,4.83-1.31,9.67-1.8,14.51-.2,2.43-.43,4.85-.53,7.27l-.1,1.81,0,1.81a28,28,0,0,0,.06,3.47,9.66,9.66,0,0,0,2.83,5.62l5.47,4.82,11,9.7c.81.72,1.84,1.42,2.83,2.15l3,2.16,5.94,4.33,11.88,8.66,5.94,4.33,3,2.17a10.36,10.36,0,0,0,2.91,1.66l13.69,5.36,6.84,2.68,1.71.67a9.91,9.91,0,0,0,4.93.59l14.65-1.22L433,881.89l1.83-.16a15.63,15.63,0,0,1,2-.07,12.09,12.09,0,0,1,3.89.83,11.33,11.33,0,0,1,1.78.88c.58.35,1.11.76,1.58,1.11l2.93,2.23q11.7,9,22.93,18.48c7.46,6.38,14.77,13,21.61,20a123.8,123.8,0,0,1,9.71,11.13,56.31,56.31,0,0,1,4.16,6.16,23.17,23.17,0,0,1,2.83,7,10.29,10.29,0,0,0,1.11,3.3,18,18,0,0,0,2.11,2.88q2.32,2.88,4.41,5.93a85.1,85.1,0,0,1,7.33,12.82,63.17,63.17,0,0,1,4.66,14,45.53,45.53,0,0,1,.58,14.73,69.27,69.27,0,0,0-.08,14.61,105.62,105.62,0,0,0,2.68,14.41A136.13,136.13,0,0,0,541.62,1059.48Z"/><path class="cls-2" d="M716.28,1000.42l-27.85-.84C658.9,1008,572,1003.8,572,1003.8c-21.94,1.68-36.29,31.22-36.29,31.22,6.75,11.81-17.71,44.71-17.71,44.71-4.22,9.29,0,58.22,0,58.22-5.91,9.28,17.94,26.67,17.94,26.67l135.62-57.89,45.56-102.93"/><path d="M716.28,1000.42c-9.29-.11-18.58-.17-27.86-.34l.15,0a104.43,104.43,0,0,1-14.38,2.93c-4.84.69-9.7,1.19-14.56,1.6-9.73.8-19.48,1.27-29.23,1.5s-19.5.28-29.24.21-19.49-.29-29.25-.65h.23a27.24,27.24,0,0,0-11,3.53,44.61,44.61,0,0,0-9.41,7.25,71.83,71.83,0,0,0-7.77,9.24,79,79,0,0,0-6.28,10.3l-.07-2a13.2,13.2,0,0,1,1.46,7.22,30,30,0,0,1-1.17,6.6,70.15,70.15,0,0,1-4.8,11.9c-1.89,3.79-4,7.44-6.18,11s-4.49,7-7,10.49l.26-.43a13.57,13.57,0,0,0-.78,2.93c-.19,1.11-.33,2.27-.44,3.44-.21,2.34-.31,4.73-.37,7.13-.1,4.8,0,9.63.14,14.47.33,9.68.94,19.39,1.74,29l.07.83-.45.72a3.78,3.78,0,0,0-.51,2.52,9.87,9.87,0,0,0,1,3.23,31.16,31.16,0,0,0,4.52,6.45,70.31,70.31,0,0,0,5.85,5.86c2.06,1.85,4.25,3.66,6.42,5.29l-2.42-.28L568.9,1148l34-14.3q17-7.17,34-14.23l34-14.15-.83.82,11.66-25.62,11.75-25.57,11.76-25.57c3.9-8.54,7.9-17,11.85-25.53-3.64,8.64-7.23,17.31-10.93,25.94l-11,25.89-11,25.9L673,1107.38l-.24.56-.59.26L638.42,1123q-16.89,7.39-33.81,14.71l-33.83,14.65-33.88,14.53-1.29.55-1.12-.83c-2.41-1.79-4.63-3.62-6.83-5.58a77,77,0,0,1-6.27-6.25,34.68,34.68,0,0,1-5.28-7.56,14.69,14.69,0,0,1-1.49-4.91,8.86,8.86,0,0,1,1.28-5.69l-.38,1.55c-.78-9.78-1.37-19.51-1.67-29.31-.14-4.9-.21-9.81-.09-14.75.06-2.47.17-4.95.41-7.46.12-1.26.27-2.52.5-3.81a17.56,17.56,0,0,1,1.14-4.1l.09-.21.17-.23c2.38-3.24,4.7-6.67,6.87-10.11s4.22-7,6.07-10.6a66.38,66.38,0,0,0,4.59-11.07,26.39,26.39,0,0,0,1.06-5.6,9,9,0,0,0-.84-4.82l-.58-1,.51-1a84,84,0,0,1,6.76-10.88,73.2,73.2,0,0,1,8.37-9.68,48.65,48.65,0,0,1,10.38-7.74,31,31,0,0,1,12.59-3.81h.24c9.68.51,19.41.85,29.12,1.14s19.44.42,29.16.38,19.44-.16,29.13-.7c4.85-.27,9.69-.62,14.51-1.18a102.63,102.63,0,0,0,14.29-2.48l.08,0h.07C697.73,999.47,707,1000,716.28,1000.42Z"/><path class="cls-3" d="M773,1061.19c-1.64-25-30.36-58.41-38.9-67.81a5.61,5.61,0,0,0-5.94-1.59c-16.66,5.63-29.8,24.89-32.29,28.73a5.89,5.89,0,0,1-1.06,1.22l-51.93,44.5a5.47,5.47,0,0,1-1.29.83c-15.8,7.38-41.12,27.84-44.49,30.59a6.25,6.25,0,0,0-.69.67l-26.79,30.85a5.9,5.9,0,0,1-1.74,1.36l-5,2.49a5.68,5.68,0,0,0-3,3.89l-1.55,7.25a5.62,5.62,0,0,1-1.88,3.14l-1.84,1.56a5.68,5.68,0,0,0,5,9.84h0a5.82,5.82,0,0,1,5.2,1.32c10.66,9.13,52.6,14.81,63.2,16.12a5.52,5.52,0,0,1,3.62,2c5,6.16,15.38,9.19,18.29,10a5.72,5.72,0,0,0,1.65.17c13.46-.52,62.54-12.16,73.07-14.69a5.62,5.62,0,0,1,3.7.38c26.36,12.54,52.3-6.37,57.92-10.89a5.65,5.65,0,0,0,1.66-2.18L812,1105a5.67,5.67,0,0,0-1.34-6.38L774.73,1065A5.68,5.68,0,0,1,773,1061.19Z"/><path d="M773,1061.19c-.56-7.32-3.07-14.32-6.13-20.92a143.61,143.61,0,0,0-10.93-19c-4.07-6.07-8.53-11.87-13.17-17.5q-3.5-4.23-7.15-8.31l-1.84-2a5.42,5.42,0,0,0-2.18-1.37,5.35,5.35,0,0,0-2.54-.2,16.22,16.22,0,0,0-2.52.9c-6.74,2.71-12.49,7.41-17.6,12.53a93,93,0,0,0-7.17,8.19c-1.11,1.44-2.2,2.89-3.23,4.38q-.78,1.13-1.53,2.25c-.25.39-.45.74-.78,1.19a7,7,0,0,1-1.05,1.11l-33,28.89-16.5,14.45-1,.9-.52.45-.26.23-.33.27a7.36,7.36,0,0,1-1.44.87l-1.2.62c-1.6.78-3.15,1.7-4.72,2.58-3.09,1.86-6.16,3.79-9.15,5.84-6,4.07-11.84,8.44-17.6,12.89q-4.3,3.36-8.53,6.8l-2.11,1.73a10.12,10.12,0,0,0-.76.71l-.87,1-3.57,4.17-14.28,16.65-7.13,8.32-.95,1.1a8,8,0,0,1-1.48,1.25,7,7,0,0,1-.83.49l-.61.31-1.22.62-2.45,1.23-.61.31a2.86,2.86,0,0,0-.37.21,2.71,2.71,0,0,0-.61.51,3.23,3.23,0,0,0-.77,1.36l-.54,2.53-.57,2.68-.28,1.34c-.11.47-.16.8-.35,1.52a8.08,8.08,0,0,1-2,3.34,9,9,0,0,1-.67.63l-.53.44-1,.89a4.17,4.17,0,0,0-.36.35c-.09.1-.21.19-.29.29a3.46,3.46,0,0,0-.39.66,2.69,2.69,0,0,0-.27,1.46,3.14,3.14,0,0,0,.49,1.5,3,3,0,0,0,1.08,1.12,2.69,2.69,0,0,0,1.4.44,2.38,2.38,0,0,1,.38,0l.41-.08.21,0,.18,0,.24,0a8.42,8.42,0,0,1,1-.14,8.18,8.18,0,0,1,3.83.67,8.46,8.46,0,0,1,1.66.94l1.13.88a24.85,24.85,0,0,0,4.28,2.47,74.2,74.2,0,0,0,9.93,3.66c3.43,1,6.93,1.93,10.45,2.75,7,1.64,14.19,3,21.37,4.13,3.58.58,7.18,1.11,10.78,1.63l2.7.37,1.35.18a10.46,10.46,0,0,1,1.71.33,7.92,7.92,0,0,1,3.32,2l.34.36.27.32.39.44a8.39,8.39,0,0,0,.83.86,29.07,29.07,0,0,0,8.56,5.38,49.09,49.09,0,0,0,4.91,1.86l1.25.39.63.18.55.14a3.33,3.33,0,0,0,.84.08l1.29-.09c3.48-.24,7.09-.81,10.67-1.36s7.17-1.2,10.75-1.87c7.16-1.33,14.32-2.78,21.46-4.28s14.28-3.06,21.41-4.65l5.34-1.21,1.34-.3.69-.16a7.73,7.73,0,0,1,.84-.13,7,7,0,0,1,3.35.51l2.5,1.13c.81.34,1.65.64,2.47,1l2.54.8c.86.21,1.72.45,2.58.63a46.68,46.68,0,0,0,21.21-.66,69.51,69.51,0,0,0,19.76-8.62q2.31-1.44,4.5-3l1.08-.81a10,10,0,0,0,1-.81,5.2,5.2,0,0,0,.74-.94,8.24,8.24,0,0,0,.56-1.15l4.45-10,8.86-20.06,8.8-20.09,2.19-5a5.5,5.5,0,0,0-.46-5.1,11.07,11.07,0,0,0-1.85-2l-2-1.89-4-3.76-16-15-8-7.52-4-3.76a9.25,9.25,0,0,1-1.83-2A5.67,5.67,0,0,1,773,1061.19Zm0,0a5.68,5.68,0,0,0,.82,2.59,9.23,9.23,0,0,0,1.84,2l4,3.74,8,7.48,16,15,4,3.74,2,1.87a11.69,11.69,0,0,1,1.92,2,5.86,5.86,0,0,1,.55,5.39L810,1110l-8.55,20.2L793,1150.44l-4.23,10.12a10.23,10.23,0,0,1-.62,1.32,6.45,6.45,0,0,1-.93,1.22,14.5,14.5,0,0,1-1.1,1l-1.1.85c-1.46,1.13-3,2.19-4.52,3.2a71.57,71.57,0,0,1-20.09,9.27,49.05,49.05,0,0,1-22.22,1.15c-.93-.18-1.84-.41-2.76-.61l-2.71-.8c-.88-.32-1.78-.62-2.65-1l-2.53-1.08a4.19,4.19,0,0,0-2-.26,4,4,0,0,0-.5.09l-.65.16-1.33.34-5.33,1.32q-10.65,2.63-21.35,5.11c-7.13,1.66-14.27,3.27-21.45,4.76q-5.38,1.13-10.81,2.12c-3.64.65-7.25,1.26-11.06,1.57l-1.45.12a8.06,8.06,0,0,1-1.88-.16c-.34-.07-.55-.13-.78-.19l-.69-.19-1.37-.4a54.69,54.69,0,0,1-5.37-2,33.66,33.66,0,0,1-10-6.14,12.47,12.47,0,0,1-1.08-1.1l-.52-.58-.18-.2-.14-.14a3.24,3.24,0,0,0-1.36-.78c-.37-.12-1.48-.2-2.36-.32l-2.73-.34q-5.48-.71-10.91-1.57c-7.26-1.15-14.51-2.45-21.71-4.09-3.6-.82-7.2-1.73-10.77-2.79a79.67,79.67,0,0,1-10.64-3.88,31.08,31.08,0,0,1-5.17-3l-1-.81a3.36,3.36,0,0,0-.71-.41,3.27,3.27,0,0,0-1.51-.28,2.47,2.47,0,0,0-.38,0l-.24.05-.47.08-1,.14-1,0a7.61,7.61,0,0,1-3.75-1.19,7.86,7.86,0,0,1-2.69-2.78,8,8,0,0,1-1.14-3.67,7.58,7.58,0,0,1,.71-3.86,8.27,8.27,0,0,1,1-1.68,8.57,8.57,0,0,1,.66-.69,7.7,7.7,0,0,1,.63-.59l1.05-.89.52-.44a3.85,3.85,0,0,0,.33-.3,3.17,3.17,0,0,0,.79-1.33l1.14-5.18.29-1.34.14-.67.08-.34.12-.47a8.06,8.06,0,0,1,3.41-4.6c.26-.17.59-.34.82-.46l.62-.31,2.45-1.21,1.23-.61.62-.3.35-.2a3,3,0,0,0,.62-.51l.85-1,7.24-8.23L590.31,1102l3.62-4.11.93-1a15.6,15.6,0,0,1,1.26-1.14l2.17-1.71c2.9-2.26,5.81-4.48,8.76-6.68,5.9-4.36,11.87-8.64,18.05-12.64,3.08-2,6.25-3.92,9.46-5.76,1.64-.88,3.25-1.79,5-2.57l1.26-.62a4.54,4.54,0,0,0,.91-.51l2-1.7,16.8-14.1,33.6-28.19a7.28,7.28,0,0,0,1.6-1.94c.53-.76,1.06-1.52,1.6-2.26,1.08-1.49,2.22-2.94,3.37-4.37a94,94,0,0,1,7.44-8.14c5.28-5.09,11.22-9.69,18.12-12.4a16.29,16.29,0,0,1,2.66-.9,5.93,5.93,0,0,1,2.86.26,6,6,0,0,1,2.4,1.55l1.83,2.05q3.62,4.14,7,8.41,6.88,8.55,13,17.67a143.9,143.9,0,0,1,10.87,19C770,1046.85,772.43,1053.87,773,1061.19Z"/><path class="cls-4" d="M1329.53,1310.69c-46.41,5.84-130.78,72.5-130.78,72.5-14.35,20.83-70,104.16-70,104.16-40.5,10.84-93.65-26.66-93.65-26.66-9.28-26.67-128.25-47.5-128.25-47.5C873.06,1416.52,776.87,1299,776.87,1299c-41.34-43.33-17.72-121.66-17.72-121.66,19.41-18.34-8.44-91.67-8.44-91.67l394,28.34Z"/><path d="M1329.53,1310.69a91.61,91.61,0,0,0-18.21,4.7c-5.91,2.12-11.67,4.61-17.34,7.29a366.46,366.46,0,0,0-33,18.14c-10.7,6.56-21.17,13.5-31.44,20.71s-20.39,14.66-30.23,22.41l.19-.21L1164.79,1436l-34.83,52.2-.31.47-.55.15a65.39,65.39,0,0,1-12.65,2,79.54,79.54,0,0,1-12.73-.4,101.46,101.46,0,0,1-12.5-2.18c-4.12-.94-8.17-2.15-12.16-3.49a181.08,181.08,0,0,1-23.24-9.8q-5.64-2.82-11.09-6c-3.65-2.12-7.21-4.29-10.74-6.7l-.46-.32-.22-.58a13.85,13.85,0,0,0-1.83-3.31,24.42,24.42,0,0,0-2.72-3,44.53,44.53,0,0,0-6.67-5,109.7,109.7,0,0,0-15.26-7.73A297.78,297.78,0,0,0,974.11,1431c-11.12-3.21-22.35-6.06-33.65-8.65s-22.67-4.94-34-7l.61,0a27.07,27.07,0,0,1-11.74-2.06,68.21,68.21,0,0,1-10.17-5,160.59,160.59,0,0,1-18.21-12.84,420.64,420.64,0,0,1-32.72-29.67c-10.43-10.36-20.49-21.07-30.34-32s-19.48-21.94-28.87-33.28l.12.14A87.28,87.28,0,0,1,765,1287.64a94.9,94.9,0,0,1-7.31-14.74,115.11,115.11,0,0,1-4.7-15.7,142.06,142.06,0,0,1-2.44-16.13,174.32,174.32,0,0,1,.3-32.47q.81-8.07,2.27-16.06c1-5.34,2.1-10.57,3.62-15.89l.18-.62.5-.47a18.9,18.9,0,0,0,4.82-9.17,49.51,49.51,0,0,0,1.28-11.23,124.12,124.12,0,0,0-2.36-23.19c-1.43-7.71-3.32-15.37-5.47-23s-4.57-15.12-7.27-22.45l-1.32-3.56,3.76.27,197,14.45,197,14.82.59,0,.39.42L1192,1162.6l46,49.59Zm0,0-93.24-98.15-46.45-48.74-46.18-48.75,1,.47L947.58,1102l-197-13.89,2.44-3.28c2.8,7.57,5.23,15.14,7.44,22.85s4.12,15.48,5.6,23.38a129.27,129.27,0,0,1,2.47,24.14,54.77,54.77,0,0,1-1.41,12.39,23.72,23.72,0,0,1-6.22,11.57l.67-1.09c-1.41,5-2.53,10.18-3.48,15.35s-1.66,10.42-2.2,15.67a169.39,169.39,0,0,0-.34,31.52,139.81,139.81,0,0,0,2.33,15.53,113.65,113.65,0,0,0,4.46,15,91.1,91.1,0,0,0,6.89,13.93,82.33,82.33,0,0,0,9.45,12.28l.07.09,0,0c9.29,11.24,18.89,22.29,28.67,33.14s19.81,21.49,30.12,31.81a418.78,418.78,0,0,0,32.24,29.45,155,155,0,0,0,17.63,12.53,63.92,63.92,0,0,0,9.47,4.74,23,23,0,0,0,9.7,1.83l.33,0,.27,0c11.51,2.1,22.89,4.51,34.25,7.15s22.65,5.53,33.85,8.85a298.75,298.75,0,0,1,33.09,11.66,112.34,112.34,0,0,1,15.75,8.13,47.19,47.19,0,0,1,7.21,5.49,27.59,27.59,0,0,1,3.13,3.49,17.68,17.68,0,0,1,2.33,4.31l-.68-.9a197.65,197.65,0,0,0,21.29,12.57,177.14,177.14,0,0,0,22.73,9.76A123.36,123.36,0,0,0,1092,1485a97.79,97.79,0,0,0,12.1,2.2,75.67,75.67,0,0,0,12.22.47,62.49,62.49,0,0,0,12-1.77l-.87.62,35.21-52,35.29-51.9.08-.12.11-.09c10-7.68,20.2-15,30.58-22.13s20.94-13.94,31.73-20.39a350.07,350.07,0,0,1,33.27-17.76c5.73-2.6,11.55-5,17.5-7A91.65,91.65,0,0,1,1329.53,1310.69Z"/><path class="cls-5" d="M1036.9,460.7c19.13-6.75,34.88-7.87,50.63-7.87s43.87,7.87,60.75,4.5,93.37-15.75,109.12-20.25,99-2.25,112.5-5.63,31.5,5.63,39.38,2.25,82.12,4.5,97.87,3.38,28.13,0,34.88,11.25,1.12,18,12.37,19.12,23.48,25.66,38.25,36c20.46,14.33-9.31,93.77-14.88,108.05a10.66,10.66,0,0,0-.79,3.32c-.93,16-77.5,76.17-93.8,88.8a12.59,12.59,0,0,0-4.18,5.82c-10.88,31.17-63,145.27-67.2,154.54a12.81,12.81,0,0,1-.61,1.16c-19.07,32.34-42.41,150.19-42.41,150.19-9.9,49.48,2,116.38,5,131.76a12.88,12.88,0,0,1-.28,6c-5.21,18.15-8.2,79.88-9,98a13.46,13.46,0,0,0,1.91,7.16c5.76,10.32-19.61,41.26-24.82,47.43-.46.55-.83,1.16-1.24,1.75-1,1.46-3.87,2-8.12,1.77-31.13-1.58-137.62-42.82-155.5-49.82a12.57,12.57,0,0,0-5-.85c-39.4,1.25-230.24-37.18-251.05-41.4a13.94,13.94,0,0,0-3.23-.23c-22.91.75-79.41-77.24-87.61-88.74a13.33,13.33,0,0,1-1.39-2.61c-5.23-12.37-49.86-30.68-69.34-38.17a12.41,12.41,0,0,1-7.91-9.76c-2.84-20-35.75-77.25-41.79-87.62a12.17,12.17,0,0,1-1.38-3.48c-8.9-41.06,28.16-77.94,33.54-83a11.8,11.8,0,0,0,1.25-1.4c11-14.2,31.55-26.85,39.18-31.28a13.15,13.15,0,0,1,5.94-1.69c21.86-1.07,37.79-23.35,42.69-31.1a12.27,12.27,0,0,1,3.52-3.69c10.09-6.68,23-32.6,28.77-45.06A12.5,12.5,0,0,0,863,778.7c-7.29-15.58,8.73-58.86,11.49-66.09a14.91,14.91,0,0,0,.62-2.17c3.73-17.17,29.64-29.8,38.47-33.64a12.6,12.6,0,0,0,5-3.92l39.12-51.47a11.94,11.94,0,0,1,3.69-3.16c38.67-22,76.92-159.52,76.92-159.52"/><path d="M1036.9,460.7a134.53,134.53,0,0,1,21.78-5.81,149.57,149.57,0,0,1,22.46-2.17,109,109,0,0,1,11.29.09c3.76.27,7.5.73,11.23,1.24,7.46,1,14.88,2.2,22.35,3s15,1.21,22.35-.18,14.8-2.74,22.21-4.06l44.42-7.91q11.09-2,22.16-4.17c7.4-1.42,14.69-3,22-4.81a52.91,52.91,0,0,1,5.65-.87c1.88-.27,3.76-.34,5.65-.53s3.76-.26,5.64-.38,3.76-.23,5.64-.29c7.53-.36,15-.54,22.57-.73,15-.37,30.09-.54,45.1-1.08l5.62-.24c1.87-.09,3.74-.23,5.6-.34s3.71-.35,5.56-.52c.91-.12,1.78-.3,2.68-.45s1.87-.43,2.83-.55a41.13,41.13,0,0,1,11.57,0c3.79.47,7.51,1.22,11.19,1.93a52.48,52.48,0,0,0,10.89,1.32,10.63,10.63,0,0,0,2.51-.35,3.45,3.45,0,0,0,.57-.18c.18-.07.34-.13.66-.23l.83-.25.76-.13a41.59,41.59,0,0,1,5.81-.44c7.6-.14,15.12.25,22.64.63,15,.8,30,1.91,45,2.77q5.61.33,11.24.56c3.73.12,7.5.27,11.13.08s7.57-.46,11.4-.35a43.82,43.82,0,0,1,11.52,1.66,27.19,27.19,0,0,1,5.5,2.31,24.26,24.26,0,0,1,2.5,1.68l1.18.94,1.09,1.06a23.82,23.82,0,0,1,2,2.26c.59.8,1.14,1.64,1.67,2.48a31.19,31.19,0,0,1,2.52,5.36,39.44,39.44,0,0,1,1.52,5.65,14.78,14.78,0,0,0,1.48,4.8,3.74,3.74,0,0,0,.65.77,8.93,8.93,0,0,0,.84.59l1,.44,1.2.3,2.76.42a12.22,12.22,0,0,1,1.58.41c.49.19,1,.37,1.47.6a23.47,23.47,0,0,1,5,3.36,53.4,53.4,0,0,1,4.2,4c2.63,2.79,5,5.7,7.46,8.6,4.81,5.77,9.52,11.61,15,16.4.68.6,1.4,1.16,2.11,1.72l1.09.79c.35.26.83.64,1.24,1a15.9,15.9,0,0,1,3.78,5,32.22,32.22,0,0,1,2.83,11.5,99.7,99.7,0,0,1-1.41,22.88c-2.46,15-6.55,29.59-11.15,44q-3.48,10.77-7.43,21.38l-2,5.21a8.76,8.76,0,0,0-.3,1.14,5.43,5.43,0,0,0-.09.56l-.06.63a10.88,10.88,0,0,1-.88,3.27,30.26,30.26,0,0,1-3,5.25c-1.1,1.61-2.28,3.14-3.49,4.63a204.57,204.57,0,0,1-15.63,16.57c-5.44,5.25-11,10.33-16.67,15.33-11.31,10-22.88,19.63-34.59,29.11q-8.77,7.11-17.68,14.06l-2.23,1.74a10.55,10.55,0,0,0-1.75,1.63,10.09,10.09,0,0,0-1.31,1.93,17,17,0,0,0-1,2.32l-2,5.34c-.67,1.78-1.38,3.52-2.07,5.28-5.57,14-11.5,27.86-17.47,41.68-12,27.62-24.26,55.08-36.63,82.51l-4.65,10.28-2.34,5.14-1.17,2.57c-.2.43-.37.83-.6,1.3l-.75,1.43a136.33,136.33,0,0,0-8.9,20.25c-5.06,14-9.18,28.48-13.08,43s-7.41,29.09-10.78,43.73q-2.52,11-4.9,22l-2.34,11c-.74,3.67-1.57,7.37-2.2,11a241.63,241.63,0,0,0-3.48,44.45v2.8l.08,2.8.15,5.61c.12,3.73.37,7.46.55,11.2.53,7.46,1.13,14.91,2,22.35s1.83,14.86,3,22.26q.86,5.55,1.84,11.07.48,2.78,1,5.52l.27,1.44a13.49,13.49,0,0,1,.19,1.68,15,15,0,0,1-.2,3.35,15.3,15.3,0,0,1-.36,1.63l-.33,1.32-.63,2.63c-.32,1.81-.71,3.6-1,5.44-.59,3.66-1.06,7.36-1.52,11.06-.87,7.43-1.53,14.9-2.15,22.37-1.19,15-2.08,30-2.82,45l-.26,5.63-.12,2.81-.06,1.38a8.13,8.13,0,0,0,0,1.1,11.76,11.76,0,0,0,1.42,4.39,5.14,5.14,0,0,1,.36.74l.4.91a16,16,0,0,1,.42,1.83,14.07,14.07,0,0,1,0,3.43,36.68,36.68,0,0,1-3.85,11.47,104.52,104.52,0,0,1-5.76,10,217.41,217.41,0,0,1-13.48,18.42l-1.8,2.21c-.59.73-1.31,1.51-1.64,2l-.37.55a9,9,0,0,1-.55.75,5.64,5.64,0,0,1-2,1.52,11.13,11.13,0,0,1-3.52,1,29.71,29.71,0,0,1-6.12,0c-2-.13-3.88-.44-5.79-.71-7.59-1.27-14.94-3.1-22.25-5.08s-14.53-4.17-21.72-6.43c-28.76-9.11-57.07-19.42-85.23-30.07l-10.55-4-5.26-2-2.63-1-1.32-.52a9.72,9.72,0,0,0-1.08-.35,9.94,9.94,0,0,0-2.25-.33h-2.71c-2,0-3.86-.06-5.77-.15-3.82-.19-7.6-.5-11.36-.88-7.53-.74-15-1.66-22.49-2.69s-14.93-2.13-22.37-3.27c-29.76-4.65-59.4-9.91-89-15.41s-59.13-11.26-88.63-17.18l-5.53-1.12-2.77-.56-1.38-.28-.61-.12-.56-.08a11.42,11.42,0,0,0-1.19-.06h-.62l-.84,0a16.42,16.42,0,0,1-3.26-.45,27.5,27.5,0,0,1-5.73-2.22,62.47,62.47,0,0,1-9.78-6.41c-3-2.36-5.92-4.87-8.71-7.46-11.13-10.4-21.07-21.81-30.7-33.44s-18.76-23.63-27.63-35.83l-1.65-2.3-.83-1.15-.42-.59c-.17-.25-.33-.49-.47-.73-.29-.49-.53-1-.75-1.45l-.31-.7-.25-.5c-.09-.16-.16-.32-.25-.48l-.34-.49-.33-.49-.4-.48a25.86,25.86,0,0,0-3.74-3.64c-1.37-1.15-2.86-2.21-4.36-3.25a169.7,169.7,0,0,0-19.37-10.94c-6.7-3.31-13.53-6.38-20.42-9.32q-5.18-2.21-10.38-4.31l-5.23-2.08-2.62-1c-.4-.15-1-.38-1.43-.6s-1-.5-1.43-.78a14.68,14.68,0,0,1-4.63-4.55,14.36,14.36,0,0,1-1.43-3,13.66,13.66,0,0,1-.45-1.58c-.11-.53-.2-1.12-.29-1.51a45.58,45.58,0,0,0-1.25-5.23l-.79-2.63c-.26-.88-.62-1.74-.92-2.62-2.53-7-5.55-13.81-8.77-20.56-6.42-13.53-13.48-26.79-20.74-39.93l-5.51-9.82-2.8-4.88a20.8,20.8,0,0,1-1.42-2.72,14,14,0,0,1-.83-3,63,63,0,0,1-1.2-11.53,68.32,68.32,0,0,1,.86-11.53,76.62,76.62,0,0,1,2.67-11.22A89,89,0,0,1,712.51,941,118.87,118.87,0,0,1,724,921.25a140.64,140.64,0,0,1,14.73-17.42l1-1,.53-.5c.17-.17.28-.31.42-.47l.83-.92.92-1.12c1.21-1.51,2.53-2.9,3.83-4.31a114.27,114.27,0,0,1,8.4-7.78,181.54,181.54,0,0,1,18.39-13.38c1.6-1,3.21-2,4.83-3l2.44-1.45a16.19,16.19,0,0,1,2.73-1.38,14.82,14.82,0,0,1,3-.8c.51-.07,1-.13,1.55-.15l1.35-.15,2.68-.29,2.64-.6a39.19,39.19,0,0,0,10-4.11l1.19-.67c.39-.23.76-.5,1.15-.75.76-.51,1.53-1,2.28-1.52,1.46-1.12,2.94-2.2,4.31-3.44a73.09,73.09,0,0,0,7.82-7.82,94.84,94.84,0,0,0,6.78-8.8c.53-.76,1-1.53,1.53-2.33a14.53,14.53,0,0,1,2-2.42,11.81,11.81,0,0,1,1.19-1c.21-.17.42-.32.64-.47l.54-.4a17.83,17.83,0,0,0,2-1.69,55.78,55.78,0,0,0,7.06-8.39,183.43,183.43,0,0,0,11.47-19.21q2.61-5,5.07-10c.8-1.67,1.64-3.4,2.39-5.05a11.74,11.74,0,0,0,1-4.94,9.8,9.8,0,0,0-.73-3.69l-.24-.58-.29-.71a21.73,21.73,0,0,1-1.39-5.79,52.24,52.24,0,0,1,.11-11.53,144.48,144.48,0,0,1,4.48-22.29c2-7.29,4.31-14.48,6.87-21.58l2-5.29c.49-1.57.91-3.62,1.66-5.42a33.16,33.16,0,0,1,6.31-9.71c5.18-5.7,11.48-10.12,18-14q4.9-2.85,10.06-5.27l2.58-1.18a20.53,20.53,0,0,0,2.44-1.18,11.36,11.36,0,0,0,2.08-1.59,15.33,15.33,0,0,0,1.73-2l13.71-17.92,13.71-17.92,6.85-9,3.43-4.48c.58-.74,1.1-1.51,1.8-2.26a13.3,13.3,0,0,1,2.28-1.9l2.41-1.47c.77-.51,1.53-1,2.27-1.59a50.16,50.16,0,0,0,4.22-3.63,79.77,79.77,0,0,0,7.45-8.34,158.6,158.6,0,0,0,12.36-18.76,375.49,375.49,0,0,0,19.57-40.56c5.82-13.86,11.11-27.94,16.06-42.14s9.57-28.52,13.76-43c-4.07,14.49-8.58,28.84-13.4,43.09s-10,28.38-15.72,42.31a375.42,375.42,0,0,1-19.36,40.79,160.34,160.34,0,0,1-12.34,19A78.78,78.78,0,0,1,970,612.4a48.24,48.24,0,0,1-4.31,3.75c-.76.58-1.54,1.13-2.33,1.67l-2.4,1.48a11.09,11.09,0,0,0-2,1.71c-.59.63-1.12,1.42-1.7,2.16l-3.4,4.5-6.8,9-13.59,18-13.6,18a16.39,16.39,0,0,1-1.9,2.26,13.33,13.33,0,0,1-2.38,1.85,21.09,21.09,0,0,1-2.62,1.29l-2.54,1.18q-5.05,2.41-9.88,5.26c-6.39,3.82-12.52,8.2-17.45,13.69a31.24,31.24,0,0,0-5.87,9.13c-.69,1.69-1,3.35-1.6,5.37l-1.92,5.3c-2.49,7.07-4.76,14.22-6.68,21.45a142.76,142.76,0,0,0-4.27,21.93,50.42,50.42,0,0,0-.06,11,18.87,18.87,0,0,0,1.25,5.14l.24.6.3.71a13,13,0,0,1,.5,1.49,13.38,13.38,0,0,1,.43,3.08,14.32,14.32,0,0,1-1.2,6c-.8,1.77-1.59,3.44-2.41,5.15-1.64,3.4-3.32,6.78-5.07,10.13a185.59,185.59,0,0,1-11.58,19.55,57.38,57.38,0,0,1-7.41,8.86,20.45,20.45,0,0,1-2.3,1.91l-.59.45a5.74,5.74,0,0,0-.5.36,8.85,8.85,0,0,0-.92.82,11.54,11.54,0,0,0-1.57,2c-.51.78-1,1.61-1.56,2.39a98.82,98.82,0,0,1-7,9.09,76.75,76.75,0,0,1-8.08,8.15c-1.42,1.29-3,2.43-4.5,3.61-.79.55-1.6,1.07-2.4,1.61-.4.27-.8.55-1.21.8l-1.27.71a41.23,41.23,0,0,1-10.75,4.45l-2.86.66c-1,.13-2,.23-2.93.34l-1.45.15c-.42,0-.84.07-1.25.14a11.57,11.57,0,0,0-2.41.64,12.75,12.75,0,0,0-2.28,1.18l-2.4,1.43q-2.4,1.47-4.75,3a177.26,177.26,0,0,0-18,13.21c-2.82,2.41-5.56,4.91-8.12,7.58-1.24,1.35-2.51,2.69-3.64,4.13l-.87,1.06-1,1.18c-.17.19-.36.41-.53.58l-.49.47-1,1a136.36,136.36,0,0,0-14.3,17,115.13,115.13,0,0,0-11.14,19.21,85.57,85.57,0,0,0-3.94,10.34,72.18,72.18,0,0,0-2.51,10.72,65.71,65.71,0,0,0-.78,10.94,60.07,60.07,0,0,0,1.18,10.87,11.22,11.22,0,0,0,1.85,4.66l2.83,4.89,5.57,9.83c7.34,13.16,14.47,26.44,21,40.06,3.27,6.81,6.36,13.73,9,20.9.32.9.68,1.78,1,2.7l.85,2.77a49.23,49.23,0,0,1,1.38,5.72l.24,1.26a11.22,11.22,0,0,0,.33,1.13,10,10,0,0,0,1,2.1,10.56,10.56,0,0,0,3.36,3.29c.34.2.69.39,1,.56s.69.3,1.16.48l2.64,1,5.27,2.07q5.25,2.1,10.47,4.3c7,2.93,13.86,6,20.67,9.34a170.7,170.7,0,0,1,19.91,11.18c1.59,1.1,3.17,2.22,4.68,3.49a30.09,30.09,0,0,1,4.33,4.21l.5.6.47.68.46.67c.14.24.27.51.4.76l.38.77.26.59c.18.37.36.73.55,1a5.16,5.16,0,0,0,.29.46l.4.55.82,1.14,1.64,2.28c8.84,12.11,18,24,27.54,35.56s19.47,22.82,30.35,33c2.73,2.51,5.53,5,8.43,7.19a58.4,58.4,0,0,0,9.07,5.94,23.11,23.11,0,0,0,4.76,1.84,12.11,12.11,0,0,0,2.32.33h1.36a15.19,15.19,0,0,1,1.63.08l.83.11.77.15,1.38.28,2.77.55,5.53,1.11q44.23,8.79,88.59,17c29.58,5.42,59.18,10.7,88.87,15.3,7.42,1.13,14.84,2.24,22.28,3.24s14.87,1.93,22.31,2.66c3.71.37,7.43.67,11.13.86,1.84.08,3.69.17,5.5.14h2.93a14.87,14.87,0,0,1,3.31.49c.55.15,1.08.32,1.61.52l1.31.52,2.62,1,5.26,2,10.52,4c28.11,10.61,56.38,20.88,85,29.92,7.15,2.25,14.33,4.4,21.54,6.37s14.48,3.74,21.73,5c1.81.25,3.63.55,5.4.66a24.62,24.62,0,0,0,5.14,0,6.23,6.23,0,0,0,1.91-.47.93.93,0,0,0,.28-.18,3.43,3.43,0,0,0,.27-.39l.41-.61a13.15,13.15,0,0,1,1-1.3l.89-1.07,1.76-2.16a213.78,213.78,0,0,0,13.15-18,102.32,102.32,0,0,0,5.5-9.52,32.27,32.27,0,0,0,3.37-9.8,10,10,0,0,0,0-2.19c0-.34-.15-.61-.2-.92a2.53,2.53,0,0,1-.18-.37,3.3,3.3,0,0,0-.25-.54,16.61,16.61,0,0,1-2-6.27,12.46,12.46,0,0,1,0-1.73l.06-1.43.12-2.83.27-5.64c.75-15,1.65-30.08,2.86-45.11.62-7.51,1.3-15,2.18-22.54.46-3.76,1-7.52,1.56-11.28.29-1.89.69-3.78,1-5.66l.69-2.86.35-1.41a9,9,0,0,0,.25-1.12,10.23,10.23,0,0,0,.14-2.27,8.69,8.69,0,0,0-.13-1.13l-.25-1.33q-.53-2.79-1-5.58-1-5.58-1.85-11.18c-1.13-7.47-2.16-15-3-22.47s-1.47-15-2-22.59c-.18-3.77-.43-7.55-.55-11.33l-.15-5.67-.07-2.84V1062a245.25,245.25,0,0,1,3.6-45.37c.64-3.76,1.47-7.41,2.22-11.11l2.35-11q2.38-11,4.93-22.05c3.38-14.68,7-29.31,10.89-43.87s8.12-29.06,13.29-43.32a141.22,141.22,0,0,1,9.28-21l.57-1.07c.19-.36.39-.83.58-1.25l1.18-2.56,2.34-5.13,4.67-10.26c12.42-27.39,24.76-54.82,36.76-82.38,6-13.79,11.94-27.6,17.5-41.51.68-1.75,1.4-3.48,2.06-5.23l1.94-5.24a22.37,22.37,0,0,1,1.2-2.89,15.15,15.15,0,0,1,1.86-2.71,14.43,14.43,0,0,1,2.37-2.21l2.22-1.73q8.89-6.91,17.67-14c11.71-9.4,23.28-19,34.56-28.87,5.64-4.94,11.2-10,16.6-15.14a196.83,196.83,0,0,0,15.38-16.18,41.06,41.06,0,0,0,5.93-8.9,7.33,7.33,0,0,0,.6-2.14c0-.1,0-.53.08-.77s.08-.57.14-.84a12.59,12.59,0,0,1,.43-1.58l2-5.34q4-10.51,7.46-21.2c4.61-14.24,8.72-28.7,11.18-43.39,1.18-7.34,2-14.78,1.47-22.05a29.14,29.14,0,0,0-2.45-10.29,12.63,12.63,0,0,0-3-4c-.34-.26-.58-.47-1-.77l-1.18-.87c-.77-.61-1.53-1.21-2.26-1.85-5.84-5.1-10.58-11.07-15.37-16.85-2.39-2.9-4.77-5.78-7.29-8.47s-5.21-5.24-8.24-6.73c-.37-.19-.76-.31-1.13-.47a10.27,10.27,0,0,0-1.15-.3l-.57-.09-.74-.11c-.5-.08-1-.13-1.51-.24l-1.53-.4c-.52-.19-1-.43-1.55-.65a11.21,11.21,0,0,1-1.45-1,6.3,6.3,0,0,1-1.16-1.38,10.25,10.25,0,0,1-1.28-3c-.25-1-.44-1.92-.63-2.84a37.6,37.6,0,0,0-1.38-5.24,24.18,24.18,0,0,0-5.45-9l-.93-.92-1-.81a21.19,21.19,0,0,0-2.17-1.47,23.62,23.62,0,0,0-4.87-2.07,40.7,40.7,0,0,0-10.74-1.57c-3.69-.12-7.37.07-11.14.3s-7.64,0-11.42-.12-7.53-.37-11.29-.6c-15-.92-30-2.09-45-2.95-7.49-.4-15-.81-22.45-.71a41.44,41.44,0,0,0-5.43.38l-.63.11-.52.16a6,6,0,0,0-.67.23,7.58,7.58,0,0,1-.77.24,13.84,13.84,0,0,1-3.07.43,33,33,0,0,1-5.84-.43c-1.9-.28-3.76-.64-5.61-1-3.7-.73-7.36-1.5-11-2a38.75,38.75,0,0,0-10.91-.11c-.91.11-1.69.37-2.7.51s-1.94.35-2.89.47c-1.9.16-3.8.39-5.68.49s-3.77.23-5.66.31l-5.65.21c-15,.44-30.09.52-45.13.79-7.51.15-15,.28-22.53.59-1.88.06-3.75.17-5.62.26s-3.75.18-5.62.35-3.74.23-5.58.48a54.33,54.33,0,0,0-5.5.81c-1.78.32-3.64.83-5.47,1.29l-5.53,1.21q-5.54,1.14-11.08,2.19-11.1,2.09-22.21,4l-44.48,7.64c-7.41,1.28-14.83,2.53-22.2,3.93s-15.14.82-22.61,0-14.91-2.09-22.35-3.17c-3.72-.54-7.44-1-11.18-1.33a111.09,111.09,0,0,0-11.25-.19,150.65,150.65,0,0,0-22.44,2A135.9,135.9,0,0,0,1036.9,460.7Z"/><path class="cls-6" d="M900.44,1211.88c-30.38,10.12-43.88,81-43.88,81"/><path class="cls-6" d="M1003.38,1232.12c-13.5,11.82-35.44,84.38-35.44,84.38"/><path class="cls-6" d="M1094.5,1250.69c-8.44,20.25-30.38,84.37-30.38,84.37"/></svg>