<svg xmlns="http://www.w3.org/2000/svg" xmlns:xlink="http://www.w3.org/1999/xlink" viewBox="0 0 1920 1920"><defs><style>.cls-1{fill:url(#linear-gradient);}.cls-2{fill:url(#linear-gradient-2);}.cls-3{fill:url(#linear-gradient-3);}.cls-4{fill:url(#linear-gradient-4);}.cls-5{fill:url(#radial-gradient);}</style><linearGradient id="linear-gradient" x1="1064.89" y1="1154.7" x2="918.5" y2="1712.93" gradientUnits="userSpaceOnUse"><stop offset="0.08" stop-color="#141414"/><stop offset="0.08" stop-color="#141414"/><stop offset="0.95" stop-color="#020202"/></linearGradient><linearGradient id="linear-gradient-2" x1="722.62" y1="1055.47" x2="652.82" y2="1245.03" gradientUnits="userSpaceOnUse"><stop offset="0" stop-color="#030200"/><stop offset="1" stop-color="#0e0e0e"/></linearGradient><linearGradient id="linear-gradient-3" x1="650.27" y1="997.09" x2="481.39" y2="1193.3" gradientUnits="userSpaceOnUse"><stop offset="0" stop-color="#0a0a0a"/><stop offset="1" stop-color="#0e0e0e"/></linearGradient><linearGradient id="linear-gradient-4" x1="1188.38" y1="864.89" x2="422.16" y2="733.25" gradientUnits="userSpaceOnUse"><stop offset="0.37" stop-color="#030200"/><stop offset="1" stop-color="#0e0e0e"/></linearGradient><radialGradient id="radial-gradient" cx="1149.48" cy="902.92" r="421.53" gradientUnits="userSpaceOnUse"><stop offset="0" stop-color="#262525"/><stop offset="1" stop-color="#141414"/></radialGradient></defs><g id="Layer_3" data-name="Layer 3"><path class="cls-1" d="M763.89,1243.65c57.82,85.16,111.52,130.57,111.52,130.57,115.64,39.74,330.4,68.12,330.4,68.12a363.79,363.79,0,0,0,88-47.33,117.41,117.41,0,0,0,47.63-90.76l1.78-54.28a93.25,93.25,0,0,0-49.5-88.7l-158.1-65.22c-156.94,11.36-355.19-22.71-355.19-22.71C735,1090.37,763.89,1243.65,763.89,1243.65Z"/><path d="M763.89,1243.65c4.17,5.85,8.24,11.75,12.47,17.53l6.4,8.65c1.07,1.43,2.12,2.89,3.21,4.31l3.29,4.25,6.58,8.51,6.73,8.38,3.37,4.19,3.44,4.13,6.91,8.23q14,16.32,28.87,31.85c9.94,10.29,20.16,20.39,30.94,29.72l-.35-.19,20.1,6.33,2.52.79,2.53.71,5.08,1.42,10.14,2.85c6.75,2,13.58,3.63,20.39,5.37s13.62,3.5,20.48,5l20.55,4.74,20.62,4.44c6.86,1.52,13.78,2.81,20.67,4.22s13.78,2.78,20.7,4.05c27.62,5.31,55.35,10.06,83.12,14.55s55.6,8.71,83.45,12.43l-1.06.12a365.61,365.61,0,0,0,80.71-42.42,148.27,148.27,0,0,0,17.68-14.09,109.79,109.79,0,0,0,14.66-17,114.65,114.65,0,0,0,18.09-40.93,121.37,121.37,0,0,0,2.81-22.33l.74-23,.74-23,.36-11.42.09-2.81-.12-2.8c-.11-1.86-.08-3.73-.37-5.58s-.38-3.71-.7-5.55l-1-5.5c-.45-1.81-1-3.6-1.42-5.41a27.55,27.55,0,0,0-.84-2.67l-.91-2.64a93,93,0,0,0-10-19.94,92,92,0,0,0-32.93-29.69l.21.1-158-65.39,1,.17c-14.87.72-29.75,1.78-44.64,1.86l-11.16.23c-1.86,0-3.72.1-5.59.08l-5.58,0-22.32-.16c-29.76-.72-59.49-2.14-89.15-4.43s-59.25-5.24-88.78-8.79q-22.14-2.67-44.23-5.78t-44.09-6.83l.59-.06a24.41,24.41,0,0,0-8.84,5.9,37.62,37.62,0,0,0-6.19,8.92,81.46,81.46,0,0,0-6.86,21,176.13,176.13,0,0,0-2.81,22.1c-.52,7.42-.69,14.88-.64,22.33.1,14.91,1.08,29.81,2.52,44.66S761.37,1228.94,763.89,1243.65Zm0,0c-2.75-14.68-4.89-29.47-6.58-44.31s-2.78-29.76-3.06-44.72c-.13-7.47,0-15,.39-22.44a177,177,0,0,1,2.59-22.33,83.15,83.15,0,0,1,6.78-21.54,39.59,39.59,0,0,1,6.44-9.48,26.58,26.58,0,0,1,9.57-6.53l.27-.11.31,0q44,6.93,88.28,11.88t88.7,8.17c29.62,2.08,59.29,3.28,88.95,3.79s59.34-.32,88.91-2.29l.54,0,.48.2,158.17,65,.12,0,.09,0a95.65,95.65,0,0,1,45.37,52.27l1,2.79c.32.93.65,1.86.88,2.82.5,1.9,1,3.8,1.5,5.7l1.11,5.8c.33,1.94.48,3.91.73,5.86s.27,3.93.38,5.89l.12,3-.09,2.93-.38,11.57-.77,23-.76,23a126.56,126.56,0,0,1-3,23.24,119.25,119.25,0,0,1-18.9,42.63,114.1,114.1,0,0,1-15.3,17.76,149,149,0,0,1-18.27,14.5,369.57,369.57,0,0,1-81.88,42.67l-.53.2-.54-.07q-41.88-5.77-83.52-12.84c-27.77-4.69-55.5-9.64-83.13-15.15-6.91-1.32-13.81-2.76-20.7-4.2s-13.8-2.79-20.67-4.37l-20.62-4.58-20.56-4.9c-27.35-6.75-54.6-14-81.26-23.27l-.21-.07-.14-.12c-10.8-9.57-20.89-19.78-30.75-30.22s-19.34-21.23-28.56-32.23l-6.83-8.33-3.4-4.17-3.32-4.23-6.65-8.47-6.46-8.61-3.23-4.3c-1.07-1.44-2.09-2.91-3.15-4.36l-6.27-8.75C771.94,1255.52,768,1249.54,763.89,1243.65Z"/><path class="cls-2" d="M569.26,1200.16C635.08,1225.47,765,1212,765,1212c20.25-48.94-15.18-113.06-15.18-113.06l16.87-96.19-81-10.13-108,200.82"/><path d="M569.26,1200.16a175.12,175.12,0,0,0,23.75,6.55c8,1.71,16.15,3,24.3,4a491.94,491.94,0,0,0,49.14,3.24c16.41.38,32.84.15,49.25-.54s32.82-1.78,49.1-3.46l-1.67,1.25a88.91,88.91,0,0,0,4.08-13.68,102.64,102.64,0,0,0,1.73-14.22,125.67,125.67,0,0,0-.28-14.39c-.41-4.79-1.06-9.57-1.92-14.31a189.51,189.51,0,0,0-7.57-27.95q-2.42-6.86-5.27-13.53c-1.92-4.42-4-8.86-6.21-13l-.41-.77.14-.84,8.38-48.1,8.5-48.08,2.1,2.83L725.91,1000l-40.48-5.22,2.21-1.14-27.28,50.05-27.39,50c-9.12,16.66-18.35,33.28-27.55,49.9s-18.41,33.25-27.72,49.82q13-25.35,26.29-50.59c8.79-16.85,17.56-33.7,26.44-50.5L657,1041.9l26.72-50.35.71-1.32,1.5.18,40.52,4.91,40.51,5,2.54.32-.44,2.52-8.38,48.1-8.49,48.09-.27-1.6c2.39,4.47,4.42,8.92,6.39,13.48s3.72,9.17,5.35,13.84a187.65,187.65,0,0,1,7.58,28.72c.84,4.89,1.48,9.82,1.86,14.79a130.78,130.78,0,0,1,.18,15,108.26,108.26,0,0,1-1.94,14.87,87.29,87.29,0,0,1-4.48,14.37l-.47,1.14-1.21.11c-16.47,1.45-32.92,2.28-49.41,2.74s-33,.42-49.44-.21a469.44,469.44,0,0,1-49.25-4.42C600.83,1209.71,584.59,1206.23,569.26,1200.16Z"/><path class="cls-3" d="M540.58,1024.66c-10.13,43.87,15.18,180.56,15.18,180.56C662.08,1208.59,734.64,1055,734.64,1055l62.44-111.37-229.5-25.32Z"/><path d="M540.58,1024.66a122.1,122.1,0,0,0-2.27,22.58c-.16,7.58,0,15.16.39,22.72.72,15.14,2.21,30.24,4,45.28s3.85,30.07,6.23,45,4.92,29.91,7.74,44.79l-.86-.74a112.15,112.15,0,0,0,23-1.93,120.2,120.2,0,0,0,22.13-6.48,144,144,0,0,0,20.68-10.23,178,178,0,0,0,19.07-13,254.25,254.25,0,0,0,33.55-31.82q7.66-8.67,14.81-17.81t13.67-18.72a445.15,445.15,0,0,0,24.2-39.54c1.83-3.4,3.61-6.83,5.29-10.27a15.06,15.06,0,0,1,.7-1.34l.71-1.27,1.42-2.55,2.85-5.09,11.41-20.36,22.89-40.67,23-40.6,1.67,3.23c-19.12-2.17-38.22-4.51-57.33-6.76l-57.32-6.8L567.54,918.68l.37-.25-13.74,53.09Zm0,0L554,971.48l13.26-53.22.07-.28.29,0,114.86,11.73,57.42,5.85c19.14,2,38.29,3.86,57.43,5.9l3.26.35-1.6,2.88-22.6,40.76-22.72,40.7-11.4,20.32-2.85,5.08-1.43,2.54-.72,1.27c-.24.43-.48.84-.65,1.23-1.74,3.55-3.56,7-5.43,10.44a412.27,412.27,0,0,1-24.7,39.85,362.6,362.6,0,0,1-29.22,36.66,258.38,258.38,0,0,1-34.57,31.71,182.53,182.53,0,0,1-19.61,13,146.36,146.36,0,0,1-21.25,10.07,122.7,122.7,0,0,1-22.66,6.24,115,115,0,0,1-23.43,1.58l-.74,0-.12-.71c-2.58-15-4.88-29.94-7-45s-4.06-30.06-5.69-45.13-2.93-30.18-3.65-45.33c-.36-7.57-.49-15.15-.3-22.73A122.18,122.18,0,0,1,540.58,1024.66Z"/><path class="cls-4" d="M1010.39,599.41c-94.5,45.56-216,128.25-216,128.25C767.39,739.47,571.08,693,571.08,693s8.1.13-29.82-.75c-72.56-1.69-77.81-.75-77.81-.75s-20.06,2.44-70.69,29.44S354,869.41,354,869.41c37.13,32.06,131.63,43.87,131.63,43.87,11.81,35.44,54,116.44,54,116.44C629,1024.66,683,1009.47,683,1009.47c47.25-1.69,263.25-11.81,263.25-11.81L1130.2,736.09l-6.75-153.56C1096.45,555.53,1010.39,599.41,1010.39,599.41Z"/><path d="M1010.39,599.41c-18.83,9.18-37.34,19-55.66,29.16s-36.36,20.81-54.32,31.6-35.7,21.93-53.34,33.22-35.17,22.77-52.51,34.52l0,0h0a25.62,25.62,0,0,1-7,1.59c-2.37.25-4.74.36-7.12.38-4.74.06-9.47-.17-14.2-.5-9.44-.69-18.85-1.78-28.23-3-18.76-2.53-37.42-5.73-56-9.15s-37.16-7.14-55.68-11-37-7.91-55.45-12.16L561,691.79l10.11.07h.65c0-2-.09,2.71,0,2.22h-.56l-1.35,0-2.7-.06-5.41-.12-10.82-.22-21.64-.38c-14.42-.22-28.85-.4-43.27-.42-7.18,0-14.46,0-21.53.28l-.6,0-.56.08-1.26.24c-.85.19-1.71.38-2.57.6-1.71.43-3.42.93-5.12,1.45-3.41,1-6.78,2.23-10.14,3.47a391.93,391.93,0,0,0-39.25,17.69c-3.22,1.6-6.38,3.33-9.57,5-1.62.84-3.11,1.66-4.57,2.6a44.77,44.77,0,0,0-4.18,3.06,58.78,58.78,0,0,0-13.24,16.09,102,102,0,0,0-8.47,19.41,167.89,167.89,0,0,0-5.25,20.71,282.16,282.16,0,0,0-4.44,42.68,368.2,368.2,0,0,0,1.05,42.95l-.79-1.52C364.09,875,374.4,880.42,385,885a278.69,278.69,0,0,0,32.74,11.56c11.15,3.23,22.46,6,33.85,8.33s22.88,4.39,34.34,5.92l1.54.2.49,1.46c3.4,10,7.6,19.82,11.89,29.57s8.81,19.45,13.41,29.09,9.28,19.26,14,28.83,9.59,19.12,14.5,28.6l-2.31-1.32c6-.39,12-.74,18-1.18l9-.73L571,1025l4.5-.43,9-.87c3-.3,6-.66,9-1,6-.64,12-1.45,18-2.21,11.94-1.63,23.86-3.44,35.71-5.6,5.93-1.08,11.85-2.21,17.73-3.48s11.78-2.58,17.51-4.11l.28-.08h.25c21.93-.79,43.87-1.72,65.81-2.64l65.82-2.74,131.64-5.62-1.12.61,184.83-260.94-.07.22-6.47-153.57,0,.05a28.59,28.59,0,0,0-12.91-7.1,54.58,54.58,0,0,0-14.79-1.67c-10,.13-19.84,2-29.49,4.42a263,263,0,0,0-28.42,9.21C1028.48,591,1019.32,595,1010.39,599.41Zm0,0c8.92-4.44,18.08-8.4,27.38-12a260.19,260.19,0,0,1,28.41-9.26c9.65-2.46,19.52-4.32,29.51-4.46a54.5,54.5,0,0,1,14.83,1.65,28.71,28.71,0,0,1,13,7.12l0,0v0l7,153.55v.12l-.07.1-183,262.19-.4.57-.71,0-131.6,6.53-65.8,3.19c-21.94,1-43.87,2-65.84,2.9l.53-.08c-5.94,1.61-11.82,3-17.77,4.26s-11.88,2.46-17.84,3.57c-11.93,2.22-23.91,4.11-35.92,5.77-6,.77-12,1.6-18,2.25-3,.33-6,.7-9,1l-9,.89-4.53.44-4.53.37-9.06.74c-6,.46-12.09.81-18.14,1.22l-1.57.11-.74-1.42q-7.41-14.28-14.57-28.66t-14.12-28.88q-7-14.5-13.46-29.24c-4.31-9.83-8.52-19.71-12-30l2,1.66c-11.7-1.58-23.22-3.64-34.72-6s-22.91-5.18-34.2-8.47a278.15,278.15,0,0,1-33.3-11.83c-10.79-4.78-21.41-10.37-30.61-18.24l-.71-.61-.07-.91a372.74,372.74,0,0,1-.89-43.56,286.07,286.07,0,0,1,4.69-43.33,170.14,170.14,0,0,1,5.5-21.2,106.32,106.32,0,0,1,9-20.12,63,63,0,0,1,14.25-17,48.14,48.14,0,0,1,4.57-3.29c1.58-1,3.27-1.91,4.85-2.73,3.21-1.65,6.4-3.37,9.64-5A395.12,395.12,0,0,1,443,695.69c3.41-1.24,6.85-2.45,10.35-3.5,1.75-.52,3.51-1,5.3-1.46.89-.23,1.79-.43,2.71-.62.46-.09.91-.19,1.39-.27.25,0,.44-.07.78-.1s.49,0,.74,0c7.36-.24,14.52-.09,21.76,0,14.44.21,28.87.58,43.3,1l21.64.61,10.82.29,5.41.16,2.7.08,1.36,0h.63c.15-.48-.06,4.22-.08,2.23h-.7l.27-2.19q27.58,6.57,55.31,12.56c18.48,4,37,7.86,55.57,11.43s37.19,6.89,55.9,9.56c9.36,1.32,18.74,2.51,28.16,3.22,4.7.35,9.42.6,14.14.57,2.35,0,4.71-.11,7.05-.35a24.77,24.77,0,0,0,6.8-1.51l0,0q26.1-17.53,52.67-34.31T900.32,660q27-16.15,54.37-31.53C973,618.37,991.55,608.57,1010.39,599.41Z"/><path class="cls-5" d="M1050.2,513.34c77.63-59.06,472.5-27,472.5-27,69.19,50.63,37.13,175.5,37.13,175.5C1548,704,1458.58,732.72,1458.58,732.72c-45.57,35.44-129.94,335.81-129.94,335.81-37.13,79.31,15.19,121.5,15.19,121.5,6.75,102.94-1.69,116.44-1.69,116.44-16.88,64.12-150.19-33.75-212.63-38.81s-244.68-47.25-244.68-47.25c-42.19-21.94-67.5-87.75-67.5-87.75-59.07,8.43-67.5-33.75-67.5-33.75-52.32-38.82,25.31-180.57,25.31-180.57,13.5-33.75,92.81-54,92.81-54C895,839,884.83,753,884.83,753c32.06-21.94,102.93-64.13,102.93-64.13C991.14,646.66,1050.2,513.34,1050.2,513.34Z"/><path d="M1050.2,513.34a84.41,84.41,0,0,1,12.77-7.7,138.37,138.37,0,0,1,13.82-5.69,244.78,244.78,0,0,1,28.77-8,537.67,537.67,0,0,1,59.06-9q14.87-1.53,29.78-2.59t29.83-1.75c19.9-.93,39.82-1.46,59.73-1.7,39.84-.45,79.69.2,119.51,1.55s79.6,3.5,119.35,6.45l.42,0,.33.25A98.61,98.61,0,0,1,1550.11,515a132,132,0,0,1,14.14,37.31,182.42,182.42,0,0,1,3.31,19.68c.7,6.61,1.17,13.24,1.32,19.88a286.72,286.72,0,0,1-2,39.74c-.79,6.59-1.75,13.15-3,19.68-.6,3.27-1.27,6.52-2,9.77l-.3,1.25-.41,1.24-.83,2.46c-.27.83-.69,1.58-1,2.37s-.7,1.58-1.1,2.34A68.21,68.21,0,0,1,1546,686.82a122.6,122.6,0,0,1-15.4,12.89,230.47,230.47,0,0,1-34.51,20,333.9,333.9,0,0,1-36.87,15l.64-.34a46.47,46.47,0,0,0-7.44,7.81c-1.16,1.41-2.21,2.94-3.29,4.44s-2.09,3.06-3.07,4.64c-4,6.3-7.57,12.87-11,19.55-6.79,13.38-12.86,27.16-18.62,41.06-11.49,27.82-21.77,56.17-31.6,84.66s-19.1,57.19-28.06,86-17.62,57.69-25.85,86.67l0,.2-.08.18a143.88,143.88,0,0,0-10.48,30.51A112.57,112.57,0,0,0,1318,1116a105.75,105.75,0,0,0,.15,16,89,89,0,0,0,16.65,44.4c1.58,2.14,3.24,4.23,5,6.21.89,1,1.79,2,2.72,2.89s1.93,1.86,2.82,2.62l.85.71.06,1c.59,9.74,1.21,19.47,1.62,29.23.26,4.87.41,9.75.57,14.63s.26,9.76.36,14.65c.06,2.44.07,4.88.07,7.33V1263c-.08,4.9-.14,9.79-.37,14.69s-.55,9.82-1,14.73c-.3,2.47-.58,4.93-1,7.41-.19,1.23-.48,2.48-.76,3.74-.18.64-.32,1.26-.53,1.91a11.38,11.38,0,0,1-.92,2.27l.29-.69a38.36,38.36,0,0,1-2.85,7.55l-.45.91c-.16.3-.35.59-.53.89-.36.58-.71,1.17-1.09,1.74a29.92,29.92,0,0,1-2.63,3.21,28.43,28.43,0,0,1-14.19,8,43.79,43.79,0,0,1-7.9,1.16,64.37,64.37,0,0,1-7.86,0,104.86,104.86,0,0,1-15.28-2.3,231.89,231.89,0,0,1-29.18-8.87c-9.51-3.49-18.86-7.33-28.14-11.27-18.56-7.88-36.87-16.25-55.48-23.7-9.3-3.7-18.68-7.19-28.23-10a135.63,135.63,0,0,0-14.41-3.41c-2.43-.44-4.83-.71-7.27-1l-7.57-.79c-5.06-.46-10-1.22-15-1.9s-10-1.47-15-2.26l-7.47-1.2-7.45-1.29c-5-.88-9.94-1.7-14.89-2.63-19.83-3.6-39.58-7.56-59.31-11.58q-59.16-12.24-118-25.81l-.28-.06-.25-.13a92.4,92.4,0,0,1-12.16-7.8,117.32,117.32,0,0,1-10.83-9.44,163.94,163.94,0,0,1-18.33-21.86,238.46,238.46,0,0,1-15-24.17,250.61,250.61,0,0,1-12.17-25.7l2.28,1.34a99.24,99.24,0,0,1-21.18.88,64.93,64.93,0,0,1-20.83-4.8,48.7,48.7,0,0,1-17.51-12.48,49.23,49.23,0,0,1-6.21-8.87,51,51,0,0,1-2.32-4.9c-.33-.85-.65-1.7-.93-2.57a28.06,28.06,0,0,1-.76-2.73l.76,1.2a41,41,0,0,1-8.87-9.06,47.5,47.5,0,0,1-5.83-11.16,73.89,73.89,0,0,1-4.08-24.42,139.73,139.73,0,0,1,1.94-24.46,233,233,0,0,1,5.23-23.85,388.51,388.51,0,0,1,16-46c6.23-15,13.06-29.65,20.73-44l-.08.17a40.89,40.89,0,0,1,7.75-12,76.14,76.14,0,0,1,10.42-9.43,118.69,118.69,0,0,1,11.61-7.72c4-2.37,8.09-4.52,12.25-6.55a261.37,261.37,0,0,1,25.52-10.74c8.69-3.14,17.44-6,26.4-8.34l-.6.33A38.82,38.82,0,0,0,875,852,77.23,77.23,0,0,0,880,838.74a121.66,121.66,0,0,0,3-14c.76-4.71,1.3-9.47,1.68-14.24.79-9.54,1-19.13.83-28.72s-.7-19.2-1.68-28.71l-.07-.67.53-.36c8.39-5.68,16.92-11.12,25.47-16.52s17.15-10.72,25.77-16q25.86-15.84,52-31.3l-.34.55a145.85,145.85,0,0,1,4.59-23c2-7.53,4.34-15,6.77-22.37,4.9-14.78,10.27-29.39,15.87-43.92s11.46-28.94,17.45-43.3S1043.88,527.56,1050.2,513.34Zm0,0q-9.3,21.42-18.08,43T1015,599.81c-5.49,14.55-10.78,29.18-15.57,44-2.37,7.4-4.63,14.84-6.6,22.35a145.07,145.07,0,0,0-4.41,22.77l0,.36-.31.18q-26,15.63-51.73,31.62-12.89,8-25.65,16.16c-8.51,5.45-17,10.93-25.3,16.65l.47-1c1.05,9.63,1.63,19.26,1.88,28.92a286.07,286.07,0,0,1-.67,29c-.37,4.82-.9,9.64-1.65,14.43a124.65,124.65,0,0,1-3,14.27,81,81,0,0,1-5,13.78,41.37,41.37,0,0,1-8.57,12.13l-.24.23-.36.1C859.5,868,850.77,870.9,842.2,874A260,260,0,0,0,817,884.75c-4.08,2-8.11,4.15-12,6.49a115.14,115.14,0,0,0-11.29,7.57,73.2,73.2,0,0,0-9.94,9.06,37.52,37.52,0,0,0-7.13,11.07l0,.07-.06.1c-7.51,14.18-14.28,28.87-20.4,43.75a385.21,385.21,0,0,0-15.65,45.61,230.75,230.75,0,0,0-5.06,23.5,137,137,0,0,0-1.8,23.81,70.27,70.27,0,0,0,3.94,23.15A39.44,39.44,0,0,0,751,1097.32l.58.43.18.77a32.24,32.24,0,0,0,1.5,4.59,47,47,0,0,0,2.13,4.48,45.37,45.37,0,0,0,5.73,8.09,44.51,44.51,0,0,0,16.11,11.38,60.61,60.61,0,0,0,19.51,4.4,95.88,95.88,0,0,0,20.29-.9l1.64-.24.64,1.57a244.44,244.44,0,0,0,12,25.18,235.36,235.36,0,0,0,14.72,23.7A158.94,158.94,0,0,0,863.9,1202a111.52,111.52,0,0,0,10.41,9,88.15,88.15,0,0,0,11.55,7.37l-.53-.19q58.83,13.43,118,25.54c19.71,4,39.44,7.88,59.22,11.48,4.94.92,9.9,1.74,14.84,2.61l7.43,1.28,7.44,1.18c5,.79,9.91,1.61,14.88,2.24s9.93,1.43,14.89,1.88l7.45.77c2.57.25,5.17.54,7.7,1a141.24,141.24,0,0,1,14.95,3.52c9.79,2.84,19.29,6.38,28.68,10.11,18.77,7.5,37.1,15.86,55.59,23.7,9.25,3.91,18.53,7.72,27.92,11.16a226.1,226.1,0,0,0,28.54,8.66,99.46,99.46,0,0,0,14.55,2.18,56.3,56.3,0,0,0,7.23,0,38.62,38.62,0,0,0,7-1,23.48,23.48,0,0,0,11.76-6.58,24.76,24.76,0,0,0,2.15-2.62c.32-.48.6-1,.9-1.46.15-.24.31-.48.45-.73l.38-.78a33.87,33.87,0,0,0,2.47-6.55l.3-.69s0,.07,0,0l.06-.14c0-.1.08-.17.12-.29l.25-.74c.16-.5.29-1.07.44-1.6.25-1.12.51-2.25.7-3.42.42-2.31.69-4.69,1-7.06.47-4.77.83-9.58,1-14.41s.29-9.68.38-14.52v-7.28c0-2.42,0-4.85-.06-7.27-.09-4.86-.15-9.71-.34-14.57s-.3-9.71-.56-14.56c-.41-9.71-1-19.42-1.6-29.13l.91,1.76c-1.2-1-2.18-2-3.2-3s-2-2-2.92-3.09c-1.87-2.11-3.63-4.32-5.3-6.59a94.07,94.07,0,0,1-17.53-46.84,109.83,109.83,0,0,1-.15-16.82,116,116,0,0,1,2.43-16.59,148.94,148.94,0,0,1,10.84-31.53l-.14.37q12.42-43.59,26-86.78T1380.55,895c9.91-28.53,20.28-56.92,31.88-84.85,5.81-14,12-27.81,18.83-41.33,3.46-6.75,7.12-13.42,11.22-19.88,1-1.62,2.1-3.19,3.17-4.78s2.22-3.14,3.46-4.64a49.64,49.64,0,0,1,8.18-8.49l.28-.22.37-.12A334.26,334.26,0,0,0,1494.36,716a228.79,228.79,0,0,0,34-19.48,120,120,0,0,0,15-12.42A64.62,64.62,0,0,0,1555,669c.38-.69.67-1.43,1-2.14s.71-1.42,1-2.16l.76-2.22.37-1.11.29-1.15c.74-3.17,1.42-6.38,2-9.59,1.23-6.44,2.21-12.93,3-19.43a284.44,284.44,0,0,0,2.08-39.24c-.12-6.55-.55-13.09-1.22-19.59a180,180,0,0,0-3.17-19.34,128.38,128.38,0,0,0-13.65-36.46,95.41,95.41,0,0,0-25.59-29l.75.28c-39.66-3.11-79.43-5.31-119.21-6.92s-79.58-2.51-119.39-2.31c-19.9.11-39.81.51-59.69,1.32q-14.93.61-29.82,1.56t-29.75,2.39q-14.87,1.42-29.64,3.51c-9.85,1.39-19.67,3-29.41,5.07a242.78,242.78,0,0,0-28.8,7.76,137.73,137.73,0,0,0-13.84,5.55A84,84,0,0,0,1050.2,513.34Z"/></g></svg>