<svg id="Layer_1" data-name="Layer 1" xmlns="http://www.w3.org/2000/svg" xmlns:xlink="http://www.w3.org/1999/xlink" viewBox="0 0 1920 1920"><defs><style>.cls-1,.cls-2,.cls-3,.cls-4{stroke:#000;stroke-miterlimit:10;stroke-width:5px;}.cls-1{fill:url(#linear-gradient);}.cls-2{fill:url(#linear-gradient-2);}.cls-3{fill:url(#linear-gradient-3);}.cls-4{fill:none;}</style><linearGradient id="linear-gradient" x1="1015.87" y1="715.14" x2="1396.61" y2="715.14" gradientUnits="userSpaceOnUse"><stop offset="0.01" stop-color="#202020"/><stop offset="0.19" stop-color="#333"/><stop offset="0.56" stop-color="#646464"/><stop offset="1" stop-color="#130"/></linearGradient><linearGradient id="linear-gradient-2" x1="525.06" y1="973.67" x2="1288.45" y2="973.67" gradientUnits="userSpaceOnUse"><stop offset="0.01" stop-color="#202020"/><stop offset="0.19" stop-color="#333"/><stop offset="0.56" stop-color="#646464"/><stop offset="1" stop-color="#053000"/></linearGradient><linearGradient id="linear-gradient-3" x1="1109.93" y1="950.95" x2="1332.83" y2="950.95" gradientTransform="matrix(1.07, -0.03, 0.03, 1.03, -73.34, 70)" gradientUnits="userSpaceOnUse"><stop offset="0.01" stop-color="#202020"/><stop offset="0.19" stop-color="#333"/><stop offset="0.56" stop-color="#646464"/><stop offset="1" stop-color="#082e00"/></linearGradient></defs><path class="cls-1" d="M1396.46,858.65l-7.34-32.33a5.87,5.87,0,0,0-2.3-3.45l-7.57-5.41a5.82,5.82,0,0,1-2.44-4.74V797.64a5.18,5.18,0,0,0-.08-1L1374,780a5.83,5.83,0,0,0-3.38-4.37l-12.08-5.37L1358,770l-13.11-7.28a5.87,5.87,0,0,1-2.61-3l-7.07-18.38a5.86,5.86,0,0,1-.27-3.24l4.29-21.44a5.88,5.88,0,0,0-.72-4.14l-11.37-19a5.81,5.81,0,0,1,1.42-7.59l7.12-5.54a5.82,5.82,0,0,0,1.48-7.49l-2.7-4.72a5.86,5.86,0,0,1-.15-5.5l1.79-3.58a5.83,5.83,0,0,0-1.09-6.72l-3.35-3.35a5.82,5.82,0,0,1-1.62-5.08l.26-1.6a5.82,5.82,0,0,0-4.6-6.67h0a5.83,5.83,0,0,1-4.15-3.27l-8.18-17.74a5.83,5.83,0,0,1-.5-3.16l1-8a5.84,5.84,0,0,0-2.89-5.78l-5.78-3.3a5.83,5.83,0,0,1-2.91-4.58l-1.12-13.36a5.82,5.82,0,0,0-4-5l-2.5-.83a5.82,5.82,0,0,1-4-5.53V541.65a5.85,5.85,0,0,0-2-4.43l-6.88-5.89a5.84,5.84,0,0,1-1.78-6.14l4.29-13.92a5.84,5.84,0,0,0-2.58-6.71l-11.57-6.95a5.89,5.89,0,0,0-3-.83h-37.38l-51.73,3.14a5.83,5.83,0,0,0-5.11,3.77l-2.1,5.61a5.82,5.82,0,0,1-6.23,3.73l-43.17-5.75a5.83,5.83,0,0,0-4.89,1.65l-9.14,9.14a5.73,5.73,0,0,0-1,1.44l-53.35,103.37a5.48,5.48,0,0,0-.39.94l-36.53,117.89a5.86,5.86,0,0,0-.14,2.91l17.87,86.11a5.89,5.89,0,0,0,1.8,3.13l69.94,63.44a5.9,5.9,0,0,0,2.82,1.41l180,34.68a5.86,5.86,0,0,0,4.28-.84l98.41-64a5.64,5.64,0,0,0,1.49-1.39l2.82-3.76A5.82,5.82,0,0,0,1396.46,858.65Z"/><path class="cls-2" d="M527.05,1029.43c22.72-17.52,108.55-129.58,116.76-140.32a5.22,5.22,0,0,0,.88-1.84l2.72-10.89a5.1,5.1,0,0,1,1.67-2.66L697.94,833a5.31,5.31,0,0,0,.88-1l15.67-21.94a5.13,5.13,0,0,1,2.12-1.71l21.11-9a5.06,5.06,0,0,0,2-1.58l20.77-27.15a4.83,4.83,0,0,1,.83-.86L796,741.72a4.81,4.81,0,0,1,.66-.45l54.93-31.63a5.08,5.08,0,0,0,.77-.54l34.76-29.8a4.54,4.54,0,0,0,.58-.58l26.22-31.13a4.87,4.87,0,0,1,1.21-1.05l56.68-35,36.92-21.81c.14-.09.27-.17.4-.27l17-12.36a5.16,5.16,0,0,0,1.86-2.61l5.48-17.83a5.07,5.07,0,0,1,3.24-3.32l27.36-9.12a5.15,5.15,0,0,0,1-.48L1095,525.47h0a5.06,5.06,0,0,1,7.28,6.08l-5.36,15.2a5.22,5.22,0,0,1-.63,1.22L1086,562.72a5,5,0,0,0-.88,3.46l3.16,28.48,3.14,28.21a5.09,5.09,0,0,1-1.16,3.82l-24.11,28.63a5.07,5.07,0,0,0-1.13,4.06l6.35,39.71c0,.13.05.25.08.38l10,41.48a4.94,4.94,0,0,0,.35,1l16,33.52a5.09,5.09,0,0,0,2.06,2.22l20.92,12a5,5,0,0,1,2,2.13l20.49,41a5.09,5.09,0,0,0,2.27,2.27l25.08,12.54a4.12,4.12,0,0,1,.77.48l18.54,13.9a5.08,5.08,0,0,0,3,1h38a5.05,5.05,0,0,1,1.54.24l35.81,11.39a5,5,0,0,0,1.15.23l14.38,1.1a5.07,5.07,0,0,1,4.28,7l-13.8,33.1a5.21,5.21,0,0,0-.38,2v22.61a5.06,5.06,0,0,1-1,3l-23.41,31.22a5,5,0,0,0-1,2.65L1247,996.65a5.13,5.13,0,0,1-.84,2.42L1223.52,1033a4.86,4.86,0,0,0-.46.84l-12.77,30.33a5.09,5.09,0,0,1-1.67,2.12l-21.14,15.5a5,5,0,0,0-1.77,5.78l6.37,17.85a5.08,5.08,0,0,1-.4,4.27l-15.27,25.94a4.73,4.73,0,0,1-1,1.24L1149,1160c-31,27.76-128.41,87.12-134.68,90.93a4.51,4.51,0,0,0-.61.44l-39.6,33a5.13,5.13,0,0,1-1.27.77c-17.21,7.26-83.76,47.94-90,51.76a5.09,5.09,0,0,0-.86.67l-48.79,47.16a5.29,5.29,0,0,0-1.57,2.84c-2.19,12.87-32.46,29.74-41.32,34.42a5,5,0,0,1-4.69,0c-31.16-16.5-64.22-7.87-70.81-5.88a4.85,4.85,0,0,1-2.45.12l-29.45-5.89a5.05,5.05,0,0,1-3.87-3.57l-5.52-19.3a5,5,0,0,0-1.42-2.32l-22.59-21-28.14-24.83a4.85,4.85,0,0,0-1.21-.79l-24.1-11.25a5,5,0,0,0-1.15-.38l-19.33-3.86a5.06,5.06,0,0,1-3.87-6.36l5.15-18a5.71,5.71,0,0,1,.21-.58l12.14-28.84a5.05,5.05,0,0,0-.88-5.32l-10.51-11.82a5.18,5.18,0,0,1-1.16-2.27l-2.95-13.3a4.89,4.89,0,0,0-.42-1.16l-4-8.08a5,5,0,0,1-.45-3.13l6.2-35.65a5.09,5.09,0,0,0-.37-2.93l-5.37-12.1A5.06,5.06,0,0,1,569,1170l9-31.55a5.05,5.05,0,0,0-.52-4L563.44,1111l-14.39-22.37a5.12,5.12,0,0,1-.8-2.74V1072a5.1,5.1,0,0,0-.82-2.77l-21.55-33A5.07,5.07,0,0,1,527.05,1029.43Z"/><path class="cls-3" d="M1177.87,1134.08l27-24.63a8.54,8.54,0,0,0,1.75-2.21l19.29-34.73a8.84,8.84,0,0,1,1.4-1.88l28.59-29.12a10.15,10.15,0,0,0,.74-.86l16.75-22.23a8.17,8.17,0,0,1,.6-.72l34.84-37.19a8.79,8.79,0,0,0,2.14-4l4.81-21.09a8.7,8.7,0,0,1,5.35-6.2l27.28-10.59a8.67,8.67,0,0,0,3.87-3l7.13-9.7a8.79,8.79,0,0,0,1.69-5.44l-.34-10.79a8.76,8.76,0,0,1,2.23-6.11l16.26-18.07a8.73,8.73,0,0,0,1.1-1.53h0a8.73,8.73,0,0,0-10.5-12.54l-15.14,5.36a7.93,7.93,0,0,1-.83.25l-30.8,7.57a8.93,8.93,0,0,1-2.25.25l-29.73-.56a8.68,8.68,0,0,0-6.12,2.34l-17.92,16.75a8.27,8.27,0,0,0-1.07,1.21L1240.76,939a9,9,0,0,1-.68.82L1199,983.44a8.9,8.9,0,0,0-1,1.29l-27.76,43.5a8.61,8.61,0,0,0-1.33,3.83l-3.82,38.63a8.53,8.53,0,0,1-.42,1.93l-14.23,42.12a8.73,8.73,0,0,0,3,9.74l13.32,10.11A8.72,8.72,0,0,0,1177.87,1134.08Z"/><path class="cls-4" d="M738.94,798.84s-15.75,28.69-15.75,39.94l-9,63"/><polyline class="cls-4" points="590.44 1266.28 617.44 1207.78 669.19 1124.53"/><polyline class="cls-4" points="1148.4 1120.69 1112.44 1099.78 1107.94 1070.53 1114.69 985.03"/><line class="cls-4" x1="1324.5" y1="689.16" x2="1242.94" y2="712.78"/><line class="cls-4" x1="1316.82" y1="950.88" x2="1265.44" y2="985.03"/><line class="cls-4" x1="1064.63" y1="657.09" x2="1031.44" y2="701.53"/><line class="cls-4" x1="1027.5" y1="576.09" x2="1020.19" y2="604.78"/></svg>