<svg id="Layer_1" data-name="Layer 1" xmlns="http://www.w3.org/2000/svg" xmlns:xlink="http://www.w3.org/1999/xlink" viewBox="0 0 1920 1920"><defs><style>.cls-1,.cls-2,.cls-3,.cls-4{stroke:#000;stroke-miterlimit:10;stroke-width:5px;}.cls-1{fill:url(#linear-gradient);}.cls-2{fill:url(#linear-gradient-2);}.cls-3{fill:url(#linear-gradient-3);}.cls-4{fill:none;}</style><linearGradient id="linear-gradient" x1="1015.04" y1="715.48" x2="1395.78" y2="715.48" gradientUnits="userSpaceOnUse"><stop offset="0.01" stop-color="#202020"/><stop offset="0.36" stop-color="#16280d"/><stop offset="0.56" stop-color="#0f2e00"/><stop offset="1" stop-color="#130"/></linearGradient><linearGradient id="linear-gradient-2" x1="524.22" y1="974" x2="1287.62" y2="974" gradientUnits="userSpaceOnUse"><stop offset="0.01" stop-color="#202020"/><stop offset="0.36" stop-color="#14280d"/><stop offset="0.56" stop-color="#0c2e00"/><stop offset="1" stop-color="#053000"/></linearGradient><linearGradient id="linear-gradient-3" x1="1034.8" y1="1060.22" x2="1257.7" y2="1060.22" gradientTransform="matrix(1.07, -0.03, 0.03, 1.03, 2.8, -44.22)" gradientUnits="userSpaceOnUse"><stop offset="0.01" stop-color="#202020"/><stop offset="0.36" stop-color="#132b0d"/><stop offset="0.56" stop-color="#0a3300"/><stop offset="1" stop-color="#082e00"/></linearGradient></defs><path class="cls-1" d="M1395.63,859l-7.35-32.34a5.81,5.81,0,0,0-2.29-3.45l-7.57-5.4a5.84,5.84,0,0,1-2.44-4.74V798a6,6,0,0,0-.08-1l-2.78-16.69a5.8,5.8,0,0,0-3.38-4.36l-12.09-5.37-.46-.23-13.11-7.29a5.81,5.81,0,0,1-2.61-3l-7.07-18.39a5.84,5.84,0,0,1-.28-3.23l4.29-21.45a5.82,5.82,0,0,0-.71-4.14l-11.38-19a5.84,5.84,0,0,1,1.42-7.6l7.13-5.54a5.83,5.83,0,0,0,1.48-7.49l-2.7-4.72a5.84,5.84,0,0,1-.15-5.49l1.79-3.58a5.84,5.84,0,0,0-1.09-6.73l-3.35-3.35a5.82,5.82,0,0,1-1.63-5.07l.27-1.61a5.83,5.83,0,0,0-4.6-6.67h0a5.81,5.81,0,0,1-4.15-3.27l-8.19-17.73a6,6,0,0,1-.49-3.17l1-8a5.82,5.82,0,0,0-2.89-5.78l-5.78-3.31a5.78,5.78,0,0,1-2.91-4.57l-1.12-13.37a5.82,5.82,0,0,0-4-5l-2.5-.83a5.83,5.83,0,0,1-4-5.53V542a5.83,5.83,0,0,0-2-4.42l-6.88-5.9a5.82,5.82,0,0,1-1.77-6.13l4.28-13.93a5.82,5.82,0,0,0-2.57-6.71L1269.36,498a5.74,5.74,0,0,0-3-.83H1229l-51.74,3.13a5.84,5.84,0,0,0-5.1,3.77l-2.1,5.62a5.84,5.84,0,0,1-6.23,3.73l-43.17-5.76a5.8,5.8,0,0,0-4.89,1.66l-9.14,9.13a6.28,6.28,0,0,0-1.06,1.45l-53.34,103.36a5.58,5.58,0,0,0-.39.95L1015.3,742.05a5.87,5.87,0,0,0-.14,2.91L1033,831.07a5.83,5.83,0,0,0,1.79,3.13l70,63.44a5.78,5.78,0,0,0,2.81,1.41l180,34.68a5.82,5.82,0,0,0,4.28-.83l98.41-64a5.79,5.79,0,0,0,1.49-1.39l2.82-3.77A5.8,5.8,0,0,0,1395.63,859Z"/><path class="cls-2" d="M526.22,1029.77C548.94,1012.24,634.77,900.19,643,889.44a5,5,0,0,0,.89-1.84l2.72-10.88a5,5,0,0,1,1.67-2.66l48.85-40.71a4.94,4.94,0,0,0,.88-1l15.68-21.94a4.92,4.92,0,0,1,2.12-1.71l21.1-9a5,5,0,0,0,2-1.58L759.68,771a4.83,4.83,0,0,1,.83-.86l34.66-28.05a6,6,0,0,1,.66-.46L850.76,710a5.15,5.15,0,0,0,.77-.55l34.76-29.8a4.54,4.54,0,0,0,.58-.58l26.21-31.13a5.21,5.21,0,0,1,1.21-1l56.69-35,36.92-21.82c.14-.08.27-.17.4-.26l17-12.37a5,5,0,0,0,1.86-2.6l5.49-17.84a5.05,5.05,0,0,1,3.24-3.31l27.36-9.12a4.83,4.83,0,0,0,1-.48l29.89-18.27h0a5.06,5.06,0,0,1,7.28,6.08l-5.37,15.21a5.19,5.19,0,0,1-.62,1.22l-10.32,14.74a5.08,5.08,0,0,0-.89,3.46l3.17,28.48,3.13,28.22a5,5,0,0,1-1.16,3.82l-24.11,28.63a5.08,5.08,0,0,0-1.12,4.06l6.35,39.7c0,.13,0,.26.08.39l10,41.48a5.11,5.11,0,0,0,.36,1l16,33.53a5,5,0,0,0,2.06,2.22l20.92,12a5.1,5.1,0,0,1,2,2.13l20.5,41a5,5,0,0,0,2.26,2.26l25.09,12.54a5.52,5.52,0,0,1,.77.48l18.53,13.9a5.07,5.07,0,0,0,3,1h38a4.94,4.94,0,0,1,1.53.24l35.82,11.4a5,5,0,0,0,1.15.22l14.37,1.11a5.06,5.06,0,0,1,4.29,7l-13.8,33.11a5,5,0,0,0-.39,2v22.61a5.07,5.07,0,0,1-1,3l-23.42,31.22a5.09,5.09,0,0,0-1,2.65L1246.14,997a5,5,0,0,1-.83,2.42l-22.63,33.94a5.67,5.67,0,0,0-.45.84l-12.77,30.33a5,5,0,0,1-1.67,2.12l-21.14,15.5a5.07,5.07,0,0,0-1.78,5.79l6.38,17.84a5.08,5.08,0,0,1-.41,4.27L1175.58,1136a5,5,0,0,1-1,1.25l-26.38,23.08c-31,27.76-128.42,87.12-134.69,90.94a5,5,0,0,0-.6.43l-39.6,33a5.05,5.05,0,0,1-1.27.78c-17.21,7.25-83.76,47.93-90,51.75a5.67,5.67,0,0,0-.87.68L832.36,1385a5.16,5.16,0,0,0-1.57,2.83c-2.19,12.87-32.46,29.74-41.32,34.43a5,5,0,0,1-4.69,0c-31.16-16.51-64.22-7.87-70.81-5.88a5.12,5.12,0,0,1-2.46.12l-29.44-5.89a5.06,5.06,0,0,1-3.88-3.57l-5.51-19.3a5.09,5.09,0,0,0-1.42-2.32l-22.59-21-28.14-24.83a5,5,0,0,0-1.21-.79l-24.1-11.25a5.15,5.15,0,0,0-1.15-.37l-19.33-3.87a5.06,5.06,0,0,1-3.88-6.35L576,1299a5.49,5.49,0,0,1,.2-.57l12.15-28.84a5.07,5.07,0,0,0-.89-5.33L577,1252.41a5.09,5.09,0,0,1-1.16-2.26l-3-13.3a4.53,4.53,0,0,0-.41-1.17l-4-8.07a5.13,5.13,0,0,1-.46-3.13l6.2-35.66a5,5,0,0,0-.36-2.92l-5.38-12.1a5.12,5.12,0,0,1-.24-3.45l9-31.56a5.07,5.07,0,0,0-.53-4l-14.06-23.43L548.22,1089a5.07,5.07,0,0,1-.8-2.74v-13.88a5.1,5.1,0,0,0-.82-2.76l-21.56-33A5.07,5.07,0,0,1,526.22,1029.77Z"/><path class="cls-3" d="M1177,1134.42l27-24.63a8.63,8.63,0,0,0,1.74-2.21l19.29-34.73a8.93,8.93,0,0,1,1.4-1.88l28.59-29.13a7.48,7.48,0,0,0,.74-.86l16.75-22.23a6.91,6.91,0,0,1,.61-.71L1308,980.85a8.68,8.68,0,0,0,2.14-4l4.81-21.09a8.75,8.75,0,0,1,5.35-6.19L1347.58,939a8.77,8.77,0,0,0,3.88-3l7.13-9.71a8.7,8.7,0,0,0,1.68-5.44l-.33-10.78a8.74,8.74,0,0,1,2.23-6.11l16.26-18.08a8.73,8.73,0,0,0,1.1-1.53h0A8.72,8.72,0,0,0,1369,871.8l-15.14,5.36c-.28.09-.55.18-.83.25l-30.8,7.56a8.54,8.54,0,0,1-2.25.25l-29.73-.56a8.73,8.73,0,0,0-6.12,2.35l-17.92,16.74a8.82,8.82,0,0,0-1.08,1.21l-25.23,34.37a8.81,8.81,0,0,1-.69.82l-41.1,43.63a8,8,0,0,0-1,1.29l-27.76,43.49a8.78,8.78,0,0,0-1.33,3.84l-3.81,38.62a9.2,9.2,0,0,1-.42,1.94l-14.23,42.11a8.73,8.73,0,0,0,3,9.75l13.31,10.1A8.72,8.72,0,0,0,1177,1134.42Z"/><path class="cls-4" d="M738.1,799.18s-15.75,28.69-15.75,39.94l-9,63"/><polyline class="cls-4" points="589.61 1266.62 616.61 1208.12 668.36 1124.87"/><path class="cls-4" d="M1147.57,1121l-15.39-8.94a49.79,49.79,0,0,1-24.19-35.49h0a49.72,49.72,0,0,1-.43-11.5l6.29-79.72"/><line class="cls-4" x1="1323.67" y1="689.49" x2="1242.1" y2="713.12"/><line class="cls-4" x1="1315.98" y1="951.21" x2="1264.6" y2="985.37"/><line class="cls-4" x1="1063.79" y1="657.43" x2="1030.6" y2="701.87"/><line class="cls-4" x1="1026.67" y1="576.43" x2="1019.35" y2="605.12"/></svg>