<svg xmlns="http://www.w3.org/2000/svg" xmlns:xlink="http://www.w3.org/1999/xlink" viewBox="0 0 1920 1920"><defs><style>.cls-1{fill:url(#linear-gradient);}.cls-2{stroke:#000;stroke-miterlimit:10;stroke-width:2px;fill:url(#linear-gradient-2);}.cls-3{fill:url(#linear-gradient-3);}.cls-4{fill:url(#Shine_Gradient);}.cls-5{fill:url(#linear-gradient-4);}.cls-6{fill:url(#linear-gradient-5);}.cls-7{fill:url(#linear-gradient-6);}.cls-8{fill:url(#Shine_Gradient-2);}.cls-9{fill:url(#Shine_Gradient-3);}</style><linearGradient id="linear-gradient" x1="616.51" y1="1306.18" x2="1198.78" y2="726.73" gradientUnits="userSpaceOnUse"><stop offset="0" stop-color="#013000"/><stop offset="0.37" stop-color="#014600"/><stop offset="0.77" stop-color="#359a00"/></linearGradient><linearGradient id="linear-gradient-2" x1="1162.33" y1="854.3" x2="1440.89" y2="926.23" gradientTransform="translate(-137.28 235.87) rotate(-10.33)" gradientUnits="userSpaceOnUse"><stop offset="0" stop-color="#037300"/><stop offset="0.67" stop-color="#014600"/><stop offset="1" stop-color="#051500"/></linearGradient><linearGradient id="linear-gradient-3" x1="1029.42" y1="801.96" x2="1012.23" y2="830.56" gradientUnits="userSpaceOnUse"><stop offset="0.01" stop-color="#c8c8c8"/><stop offset="0.41" stop-color="#dbdbdb"/><stop offset="1" stop-color="#fff"/></linearGradient><linearGradient id="Shine_Gradient" x1="801.4" y1="1317.93" x2="755.61" y2="1394.11" gradientUnits="userSpaceOnUse"><stop offset="0" stop-color="#afafaf"/><stop offset="0.29" stop-color="#c2c2c2"/><stop offset="0.88" stop-color="#f4f4f4"/><stop offset="1" stop-color="#fff"/></linearGradient><linearGradient id="linear-gradient-4" x1="605.22" y1="1029.54" x2="571.54" y2="1085.58" xlink:href="#linear-gradient-3"/><linearGradient id="linear-gradient-5" x1="1003.21" y1="598.77" x2="980.84" y2="635.99" xlink:href="#linear-gradient-3"/><linearGradient id="linear-gradient-6" x1="1243.56" y1="545.43" x2="1053.23" y2="862.1" gradientUnits="userSpaceOnUse"><stop offset="0.01" stop-color="#003604"/><stop offset="0.25" stop-color="#004904"/><stop offset="0.56" stop-color="#006705"/><stop offset="1" stop-color="#3bb800"/></linearGradient><linearGradient id="Shine_Gradient-2" x1="1022.3" y1="789.15" x2="1002.88" y2="821.46" xlink:href="#Shine_Gradient"/><linearGradient id="Shine_Gradient-3" x1="926.61" y1="659.78" x2="890.93" y2="719.15" xlink:href="#Shine_Gradient"/></defs><g id="Layer_3" data-name="Layer 3"><path class="cls-1" d="M1066.9,565.92a26.93,26.93,0,0,1-5.06,1.48c-7.18,1.35-31.29,7.24-80.87,31.11C920.22,627.76,753.72,801,753.72,801,726,830.76,582.87,998.54,549.28,1038a26.53,26.53,0,0,0-5.86,22.52c4.71,22.87,21.19,50.47,29.67,63.61a26.8,26.8,0,0,1,4.19,16.72c-2.6,31.45-1.86,89.62-1.48,111a26.74,26.74,0,0,0,4.83,14.83l2.57,3.67a26.7,26.7,0,0,1,2.67,25.83h0a26.69,26.69,0,0,0,7.25,30.87c24.64,20.93,71.67,59.72,88.86,73.88a26.67,26.67,0,0,0,14.82,6c23.55,1.89,54.51,4.66,65.93,5.69a26.53,26.53,0,0,0,10.62-1.19c28.63-9.37,59.7-45.4,69.49-57.45a26.79,26.79,0,0,1,7.74-6.51c95.13-53.23,293.68-203,317.11-220.72a26.79,26.79,0,0,0,4.11-3.85c25.3-29.39,94.13-106.94,111.26-126.23a26.39,26.39,0,0,0,5.46-9.55c7-22.33,16-37,19.48-42.24a25.65,25.65,0,0,1,2.69-3.37c9.28-9.86,34.24-41.37,48-58.82a26.71,26.71,0,0,0,3.07-28.06c-8.78-18.36-24-43-31.71-55.16a26.75,26.75,0,0,1-4.11-15.72c2.66-50.26-19.57-104.17-26-118.54a27.15,27.15,0,0,1-2.06-6.84c-4.21-27.27-37.93-92.12-52-118.32a26.6,26.6,0,0,0-22.11-14C1174.84,523.6,1083.66,559.19,1066.9,565.92Z"/><path d="M1067,566.16a27.61,27.61,0,0,1-4.88,1.44c-1.65.33-3.28.67-4.91,1.09q-4.89,1.21-9.7,2.72c-6.41,2-12.74,4.25-19,6.66-12.55,4.81-24.87,10.21-37.07,15.87l-9.11,4.31c-1.53.7-3,1.54-4.47,2.3s-3,1.55-4.4,2.45l-4.31,2.59c-1.43.88-2.81,1.84-4.22,2.75s-2.82,1.82-4.18,2.8l-4.11,2.91c-10.93,7.82-21.44,16.22-31.78,24.81s-20.48,17.42-30.47,26.43-19.89,18.09-29.7,27.3q-29.4,27.61-58,56.12-14.31,14.2-28.43,28.62l-14.07,14.45c-4.65,4.86-9.39,9.62-13.81,14.65-8.95,10-17.77,20.17-26.56,30.35l-26.29,30.59q-52.47,61.32-104.52,123l-26,30.82-13,15.42-1.63,1.92c-.54.65-1.1,1.3-1.54,1.87a25.52,25.52,0,0,0-2.46,3.81,23.91,23.91,0,0,0-2.57,13.11c.09.75.18,1.49.33,2.23s.36,1.56.54,2.34l.57,2.37.69,2.36c.43,1.57,1,3.12,1.5,4.68a167,167,0,0,0,7.63,18.29c2.88,6,6,11.84,9.37,17.6,1.67,2.88,3.37,5.75,5.13,8.58.87,1.42,1.77,2.82,2.66,4.23l1.36,2.09c.46.72,1,1.57,1.43,2.38a30.12,30.12,0,0,1,3.4,10.7,30.45,30.45,0,0,1,.14,5.65l-.33,5q-.6,10-.84,20c-.36,13.39-.41,26.82-.38,40.24s.23,26.86.51,40.29l.1,5a24.66,24.66,0,0,0,.46,4.35,23.21,23.21,0,0,0,3.24,8l.63.92.72,1,1.46,2.06c.23.32.5.73.76,1.14s.55.79.78,1.22c.48.83,1,1.67,1.35,2.55a30.58,30.58,0,0,1,1.45,22.53c-.26.91-.68,1.85-1,2.68s-.54,1.33-.72,2a21.16,21.16,0,0,0-.54,2.08l-.21,1-.13,1.06a22,22,0,0,0,.65,8.5,22.38,22.38,0,0,0,3.73,7.66,19.39,19.39,0,0,0,1.36,1.64l.73.79c.26.25.53.48.79.72s.49.47.82.74l1,.8,2,1.61,7.77,6.42,15.54,12.85,62.15,51.42.47.39.42.33c.27.23.56.42.84.63a20.73,20.73,0,0,0,1.79,1.13,21.42,21.42,0,0,0,3.84,1.74,22.17,22.17,0,0,0,4.09,1c1.28.17,3.11.29,4.75.44l20.12,1.72,40.23,3.43,2.48.21c.7,0,1.4.08,2.1.07a21.47,21.47,0,0,0,4.17-.46,20.13,20.13,0,0,0,2-.52c.66-.21,1.43-.54,2.15-.8l2.19-.84c.36-.14.73-.27,1.09-.43l1.07-.52a95.26,95.26,0,0,0,16.54-9.88c2.67-1.86,5.2-3.94,7.78-6s5-4.23,7.44-6.48c4.89-4.42,9.6-9.07,14.16-13.88s9-9.77,13.22-14.85c1.09-1.28,2-2.48,3.4-4a31.31,31.31,0,0,1,4.39-3.91,46.15,46.15,0,0,1,4.73-3l4.34-2.52,8.66-5,4.34-2.52,4.27-2.63,17.1-10.56q33.94-21.62,67.15-44.46c44.33-30.36,88.13-61.58,131.57-93.26q32.57-23.79,65-47.8l8.09-6,4-3a31.81,31.81,0,0,0,3.55-2.9c.54-.52,1-1,1.53-1.63l1.68-1.89,3.36-3.77,6.71-7.53,26.83-30.15,53.68-60.3,13.42-15.08,6.63-7.47a23.81,23.81,0,0,0,4.37-7.91A184.09,184.09,0,0,1,1302.65,949c.88-1.47,1.78-2.92,2.72-4.36l.72-1.08c.26-.38.52-.76.8-1.13.55-.73,1.14-1.43,1.75-2.11,2.32-2.46,4.48-4.92,6.68-7.47,4.36-5.07,8.64-10.25,12.9-15.43q12.78-15.58,25.3-31.4l3.14-4c.55-.67,1-1.27,1.44-1.91s.87-1.29,1.23-2a25.09,25.09,0,0,0,1.89-4.27,25.52,25.52,0,0,0,1-4.56,24.8,24.8,0,0,0-.54-9.32,25.59,25.59,0,0,0-1.56-4.43c-.7-1.49-1.43-3-2.18-4.49-6-12-12.71-23.59-19.6-35.11l-5.23-8.61-2.65-4.28c-.88-1.44-1.79-2.79-2.67-4.39a28,28,0,0,1-3.19-10.08,30.12,30.12,0,0,1-.14-5.28l.14-5a206.35,206.35,0,0,0-3.25-39.89,301.33,301.33,0,0,0-9.61-39q-3-9.61-6.58-19c-1.18-3.13-2.43-6.25-3.71-9.35q-1-2.32-2-4.62a34.8,34.8,0,0,1-1.81-4.83c-.88-3.44-1.24-6.64-2.13-9.88l-1.32-4.83-1.55-4.78-.78-2.39-.86-2.36-1.72-4.72c-1.23-3.12-2.45-6.25-3.72-9.36-5.14-12.41-10.77-24.62-16.61-36.72s-11.91-24.11-18.14-36l-4.7-8.92a39,39,0,0,0-2.54-4.29,28.78,28.78,0,0,0-3.24-3.74,26.19,26.19,0,0,0-18-7.21,140.28,140.28,0,0,0-20.07.92c-6.68.74-13.31,1.8-19.91,3.08-13.19,2.55-26.23,5.85-39.16,9.55C1117.42,547.38,1092,556.25,1067,566.16Zm-.19-.47c25-9.94,50.43-18.85,76.28-26.33,12.93-3.72,26-7,39.2-9.61,6.61-1.29,13.26-2.37,20-3.11a140.18,140.18,0,0,1,20.18-.95,26.88,26.88,0,0,1,18.47,7.38,30.62,30.62,0,0,1,3.35,3.84,41.08,41.08,0,0,1,2.6,4.36l4.73,8.91q9.4,17.85,18.26,36c5.88,12.1,11.56,24.31,16.74,36.73,1.3,3.11,2.52,6.24,3.76,9.37l1.75,4.74.87,2.37.8,2.39,1.57,4.81,1.35,4.87c.9,3.24,1.31,6.66,2.15,9.84a33.53,33.53,0,0,0,1.77,4.68q1,2.29,2,4.64c1.3,3.1,2.56,6.22,3.75,9.37,2.41,6.28,4.66,12.63,6.69,19a301.29,301.29,0,0,1,9.86,39.14,208.41,208.41,0,0,1,3.47,40.2l-.11,5a27.6,27.6,0,0,0,.16,5,26,26,0,0,0,3,9.42c3.48,5.7,7.13,11.4,10.59,17.15,7,11.51,13.76,23.14,19.86,35.15.77,1.5,1.5,3,2.23,4.53a28.11,28.11,0,0,1,1.72,4.81,27.06,27.06,0,0,1,.64,10.14,28.4,28.4,0,0,1-1.1,5,27.79,27.79,0,0,1-2,4.68c-.38.75-.87,1.46-1.33,2.18s-1,1.39-1.52,2l-3.12,4q-12.48,15.85-25.16,31.55c-4.24,5.22-8.5,10.43-12.87,15.55-2.18,2.56-4.4,5.11-6.69,7.57a28.47,28.47,0,0,0-3,4q-1.37,2.11-2.64,4.28a181.34,181.34,0,0,0-16.11,36.81,26.72,26.72,0,0,1-4.87,8.93l-6.66,7.6L1264,1018.84l-53.35,60.55L1184,1109.67l-6.67,7.56L1174,1121c-1.13,1.24-2.18,2.56-3.41,3.76a33.45,33.45,0,0,1-3.92,3.25l-4,3-8.06,6.06q-32.25,24.25-64.8,48.12t-65.35,47.36q-32.79,23.52-66.06,46.37t-67.25,44.64L874,1334.26l-4.29,2.65-4.36,2.54-8.73,5.08-4.36,2.54a42.84,42.84,0,0,0-4.22,2.64,25.68,25.68,0,0,0-3.69,3.3c-1.1,1.2-2.14,2.56-3.22,3.84q-6.47,7.76-13.42,15.1t-14.43,14.15c-2.47,2.29-5.08,4.44-7.64,6.62s-5.27,4.22-8,6.15a100.21,100.21,0,0,1-17.39,10.34l-1.14.55c-.39.17-.79.31-1.19.47l-2.37.9c-.8.29-1.57.63-2.39.89s-1.65.46-2.49.63a26.37,26.37,0,0,1-5.1.55c-1.72,0-3.41-.17-5.08-.3l-40.2-3.48-20.1-1.74c-1.67-.16-3.34-.25-5-.48a26.8,26.8,0,0,1-5-1.21,27.15,27.15,0,0,1-8.84-5.07l-62-51.61-15.52-12.9-7.75-6.45c-1.29-1.1-2.61-2.1-3.86-3.27l-.94-.88-.87-.94c-.6-.61-1.09-1.31-1.63-2a27.2,27.2,0,0,1-5.17-19.34l.16-1.27.26-1.26c.15-.84.42-1.65.65-2.47s.59-1.61.88-2.41.64-1.53.86-2.33a26.29,26.29,0,0,0-1.19-19.33c-1.37-3-3.53-5.6-5.4-8.44a27.26,27.26,0,0,1-4.31-14.54l-.08-5q-.31-20.17-.3-40.35c0-13.46.15-26.91.58-40.36q.3-10.1.95-20.17c.19-3.37.68-6.7.26-10a26.3,26.3,0,0,0-2.95-9.42c-.78-1.45-1.74-2.84-2.63-4.27s-1.8-2.85-2.67-4.29c-1.77-2.86-3.47-5.77-5.15-8.69-3.34-5.84-6.49-11.8-9.39-17.88a172.66,172.66,0,0,1-7.69-18.69c-.53-1.6-1.07-3.2-1.51-4.83l-.7-2.44-.58-2.46a32.48,32.48,0,0,1-.91-5,27,27,0,0,1,5.78-19.13c1.07-1.33,2.17-2.57,3.26-3.86l13.09-15.36,26.21-30.68q52.44-61.34,105.14-122.46l26.46-30.47c8.85-10.14,17.71-20.25,26.73-30.24,4.47-5,9.25-9.78,13.93-14.61l14.15-14.39q14.19-14.34,28.54-28.52,28.71-28.36,58.17-56c19.69-18.33,39.64-36.4,60.34-53.6,10.36-8.59,20.88-17,31.84-24.8l4.13-2.91c1.36-1,2.8-1.87,4.19-2.81s2.8-1.87,4.24-2.75l4.33-2.6c1.42-.9,2.92-1.67,4.42-2.45s3-1.62,4.5-2.3l9.12-4.31c12.21-5.65,24.55-11,37.13-15.84,6.28-2.4,12.63-4.66,19.06-6.65q4.82-1.51,9.73-2.72C1060.35,567.32,1063.74,567,1066.81,565.69Z"/><path d="M593.88,1285.89a112.58,112.58,0,0,1,5.49-34.49c2.55-8,6.16-18.57,13.39-23.59,3.16-2.19.16-7.39-3-5.18-8,5.51-12.12,15.54-15.21,24.34a117.82,117.82,0,0,0-6.65,38.92c0,3.86,6,3.87,6,0Z"/><path d="M1167.61,1121.8c-23.14,4.92-46-2.63-67.08-11.89-8.92-3.93-19.93-7.59-26.94-14.61s-9.19-17.9-11-27.45c-.18-.94-1.63-.54-1.44.4,1.77,9.21,3.75,19,9.91,26.44,7,8.36,19.08,12.26,28.74,16.52,21.44,9.44,44.66,17,68.24,12,.94-.2.54-1.65-.4-1.45Z"/><path d="M764,790.38c-10.77,14.82-16.12,35.21-18.3,53.17-.65,5.34-.79,10.84.87,16,1.27,4,3.3,7.55,4.18,11.64.21.94,1.65.54,1.45-.4-.8-3.68-2.47-6.91-3.76-10.42-1.83-5-1.95-10.24-1.4-15.49,1-9.17,3.33-18.34,6-27.16,2.83-9.38,6.47-18.62,12.26-26.59.57-.78-.73-1.53-1.29-.76Z"/><path class="cls-2" d="M1091.49,904.62c36,42.4,185,97.58,185,97.58,23.68-11.18,100.58-134.93,100.61-135h0c-11.64-54.47-75.79-114.8-75.82-114.83h0c-108.06-9.46-209.78,152.18-209.81,152.23Z"/><path class="cls-3" d="M989.55,783.81c1.15,7.83,2.07,15.73,3.44,23.53s5.86,12.45,11.75,17.41q18.79,15.82,38.62,30.35c6.23,4.59,12.22-5.82,6.06-10.36q-17.81-13.1-34.76-27.28c-2.42-2-5.16-4-7.23-6.36s-2.6-5.24-3.08-8.41c-1.13-7.35-2.15-14.71-3.23-22.07-1.11-7.61-12.67-4.38-11.57,3.19Z"/><path class="cls-4" d="M820.48,1329.54c-8.8,16-22.78,27.88-36.78,39.23-6.64,5.39-13.8,11.86-22.64,13-9.53,1.19-18.73-3.33-26.36-8.54-6.39-4.37-12.4,6-6.06,10.36,8.77,6,19.18,10.52,30,10.31,11.08-.21,20-5.83,28.45-12.48,16.58-13.11,33.44-27,43.77-45.78,3.72-6.78-6.64-12.84-10.36-6.06Z"/><path class="cls-5" d="M587.11,1018.86l-15,19.89c-4.12,5.46-9.15,11.12-9.55,18.31s4,13.64,7.41,19.64q6,10.53,12.7,20.66c4.22,6.43,14.62.43,10.36-6q-5.64-8.58-10.83-17.43c-2.55-4.38-8.35-11.35-7.61-16.71s7-11.27,10.18-15.42l12.69-16.83c4.65-6.17-5.76-12.15-10.36-6.06Z"/><path class="cls-6" d="M989.7,637c-1.2-12.67,5.9-25.41,18.12-29.86,7.2-2.63,4.09-14.23-3.19-11.58-17,6.19-28.65,23.2-26.93,41.44.71,7.62,12.72,7.7,12,0Z"/><path class="cls-7" d="M964.22,613C955.22,714.26,980,822.26,980,822.26c24.75,31.5,103.5,78.75,103.5,78.75C1133,919,1329,800.46,1329,800.46,1351.22,694,1229.72,514,1229.72,514,1128.47,475.76,964.22,613,964.22,613Z"/><path d="M964.22,613l-.77,13.16c-.12,2.18-.28,4.36-.36,6.55l-.15,6.57c-.07,4.39-.23,8.77-.24,13.15l.11,13.15c.36,17.53,1.21,35,2.87,52.5S969.37,753,972,770.27l2,13c.75,4.32,1.45,8.64,2.25,13,1.55,8.61,3.24,17.22,5.15,25.73l-.28-.59,5.28,6,5.71,5.7c4,3.65,8,7.29,12.17,10.7,8.32,6.91,17,13.47,25.81,19.75S1047.9,876,1057,881.91s18.27,11.74,27.55,17.32l-.36-.18a32.89,32.89,0,0,0,7.68,1.53c1.34.07,2.67.18,4,.15s2.7-.06,4.06-.13a107.93,107.93,0,0,0,16.28-2.44,259.56,259.56,0,0,0,31.91-9.55c21-7.6,41.38-16.77,61.54-26.42s40-20,59.7-30.66,39.15-21.73,58.32-33.2l-1.15,1.62a146.73,146.73,0,0,0,2.38-37.81c-.33-6.35-1-12.7-1.94-19s-2-12.6-3.42-18.84c-5.43-25-13.82-49.34-23.47-73.11a762.69,762.69,0,0,0-32.91-69.65c-6-11.35-12.34-22.56-18.81-33.66s-13.19-22.1-20.22-32.8l.89.7a109.26,109.26,0,0,0-35.32-6.71,165.9,165.9,0,0,0-36.15,3.17c-23.9,4.61-46.94,13.17-69.12,23.3a552.64,552.64,0,0,0-64.3,35.15q-15.53,9.78-30.52,20.37C983.64,598.1,973.77,605.35,964.22,613Zm0,0a637.81,637.81,0,0,1,59.25-43.41,554.52,554.52,0,0,1,64-36.23c5.54-2.64,11.14-5.16,16.82-7.51s11.39-4.62,17.19-6.65,11.65-4,17.57-5.64,11.91-3.15,18-4.38a169.79,169.79,0,0,1,36.84-3.56,112.93,112.93,0,0,1,36.56,6.62l.56.21.34.5c7.21,10.77,14,21.73,20.64,32.82s13,22.33,19.1,33.7a767,767,0,0,1,33.43,69.91c5,12,9.5,24.08,13.55,36.38q3,9.24,5.64,18.6t4.69,18.88c1.41,6.34,2.56,12.74,3.51,19.18s1.67,12.91,2,19.43a151.63,151.63,0,0,1-2.42,39.11l-.22,1.07-.93.56c-19.31,11.53-38.84,22.54-58.58,33.24s-39.69,21-60,30.67a673.05,673.05,0,0,1-62.09,26.34,262,262,0,0,1-32.51,9.56,111.16,111.16,0,0,1-16.94,2.45c-1.44.08-2.88.15-4.34.12s-2.91-.09-4.37-.18a36.32,36.32,0,0,1-8.74-1.83l-.19-.07-.17-.1c-9.33-5.71-18.46-11.62-27.54-17.66s-18-12.27-26.84-18.69-17.48-13.08-25.83-20.14c-4.21-3.48-8.23-7.21-12.22-11l-5.79-5.87-5.39-6.29-.2-.24-.08-.35c-1.85-8.63-3.46-17.26-5-25.92-.76-4.33-1.42-8.68-2.13-13l-1.93-13q-3.6-26.1-5.56-52.4c-1.41-17.51-2-35.07-2.1-52.63l.08-13.17c.1-4.39.34-8.77.5-13.16l.28-6.57c.12-2.2.33-4.39.49-6.58Z"/><path class="cls-8" d="M993.28,774c-1.81,11.92-3.46,24.54,1.68,35.9,2.52,5.56,6.72,9.82,11.14,13.9,5.45,5,10.93,10,16.4,15.06,5.68,5.21,14.19-3.25,8.48-8.49l-13-11.92c-3.94-3.62-8.54-7.15-11.28-11.84-5.07-8.68-3.3-20-1.87-29.42,1.15-7.56-10.41-10.81-11.57-3.19Z"/><path class="cls-9" d="M887.52,717a117.57,117.57,0,0,1,50.25-46.51c6.93-3.39.86-13.74-6.06-10.36a128.86,128.86,0,0,0-54.55,50.81c-3.9,6.68,6.47,12.73,10.36,6.06Z"/></g></svg>