<svg xmlns="http://www.w3.org/2000/svg" xmlns:xlink="http://www.w3.org/1999/xlink" viewBox="0 0 1920 1920"><defs><style>.cls-1{fill:url(#linear-gradient);}.cls-2,.cls-3{stroke:#000;stroke-miterlimit:10;}.cls-2{stroke-width:2px;fill:url(#linear-gradient-2);}.cls-3{stroke-width:5px;fill:url(#linear-gradient-3);}</style><linearGradient id="linear-gradient" x1="1216.98" y1="691.94" x2="655.84" y2="1291.87" gradientUnits="userSpaceOnUse"><stop offset="0.01" stop-color="#037700"/><stop offset="0.19" stop-color="#056400"/><stop offset="0.56" stop-color="#0a3300"/><stop offset="1" stop-color="#082e00"/></linearGradient><linearGradient id="linear-gradient-2" x1="829.02" y1="450.29" x2="1093.63" y2="563.22" gradientTransform="translate(242.03 552.29) rotate(-10.33)" gradientUnits="userSpaceOnUse"><stop offset="0.28" stop-color="#014600"/><stop offset="0.79" stop-color="#051500"/></linearGradient><linearGradient id="linear-gradient-3" x1="1245.75" y1="544.93" x2="1055.42" y2="861.6" gradientUnits="userSpaceOnUse"><stop offset="0.01" stop-color="#001201"/><stop offset="0.35" stop-color="#062500"/><stop offset="0.56" stop-color="#0a3300"/><stop offset="1" stop-color="#004607"/></linearGradient></defs><g id="Layer_3" data-name="Layer 3"><path class="cls-1" d="M1068.09,566.42a27.15,27.15,0,0,1-5.06,1.48c-7.19,1.35-31.29,7.24-80.87,31.11-60.75,29.25-227.25,202.5-227.25,202.5-27.76,29.75-170.85,197.53-204.44,237A26.5,26.5,0,0,0,544.6,1061c4.72,22.87,21.2,50.47,29.68,63.61a26.73,26.73,0,0,1,4.18,16.72c-2.59,31.45-1.85,89.62-1.47,111a26.74,26.74,0,0,0,4.83,14.83l2.56,3.67a26.7,26.7,0,0,1,2.67,25.83h0a26.7,26.7,0,0,0,7.25,30.87c24.65,20.93,71.68,59.72,88.86,73.88a26.73,26.73,0,0,0,14.83,6c23.55,1.89,54.5,4.66,65.93,5.69a26.5,26.5,0,0,0,10.61-1.19c28.64-9.37,59.7-45.4,69.49-57.45a27,27,0,0,1,7.75-6.51c95.13-53.23,293.67-203,317.11-220.72a27.18,27.18,0,0,0,4.1-3.85c25.31-29.39,94.13-106.94,111.27-126.23a26.22,26.22,0,0,0,5.45-9.55c7-22.33,16-37,19.49-42.24a26.43,26.43,0,0,1,2.68-3.37c9.28-9.86,34.25-41.37,48-58.82a26.73,26.73,0,0,0,3.07-28.06c-8.79-18.36-24-43-31.71-55.16a26.68,26.68,0,0,1-4.11-15.72c2.66-50.26-19.58-104.17-26-118.54a27.15,27.15,0,0,1-2.06-6.84c-4.21-27.27-37.93-92.12-52-118.32a26.62,26.62,0,0,0-22.12-14C1176,524.1,1084.85,559.69,1068.09,566.42Z"/><path d="M1068.18,566.66a27.51,27.51,0,0,1-4.87,1.44c-1.65.33-3.29.67-4.91,1.09q-4.89,1.21-9.7,2.72c-6.41,2-12.75,4.25-19,6.66-12.55,4.81-24.87,10.21-37.07,15.87l-9.11,4.31c-1.54.7-3,1.54-4.48,2.3s-3,1.55-4.39,2.45l-4.31,2.59c-1.43.88-2.81,1.84-4.22,2.75s-2.82,1.82-4.19,2.8l-4.11,2.91c-10.93,7.82-21.43,16.22-31.77,24.81s-20.48,17.42-30.47,26.43-19.9,18.09-29.7,27.3q-29.4,27.61-58,56.12-14.31,14.2-28.43,28.62L765.4,792.28c-4.66,4.86-9.39,9.62-13.82,14.65-9,10-17.76,20.17-26.55,30.35l-26.29,30.59q-52.47,61.32-104.52,123l-26,30.82-13,15.42-1.62,1.92c-.55.65-1.11,1.3-1.55,1.87a24.69,24.69,0,0,0-2.45,3.81,23.64,23.64,0,0,0-2.57,13.11c.08.75.18,1.49.33,2.23s.36,1.56.54,2.34l.57,2.37.69,2.36c.43,1.57,1,3.12,1.49,4.68a169.06,169.06,0,0,0,7.64,18.29c2.88,6,6,11.84,9.36,17.6,1.68,2.88,3.38,5.75,5.14,8.58.87,1.42,1.77,2.82,2.66,4.23l1.36,2.09c.46.72,1,1.57,1.43,2.38a30,30,0,0,1,3.54,16.35l-.33,5q-.6,10-.84,20c-.37,13.39-.41,26.82-.38,40.24s.23,26.86.5,40.29l.11,5a23.75,23.75,0,0,0,.46,4.35,23.21,23.21,0,0,0,3.24,8l.62.92.73,1,1.45,2.06c.23.32.51.73.77,1.14a13.93,13.93,0,0,1,.77,1.22,27.06,27.06,0,0,1,1.36,2.55,30.58,30.58,0,0,1,1.45,22.53c-.26.91-.69,1.85-1,2.68s-.54,1.33-.72,2a18.68,18.68,0,0,0-.54,2.08l-.21,1-.13,1.06a22,22,0,0,0,.65,8.5,22.36,22.36,0,0,0,3.72,7.66c.46.55.86,1.14,1.37,1.64l.73.79c.25.25.52.48.79.72s.48.47.82.74l1,.8L600,1327l7.78,6.42,15.54,12.85,62.14,51.42.48.39.42.33c.27.23.56.42.84.63.58.4,1.17.79,1.78,1.13a22.4,22.4,0,0,0,7.94,2.73c1.27.17,3.11.29,4.75.44l20.12,1.72,40.23,3.43,2.47.21c.71,0,1.41.08,2.11.07a21.56,21.56,0,0,0,4.17-.46,19.94,19.94,0,0,0,2-.52c.67-.21,1.44-.54,2.16-.8l2.18-.84c.37-.14.74-.27,1.1-.43l1.07-.52a94.81,94.81,0,0,0,16.53-9.88c2.67-1.86,5.21-3.94,7.78-6s5-4.23,7.45-6.48c4.89-4.42,9.6-9.07,14.15-13.88s9-9.77,13.23-14.85c1.09-1.28,2-2.48,3.4-4a30.68,30.68,0,0,1,4.38-3.91,47.33,47.33,0,0,1,4.74-3l4.33-2.52,8.67-5,4.33-2.52,4.28-2.63L889.7,1320q33.93-21.62,67.15-44.46c44.33-30.36,88.12-61.58,131.57-93.26q32.57-23.79,65-47.8l8.09-6,4-3a32,32,0,0,0,3.56-2.9c.54-.52,1-1,1.53-1.63l1.68-1.89,3.35-3.77,6.71-7.53,26.84-30.15,53.68-60.3,13.42-15.08,6.63-7.47a23.81,23.81,0,0,0,4.37-7.91,183.79,183.79,0,0,1,16.56-37.32c.88-1.47,1.78-2.92,2.72-4.36l.72-1.08c.25-.38.52-.76.8-1.13.55-.73,1.13-1.43,1.75-2.11,2.32-2.46,4.48-4.92,6.67-7.47,4.37-5.07,8.65-10.25,12.91-15.43q12.78-15.58,25.3-31.4l3.14-4c.55-.67,1-1.27,1.44-1.91s.87-1.29,1.23-2a25.9,25.9,0,0,0,1.89-4.27,26.42,26.42,0,0,0,1-4.56,25,25,0,0,0-.54-9.32,25.89,25.89,0,0,0-1.56-4.43c-.71-1.49-1.43-3-2.18-4.49-6-12-12.71-23.59-19.6-35.11l-5.23-8.61-2.65-4.28c-.88-1.44-1.79-2.79-2.67-4.39a28,28,0,0,1-3.19-10.08,30.13,30.13,0,0,1-.15-5.28l.14-5a206.34,206.34,0,0,0-3.24-39.89,299.74,299.74,0,0,0-9.62-39q-3-9.61-6.57-19-1.79-4.7-3.72-9.35c-.63-1.55-1.29-3.09-2-4.62a33.58,33.58,0,0,1-1.81-4.83c-.88-3.44-1.24-6.64-2.13-9.88l-1.32-4.83-1.55-4.78-.78-2.39-.86-2.36-1.73-4.72c-1.22-3.12-2.44-6.25-3.72-9.36-5.13-12.41-10.76-24.62-16.6-36.72s-11.91-24.11-18.14-36l-4.7-8.92a39,39,0,0,0-2.54-4.29,28.11,28.11,0,0,0-3.25-3.74,26.15,26.15,0,0,0-18-7.21,140.42,140.42,0,0,0-20.08.92c-6.67.74-13.31,1.8-19.9,3.08-13.19,2.55-26.24,5.85-39.16,9.55C1118.6,547.88,1093.18,556.75,1068.18,566.66Zm-.18-.47c25-9.94,50.42-18.85,76.28-26.33,12.93-3.72,26-7,39.2-9.61,6.6-1.29,13.26-2.37,20-3.11a140.11,140.11,0,0,1,20.17-.95,26.89,26.89,0,0,1,18.48,7.38,29.76,29.76,0,0,1,3.34,3.84,38,38,0,0,1,2.6,4.36l4.74,8.91q9.4,17.85,18.26,36c5.88,12.1,11.56,24.31,16.74,36.73,1.29,3.11,2.52,6.24,3.76,9.37l1.75,4.74.87,2.37.8,2.39,1.57,4.81,1.35,4.87c.9,3.24,1.31,6.66,2.14,9.84a32.37,32.37,0,0,0,1.78,4.68q1,2.29,2,4.64c1.3,3.1,2.56,6.22,3.75,9.37,2.41,6.28,4.66,12.63,6.69,19a304.55,304.55,0,0,1,9.86,39.14,208.41,208.41,0,0,1,3.47,40.2l-.12,5a28.54,28.54,0,0,0,.16,5,26.18,26.18,0,0,0,3,9.42c3.48,5.7,7.13,11.4,10.59,17.15,7,11.51,13.76,23.14,19.86,35.15.76,1.5,1.49,3,2.23,4.53A28.11,28.11,0,0,1,1365,860a27.06,27.06,0,0,1,.64,10.14,28.43,28.43,0,0,1-1.11,5,27.75,27.75,0,0,1-2,4.68c-.39.75-.88,1.46-1.33,2.18s-1,1.39-1.52,2l-3.12,4q-12.48,15.85-25.16,31.55c-4.24,5.22-8.51,10.43-12.87,15.55-2.18,2.56-4.4,5.11-6.69,7.57a28.47,28.47,0,0,0-3,4q-1.36,2.11-2.64,4.28a181.37,181.37,0,0,0-16.12,36.81,26.52,26.52,0,0,1-4.86,8.93l-6.67,7.6-13.33,15.13-53.35,60.55-26.68,30.28-6.67,7.56-3.33,3.79c-1.13,1.24-2.19,2.56-3.41,3.76a33.45,33.45,0,0,1-3.92,3.25l-4,3-8.06,6.06q-32.27,24.25-64.8,48.12t-65.35,47.36q-32.81,23.52-66.06,46.37t-67.25,44.64l-17.16,10.63-4.3,2.65L866.5,1340l-8.72,5.08-4.36,2.54a42.84,42.84,0,0,0-4.22,2.64,25.68,25.68,0,0,0-3.69,3.3c-1.1,1.2-2.14,2.56-3.22,3.84q-6.48,7.76-13.42,15.1t-14.44,14.15c-2.47,2.29-5.07,4.44-7.64,6.62s-5.26,4.22-8,6.15a101,101,0,0,1-17.39,10.34l-1.15.55c-.38.17-.78.31-1.18.47l-2.37.9c-.8.29-1.57.63-2.39.89s-1.65.46-2.49.63a26.53,26.53,0,0,1-5.1.55c-1.72,0-3.42-.17-5.08-.3l-40.2-3.48-20.1-1.74c-1.68-.16-3.34-.25-5-.48a26.8,26.8,0,0,1-5-1.21,27.3,27.3,0,0,1-8.85-5.07l-62-51.61-15.51-12.9-7.76-6.45c-1.28-1.1-2.6-2.1-3.85-3.27-.31-.3-.64-.58-.94-.88l-.87-.94c-.6-.61-1.09-1.31-1.63-2a27.2,27.2,0,0,1-5.17-19.34l.16-1.27.26-1.26a23.62,23.62,0,0,1,.65-2.47c.23-.83.59-1.61.87-2.41s.64-1.53.87-2.33a26.29,26.29,0,0,0-1.19-19.33c-1.37-3-3.54-5.6-5.4-8.44a27.26,27.26,0,0,1-4.31-14.54l-.09-5q-.3-20.17-.29-40.35c0-13.46.15-26.91.58-40.36q.29-10.1,1-20.17c.19-3.37.68-6.7.26-10a26.5,26.5,0,0,0-3-9.42c-.78-1.45-1.74-2.84-2.64-4.27s-1.79-2.85-2.66-4.29c-1.77-2.86-3.47-5.77-5.15-8.69-3.34-5.84-6.5-11.8-9.39-17.88a172.66,172.66,0,0,1-7.69-18.69c-.53-1.6-1.08-3.2-1.51-4.83l-.7-2.44-.58-2.46a32.5,32.5,0,0,1-.92-5,27.09,27.09,0,0,1,3-14.85,28.13,28.13,0,0,1,2.8-4.28c1.06-1.33,2.17-2.57,3.26-3.86l13.09-15.36,26.2-30.68q52.46-61.34,105.15-122.46l26.46-30.47c8.84-10.14,17.7-20.25,26.73-30.24,4.47-5,9.24-9.78,13.92-14.61l14.15-14.39q14.21-14.34,28.55-28.52,28.71-28.36,58.16-56c19.7-18.33,39.65-36.4,60.35-53.6,10.35-8.59,20.88-17,31.84-24.8l4.12-2.91c1.37-1,2.8-1.87,4.2-2.81s2.8-1.87,4.23-2.75l4.34-2.6c1.42-.9,2.92-1.67,4.42-2.45s3-1.62,4.49-2.3l9.13-4.31c12.21-5.65,24.55-11,37.12-15.84,6.29-2.4,12.63-4.66,19.07-6.65,3.21-1,6.46-1.91,9.72-2.72S1064.92,567.5,1068,566.19Z"/><path d="M595.07,1286.39a87.79,87.79,0,0,1,19.49-58.55c2.42-3-1.8-7.24-4.24-4.25a94.11,94.11,0,0,0-21.25,62.8c.13,3.85,6.13,3.87,6,0Z"/><path d="M1168.2,1120.13c-22.49,4.78-44.91-2.66-65.35-11.66-8.69-3.83-19.67-7.4-26.48-14.26s-8.69-17.31-10.45-26.45c-.73-3.79-6.52-2.19-5.79,1.59,1.86,9.64,4,19.7,10.5,27.43,7.11,8.52,19.34,12.53,29.19,16.87,22,9.71,45.75,17.42,70,12.27,3.78-.8,2.18-6.59-1.59-5.79Z"/><path d="M765.16,790.88c-17.58,29-15.31,64.69-13.28,97.13.06,1,1.56,1,1.5,0-2-32.18-4.36-67.63,13.07-96.37a.75.75,0,0,0-1.29-.76Z"/><path class="cls-2" d="M1090.31,907.84c36,42.4,185,97.58,185,97.58,23.68-11.18,100.58-134.93,100.61-135h0c-11.64-54.47-75.79-114.8-75.82-114.83h0c-108-9.46-209.77,152.18-209.8,152.23Z"/><path class="cls-3" d="M966.41,612.51c-9,101.25,15.75,209.25,15.75,209.25,24.75,31.5,103.5,78.75,103.5,78.75,49.5,18,245.53-100.55,245.53-100.55,22.22-106.45-99.28-286.45-99.28-286.45C1130.66,475.26,966.41,612.51,966.41,612.51Z"/></g></svg>