<svg id="Layer_1" data-name="Layer 1" xmlns="http://www.w3.org/2000/svg" xmlns:xlink="http://www.w3.org/1999/xlink" viewBox="0 0 1920 1920"><defs><style>.cls-1,.cls-2,.cls-3,.cls-4{stroke:#000;stroke-miterlimit:10;stroke-width:5px;}.cls-1{fill:url(#linear-gradient);}.cls-2{fill:url(#linear-gradient-2);}.cls-3{fill:url(#linear-gradient-3);}.cls-4{fill:none;}</style><linearGradient id="linear-gradient" x1="1015.69" y1="715.31" x2="1397.06" y2="715.31" gradientUnits="userSpaceOnUse"><stop offset="0.01" stop-color="#202020"/><stop offset="0.19" stop-color="#333"/><stop offset="0.56" stop-color="#646464"/><stop offset="1" stop-color="#c8c8c8"/></linearGradient><linearGradient id="linear-gradient-2" x1="522.94" y1="970.97" x2="1290.75" y2="970.97" xlink:href="#linear-gradient"/><linearGradient id="linear-gradient-3" x1="1165.19" y1="998.59" x2="1399.76" y2="998.59" gradientTransform="matrix(1.07, -0.03, 0.03, 1.03, -135.8, 21.05)" xlink:href="#linear-gradient"/></defs><polygon class="cls-1" points="1397.06 861.28 1388.63 824.16 1376.81 815.72 1376.81 797.16 1373.44 776.91 1358.25 770.16 1343.06 761.72 1334.63 739.78 1339.69 714.47 1324.5 689.16 1339.69 677.34 1332.94 665.53 1338 655.41 1329.56 646.97 1331.25 636.84 1322.81 635.16 1312.69 613.22 1314.38 599.72 1302.56 592.97 1300.88 572.72 1290.75 569.34 1290.75 538.97 1278.94 528.84 1285.69 506.91 1268.81 496.78 1230 496.78 1174.31 500.16 1169.25 513.66 1118.63 506.91 1106.81 518.72 1052.81 623.34 1015.69 743.16 1034.25 832.59 1106.81 898.41 1290.75 933.84 1392 868.03 1397.06 861.28"/><path class="cls-2" d="M522.94,1031.72c13.5-1.69,121.5-143.44,121.5-143.44l3.37-13.5,50.63-42.19L715.31,809l23.63-10.13,21.94-28.68,35.43-28.69L852,709.41,887.44,679l27-32.06,57.37-35.44,37.13-21.94,18.56-13.5,6.75-21.93L1064.62,544,1095,525.47l11.81-6.75-10.12,28.69-11.81,16.87,3.37,30.38,3.37,30.37-27,32.06,6.76,42.19,10.12,42.19,16.88,35.44,23.62,13.5,21.94,43.87,27,13.5L1191.19,863h40.5l37.12,11.81,21.94,1.69L1273.88,917v25.31L1248.56,976,1246.88,998l-23.63,35.44-13.5,32.06L1184.44,1084l8.44,23.63L1176,1136.34,1149,1160c-32.06,28.69-135,91.12-135,91.12l-40.5,33.75c-16.88,6.75-91.12,52.32-91.12,52.32l-50.63,48.93c0,15.19-43.87,37.13-43.87,37.13-35.44-20.25-74.26-6.75-74.26-6.75l-33.74-6.75-6.76-23.63-23.62-21.93-28.69-25.32L595.5,1327,570.19,1322l6.75-23.63,13.5-32.06-13.5-15.19-3.38-15.18-5.06-10.13,6.75-38.81-6.75-15.19,10.12-35.44L563.44,1111l-15.19-23.62v-16.88Z"/><polygon class="cls-3" points="1172.51 1138.98 1205.93 1108.49 1226.49 1071.48 1256.3 1041.1 1273.68 1018.04 1310.45 978.79 1316.82 950.88 1350.79 937.69 1361.2 923.51 1360.66 906.21 1379.9 884.82 1391.9 863.66 1354.31 876.97 1321.98 884.91 1287.58 884.26 1266.48 903.97 1240.44 939.42 1198.41 984.04 1169.08 1029.99 1164.96 1071.68 1148.4 1120.69 1172.51 1138.98"/><path class="cls-4" d="M738.94,798.84s-15.75,28.69-15.75,39.94l-9,63"/><polyline class="cls-4" points="590.44 1266.28 617.44 1207.78 669.19 1124.53"/><polyline class="cls-4" points="1148.4 1120.69 1112.44 1099.78 1107.94 1070.53 1114.69 985.03"/><line class="cls-4" x1="1324.5" y1="689.16" x2="1242.94" y2="712.78"/><line class="cls-4" x1="1316.82" y1="950.88" x2="1265.44" y2="985.03"/><line class="cls-4" x1="1064.63" y1="657.09" x2="1031.44" y2="701.53"/><line class="cls-4" x1="1027.5" y1="576.09" x2="1020.19" y2="604.78"/></svg>