<svg id="Layer_2" data-name="Layer 2" xmlns="http://www.w3.org/2000/svg" xmlns:xlink="http://www.w3.org/1999/xlink" viewBox="0 0 1920 1920"><defs><style>.cls-1{stroke:#020202;stroke-miterlimit:10;stroke-width:5px;fill:url(#linear-gradient);}</style><linearGradient id="linear-gradient" x1="953.09" y1="381.89" x2="967.75" y2="1391.25" gradientUnits="userSpaceOnUse"><stop offset="0.05" stop-color="#9d9d9d"/><stop offset="0.08" stop-color="#b2b2ae" stop-opacity="0.96"/><stop offset="0.18" stop-color="#e9eadd" stop-opacity="0.84"/><stop offset="0.23" stop-color="#feffee" stop-opacity="0.8"/><stop offset="0.43" stop-color="#acacac"/><stop offset="0.65" stop-color="#feffee" stop-opacity="0.7"/><stop offset="0.81" stop-color="#b2b2b2"/><stop offset="0.96" stop-color="#feffee" stop-opacity="0.9"/></linearGradient></defs><path class="cls-1" d="M462.87,1040.25l40.3-154.19c.31-1.2.55-2.41.79-3.63,5.57-28.71,37.93-58.92,37.93-58.92l82.92-70.16a47.8,47.8,0,0,0,7.11-7.39C654.8,716.23,791,600.12,831.82,565.54a49.69,49.69,0,0,0,14.56-20.74c5.25-14.26,15.21-28.45,22.37-37.56a50,50,0,0,1,29-18c54.44-11.47,179.52,1.89,207.65,5.12a47.2,47.2,0,0,0,9.28.25c30.9-2.47,66.61,24.35,83.44,38.81a50.15,50.15,0,0,1,15.35,23.69c7.61,25.52,15.08,69.94,17.92,87.73a50.67,50.67,0,0,1,.38,12.12c-1.93,23.61,27.91,67.92,43.46,89.25a49.87,49.87,0,0,0,19.86,15.94c37.23,16.8,91.43,71.81,111.7,93.23a50.23,50.23,0,0,1,11.82,20.84c14.31,50.62,41.44,184.73,45.27,203.8a41.33,41.33,0,0,1,.7,4.55c4.36,46.77-29.11,94.52-39.79,108.44a48.75,48.75,0,0,0-4.29,6.69c-12.3,22.81-116.69,114.29-150.43,143.54a50.4,50.4,0,0,1-21,10.7c-22,5.45-38.89,21.93-45.24,28.91a58.72,58.72,0,0,0-3.73,4.73c-14.9,20.28-103.48,40.21-132,46.16a49,49,0,0,1-19.9.14c-40.34-8.28-93.14-41-114.41-54.95a50.29,50.29,0,0,0-18.11-7.45c-44.51-8.51-122.72-64-151.43-85.2a48.31,48.31,0,0,1-13.43-15c-8.26-14.66-32.79-22.48-44.78-25.51a50.44,50.44,0,0,1-14.66-6.29c-30.18-19.21-107.21-75.77-131.14-93.42a52.38,52.38,0,0,1-10.09-9.92c-10-12.7-36.71-27-59.78-37.62A50.24,50.24,0,0,1,462.87,1040.25Z"/><path d="M504.59,871.91A110,110,0,0,0,512.34,910c1.44,3.52,7.25,2,5.79-1.6a104.91,104.91,0,0,1-7.54-36.48c-.13-3.85-6.13-3.87-6,0Z"/><path d="M1281.43,757.63c7.49,9.86,13,21,14.21,33.43.38,3.81,6.39,3.85,6,0-1.35-13.54-6.84-25.68-15-36.46-2.31-3-7.52-.05-5.18,3Z"/><path d="M841.56,550.16c-8.43,24.61,6.74,48.45,19.3,68.6,2,3.27,7.23.27,5.18-3-11.68-18.74-26.55-41-18.69-64,1.25-3.66-4.54-5.23-5.79-1.6Z"/><path d="M1466.81,1083.13a129.19,129.19,0,0,0-29.3-23c-3.33-2-6.35,3.22-3,5.18a123.61,123.61,0,0,1,28.08,22c2.63,2.84,6.87-1.41,4.24-4.24Z"/></svg>