<svg xmlns="http://www.w3.org/2000/svg" xmlns:xlink="http://www.w3.org/1999/xlink" viewBox="0 0 1920 1920"><defs><style>.cls-1{fill:url(#linear-gradient);}.cls-2{fill:url(#linear-gradient-2);}.cls-3{fill:url(#linear-gradient-3);}.cls-4{fill:url(#linear-gradient-4);}.cls-5{fill:url(#radial-gradient);}.cls-6{fill:url(#linear-gradient-5);}.cls-7{fill:url(#linear-gradient-6);}.cls-8{fill:url(#linear-gradient-7);}.cls-9{fill:url(#linear-gradient-8);}.cls-10{fill:url(#linear-gradient-9);}.cls-11{fill:url(#linear-gradient-10);}.cls-12{fill:url(#linear-gradient-11);}.cls-13{fill:url(#linear-gradient-12);}</style><linearGradient id="linear-gradient" x1="997.06" y1="1141.78" x2="851.41" y2="1697.23" gradientUnits="userSpaceOnUse"><stop offset="0.24" stop-color="#ffc605"/><stop offset="0.41" stop-color="#e7ac02"/><stop offset="0.56" stop-color="#d69a00"/></linearGradient><linearGradient id="linear-gradient-2" x1="732.7" y1="1060.14" x2="665.65" y2="1242.26" gradientUnits="userSpaceOnUse"><stop offset="0" stop-color="#d69a00"/><stop offset="0.03" stop-color="#d79c00"/><stop offset="0.68" stop-color="#edd100"/><stop offset="1" stop-color="#f6e600"/></linearGradient><linearGradient id="linear-gradient-3" x1="629.6" y1="1029.74" x2="499.36" y2="1181.06" gradientUnits="userSpaceOnUse"><stop offset="0" stop-color="#d69a00"/><stop offset="1" stop-color="#ece200"/></linearGradient><linearGradient id="linear-gradient-4" x1="1201.12" y1="870.25" x2="438.96" y2="739.31" gradientUnits="userSpaceOnUse"><stop offset="0.37" stop-color="#d69a00"/><stop offset="0.64" stop-color="#e2b200"/><stop offset="1" stop-color="#f6d900"/></linearGradient><radialGradient id="radial-gradient" cx="1130.6" cy="919.17" r="421.53" gradientUnits="userSpaceOnUse"><stop offset="0" stop-color="#fff51b"/><stop offset="0.89" stop-color="#dba403"/><stop offset="1" stop-color="#d69a00"/></radialGradient><linearGradient id="linear-gradient-5" x1="1057.09" y1="540.3" x2="1193.1" y2="540.3" gradientUnits="userSpaceOnUse"><stop offset="0" stop-color="#c8c8c8"/><stop offset="1" stop-color="#fff"/></linearGradient><linearGradient id="linear-gradient-6" x1="1132.69" y1="1284.95" x2="1240.44" y2="1284.95" xlink:href="#linear-gradient-5"/><linearGradient id="linear-gradient-7" x1="466.72" y1="715.69" x2="603.39" y2="715.69" xlink:href="#linear-gradient-5"/><linearGradient id="linear-gradient-8" x1="538.83" y1="1065.25" x2="544.16" y2="1065.25" xlink:href="#linear-gradient-5"/><linearGradient id="linear-gradient-9" x1="741.08" y1="1275.86" x2="782.82" y2="1275.86" xlink:href="#linear-gradient-5"/><linearGradient id="linear-gradient-10" x1="1142.87" y1="1392.56" x2="1178.76" y2="1392.56" xlink:href="#linear-gradient-5"/><linearGradient id="linear-gradient-11" x1="1479.15" y1="550.77" x2="1502.34" y2="550.77" xlink:href="#linear-gradient-5"/><linearGradient id="linear-gradient-12" x1="740" y1="1089.83" x2="781.97" y2="1089.83" xlink:href="#linear-gradient-5"/></defs><g id="Layer_3" data-name="Layer 3"><path class="cls-1" d="M707.09,1244.57c36.26,51,69.65,85.8,87.5,103a76.5,76.5,0,0,0,30.46,18c95,29.52,239.21,52,292.64,59.68a77.13,77.13,0,0,0,42.5-6c.9-.4,1.79-.8,2.67-1.21,66.86-30.49,110.28-96.68,112.69-170.13l.4-12.16a93.27,93.27,0,0,0-41.94-84.24,73.16,73.16,0,0,0-12.25-6.4l-137.08-56.54a76.85,76.85,0,0,0-33.27-5.69c-98.7,5.08-209.93-6.13-277-14.82-46.71-6.05-88,30.95-86.68,78a574.59,574.59,0,0,0,5.94,64.91A76.9,76.9,0,0,0,707.09,1244.57Z"/><path d="M707.3,1244.43q14.07,19.71,29.28,38.56c5,6.3,10.25,12.47,15.48,18.61s10.6,12.17,16.07,18.11,11,11.8,16.7,17.51q4.26,4.3,8.61,8.5a79.93,79.93,0,0,0,9.13,7.83,75.86,75.86,0,0,0,21.27,10.91c3.82,1.2,7.73,2.27,11.59,3.42s7.73,2.31,11.64,3.31c7.79,2.08,15.56,4.25,23.42,6.1l11.75,2.88,11.79,2.71c3.94.88,7.86,1.83,11.81,2.67l11.83,2.54c7.87,1.74,15.8,3.27,23.7,4.89,31.64,6.35,63.43,11.94,95.29,17.11q23.88,3.9,47.83,7.4l24,3.44,6,.83c2,.28,4,.57,5.91.77a71.33,71.33,0,0,0,11.6.3,74.11,74.11,0,0,0,22.59-4.82c1.82-.7,3.53-1.44,5.36-2.29s3.58-1.72,5.37-2.58,3.54-1.78,5.29-2.72l2.62-1.4,2.58-1.48a188.75,188.75,0,0,0,19.79-13.1,196.19,196.19,0,0,0,18-15.48,189.28,189.28,0,0,0,29.51-37,196,196,0,0,0,19.48-43.06,191.32,191.32,0,0,0,8.39-46.48c.08-2,.21-3.9.26-6l.19-6.09.19-6,.09-2.92c0-1,.09-2,0-2.9a89.36,89.36,0,0,0-26.32-62.12l-4.22-3.93-4.48-3.64-4.7-3.34c-1.57-1.07-3.19-2-4.85-2.94a99.69,99.69,0,0,0-10.6-4.82l-11.19-4.63-89.39-37.35-22.33-9.38-11.12-4.68a72.77,72.77,0,0,0-22.41-5.24c-1.92-.12-3.85-.21-5.78-.18-1,0-1.92,0-2.9.06l-3,.1c-8.1.27-16.2.59-24.3.64-16.19.3-32.38,0-48.56-.32-16.17-.51-32.34-1.13-48.47-2.15-32.29-1.9-64.5-4.82-96.62-8.36q-24.09-2.68-48.11-5.91c-4-.53-8-1.13-12-1.51a76.77,76.77,0,0,0-11.94-.08,70.35,70.35,0,0,0-11.81,1.8,72.6,72.6,0,0,0-11.38,3.68,76.58,76.58,0,0,0-35.92,30.61c-1.09,1.68-2,3.47-3,5.23s-1.77,3.59-2.5,5.46-1.41,3.75-2.09,5.64-1.18,3.83-1.59,5.8a72.09,72.09,0,0,0-1.82,11.88l-.17,3v3c0,2,.1,4,.15,6,.61,16.12,2.07,32.21,4.07,48.22,1.09,8,1.8,16.08,4.29,23.75A76.8,76.8,0,0,0,707.3,1244.43Zm-.41.29a77.47,77.47,0,0,1-13.49-33.5q-.89-6-1.64-12c-2-16-3.52-32.13-4.17-48.27-.05-2-.18-4-.16-6.07v-3l.17-3c0-1,.14-2,.27-3s.2-2,.36-3c.34-2,.65-4,1.14-6s1-3.92,1.58-5.87,1.27-3.85,2.09-5.7,1.62-3.71,2.49-5.54,1.87-3.6,3-5.31a77.69,77.69,0,0,1,36.25-31.21,77.08,77.08,0,0,1,23.53-5.72,79.48,79.48,0,0,1,12.15,0c4,.36,8,.92,12,1.42q24,3,48.12,5.5c32.12,3.26,64.31,5.91,96.56,7.53,16.12.89,32.25,1.37,48.39,1.75,16.14.21,32.29.34,48.42-.1,8.07-.11,16.14-.5,24.2-.83,2-.08,4-.19,6.06-.23s4.06,0,6.09.15a76.41,76.41,0,0,1,23.66,5.31l11.21,4.6,22.39,9.23,89.58,36.92,11.19,4.61c1.87.78,3.74,1.52,5.6,2.34s3.68,1.71,5.47,2.68a89.84,89.84,0,0,1,19.39,14.62,93.5,93.5,0,0,1,27.82,65.55c.07,1,0,2,0,3l-.1,3-.2,6c-.13,4-.25,8.06-.48,12.11A195.41,195.41,0,0,1,1247,1344.4a193.61,193.61,0,0,1-30.4,37.69,196.17,196.17,0,0,1-18.48,15.72,192.4,192.4,0,0,1-20.35,13.21l-2.64,1.49-2.69,1.41c-1.79.94-3.58,1.88-5.42,2.72-3.65,1.76-7.3,3.5-11.11,4.92a77.24,77.24,0,0,1-23.75,4.85A76,76,0,0,1,1120,1426c-4-.5-8-1.15-12-1.71l-24-3.65q-23.93-3.75-47.81-7.82c-31.83-5.44-63.6-11.31-95.22-17.93s-63.1-13.89-94.22-22.57c-3.9-1-7.75-2.25-11.63-3.38s-7.75-2.26-11.61-3.49A76.82,76.82,0,0,1,802,1354.28a79.89,79.89,0,0,1-9.17-8c-2.9-2.81-5.76-5.67-8.59-8.55q-8.49-8.64-16.66-17.59c-5.45-6-10.77-12-16-18.16s-10.42-12.34-15.45-18.66Q720.94,1264.47,706.89,1244.72Z"/><path class="cls-2" d="M585.31,1199.13c42.82,16.47,112.81,16.51,156.46,14.52a47,47,0,0,0,44.44-53.08c-2.64-20.43-9.52-39.06-14.55-50.6a47.29,47.29,0,0,1-3.17-27l5.72-32.58a47,47,0,0,0-40.48-54.79h0A47,47,0,0,0,686.48,1020l-92.74,172.43"/><path d="M585.4,1198.9l5,1.58c1.68.52,3.34,1.1,5.07,1.49,3.42.82,6.79,1.82,10.26,2.44l5.16,1.07c1.72.39,3.47.61,5.2.93l5.2.87c1.73.27,3.48.47,5.22.71,13.94,1.86,28,2.82,42,3.28s28.13.61,42.2.29c7-.15,14.06-.42,21.09-.75l5.27-.27,2.63-.14c.87-.06,1.79-.07,2.58-.19l2.44-.28a15.23,15.23,0,0,0,2.42-.38l2.4-.53,1.19-.27,1.16-.39a43.26,43.26,0,0,0,16.69-9.78,42.8,42.8,0,0,0,13.65-34.88l-.19-2.42c-.1-.82-.25-1.69-.37-2.53-.24-1.7-.58-3.39-.86-5.08-.66-3.37-1.4-6.74-2.25-10.08-1.72-6.67-3.76-13.28-6.14-19.78-1.18-3.25-2.46-6.46-3.81-9.65l-1-2.38c-.36-.88-.76-1.77-1.08-2.68a49,49,0,0,1-1.71-5.53,51.54,51.54,0,0,1-1.52-11.46,53.16,53.16,0,0,1,.2-5.78c.1-1,.2-1.92.35-2.87l.22-1.42.23-1.3,3.61-20.87,1.85-10.42c.17-1.59.43-3.17.55-4.76l0-2.4a15.89,15.89,0,0,0,0-2.39,43,43,0,0,0-5.22-18.27l-.56-1.07c-.19-.35-.44-.67-.65-1l-1.33-2a17.77,17.77,0,0,0-1.45-1.91l-1.52-1.86c-.53-.6-1.12-1.15-1.67-1.72s-1.1-1.17-1.72-1.68l-1.85-1.53a16.92,16.92,0,0,0-1.91-1.46,43.56,43.56,0,0,0-17.61-7.29,38.32,38.32,0,0,0-4.78-.61c-.8,0-1.6,0-2.4,0-.41,0-.81,0-1.21,0l-1.2.07c-.8.07-1.61,0-2.41.18l-2.39.32c-.79.13-1.57.33-2.36.48a20.61,20.61,0,0,0-2.34.61,46.42,46.42,0,0,0-4.57,1.56,47.11,47.11,0,0,0-4.35,2.11c-1.44.74-2.76,1.67-4.12,2.55a48.7,48.7,0,0,0-7.22,6.44c-1,1.26-2.11,2.46-3,3.81a47.24,47.24,0,0,0-2.6,4.1l-2.56,4.63-10.29,18.51-41.17,74.06L615,1155.72l-10.46,18.43L594,1192.5l-.44-.24L673.68,1043l10-18.66,2.51-4.67a50.44,50.44,0,0,1,2.83-4.53,52.74,52.74,0,0,1,3.26-4.22,52.94,52.94,0,0,1,7.9-7.16,52.68,52.68,0,0,1,4.51-2.85,50.55,50.55,0,0,1,4.78-2.37,51.06,51.06,0,0,1,5-1.77,22.8,22.8,0,0,1,2.58-.69c.87-.18,1.74-.41,2.61-.56l2.65-.38c.88-.15,1.77-.14,2.66-.22l1.33-.09c.45,0,.89,0,1.34,0,.89,0,1.78,0,2.67,0a42.81,42.81,0,0,1,5.3.63,47.37,47.37,0,0,1,19.61,8,16.76,16.76,0,0,1,2.13,1.61l2.07,1.69c.68.57,1.27,1.25,1.92,1.87s1.27,1.24,1.87,1.9l1.69,2.07a22.11,22.11,0,0,1,1.63,2.12l1.48,2.23c.24.37.51.73.72,1.12l.63,1.18a47.63,47.63,0,0,1,5.89,20.37,19.8,19.8,0,0,1,.05,2.67l0,2.67c-.12,1.78-.41,3.55-.6,5.32l-1.82,10.43-3.67,20.86a47.59,47.59,0,0,0,.39,20.81,56.71,56.71,0,0,0,3.55,9.89c1.36,3.26,2.66,6.55,3.86,9.88a199.38,199.38,0,0,1,6.19,20.29,134.44,134.44,0,0,1,3.64,20.92,47.28,47.28,0,0,1-33.78,48.71l-1.27.41-1.3.27-2.62.54a17.85,17.85,0,0,1-2.64.37l-2.65.26c-3.53.23-7.06.32-10.59.46-7.06.22-14.12.4-21.18.44-14.13.11-28.26-.15-42.37-.93s-28.19-2.09-42.15-4.28-27.83-5.28-41.08-10.27Z"/><path class="cls-3" d="M521.7,1040.91c-4.73,20.48-1.74,61.16,2.8,98.74,6.34,52.49,68.8,76.67,108.75,42,47-40.75,77.1-99.42,81.85-109,.5-1,1-2,1.59-3l12.72-22.69c23.14-41.27-3.34-92.77-50.37-98l-73.23-8.07a66.05,66.05,0,0,0-71.26,49.39Z"/><path d="M521.94,1041a126.08,126.08,0,0,0-2.25,23.53c-.12,7.9.13,15.8.56,23.69.9,15.79,2.63,31.51,4.6,47.2.27,1.95.46,3.94.81,5.85l.5,2.88c.21,1,.46,1.9.69,2.85.41,1.9,1.08,3.74,1.66,5.59.27.94.7,1.81,1,2.72s.69,1.82,1.12,2.69A63.11,63.11,0,0,0,544,1176.85a64.73,64.73,0,0,0,41.18,18.38,62.65,62.65,0,0,0,22.51-2.6,64.14,64.14,0,0,0,20-10.46l2.17-1.82c.73-.61,1.45-1.19,2.16-1.89l4.27-4c1.4-1.36,2.88-2.63,4.22-4l4.08-4.2c2.77-2.75,5.34-5.71,8-8.61s5.12-5.9,7.65-8.87a389.68,389.68,0,0,0,27.75-37.85,405.3,405.3,0,0,0,23.43-40.65l1.49-2.8,1.45-2.59,2.92-5.16,5.84-10.33c1-1.71,2-3.48,2.88-5.14s1.75-3.27,2.45-5,1.39-3.42,2-5.15c.31-.87.53-1.76.81-2.65l.4-1.32c.12-.45.21-.9.31-1.35a61.79,61.79,0,0,0,1.34-22,62.81,62.81,0,0,0-6.54-21.2l-1.32-2.46-1.46-2.38c-.47-.81-1-1.57-1.54-2.34s-1-1.55-1.63-2.27A61.9,61.9,0,0,0,704.32,961a64.41,64.41,0,0,0-10-5.12,66.51,66.51,0,0,0-10.84-3.21c-.92-.23-1.86-.32-2.8-.49s-1.84-.31-2.85-.43l-5.88-.75-23.55-3-23.55-3-11.77-1.5-5.88-.75-1.48-.18-1.44-.12-2.89-.24a64.44,64.44,0,0,0-43.53,13.5,65.18,65.18,0,0,0-15.51,17.45,24.69,24.69,0,0,0-1.44,2.56l-1.38,2.6a24.9,24.9,0,0,0-1.21,2.68l-1.13,2.71A103.22,103.22,0,0,0,533.78,995Zm-.49-.12,11.66-46a111.9,111.9,0,0,1,3.32-11.42l1.12-2.76a27.48,27.48,0,0,1,1.19-2.73l1.37-2.64a25.44,25.44,0,0,1,1.44-2.61,66.35,66.35,0,0,1,59.9-32.41c4,.18,7.9.67,11.83,1.1l11.8,1.29,23.59,2.59,23.59,2.58,5.9.65c1,.09,2,.26,3,.39s2,.24,2.95.46a70.65,70.65,0,0,1,11.49,3.18,69,69,0,0,1,10.72,5.23,65.74,65.74,0,0,1,9.59,7.08,67.22,67.22,0,0,1,21.93,41.31,65.56,65.56,0,0,1-1.21,23.73c-.12.49-.22,1-.34,1.46l-.42,1.43c-.29,1-.54,1.92-.87,2.86-.69,1.87-1.32,3.76-2.17,5.56a111.21,111.21,0,0,1-5.51,10.56l-5.79,10.36-2.9,5.17-1.45,2.59-1.37,2.61a405.48,405.48,0,0,1-23.88,41,376.23,376.23,0,0,1-28.44,38A270.36,270.36,0,0,1,629.77,1185a67.35,67.35,0,0,1-21.23,10.64,65.21,65.21,0,0,1-23.62,2.31,67,67,0,0,1-42.33-19.77,64.66,64.66,0,0,1-13.3-19.63c-.43-.9-.74-1.85-1.11-2.77s-.76-1.84-1-2.8c-.56-1.91-1.21-3.79-1.6-5.74-.21-1-.45-1.94-.65-2.91l-.45-2.94c-.35-2-.51-3.93-.76-5.9-1.82-15.72-3.33-31.48-4.14-47.29-.4-7.91-.62-15.83-.46-23.75A126.8,126.8,0,0,1,521.45,1040.85Z"/><path class="cls-4" d="M1028.63,598.79c-72.39,34.9-160.62,91.59-198,116.2a80.64,80.64,0,0,1-51.84,13c-64.14-5.9-167.4-32-167.4-32s-14-3.52-51.93-4.4c-72.56-1.69-77.81-.75-77.81-.75s-20.07,2.44-70.69,29.44c-27.7,14.77-36.7,57.82-39.18,93.79a80.4,80.4,0,0,0,56.3,82c12.21,3.83,24.51,6.92,35.54,9.35a80.29,80.29,0,0,1,55.8,45.27c4.27,9.41,8.88,19.16,13.37,28.45a80.63,80.63,0,0,0,82.06,45c39.4-4.63,66.78-10.51,79.06-13.46a81,81,0,0,1,15.65-2.17c43-1.69,155.29-6.86,215.45-9.66a80.52,80.52,0,0,0,62.16-34.13l145.44-206.81a80.63,80.63,0,0,0,14.58-49.88l-1.8-40.89c-2.56-58.32-64.39-94.7-116.56-68.5Z"/><path d="M1028.74,599c-18.83,9.13-37.31,19-55.59,29.17S936.82,649,918.91,659.79s-35.64,22-53.25,33.26q-13.2,8.49-26.31,17.13l-6.55,4.33c-1.08.72-2.18,1.44-3.31,2.14s-2.25,1.38-3.4,2a78.85,78.85,0,0,1-14.47,6.4,82.07,82.07,0,0,1-31.31,4c-2.65-.15-5.23-.49-7.85-.73s-5.22-.48-7.82-.82l-7.81-1-3.9-.49-3.89-.56c-20.76-2.94-41.4-6.64-62-10.68s-41-8.47-61.46-13.17L610.38,698c-4.94-1-10.15-1.6-15.3-2.12-10.33-1-20.75-1.52-31.17-1.79s-20.92-.37-31.37-.51-20.92-.23-31.36-.22c-5.22,0-10.46,0-15.62.16l-1.91.07-.93,0-.43,0-.28,0c-1.13.18-2.37.48-3.58.77-2.45.63-4.9,1.36-7.34,2.16a268.92,268.92,0,0,0-28.76,11.62q-14.13,6.57-27.88,14l-1.72.92c-.54.3-1.06.58-1.58.9-1,.61-2,1.29-3,2a46.1,46.1,0,0,0-5.55,4.73,59.92,59.92,0,0,0-9,11.74c-5.11,8.6-8.61,18.25-11.2,28.12A215.52,215.52,0,0,0,377,801q-.42,3.84-.75,7.71c-.2,2.54-.43,5.21-.5,7.65a73.88,73.88,0,0,0,.89,14.86A75.64,75.64,0,0,0,386.91,859,76.73,76.73,0,0,0,407,880.69a79.27,79.27,0,0,0,12.78,7.54c1.11.54,2.27,1,3.4,1.5s2.3.9,3.47,1.32,2.31.8,3.56,1.18l3.71,1.13c9.91,2.94,20,5.48,30.1,7.71a84.64,84.64,0,0,1,53.27,36.46q2.26,3.47,4.2,7.14c.63,1.22,1.25,2.46,1.83,3.71L525,952c2.17,4.74,4.4,9.46,6.62,14.18l3.36,7.06,1.69,3.53c.57,1.17,1.12,2.23,1.69,3.34A75.43,75.43,0,0,0,557,1002.89a76.45,76.45,0,0,0,40.47,17,75.66,75.66,0,0,0,14.82.14c2.41-.2,5.1-.58,7.65-.87l7.75-1c20.64-2.76,41.23-6.07,61.48-10.61l3.79-.87c1.33-.31,2.68-.6,4-.85q4-.76,8.16-1.12c1.37-.12,2.75-.21,4.12-.26l3.93-.16L721,1004l31.37-1.28,125.49-4.88,31.38-1.21,15.69-.61a78.87,78.87,0,0,0,15-2.07,77.81,77.81,0,0,0,27.43-12.58,76.47,76.47,0,0,0,11.39-10,75.51,75.51,0,0,0,4.92-5.81c1.52-2,3-4.17,4.55-6.3L1061.1,857l36.44-51.15,18.23-25.57,9.1-12.79,4.54-6.41c1.52-2.13,3-4.26,4.46-6.41a80.14,80.14,0,0,0,11.41-28.71,77.3,77.3,0,0,0,1.35-15.48c-.11-5.2-.39-10.45-.58-15.67l-.63-15.69-.31-7.84c-.11-2.62-.18-5.23-.41-7.82a78.87,78.87,0,0,0-8.6-29.81,80.85,80.85,0,0,0-46.57-39.33,79.51,79.51,0,0,0-30.86-3.71A80.62,80.62,0,0,0,1028.74,599Zm-.22-.45a81.11,81.11,0,0,1,30.11-8.55,80,80,0,0,1,31.08,3.7,81.51,81.51,0,0,1,47,39.57,80.37,80.37,0,0,1,8.75,30.06c.24,2.62.32,5.24.44,7.85l.35,7.84.69,15.69c.21,5.23.51,10.44.65,15.69a79.32,79.32,0,0,1-1.31,15.68,81,81,0,0,1-11.45,29.15L990.44,960.81c-1.51,2.14-3,4.29-4.56,6.4s-3.28,4.12-5.06,6A80.94,80.94,0,0,1,940.67,997a82.13,82.13,0,0,1-15.59,2.27l-15.69.71L878,1001.39,752.55,1007l-31.37,1.42-7.84.35c-2.62.13-5.23.19-7.82.44s-5.17.6-7.72,1.09-5.08,1.14-7.64,1.72c-20.44,4.65-41.12,8.1-61.87,10.9-5.2.67-10.37,1.37-15.61,1.89a79.8,79.8,0,0,1-15.76-.12,81,81,0,0,1-30-9.26,80.75,80.75,0,0,1-33-33.05c-1.23-2.34-2.36-4.7-3.49-7.06l-3.38-7.09q-3.37-7.1-6.64-14.23c-1.1-2.39-2.13-4.77-3.35-7.07s-2.52-4.55-3.94-6.73A79.81,79.81,0,0,0,463,905.81c-10.23-2.26-20.39-4.84-30.43-7.84a96.09,96.09,0,0,1-14.8-5.41,82.35,82.35,0,0,1-13.55-8.06,80.62,80.62,0,0,1-32-52.57,78.91,78.91,0,0,1-.88-15.73c.25-5.26.76-10.46,1.34-15.68a213.6,213.6,0,0,1,5.7-30.91c2.73-10.12,6.39-20.08,11.84-29.1a63.37,63.37,0,0,1,9.68-12.44,49.17,49.17,0,0,1,6.05-5.1,52.3,52.3,0,0,1,6.79-4q13.86-7.37,28.17-13.92a274.16,274.16,0,0,1,29.21-11.58c2.5-.79,5-1.53,7.58-2.16,1.28-.3,2.56-.61,3.87-.81s2.65-.15,4-.19c5.24-.11,10.48-.09,15.71-.06,20.94.16,41.87.6,62.8,1.13,10.47.32,20.94.87,31.36,1.93,5.21.55,10.42,1.17,15.58,2.23l15.26,3.71c20.36,4.84,40.79,9.42,61.29,13.61s41.09,8,61.79,11.11l3.87.59,3.89.52,7.78,1c2.59.36,5.2.58,7.8.88s5.2.61,7.8.78A79.86,79.86,0,0,0,811.26,724a77.71,77.71,0,0,0,14.3-6.26c1.13-.64,2.27-1.28,3.36-2s2.21-1.4,3.3-2.12l6.56-4.31q13.15-8.58,26.39-17,26.48-16.89,53.38-33.09t54.31-31.54C991.16,617.48,1009.67,607.67,1028.52,598.56Z"/><path class="cls-5" d="M1031.32,529.6c77.63-59.06,472.5-27,472.5-27C1573,553.22,1541,678.1,1541,678.1,1529.13,720.29,1439.7,749,1439.7,749c-45.57,35.44-129.94,335.82-129.94,335.82-37.13,79.31,15.19,121.5,15.19,121.5,6.75,102.93-1.69,116.43-1.69,116.43-16.88,64.13-150.19-33.75-212.63-38.81S866,1236.66,866,1236.66c-42.19-21.94-67.5-87.75-67.5-87.75-59.07,8.44-67.5-33.75-67.5-33.75-52.32-38.81,25.31-180.56,25.31-180.56,13.5-33.75,92.81-54,92.81-54,7.23-6.78,11.8-17.92,14.61-30.6,13.25-59.71,49.67-111.7,102.16-143.09l3-1.81C972.26,662.91,1031.32,529.6,1031.32,529.6Z"/><path d="M1031.12,529.44a83.2,83.2,0,0,1,12.85-7.82,137.68,137.68,0,0,1,13.82-5.73,244.35,244.35,0,0,1,28.8-8.12,533.92,533.92,0,0,1,59.09-9.2q14.88-1.56,29.79-2.66t29.84-1.82c19.91-1,39.84-1.55,59.77-1.83,39.85-.54,79.72,0,119.55,1.28s79.62,3.38,119.42,6.29l.78.05.63.47a99.93,99.93,0,0,1,27,30.19,133.2,133.2,0,0,1,14.34,37.68,185.53,185.53,0,0,1,3.36,19.82c.72,6.66,1.2,13.34,1.36,20a289.64,289.64,0,0,1-1.91,40c-.79,6.62-1.75,13.22-3,19.78-.6,3.29-1.27,6.55-2,9.85l-.31,1.29-.43,1.29-.86,2.57c-.28.87-.71,1.64-1.06,2.46s-.71,1.63-1.12,2.42a70,70,0,0,1-12.54,16.55,124.65,124.65,0,0,1-15.58,13.08,233.26,233.26,0,0,1-34.73,20.16c-6,2.89-12.12,5.58-18.28,8.12s-12.35,4.89-18.79,7l1.18-.63a45,45,0,0,0-7.15,7.51c-1.13,1.38-2.16,2.89-3.23,4.36s-2.05,3-3,4.58c-3.93,6.23-7.5,12.76-10.88,19.41-6.75,13.31-12.81,27.06-18.55,40.93-11.47,27.78-21.74,56.1-31.56,84.57s-19.08,57.15-28,85.93-17.58,57.68-25.78,86.64l-.1.34-.14.31a141.56,141.56,0,0,0-10.32,30.13,110.76,110.76,0,0,0-2.28,15.65,104.39,104.39,0,0,0,.17,15.72,87.46,87.46,0,0,0,16.32,43.45c1.55,2.09,3.17,4.13,4.89,6.06.87,1,1.75,1.9,2.65,2.81.46.44.91.89,1.37,1.31s1,.88,1.3,1.16l1.51,1.27.11,1.86c.6,9.75,1.23,19.49,1.65,29.26.26,4.88.41,9.77.58,14.66s.27,9.79.37,14.68c.06,2.45.07,4.9.07,7.35v7.36c-.08,4.92-.13,9.83-.36,14.77s-.54,9.88-1,14.85c-.3,2.5-.59,5-1,7.54-.09.63-.23,1.27-.37,1.92s-.26,1.28-.43,1.95-.34,1.32-.56,2l-.38,1.09c-.07.2-.18.44-.27.66l-.14.33c-.07.14-.23.44-.35.64l.54-1.23a41.36,41.36,0,0,1-3,7.93l-.49,1c-.17.32-.37.63-.56.94-.39.62-.76,1.25-1.17,1.86a31.82,31.82,0,0,1-2.82,3.44,27.74,27.74,0,0,1-7,5.43,33,33,0,0,1-8.09,3.1,44.76,44.76,0,0,1-8.26,1.21,64.32,64.32,0,0,1-8.1,0,107.61,107.61,0,0,1-15.57-2.35,233.07,233.07,0,0,1-29.43-9c-9.56-3.51-18.92-7.37-28.22-11.32-18.59-7.91-36.88-16.29-55.42-23.73-9.27-3.69-18.61-7.18-28.05-9.93a133.88,133.88,0,0,0-14.22-3.38c-2.38-.43-4.72-.7-7.11-.93l-7.61-.81c-5.09-.46-10.09-1.23-15.11-1.92s-10-1.47-15-2.28l-7.48-1.2-7.46-1.29c-5-.89-9.95-1.72-14.9-2.65-19.84-3.63-39.6-7.58-59.35-11.61q-59.19-12.24-118.07-25.83l-.5-.11-.43-.23a95.25,95.25,0,0,1-12.41-8,116.9,116.9,0,0,1-11-9.58,164.73,164.73,0,0,1-18.52-22.09,237.75,237.75,0,0,1-15.06-24.35q-3.4-6.29-6.48-12.73c-2-4.33-4-8.61-5.78-13.18l4.11,2.41a101.82,101.82,0,0,1-21.54.86,66.61,66.61,0,0,1-21.34-5,49.5,49.5,0,0,1-24.48-22.08,52.26,52.26,0,0,1-2.39-5.08c-.34-.87-.67-1.76-1-2.66-.15-.46-.29-.91-.42-1.38s-.25-.9-.39-1.53l1.37,2.14a41.91,41.91,0,0,1-9.2-9.41,48.42,48.42,0,0,1-6-11.54,75.54,75.54,0,0,1-4.15-24.92,142.07,142.07,0,0,1,2-24.71,233.66,233.66,0,0,1,5.29-24,390.53,390.53,0,0,1,16.09-46.11q4.7-11.26,9.89-22.28c3.48-7.36,7.06-14.61,11-21.82l-.15.31a42.32,42.32,0,0,1,8-12.33,76.67,76.67,0,0,1,10.61-9.58,118.92,118.92,0,0,1,11.75-7.79c4-2.38,8.15-4.55,12.34-6.58a264.34,264.34,0,0,1,25.65-10.75c8.73-3.14,17.5-6,26.53-8.34l-1.11.6a37.49,37.49,0,0,0,7.48-10.3,72.14,72.14,0,0,0,4.78-12.29q.93-3.2,1.68-6.47L863,843c1-4.49,2.47-8.86,3.81-13.27.63-2.21,1.45-4.36,2.23-6.53l2.35-6.48,2.67-6.37c.9-2.12,1.72-4.27,2.77-6.32,2-4.14,3.88-8.34,6.17-12.34l3.3-6.05,3.58-5.89c2.31-4,5-7.7,7.58-11.52l1-1.42,1-1.38,2.08-2.75c1.4-1.82,2.75-3.68,4.19-5.47a224.87,224.87,0,0,1,18.59-20.32c1.66-1.58,3.26-3.24,5-4.75l5.19-4.53,2.59-2.26,2.71-2.12,5.42-4.25c1.81-1.4,3.74-2.66,5.6-4l2.81-2c.94-.66,1.87-1.33,2.86-1.92l5.83-3.66,2.91-1.82,2.95-1.74-.7,1.12a146,146,0,0,1,4.67-23.09c2-7.54,4.38-15,6.82-22.39,4.94-14.79,10.36-29.39,16-43.91s11.55-28.92,17.59-43.26q4.53-10.77,9.17-21.47l4.67-10.7,2.36-5.33Zm.4.31-4.63,10.65-4.59,10.72q-4.56,10.74-9,21.53Q1004.4,594.23,996,616c-5.54,14.54-10.87,29.16-15.71,43.94-2.4,7.4-4.68,14.84-6.67,22.35a143.65,143.65,0,0,0-4.49,22.82l0,.15-.12.07-2.93,1.75-2.89,1.83-5.76,3.66c-1,.59-1.89,1.26-2.82,1.92l-2.78,2c-1.84,1.33-3.74,2.59-5.53,4L941,724.71l-2.67,2.13-2.56,2.25-5.12,4.51c-1.7,1.51-3.27,3.16-4.91,4.74a220.63,220.63,0,0,0-18.3,20.23c-1.42,1.78-2.74,3.63-4.12,5.44l-2,2.73-1,1.37-1,1.41c-2.51,3.8-5.18,7.49-7.44,11.44l-3.52,5.85-3.23,6c-2.24,4-4.07,8.14-6,12.24-1,2-1.82,4.17-2.7,6.26l-2.6,6.31-2.29,6.43c-.76,2.15-1.56,4.28-2.17,6.47-2.85,8.66-4.69,17.55-7,26.4a74.59,74.59,0,0,1-4.93,12.79,40.53,40.53,0,0,1-8,11.11l-.06.06-.08,0c-8.85,2.37-17.6,5.21-26.21,8.35A262.13,262.13,0,0,0,797.61,900c-4.12,2-8.18,4.16-12.11,6.52a114.51,114.51,0,0,0-11.42,7.62,74.27,74.27,0,0,0-10.13,9.2,38.83,38.83,0,0,0-7.37,11.42h0v0C749,949,742.18,963.69,736,978.6a386.14,386.14,0,0,0-15.78,45.75A230.4,230.4,0,0,0,715.1,1048a137.79,137.79,0,0,0-1.87,24.07,72,72,0,0,0,4,23.66,44.6,44.6,0,0,0,5.57,10.61,38.32,38.32,0,0,0,8.38,8.53l.11.08,0,.15A43.51,43.51,0,0,0,741,1133a46.11,46.11,0,0,0,16.68,11.83,62.4,62.4,0,0,0,20,4.57,97.13,97.13,0,0,0,20.65-.9l.3,0,.12.29a246.58,246.58,0,0,0,12.07,25.39,234.69,234.69,0,0,0,14.82,23.89,160,160,0,0,0,18.06,21.49,112.92,112.92,0,0,0,10.58,9.21,89.45,89.45,0,0,0,11.8,7.55l-.1,0q58.85,13.48,118,25.65c19.72,4,39.46,7.92,59.26,11.52,5,.92,9.91,1.74,14.86,2.62l7.44,1.28,7.45,1.19c5,.79,9.93,1.6,14.92,2.24s10,1.43,15,1.89l7.49.78c2.52.24,5,.53,7.52,1a137.2,137.2,0,0,1,14.74,3.48c9.69,2.81,19.14,6.33,28.5,10,18.71,7.48,37,15.84,55.55,23.69,9.26,3.92,18.56,7.75,28,11.2a229.21,229.21,0,0,0,28.81,8.75,102,102,0,0,0,14.84,2.22,60.22,60.22,0,0,0,7.48,0,40.46,40.46,0,0,0,7.36-1.08,24.8,24.8,0,0,0,15.07-10c.35-.51.66-1,1-1.57.15-.27.33-.52.47-.79l.42-.84a37,37,0,0,0,2.62-6.94v-.06l0-.08a10.8,10.8,0,0,0,.6-1.59c.18-.56.32-1.15.48-1.73.26-1.17.54-2.35.72-3.54.43-2.38.71-4.79,1-7.2q.72-7.25,1-14.54c.23-4.86.29-9.73.37-14.59V1272c0-2.43,0-4.86-.06-7.3-.09-4.86-.15-9.73-.35-14.59s-.3-9.74-.56-14.6c-.41-9.72-1-19.44-1.6-29.16l.17.34a84.08,84.08,0,0,1-19.51-26.45,93.33,93.33,0,0,1-8.72-31.69,108.08,108.08,0,0,1-.15-16.49,113.64,113.64,0,0,1,2.39-16.32,147,147,0,0,1,10.69-31.12l0,.07q12.39-43.54,25.93-86.73t28.18-86c9.88-28.51,20.21-56.89,31.76-84.77,5.79-13.94,11.9-27.76,18.75-41.22,3.43-6.72,7.07-13.36,11.11-19.75,1-1.6,2.08-3.16,3.13-4.73s2.19-3.09,3.39-4.55a48.64,48.64,0,0,1,7.88-8.22l.06,0,.07,0a334,334,0,0,0,36.6-14.84,228.21,228.21,0,0,0,34.19-19.68,121,121,0,0,0,15.14-12.61,66.11,66.11,0,0,0,11.89-15.57c.39-.72.7-1.48,1-2.22s.72-1.47,1-2.25l.79-2.31.39-1.16.29-1.2q1.13-4.8,2-9.66c1.23-6.47,2.2-13,3-19.53a285.63,285.63,0,0,0,2-39.44c-.13-6.58-.58-13.16-1.27-19.7a179.61,179.61,0,0,0-3.22-19.47,129.89,129.89,0,0,0-13.85-36.79,96.55,96.55,0,0,0-26-29.3l.17.06c-39.7-3-79.47-5.17-119.26-6.7s-79.62-2.27-119.44-2c-19.9.17-39.81.63-59.7,1.49q-14.92.68-29.82,1.65t-29.75,2.49a546.24,546.24,0,0,0-59,8.79,244,244,0,0,0-28.76,7.87,139.87,139.87,0,0,0-13.8,5.61A85.09,85.09,0,0,0,1031.52,529.75Z"/><path class="cls-6" d="M1058.84,557.08a459.47,459.47,0,0,1,65.76-16.62c22.43-3.92,45.69-7.07,68.43-4.08,3.24.42,6-3.06,6-6,0-3.59-2.8-5.58-6-6-23.16-3-46.89.29-69.76,4.19a458.73,458.73,0,0,0-67.62,16.94c-7.29,2.42-4.17,14,3.19,11.57Z"/><path class="cls-7" d="M1132.76,1272.93c18.45-2.46,36.3,2.47,53.08,9.89,17.53,7.75,34.35,17.22,51.34,26.09,6.84,3.57,12.91-6.78,6-10.36-18-9.43-35.91-19.56-54.67-27.53-17.63-7.5-36.52-12.66-55.8-10.09-3.24.43-6,2.45-6,6,0,2.91,2.79,6.42,6,6Z"/><path class="cls-8" d="M604.86,715.54c-46.17-11.83-96.25-20.41-140.94,1.34-6.95,3.38-.87,13.73,6.05,10.36,41.5-20.19,89-11.07,131.7-.13,7.48,1.92,10.67-9.65,3.19-11.57Z"/><path class="cls-9" d="M537.89,1039.33a142.34,142.34,0,0,0-3.71,50.39c.81,7.6,12.81,7.68,12,0a132.8,132.8,0,0,1,3.28-47.2c1.9-7.49-9.67-10.68-11.57-3.19Z"/><path class="cls-10" d="M786.72,1295.59a294,294,0,0,1-40-46.94c-4.34-6.33-14.74-.34-10.37,6.06a308.73,308.73,0,0,0,41.92,49.36c5.6,5.32,14.1-3.15,8.49-8.48Z"/><path class="cls-11" d="M1144.61,1407.41a120.3,120.3,0,0,0,38.08-20.15c6.09-4.74-2.46-13.18-8.48-8.49a104.12,104.12,0,0,1-32.79,17.07c-7.34,2.31-4.2,13.9,3.19,11.57Z"/><path class="cls-12" d="M1476.36,536.11a37.28,37.28,0,0,1,19.39,34.69c-.37,7.72,11.63,7.7,12,0a49.2,49.2,0,0,0-25.34-45c-6.77-3.71-12.84,6.65-6.05,10.36Z"/><path class="cls-13" d="M745.33,1043.1c-14.51,16.27-12.35,38.5-4,57.17,7.36,16.49,19.7,35.22,39,38.13,7.55,1.14,10.81-10.42,3.19-11.57-15.26-2.3-24.13-16.66-30.36-29.45-6.87-14.09-10.84-32.89.67-45.8,5.12-5.75-3.34-14.26-8.49-8.48Z"/></g></svg>