<svg xmlns="http://www.w3.org/2000/svg" xmlns:xlink="http://www.w3.org/1999/xlink" viewBox="0 0 1920 1920"><defs><style>.cls-1{fill:url(#linear-gradient);}.cls-2{fill:url(#linear-gradient-2);}.cls-3{fill:url(#linear-gradient-3);}.cls-4{fill:url(#linear-gradient-4);}.cls-5{fill:url(#linear-gradient-5);}.cls-6{fill:url(#radial-gradient);}</style><linearGradient id="linear-gradient" x1="1015.94" y1="1125.52" x2="870.29" y2="1680.97" gradientUnits="userSpaceOnUse"><stop offset="0.24" stop-color="#b97500"/><stop offset="0.29" stop-color="#996203"/><stop offset="0.42" stop-color="#4f3509"/><stop offset="0.51" stop-color="#20190d"/><stop offset="0.56" stop-color="#0e0e0e"/></linearGradient><linearGradient id="linear-gradient-2" x1="752.58" y1="1045.89" x2="685.53" y2="1228" gradientUnits="userSpaceOnUse"><stop offset="0" stop-color="#b97500"/><stop offset="0.16" stop-color="#996203"/><stop offset="0.57" stop-color="#4f3509"/><stop offset="0.86" stop-color="#20190d"/><stop offset="1" stop-color="#0e0e0e"/></linearGradient><linearGradient id="linear-gradient-3" x1="648.48" y1="1013.49" x2="518.24" y2="1164.81" xlink:href="#linear-gradient-2"/><linearGradient id="linear-gradient-4" x1="1220" y1="854" x2="457.84" y2="723.05" gradientUnits="userSpaceOnUse"><stop offset="0.37" stop-color="#b97500"/><stop offset="0.54" stop-color="#c58d00"/><stop offset="0.9" stop-color="#e3cb00"/><stop offset="1" stop-color="#ecdc00"/></linearGradient><linearGradient id="linear-gradient-5" x1="388.35" y1="792.29" x2="1169.03" y2="792.29" gradientUnits="userSpaceOnUse"><stop offset="0" stop-color="#030200"/><stop offset="1" stop-color="#0e0e0e"/></linearGradient><radialGradient id="radial-gradient" cx="1149.48" cy="902.92" r="421.53" gradientUnits="userSpaceOnUse"><stop offset="0" stop-color="#ecdc00"/><stop offset="0.79" stop-color="#c48b00"/><stop offset="1" stop-color="#b97500"/></radialGradient></defs><g id="Layer_3" data-name="Layer 3"><path class="cls-1" d="M726,1228.32c36.26,51,69.65,85.79,87.5,103a76.48,76.48,0,0,0,30.46,18c95,29.53,239.21,52,292.65,59.69a77,77,0,0,0,42.49-6l2.67-1.2c66.86-30.5,110.28-96.69,112.69-170.13l.4-12.17a93.26,93.26,0,0,0-41.94-84.23,73.16,73.16,0,0,0-12.25-6.4l-137.08-56.54a76.86,76.86,0,0,0-33.27-5.7c-98.7,5.08-209.93-6.12-277-14.82-46.71-6.05-88,31-86.68,78a575,575,0,0,0,5.94,64.92A77,77,0,0,0,726,1228.32Z"/><path d="M726,1228.32Q740,1248,755.24,1266.91c5,6.31,10.24,12.48,15.47,18.63s10.6,12.18,16.06,18.13,11,11.81,16.69,17.55q4.26,4.3,8.6,8.51a79.58,79.58,0,0,0,9.15,7.88,76.07,76.07,0,0,0,21.37,11c3.84,1.21,7.73,2.3,11.6,3.45s7.72,2.33,11.63,3.34c31.13,8.57,62.65,15.63,94.27,22.1s63.42,12.16,95.26,17.44c15.92,2.66,31.87,5.15,47.83,7.57l23.95,3.52,6,.85c2,.29,4,.58,6,.8a73.07,73.07,0,0,0,11.83.34,75.28,75.28,0,0,0,23.07-4.83c3.66-1.39,7.3-3.14,10.89-4.89,1.81-.85,3.57-1.78,5.34-2.72l2.65-1.4,2.6-1.49a190.66,190.66,0,0,0,20-13.15,196.89,196.89,0,0,0,18.17-15.58,191.24,191.24,0,0,0,29.87-37.27,196.23,196.23,0,0,0,19.74-43.46,193.23,193.23,0,0,0,8.51-47c.22-4,.33-8,.46-12.07l.19-6,.1-3c0-1,.09-2,0-3a91.17,91.17,0,0,0-26.93-63.49l-4.32-4-4.58-3.72c-1.59-1.16-3.21-2.27-4.81-3.41s-3.28-2.08-5-3a101.09,101.09,0,0,0-10.79-4.9l-11.19-4.63-89.47-37.18-22.36-9.31-11.15-4.65a74.73,74.73,0,0,0-22.91-5.27c-2-.12-3.93-.2-5.9-.17-1,0-2,.06-3,.08l-3,.11c-8.09.29-16.17.64-24.26.71-16.17.36-32.34.15-48.5-.15-16.16-.46-32.32-1-48.45-2-32.27-1.79-64.47-4.61-96.59-8q-24.09-2.61-48.11-5.75c-4-.51-8-1.1-12-1.47a76.56,76.56,0,0,0-12,0,75.26,75.26,0,0,0-23.33,5.57,77.08,77.08,0,0,0-36.07,30.86c-1.1,1.69-2,3.49-3,5.26s-1.77,3.62-2.5,5.5-1.41,3.77-2.09,5.66-1.18,3.86-1.59,5.83-.81,3.95-1.15,5.94c-.17,1-.25,2-.37,3s-.24,2-.28,3l-.17,3v3c0,2,.11,4,.15,6,.63,16.13,2.1,32.22,4.11,48.24,1.09,8,1.81,16.09,4.32,23.79A77,77,0,0,0,726,1228.32Zm0,0a77.48,77.48,0,0,1-10.75-21.59c-2.52-7.71-3.26-15.81-4.36-23.8-2.05-16-3.55-32.11-4.21-48.25,0-2-.18-4-.16-6v-3l.17-3c0-1,.13-2,.26-3s.19-2,.35-3c.34-2,.64-4,1.13-6s1-3.91,1.55-5.86,1.27-3.85,2.07-5.7,1.62-3.71,2.48-5.54,1.85-3.6,3-5.31a77.64,77.64,0,0,1,36.15-31.29,73.25,73.25,0,0,1,11.54-3.82,74.92,74.92,0,0,1,12-2,78.48,78.48,0,0,1,12.17-.08c4.06.35,8.05.89,12.06,1.37q24,2.89,48.13,5.28c32.13,3.12,64.33,5.62,96.56,7.1,16.12.81,32.25,1.22,48.37,1.52,16.13.14,32.26.2,48.37-.31,8.06-.15,16.11-.58,24.16-.94l3-.14c1,0,2.06-.11,3.09-.11,2.07-.06,4.14,0,6.2.12a79.66,79.66,0,0,1,12.29,1.69,78.14,78.14,0,0,1,11.87,3.62l11.24,4.56,22.43,9.16,89.65,36.71,11.2,4.61c1.87.77,3.73,1.5,5.65,2.35s3.78,1.75,5.61,2.75a59.67,59.67,0,0,1,5.37,3.23c1.69,1.19,3.4,2.36,5.08,3.58l4.83,3.91,4.56,4.21a95.11,95.11,0,0,1,28.42,66.93c.07,1,0,2.07,0,3.1l-.1,3.08-.21,6.06c-.13,4-.25,8-.49,12.14a196,196,0,0,1-60,130.49,192.83,192.83,0,0,1-18.69,15.79,195.51,195.51,0,0,1-20.57,13.23l-2.67,1.49L1192,1399c-1.81.94-3.62,1.88-5.47,2.73-3.69,1.75-7.35,3.47-11.25,4.92a78.89,78.89,0,0,1-24.2,4.82,77.23,77.23,0,0,1-12.35-.47c-2.06-.26-4-.57-6-.87l-6-.91-23.94-3.76q-23.92-3.84-47.79-8c-31.82-5.6-63.57-11.61-95.16-18.37s-63-14.2-94.15-23c-3.9-1-7.75-2.27-11.62-3.41s-7.74-2.28-11.6-3.52A76.87,76.87,0,0,1,821,1338a81.53,81.53,0,0,1-9.14-8q-4.34-4.23-8.56-8.57-8.46-8.67-16.63-17.61c-5.45-6-10.76-12-16-18.16s-10.4-12.35-15.43-18.67Q740,1248.09,726,1228.32Z"/><path class="cls-2" d="M605.19,1184.88c42.82,16.47,112.81,16.5,156.46,14.52a47,47,0,0,0,44.44-53.09c-2.64-20.42-9.52-39-14.55-50.6a47.27,47.27,0,0,1-3.17-27l5.72-32.58a47,47,0,0,0-40.48-54.79h0a47,47,0,0,0-47.25,24.39l-92.74,172.42"/><path d="M605.19,1184.88l5,1.65c1.68.54,3.34,1.14,5.06,1.55,3.41.87,6.78,1.91,10.25,2.57l5.16,1.13c1.72.41,3.47.65,5.2,1l5.2.92c1.74.29,3.49.51,5.23.77,13.95,2,28,3.09,42.09,3.68s28.18.77,42.27.54c7-.11,14.09-.34,21.13-.63l5.28-.24c1.74-.11,3.55-.13,5.24-.3l2.53-.28a16.47,16.47,0,0,0,2.52-.37l2.48-.54,1.24-.27,1.21-.4a45.43,45.43,0,0,0,28.75-26.56,44.8,44.8,0,0,0,3-19.77l-.2-2.51c-.1-.85-.25-1.72-.37-2.57-.23-1.73-.57-3.43-.85-5.15-.66-3.42-1.39-6.82-2.24-10.2a205.79,205.79,0,0,0-6.17-20q-1.8-4.92-3.84-9.75l-1-2.4c-.35-.85-.72-1.71-1-2.59a44.69,44.69,0,0,1-1.65-5.31,49.42,49.42,0,0,1-1.45-11,51.75,51.75,0,0,1,.2-5.57c.17-1.82.47-3.74.78-5.43l3.63-20.87,1.83-10.42c.18-1.67.46-3.32.58-5l0-2.5a16.16,16.16,0,0,0,0-2.51,45,45,0,0,0-5.48-19.12l-.59-1.11c-.2-.36-.46-.7-.68-1l-1.39-2.09a18.47,18.47,0,0,0-1.52-2L781,998.22c-.55-.62-1.17-1.19-1.75-1.79s-1.15-1.22-1.8-1.75l-1.94-1.6a16.35,16.35,0,0,0-2-1.52A45,45,0,0,0,755.08,984a39.78,39.78,0,0,0-5-.62c-.83,0-1.67,0-2.51-.05-.42,0-.84,0-1.26,0l-1.26.08c-.83.07-1.67.06-2.5.2l-2.5.34c-.82.14-1.64.35-2.46.52a20.81,20.81,0,0,0-2.44.63c-1.63.43-3.18,1.06-4.76,1.65a47.29,47.29,0,0,0-4.52,2.22,48.43,48.43,0,0,0-4.28,2.66,49.91,49.91,0,0,0-3.92,3.18c-1.29,1.08-2.4,2.35-3.58,3.55s-2.19,2.57-3.11,4-1.82,2.84-2.69,4.28l-2.53,4.64-10.17,18.58q-20.28,37.2-40.77,74.28l-20.56,37L624,1159.65l-10.37,18.47,9.7-18.83,9.79-18.79,19.57-37.57q19.68-37.52,39.49-75l9.9-18.73,2.49-4.68c.94-1.58,1.81-3.21,2.91-4.7a53.2,53.2,0,0,1,3.37-4.39c1.28-1.34,2.49-2.73,3.9-3.94A53.18,53.18,0,0,1,719,988a52,52,0,0,1,4.68-3,51,51,0,0,1,5-2.48,53.24,53.24,0,0,1,5.23-1.86,24.62,24.62,0,0,1,2.68-.72c.9-.2,1.8-.43,2.71-.59L742,979c.91-.16,1.84-.16,2.76-.24l1.39-.1c.46,0,.93,0,1.39,0,.93,0,1.85,0,2.78,0a42.79,42.79,0,0,1,5.52.63,49.19,49.19,0,0,1,20.43,8.31,21.2,21.2,0,0,1,2.22,1.68l2.15,1.76c.71.6,1.33,1.3,2,1.94s1.32,1.3,1.94,2l1.77,2.15a21.06,21.06,0,0,1,1.69,2.2l1.55,2.32c.25.39.53.76.75,1.17l.66,1.23a49.69,49.69,0,0,1,6.15,21.22,21.47,21.47,0,0,1,.05,2.78l0,2.79c-.13,1.85-.42,3.69-.62,5.53l-1.82,10.44-3.69,20.86c-.32,1.78-.57,3.35-.73,5a42.14,42.14,0,0,0-.2,5,45,45,0,0,0,1.28,9.94,40.12,40.12,0,0,0,1.47,4.79c.28.79.61,1.55.93,2.34l1.05,2.46c1.37,3.3,2.68,6.62,3.89,10a196.83,196.83,0,0,1,6.22,20.5c.85,3.47,1.57,7,2.22,10.5.28,1.77.61,3.53.84,5.31.11.89.25,1.77.35,2.67l.2,2.77a49.41,49.41,0,0,1-3.45,21.71,48.37,48.37,0,0,1-12.6,18,49,49,0,0,1-19.13,10.63l-1.32.41-1.35.28-2.7.54a20.66,20.66,0,0,1-2.72.36l-2.74.25c-1.82.15-3.55.14-5.33.22l-5.3.16c-7.08.17-14.15.29-21.22.28-14.15,0-28.31-.34-42.43-1.25s-28.21-2.44-42.16-4.81S618.33,1190.09,605.19,1184.88Z"/><path class="cls-3" d="M540.58,1024.66c-4.73,20.47-1.74,61.16,2.8,98.74,6.34,52.49,68.8,76.66,108.76,42,47-40.75,77.09-99.43,81.84-109,.5-1,1-2,1.59-3l12.72-22.7c23.14-41.27-3.34-92.76-50.37-98l-73.23-8.08A66,66,0,0,0,553.43,974Z"/><path d="M540.58,1024.66a126,126,0,0,0-2.29,23.58c-.14,7.91.11,15.82.52,23.71.86,15.8,2.51,31.54,4.43,47.24.25,2,.44,3.94.79,5.87l.47,2.91c.21,1,.46,1.91.68,2.87.4,1.93,1.06,3.78,1.64,5.66.26.94.69,1.83,1,2.75s.69,1.84,1.12,2.72a63.92,63.92,0,0,0,13.3,19.2,65.69,65.69,0,0,0,41.66,18.94,63.84,63.84,0,0,0,23-2.48,65.75,65.75,0,0,0,20.48-10.54l2.23-1.84c.75-.62,1.5-1.22,2.21-1.91l4.32-4c1.42-1.36,2.92-2.63,4.27-4l4.14-4.19c2.81-2.75,5.41-5.7,8.06-8.6s5.17-5.92,7.74-8.89a382.09,382.09,0,0,0,28-37.93A404,404,0,0,0,732,1054.86l1.44-2.73,1.46-2.58,2.91-5.17,5.82-10.34c1-1.72,2-3.46,2.88-5.16s1.8-3.36,2.53-5.13,1.42-3.53,2.09-5.32c.32-.89.56-1.82.84-2.73l.41-1.37c.12-.46.21-.92.32-1.39a63.28,63.28,0,0,0,1.28-22.7,64.63,64.63,0,0,0-6.82-21.78,66,66,0,0,0-14-18.12,63.94,63.94,0,0,0-9.19-6.93,66.51,66.51,0,0,0-10.3-5.16,70.1,70.1,0,0,0-11.1-3.21c-.94-.22-1.91-.31-2.86-.47s-1.9-.31-2.89-.41l-5.89-.71-23.57-2.84-23.56-2.83L632,926.36l-5.89-.7-1.48-.18-1.46-.11-2.92-.22a65.27,65.27,0,0,0-43.88,13.9,66,66,0,0,0-15.54,17.63,28.28,28.28,0,0,0-1.44,2.58l-1.37,2.62a27.14,27.14,0,0,0-1.21,2.7l-1.13,2.74a110.42,110.42,0,0,0-3.36,11.35Zm0,0,11.59-46c.94-3.84,2-7.67,3.28-11.41l1.1-2.76a26.43,26.43,0,0,1,1.18-2.73l1.35-2.65a28.6,28.6,0,0,1,1.42-2.61,66.22,66.22,0,0,1,15.46-18A67.46,67.46,0,0,1,596.77,927a66.61,66.61,0,0,1,23.58-3.46c4,.15,7.94.6,11.88,1l11.8,1.19,23.62,2.37,23.61,2.37,5.91.59c1,.08,2,.24,3,.37s2,.23,3,.44A72.64,72.64,0,0,1,714.9,935a68,68,0,0,1,42.44,79c-.11.5-.21,1-.34,1.5l-.43,1.47c-.3,1-.56,2-.89,3-.71,1.92-1.36,3.87-2.23,5.73s-1.75,3.7-2.69,5.52-1.93,3.47-2.89,5.21l-5.78,10.36L739.2,1052l-1.44,2.59-1.33,2.52a406.15,406.15,0,0,1-24,41.22,373.09,373.09,0,0,1-28.76,38.07c-2.63,3-5.19,6-8,8.89s-5.44,5.82-8.34,8.55L663,1158c-1.4,1.41-2.95,2.68-4.42,4l-4.46,4c-.72.68-1.53,1.3-2.32,1.93l-2.39,1.88a68.32,68.32,0,0,1-21.71,10.65,66.36,66.36,0,0,1-24,2.13,68.73,68.73,0,0,1-23.15-6.36,67.7,67.7,0,0,1-19.42-14,65,65,0,0,1-13.2-19.85c-.42-.9-.72-1.86-1.08-2.79s-.74-1.85-1-2.81c-.55-1.92-1.19-3.81-1.56-5.77-.2-1-.43-1.94-.62-2.92l-.44-2.95c-.33-2-.49-3.93-.72-5.9-1.76-15.73-3.15-31.5-3.93-47.31-.38-7.9-.6-15.81-.42-23.72A125.14,125.14,0,0,1,540.58,1024.66Z"/><path class="cls-4" d="M1047.51,582.53c-72.39,34.9-160.62,91.59-198,116.21a80.69,80.69,0,0,1-51.84,13c-64.14-5.9-189.52-35.6-189.52-35.6s8.1.14-29.81-.75c-72.56-1.68-77.81-.75-77.81-.75S480.51,677,429.89,704c-27.7,14.77-36.7,57.82-39.18,93.79a80.38,80.38,0,0,0,56.3,82c12.21,3.84,24.51,6.93,35.54,9.36a80.29,80.29,0,0,1,55.8,45.27c4.27,9.41,8.88,19.16,13.37,28.44a80.65,80.65,0,0,0,82.06,45c39.4-4.63,66.78-10.52,79.06-13.46a81,81,0,0,1,15.65-2.17c43-1.7,155.29-6.87,215.45-9.66a80.58,80.58,0,0,0,62.16-34.13l145.44-206.82a80.59,80.59,0,0,0,14.58-49.88l-1.8-40.89c-2.56-58.32-64.39-94.69-116.56-68.49Z"/><path class="cls-5" d="M1047.51,582.53c-17.89,8.66-35.46,18-52.84,27.62S960.1,629.79,943.05,640s-33.95,20.69-50.72,31.35q-12.6,8-25.08,16.13l-12.47,8.17a131,131,0,0,1-12.73,7.81,80.22,80.22,0,0,1-28.53,8.5,83.07,83.07,0,0,1-15,.22c-2.49-.2-4.95-.5-7.43-.74s-5-.49-7.42-.81c-19.75-2.42-39.38-5.68-59-9.21-39.13-7.14-78-15.35-116.82-24.22l-10.39-2.37,10.67.1h.37c.08,1,.35-2.29.23,2.3l-.7,0-1.49,0-3-.07-6-.13-12-.24-24-.44c-16-.26-31.94-.51-47.9-.47-4,0-8,0-11.9.21-.5,0-.95.05-1.34.11l-1.4.27c-.94.2-1.89.42-2.84.67s-1.9.5-2.84.78-1.89.55-2.83.86a236.29,236.29,0,0,0-22.24,8.46c-7.3,3.13-14.48,6.6-21.61,10.13-3.55,1.8-7.12,3.57-10.63,5.46l-5.28,2.79L428.4,707l-2.39,1.6a56.3,56.3,0,0,0-15.2,17.29,104,104,0,0,0-9.31,21.53c-4.69,15-7.05,30.83-8.33,46.62-.15,2-.33,4-.34,5.9l-.07,2.91a23.69,23.69,0,0,0,0,2.92c.14,1.93.22,3.87.39,5.81l.86,5.76a78.51,78.51,0,0,0,40,54.42c6.85,3.67,14.19,6.09,21.9,8.26S471.26,884.18,479,886c1.95.45,3.85.83,5.88,1.36l3,.75,2.94.93,1.48.46,1.44.54,2.89,1.1c.95.39,1.88.83,2.82,1.25s1.89.82,2.79,1.32a82,82,0,0,1,20.12,14.16,79.71,79.71,0,0,1,15.07,19.45c1.06,1.77,1.92,3.64,2.83,5.49l2.57,5.42,5.1,10.83L553,959.83c.82,1.85,1.75,3.53,2.66,5.23.47.85.89,1.73,1.39,2.56l1.56,2.44a78.09,78.09,0,0,0,57.3,35.49c1.93.14,3.86.36,5.79.43s3.88,0,5.81,0l5.8-.45,5.93-.71q11.85-1.47,23.67-3.26c15.75-2.39,31.44-5.21,46.94-8.75,1.91-.44,3.9-.94,5.92-1.32s4.05-.71,6.09-1,4.09-.4,6.14-.48l6-.26,23.94-1,95.78-4,47.89-2,24-1,12-.49,6-.25c1-.05,2-.13,2.94-.2s2-.11,2.92-.27A78.12,78.12,0,0,0,972,974.55a79.47,79.47,0,0,0,10.42-5.46c1.62-1.1,3.31-2.11,4.86-3.32.78-.59,1.58-1.16,2.35-1.77l2.26-1.89c.37-.32.76-.62,1.13-1l1.07-1,2.15-2,2-2.14,1-1.07,1-1.12,1.91-2.25c.6-.77,1.18-1.56,1.78-2.35,1.19-1.54,2.33-3.21,3.49-4.83l13.86-19.55,55.44-78.22,55.43-78.22L1146,748.83l3.46-4.89,1.72-2.45,1.68-2.47a80.76,80.76,0,0,0,5.74-10.44,79.95,79.95,0,0,0,7.28-34.77c-.08-4-.31-8-.46-12l-1-24-.25-6c-.09-2-.28-4-.41-6s-.52-4-.82-5.93l-.6-2.93c-.21-1-.38-2-.67-2.91a80.85,80.85,0,0,0-9.29-22A81.22,81.22,0,0,0,1094,574.5,80,80,0,0,0,1047.51,582.53Zm0,0a80.14,80.14,0,0,1,46.53-8.11,80.41,80.41,0,0,1,67.9,59.69c.29,1,.47,1.95.68,2.92l.62,2.94c.3,2,.6,4,.84,5.94s.35,4,.44,6l.28,6,1.1,23.94c.17,4,.41,8,.51,12a81.38,81.38,0,0,1-.63,12,80.27,80.27,0,0,1-6.55,23.06,81.16,81.16,0,0,1-5.75,10.56l-1.67,2.5-1.72,2.45-3.43,4.91-13.73,19.65-54.85,78.63-54.86,78.62-13.71,19.66c-1.16,1.63-2.25,3.28-3.49,4.9-.61.82-1.2,1.64-1.82,2.44l-2,2.34-1,1.17-1,1.11L998.14,960l-2.2,2.1-1.1,1c-.38.34-.78.66-1.16,1l-2.32,2c-.8.63-1.62,1.23-2.43,1.85-1.59,1.27-3.32,2.33-5,3.48a82.52,82.52,0,0,1-10.74,5.73,81.61,81.61,0,0,1-23.44,6.47c-1,.17-2,.21-3,.3s-2,.17-3,.23l-6,.29-12,.58-23.94,1.16-47.89,2.33-95.76,4.6-24,1.12-6,.28c-1.94.09-3.88.26-5.8.49s-3.85.54-5.75.92-3.78.84-5.76,1.31c-15.65,3.65-31.42,6.56-47.25,9q-11.88,1.85-23.81,3.32l-6,.73-6.15.48c-2.06,0-4.11,0-6.17,0s-4.1-.3-6.16-.44a83.07,83.07,0,0,1-60.95-37.64l-1.67-2.6c-.53-.88-1-1.81-1.48-2.71-1-1.82-2-3.64-2.77-5.45l-5.11-10.86-5.1-10.87-2.55-5.41c-.86-1.73-1.66-3.5-2.65-5.16a79.83,79.83,0,0,0-6.37-9.7,81.49,81.49,0,0,0-7.78-8.61A77.37,77.37,0,0,0,500.05,898c-.84-.47-1.74-.84-2.62-1.24s-1.76-.81-2.65-1.18l-2.72-1-1.36-.52-1.38-.43-2.77-.88-2.82-.71c-1.84-.49-3.86-.9-5.8-1.36q-11.73-2.68-23.33-6c-7.66-2.16-15.6-4.75-22.82-8.69a83.09,83.09,0,0,1-42.11-57.8l-.88-6.1c-.18-2-.26-4.1-.39-6.15a26.2,26.2,0,0,1,0-3.07l.08-3.08c0-2.07.22-4,.37-6.06,1.37-16,3.84-32.05,8.78-47.5a108.61,108.61,0,0,1,9.85-22.3,60.09,60.09,0,0,1,16.38-18.31l2.61-1.72,2.7-1.54,5.34-2.76c3.54-1.87,7.14-3.63,10.73-5.42,7.21-3.5,14.46-6.94,21.86-10a235.67,235.67,0,0,1,22.61-8.42c1-.3,1.94-.59,2.91-.86s2-.54,2.94-.78,2-.47,3-.68c.51-.11,1-.2,1.55-.28a14.89,14.89,0,0,1,1.65-.14c4.07-.15,8.05-.13,12.06-.13,16,.08,32,.45,48,.82l24,.63,12,.33,6,.17,3,.09,1.5,0,.8,0c-.18,4.61-.3,1.27-.43,2.3h-.38l.29-2.26C647.13,684.12,686,692.61,725,700c19.53,3.66,39.11,7.07,58.81,9.63,2.46.33,4.93.56,7.4.85s4.93.59,7.4.8a81.41,81.41,0,0,0,14.81-.11,79.71,79.71,0,0,0,28.32-8.31,129.85,129.85,0,0,0,12.7-7.72L867,687.06q12.54-8.07,25.16-16,25.23-15.87,50.83-31.19t51.66-29.78C1012,600.46,1029.6,591.16,1047.51,582.53Z"/><path class="cls-6" d="M1050.2,513.34c77.63-59.06,472.5-27,472.5-27,69.19,50.63,37.13,175.5,37.13,175.5C1548,704,1458.58,732.72,1458.58,732.72c-45.57,35.44-129.94,335.81-129.94,335.81-37.13,79.31,15.19,121.5,15.19,121.5,6.75,102.94-1.69,116.44-1.69,116.44-16.88,64.12-150.19-33.75-212.63-38.81s-244.68-47.25-244.68-47.25c-42.19-21.94-67.5-87.75-67.5-87.75-59.07,8.43-67.5-33.75-67.5-33.75-52.32-38.82,25.31-180.57,25.31-180.57,13.5-33.75,92.81-54,92.81-54,7.23-6.78,11.8-17.91,14.61-30.59,13.26-59.71,49.67-111.7,102.16-143.09l3-1.82C991.14,646.66,1050.2,513.34,1050.2,513.34Z"/><path d="M1050.2,513.34a84.41,84.41,0,0,1,12.77-7.7,138.37,138.37,0,0,1,13.82-5.69,244.78,244.78,0,0,1,28.77-8,540.11,540.11,0,0,1,59.06-9q14.87-1.51,29.78-2.58t29.83-1.76c19.9-.93,39.81-1.45,59.73-1.69,39.84-.46,79.69.2,119.51,1.55s79.6,3.49,119.35,6.45l.42,0,.34.25A98.74,98.74,0,0,1,1550.12,515a131.92,131.92,0,0,1,14.14,37.31,184.47,184.47,0,0,1,3.3,19.68c.71,6.61,1.18,13.24,1.33,19.88a288.28,288.28,0,0,1-2,39.74c-.79,6.59-1.76,13.15-3,19.68-.6,3.27-1.27,6.52-2,9.77l-.3,1.25-.41,1.24-.83,2.47c-.27.83-.69,1.58-1,2.37s-.69,1.57-1.09,2.33A68.3,68.3,0,0,1,1546,686.83a123.36,123.36,0,0,1-15.39,12.89,231.34,231.34,0,0,1-34.51,20,338,338,0,0,1-36.88,15l.65-.34a46.08,46.08,0,0,0-7.45,7.8c-1.16,1.42-2.2,3-3.29,4.44s-2.09,3.06-3.07,4.65c-4,6.29-7.57,12.87-11,19.54-6.78,13.38-12.85,27.16-18.61,41.06-11.49,27.82-21.78,56.17-31.61,84.66s-19.1,57.19-28,86-17.63,57.69-25.85,86.68l-.06.19-.08.18a143.88,143.88,0,0,0-10.48,30.51A112.57,112.57,0,0,0,1318,1116a107.07,107.07,0,0,0,.15,16,89.32,89.32,0,0,0,16.65,44.4c1.58,2.14,3.24,4.23,5,6.21.89,1,1.79,2,2.73,2.89s1.92,1.86,2.81,2.61l.85.72.06,1c.59,9.74,1.21,19.47,1.63,29.23.26,4.87.4,9.75.57,14.63s.26,9.76.35,14.65c.06,2.44.07,4.88.07,7.33V1263c-.09,4.9-.14,9.79-.38,14.7s-.54,9.81-1,14.72c-.3,2.47-.58,4.93-1,7.41-.2,1.23-.49,2.48-.77,3.74-.18.64-.32,1.26-.53,1.91a11.38,11.38,0,0,1-.92,2.27l.3-.69a40,40,0,0,1-2.86,7.55l-.45.91c-.17.3-.36.59-.53.88-.37.59-.71,1.18-1.1,1.75a30.84,30.84,0,0,1-2.62,3.21,28.52,28.52,0,0,1-14.19,8,42.09,42.09,0,0,1-7.9,1.16,62.43,62.43,0,0,1-7.86,0,104.85,104.85,0,0,1-15.28-2.29,231.89,231.89,0,0,1-29.18-8.87c-9.51-3.49-18.85-7.33-28.14-11.27-18.56-7.88-36.87-16.25-55.47-23.7-9.31-3.7-18.69-7.2-28.23-10a135.81,135.81,0,0,0-14.42-3.41c-2.43-.44-4.83-.71-7.27-1l-7.57-.79c-5.06-.46-10-1.22-15-1.9s-10-1.47-15-2.27l-7.47-1.19-7.45-1.29c-5-.88-9.94-1.7-14.89-2.63-19.82-3.61-39.57-7.57-59.31-11.59q-59.16-12.24-118-25.81l-.28-.06-.24-.13a92.4,92.4,0,0,1-12.16-7.8,116,116,0,0,1-10.83-9.44,163.73,163.73,0,0,1-18.33-21.85,239.57,239.57,0,0,1-15-24.17,250.77,250.77,0,0,1-12.17-25.71l2.26,1.33a99.77,99.77,0,0,1-21.17.88,64.89,64.89,0,0,1-20.82-4.81,48.52,48.52,0,0,1-17.5-12.47,49.15,49.15,0,0,1-6.21-8.86,51,51,0,0,1-2.31-4.9,34.47,34.47,0,0,1-1.69-5.29l.75,1.18a40.94,40.94,0,0,1-8.87-9,47.7,47.7,0,0,1-5.83-11.16,74.09,74.09,0,0,1-4.08-24.41,140.52,140.52,0,0,1,2-24.45,231.81,231.81,0,0,1,5.23-23.85,386,386,0,0,1,16-46c6.23-15,13.06-29.66,20.73-44l-.08.17a40.94,40.94,0,0,1,7.74-12,76.14,76.14,0,0,1,10.42-9.43,117.4,117.4,0,0,1,11.61-7.71c4-2.37,8.08-4.53,12.24-6.56a263.77,263.77,0,0,1,25.52-10.73c8.68-3.14,17.44-6,26.4-8.34l-.59.32a38.84,38.84,0,0,0,7.71-10.64,73,73,0,0,0,4.84-12.5q.95-3.24,1.69-6.53l1.66-6.67c1-4.47,2.44-8.83,3.77-13.21.62-2.2,1.43-4.35,2.2-6.5l2.33-6.47,2.64-6.34c.9-2.1,1.71-4.25,2.74-6.29,2-4.13,3.85-8.31,6.12-12.3l3.27-6,3.56-5.87c2.29-4,5-7.67,7.52-11.48l1-1.42,1-1.37,2.07-2.74c1.39-1.82,2.73-3.68,4.16-5.46a223.19,223.19,0,0,1,18.47-20.29c1.65-1.57,3.24-3.22,5-4.73l5.16-4.53,2.58-2.25,2.69-2.13,5.39-4.24c1.8-1.4,3.72-2.66,5.57-4l2.8-2c.93-.66,1.86-1.33,2.84-1.92l5.8-3.65,2.9-1.83,2.94-1.74-.34.55a145.87,145.87,0,0,1,4.6-23c2-7.53,4.34-15,6.76-22.37,4.9-14.78,10.28-29.39,15.87-43.92s11.46-28.94,17.46-43.3S1043.88,527.56,1050.2,513.34Zm0,0q-9.3,21.42-18.08,43T1015,599.81c-5.49,14.55-10.77,29.18-15.57,44-2.37,7.4-4.63,14.84-6.6,22.35a145.07,145.07,0,0,0-4.41,22.77l0,.36-.31.19-2.92,1.76L982.32,693l-5.74,3.67c-1,.59-1.88,1.26-2.8,1.92l-2.77,2c-1.83,1.34-3.72,2.6-5.51,4l-5.32,4.25L957.52,711,955,713.25l-5.1,4.52c-1.69,1.5-3.25,3.16-4.89,4.73a225,225,0,0,0-18.18,20.23c-1.4,1.78-2.72,3.63-4.09,5.44l-2,2.72-1,1.37-.94,1.42c-2.49,3.79-5.14,7.47-7.38,11.42l-3.49,5.84-3.2,6c-2.22,4-4,8.12-6,12.21-1,2-1.8,4.16-2.67,6.25l-2.57,6.29-2.26,6.41c-.76,2.14-1.54,4.27-2.15,6.45-1.27,4.35-2.67,8.67-3.66,13.09l-1.62,6.6c-.5,2.25-1.06,4.49-1.7,6.71a75,75,0,0,1-5,13,41.55,41.55,0,0,1-8.22,11.41l-.24.22-.35.1c-8.78,2.37-17.52,5.22-26.09,8.36A261.53,261.53,0,0,0,817,884.73c-4.09,2-8.12,4.15-12,6.49a115.2,115.2,0,0,0-11.3,7.56,73.93,73.93,0,0,0-9.94,9.07,38,38,0,0,0-7.14,11.07l0,.08,0,.09C769,933.28,762.23,948,756.1,962.85a383.36,383.36,0,0,0-15.64,45.61,226.6,226.6,0,0,0-5.06,23.5,136.23,136.23,0,0,0-1.81,23.82,70.33,70.33,0,0,0,3.94,23.16,39.39,39.39,0,0,0,13.46,18.4l.57.42.17.77a32.32,32.32,0,0,0,1.51,4.59,43.77,43.77,0,0,0,24,24,60.41,60.41,0,0,0,19.52,4.41,95.23,95.23,0,0,0,20.29-.92l1.63-.23.63,1.56a248.64,248.64,0,0,0,12,25.18,236.48,236.48,0,0,0,14.72,23.7A159.57,159.57,0,0,0,863.89,1202a110.37,110.37,0,0,0,10.42,9,88,88,0,0,0,11.54,7.37l-.52-.19q58.81,13.44,118,25.54c19.72,4,39.45,7.88,59.23,11.47,4.94.92,9.9,1.74,14.84,2.61l7.43,1.29,7.44,1.18c5,.79,9.91,1.6,14.88,2.24s9.93,1.42,14.89,1.87l7.45.78c2.57.24,5.16.54,7.7,1a140.48,140.48,0,0,1,14.94,3.52c9.79,2.85,19.3,6.38,28.69,10.11,18.77,7.5,37.1,15.87,55.59,23.7,9.25,3.92,18.53,7.73,27.92,11.16a226.15,226.15,0,0,0,28.54,8.67,100.83,100.83,0,0,0,14.55,2.18,58.16,58.16,0,0,0,7.23,0,36.94,36.94,0,0,0,7-1,22.85,22.85,0,0,0,13.91-9.2c.32-.47.6-1,.91-1.46.14-.24.3-.48.44-.73l.38-.78a33.87,33.87,0,0,0,2.47-6.55l.3-.69s0,.07,0,0l.06-.14c0-.1.08-.17.12-.29l.25-.74c.16-.5.29-1.07.44-1.6.24-1.12.51-2.25.7-3.42.41-2.31.69-4.69,1-7.06.47-4.77.82-9.58,1-14.41s.3-9.68.38-14.52v-7.28c0-2.42,0-4.85-.06-7.27-.09-4.86-.15-9.71-.34-14.57s-.31-9.71-.56-14.56c-.41-9.71-1-19.42-1.6-29.13l.91,1.76c-1.2-1-2.19-2-3.21-3s-2-2-2.91-3.1c-1.87-2.11-3.63-4.32-5.3-6.58a94.29,94.29,0,0,1-17.54-46.85,112.44,112.44,0,0,1-.15-16.82,117.45,117.45,0,0,1,2.44-16.59,148.38,148.38,0,0,1,10.84-31.53l-.14.37q12.42-43.59,26-86.78T1380.55,895c9.91-28.53,20.27-56.92,31.87-84.85,5.82-14,11.95-27.81,18.84-41.33,3.46-6.75,7.12-13.42,11.21-19.88,1-1.62,2.11-3.2,3.18-4.79s2.22-3.13,3.45-4.64a49.68,49.68,0,0,1,8.19-8.49l.28-.22.36-.12A332.65,332.65,0,0,0,1494.35,716a227.41,227.41,0,0,0,34-19.48,119.23,119.23,0,0,0,15-12.42A64.88,64.88,0,0,0,1555,669c.37-.7.67-1.43,1-2.14s.7-1.42.94-2.17l.76-2.21.38-1.11.28-1.15c.74-3.17,1.42-6.38,2-9.6,1.23-6.43,2.21-12.92,3-19.43a284.22,284.22,0,0,0,2.09-39.23c-.13-6.55-.56-13.09-1.23-19.59a180,180,0,0,0-3.17-19.34,128.49,128.49,0,0,0-13.65-36.46,95.5,95.5,0,0,0-25.58-29l.75.28c-39.66-3.11-79.43-5.31-119.21-6.91s-79.58-2.51-119.39-2.31c-19.9.11-39.81.51-59.69,1.31q-14.93.63-29.82,1.56t-29.75,2.39q-14.87,1.42-29.64,3.51c-9.85,1.39-19.67,3-29.41,5.08a240.84,240.84,0,0,0-28.8,7.75,137.73,137.73,0,0,0-13.84,5.55A84,84,0,0,0,1050.2,513.34Z"/></g></svg>