<svg id="Layer_2" data-name="Layer 2" xmlns="http://www.w3.org/2000/svg" xmlns:xlink="http://www.w3.org/1999/xlink" viewBox="0 0 1920 1920"><defs><style>.cls-1,.cls-2,.cls-3,.cls-4,.cls-5{stroke:#000;stroke-miterlimit:10;stroke-width:5px;}.cls-1{fill:url(#linear-gradient);}.cls-2{fill:url(#linear-gradient-2);}.cls-3{fill:url(#linear-gradient-3);}.cls-4{fill:url(#linear-gradient-4);}.cls-5{fill:none;}</style><linearGradient id="linear-gradient" x1="581.29" y1="893.97" x2="945.56" y2="893.97" gradientUnits="userSpaceOnUse"><stop offset="0.02" stop-color="#9c1e1e"/><stop offset="1" stop-color="#2d1414"/></linearGradient><linearGradient id="linear-gradient-2" x1="577.86" y1="1185.79" x2="1015.38" y2="1185.79" gradientUnits="userSpaceOnUse"><stop offset="0.02" stop-color="#8c2828"/><stop offset="0.13" stop-color="#7e2525"/><stop offset="0.52" stop-color="#521c1c"/><stop offset="0.82" stop-color="#371616"/><stop offset="1" stop-color="#2d1414"/></linearGradient><linearGradient id="linear-gradient-3" x1="917.54" y1="959.84" x2="1342.14" y2="959.84" gradientUnits="userSpaceOnUse"><stop offset="0" stop-color="#511e1e"/><stop offset="1" stop-color="#520000"/></linearGradient><linearGradient id="linear-gradient-4" x1="729.57" y1="784.16" x2="1071.25" y2="784.16" gradientUnits="userSpaceOnUse"><stop offset="0" stop-color="#7e1e1e"/><stop offset="0.45" stop-color="#520e0e"/><stop offset="0.8" stop-color="#370404"/><stop offset="1" stop-color="#2d0000"/></linearGradient></defs><path class="cls-1" d="M725.93,768.06l-43.48,61.2a4.35,4.35,0,0,1-.34.41c-33.16,34.85-58.89,93.24-62,100.34a4,4,0,0,0-.31,1.48c-.53,22-23.27,51.46-37.56,67.88a4,4,0,0,0,4,6.5c41.26-10.17,106.55,7.91,111,9.16a4.43,4.43,0,0,1,.47.17c29.43,12.88,94.63,2.37,99.09,1.63a3.23,3.23,0,0,0,.47-.11c26-8,106.64-5.28,114-5a4.13,4.13,0,0,1,1,.18c32,10.19,33.25-32.33,33.25-39.62a3.93,3.93,0,0,0-.5-1.92c-20.37-36.5-108.28-144.93-115.48-153.8a4,4,0,0,0-1.12-.94c-31-17.65-84.39-42.71-97.59-48.86A4,4,0,0,0,725.93,768.06Z"/><path class="cls-2" d="M585.18,1000.78l59.49-28.11a15.47,15.47,0,0,1,7.76-1.4l289.46,23c6.15.49,11.19,4.52,12.35,9.88l60.9,280.62a11.16,11.16,0,0,1,.22,3l-7.06,101.06c-.63,9-11.78,14.36-20.69,9.86h0a15.47,15.47,0,0,0-9.77-1.34l-11.37,2.15a15,15,0,0,1-12.68-3.31l-27.52-24.31a13.73,13.73,0,0,0-2.92-2l-31.77-16a13.21,13.21,0,0,1-4.2-3.28l-22.52-26.52a13.15,13.15,0,0,0-3.28-2.77l-33.94-20.45a13.57,13.57,0,0,1-3-2.48l-65.3-72.49-49.26-52.53c-.17-.18-.34-.37-.5-.56L668.1,1123a12.21,12.21,0,0,1-1.65-2.59l-9.94-21.35a12.58,12.58,0,0,0-4.16-4.89l-22.22-15.71a12.53,12.53,0,0,1-1.14-.9l-38.13-33.69a12.11,12.11,0,0,1-3.35-4.78l-8.93-23.69C576.44,1009.78,579.23,1003.59,585.18,1000.78Z"/><path class="cls-3" d="M1086.41,568.52,1321.6,520a17.06,17.06,0,0,1,19.29,23l-48,120a17.34,17.34,0,0,0-1.12,4.66c-4.37,41.29-81.58,165.46-94.26,185.62a16.62,16.62,0,0,0-2.21,5.37c-5,23.77-36,64.25-41,70.77a14.71,14.71,0,0,0-1.3,1.92c-14,24.93-27.82,105.38-29.59,116a16.24,16.24,0,0,1-.55,2.29l-37.82,120a16.56,16.56,0,0,0-.71,3.75c-1.19,14.62-16,44.52-21.53,55.14a16.82,16.82,0,0,0-1.89,7.83c.17,20.46-7.41,32.52-11.33,37.38a17.15,17.15,0,0,0-3.32,6.6l-10.56,42.27a14,14,0,0,0-.34,1.83c-2,14.31-17.78,43.31-23.31,53.12a16.91,16.91,0,0,0-2.08,6.64c0,.21,0,.43-.07.66-2.19,19.46-30.17,20.39-33.73,1.14l-28.21-152.33a17.24,17.24,0,0,1-.28-2.59L946,1177.66a16.84,16.84,0,0,1,0-1.74L950.9,1108a17.16,17.16,0,0,0-.21-4.11l-8-46.42c-.06-.31-.1-.64-.14-1l-6.63-58c0-.36-.1-.72-.16-1.07l-11.53-64.25a17.89,17.89,0,0,1-.24-2.08l-6.42-117.14a17.06,17.06,0,0,1,2.19-9.35L1009.12,647a17.45,17.45,0,0,1,2.34-3.19l63.42-68.3a17.5,17.5,0,0,1,2.26-2l2.48-1.85A16.93,16.93,0,0,1,1086.41,568.52Z"/><path class="cls-4" d="M735.49,761.15c56.43-15.08,199.35-100.42,219.84-112.75a7.83,7.83,0,0,0,3.23-3.73c6.39-15.46,33.2-25.79,38.73-27.78a8.7,8.7,0,0,1,2-.44c18.68-1.75,24.22-14.26,25.59-18.65a8.12,8.12,0,0,1,1.73-3c7.48-8,21.65-14.44,33.88-18.82a8,8,0,0,1,9.53,11.76c-17.71,29-30.9,63.9-32.71,68.77a7.87,7.87,0,0,1-.53,1.14L939.23,830.85c-15.19,20.25,0,160.31,0,160.31,0,5.38-8.55-3.15-12-6.85a7.86,7.86,0,0,1-1.88-3.29c-6.61-24.61-36.1-42.27-45.57-47.39a8.3,8.3,0,0,1-3.75-4.35c-6.23-16.09-38.89-27.8-42.71-29.12a5.44,5.44,0,0,0-.72-.2c-33.22-7.72-59.61-37-64.6-42.78a6.94,6.94,0,0,0-1.84-1.44C756,849.89,746.19,799.88,744,787.87a8,8,0,0,0-2.42-4.4l-9.39-8.72A8,8,0,0,1,735.49,761.15Z"/><path class="cls-5" d="M881.44,1342.52l-33-42.14a46.77,46.77,0,0,1-9-34.75h0"/><path class="cls-5" d="M656.23,1098l30.87,15.2a42,42,0,0,0,11.15,3.66l4.63.83"/><path class="cls-5" d="M957.79,646.91l-5.93,10.56a112.46,112.46,0,0,0-12.63,35h0"/><line class="cls-5" x1="1153.54" y1="930.41" x2="1106.29" y2="987.79"/></svg>