<?xml version="1.0" standalone="no"?>
<!DOCTYPE svg PUBLIC "-//W3C//DTD SVG 20010904//EN"
 "http://www.w3.org/TR/2001/REC-SVG-20010904/DTD/svg10.dtd">
<svg version="1.0" xmlns="http://www.w3.org/2000/svg"
 width="1280.000000pt" height="980.000000pt" viewBox="0 0 1280.000000 980.000000"
 preserveAspectRatio="xMidYMid meet">
<metadata>
Created by potrace 1.15, written by Peter Selinger 2001-2017
</metadata>
<g transform="translate(0.000000,980.000000) scale(0.100000,-0.100000)"
fill="#006400" stroke="none">
<path d="M6106 9760 c-35 -95 -48 -185 -53 -386 -6 -206 4 -325 31 -404 22
-65 -2 -35 -76 96 l-63 110 -31 -18 c-55 -32 -111 -33 -234 -4 -61 15 -115 24
-118 21 -4 -4 -8 -43 -10 -88 -4 -95 9 -136 63 -196 l35 -39 -37 -7 c-91 -17
-129 -70 -120 -165 8 -72 22 -114 109 -320 l70 -165 -1 -94 c0 -51 -13 -168
-27 -260 -24 -150 -27 -189 -25 -406 1 -223 -8 -387 -23 -403 -11 -11 -192 17
-238 37 -58 25 -114 74 -139 123 -23 46 -33 95 -53 265 -29 236 -21 213 -69
213 -50 0 -110 -26 -173 -74 -26 -20 -50 -33 -55 -30 -5 3 -10 78 -10 167 -1
89 -4 176 -8 192 -6 27 -9 30 -41 26 -40 -4 -73 -20 -112 -55 -34 -30 -67 -84
-69 -111 -1 -11 -4 -4 -8 15 -6 33 -10 36 -62 49 -49 13 -64 13 -110 0 -52
-14 -54 -15 -62 -59 -5 -25 -10 -46 -12 -48 -7 -8 -60 29 -260 178 -115 87
-235 172 -266 189 -107 60 -203 75 -279 45 -46 -19 -48 -29 -19 -87 36 -72 85
-122 189 -196 55 -40 100 -74 100 -78 0 -3 -11 -2 -24 1 -13 3 -46 2 -72 -3
-92 -17 -122 -98 -59 -160 21 -22 36 -26 99 -29 l74 -4 -15 -52 c-8 -28 -23
-65 -33 -83 l-19 -32 27 -19 c15 -11 68 -34 117 -52 93 -33 152 -76 181 -132
13 -25 12 -31 -6 -60 -28 -47 -26 -99 6 -137 29 -35 26 -38 -19 -14 -35 18
-129 23 -189 10 l-36 -8 -7 -74 c-4 -41 -5 -85 -2 -97 5 -16 -2 -12 -24 15
-21 26 -39 37 -58 37 -70 0 -125 -97 -90 -162 10 -19 8 -20 -53 -16 l-63 3 -5
-157 c-3 -86 -8 -159 -11 -162 -11 -11 -70 36 -83 66 -8 18 -18 76 -23 128 -8
79 -16 109 -51 183 -46 98 -120 225 -195 331 l-49 71 6 -105 c3 -58 10 -123
16 -145 5 -22 8 -41 6 -42 -2 -2 -25 25 -52 59 -78 100 -235 251 -247 239 -16
-16 -21 -174 -8 -244 35 -183 139 -395 274 -557 l46 -55 -27 -6 c-15 -4 -48
-7 -74 -8 l-46 -1 -11 -48 c-11 -52 -4 -98 23 -149 l17 -33 -148 0 c-82 0
-154 -4 -161 -9 -11 -7 -9 -18 11 -57 48 -95 118 -286 143 -390 23 -94 37
-264 24 -277 -3 -3 -36 3 -75 13 -39 11 -106 19 -151 19 l-81 1 -7 -98 -7 -98
-52 7 c-107 15 -150 11 -198 -20 -73 -47 -94 -77 -119 -176 -26 -100 -34 -113
-97 -153 -47 -30 -56 -45 -55 -104 1 -26 -4 -38 -13 -38 -23 0 -161 47 -283
96 -178 72 -247 62 -319 -47 -14 -21 -26 -39 -27 -39 0 0 -1 39 -1 88 -1 81
-4 93 -42 172 -36 75 -147 223 -184 246 -25 15 -91 -101 -115 -203 -24 -100
-21 -315 5 -415 32 -124 87 -209 166 -258 34 -21 34 -21 20 -58 -7 -20 -28
-68 -46 -107 -40 -86 -44 -150 -11 -195 l22 -30 -25 10 c-15 6 -37 10 -49 10
-21 0 -22 -3 -18 -57 2 -32 11 -73 18 -92 8 -18 14 -35 14 -36 0 -1 -21 2 -46
7 -25 6 -48 7 -52 3 -14 -14 -6 -130 11 -162 23 -44 81 -98 149 -140 32 -20
58 -38 58 -40 0 -2 -9 -21 -20 -43 -24 -47 -26 -126 -5 -176 8 -20 32 -51 52
-70 l37 -34 -54 16 c-63 19 -125 14 -265 -18 -49 -12 -126 -24 -170 -27 l-79
-6 3 -49 c1 -26 9 -68 16 -92 7 -24 11 -44 9 -44 -2 0 -32 20 -66 45 -167 124
-409 251 -594 314 -65 22 -135 43 -155 46 -35 6 -36 5 -43 -25 -26 -134 37
-268 171 -368 38 -27 113 -75 168 -107 55 -31 102 -59 104 -61 2 -2 -65 -4
-149 -3 -97 0 -157 -4 -164 -11 -12 -12 13 -93 46 -147 25 -42 158 -130 282
-188 53 -25 96 -48 96 -51 0 -3 -8 -3 -17 0 -33 10 -97 -12 -126 -44 -15 -17
-27 -36 -27 -44 0 -21 94 -57 205 -78 55 -10 110 -21 123 -24 22 -4 20 -8 -27
-52 -43 -41 -51 -54 -51 -84 0 -71 80 -110 318 -158 81 -16 190 -34 242 -40
114 -14 265 -57 340 -98 30 -16 72 -33 92 -36 21 -4 38 -8 38 -10 0 -2 -7 -17
-15 -32 -35 -68 -8 -142 60 -164 l36 -12 -93 -55 c-121 -72 -128 -80 -117
-120 12 -40 56 -82 111 -104 31 -13 37 -18 20 -18 -29 -1 -143 -53 -160 -73
-10 -13 -9 -18 10 -30 76 -49 227 -78 407 -79 l126 0 -50 -18 c-62 -20 -92
-41 -116 -78 -32 -48 -25 -59 39 -71 127 -24 269 -34 453 -30 163 3 203 7 252
24 31 12 57 18 57 15 0 -2 -12 -17 -26 -32 l-26 -27 48 -8 c59 -9 203 2 270
20 l50 13 0 -65 -1 -65 40 -15 c23 -8 75 -15 120 -16 67 0 90 4 139 27 32 15
60 27 61 27 1 0 -5 -20 -13 -44 -12 -33 -14 -52 -6 -73 8 -25 15 -28 61 -31
40 -2 70 5 139 33 316 129 520 164 675 115 95 -30 98 -32 58 -69 -19 -17 -79
-61 -134 -98 -55 -36 -127 -87 -160 -112 -56 -43 -58 -46 -35 -52 14 -4 113
-8 220 -9 107 -1 186 -4 175 -7 -26 -6 -44 -23 -25 -23 87 1 267 44 342 81 32
15 59 25 62 21 2 -4 9 -33 16 -64 l13 -57 56 -8 c31 -4 101 -8 156 -7 123 1
201 27 257 85 35 37 36 37 42 15 15 -62 193 -42 285 32 l36 28 95 -23 c386
-94 714 -145 1216 -189 l62 -5 6 -49 c20 -153 204 -229 456 -190 110 18 216
81 257 155 8 14 12 14 40 0 17 -9 77 -20 132 -24 112 -10 336 -3 364 11 9 5
17 20 17 36 0 15 8 61 18 103 l17 76 125 -28 c69 -15 148 -28 176 -28 92 -1
154 64 154 162 l0 48 63 -45 c213 -152 590 -261 771 -223 l38 8 -4 57 -4 57
99 -3 c55 -2 119 -1 142 3 39 5 45 10 55 41 15 46 5 89 -28 113 l-27 20 43 1
c23 0 42 4 42 9 0 12 -36 58 -83 108 l-39 41 53 6 c30 3 146 11 259 16 113 6
288 15 390 20 334 19 543 30 655 36 249 12 681 71 885 119 281 67 447 159 470
259 19 86 6 90 -257 84 -133 -3 -181 -1 -168 7 84 49 128 122 129 214 l1 66
-213 -2 -213 -2 27 32 c62 73 63 130 4 166 -17 10 -94 31 -171 46 -77 15 -142
31 -144 35 -3 4 17 10 42 13 83 9 116 75 72 146 -11 18 -19 34 -17 36 2 1 59
-2 128 -6 265 -16 553 28 686 106 83 49 120 130 95 208 -11 33 -16 36 -64 43
-45 6 -49 8 -26 14 49 14 146 71 188 111 71 68 101 153 84 233 -7 34 -14 41
-41 48 -32 9 -170 -9 -217 -28 -14 -5 -10 4 16 33 49 54 64 101 64 203 0 117
-7 138 -50 146 -46 8 -107 -8 -233 -62 -57 -24 -108 -44 -112 -44 -5 0 -12 36
-16 80 l-7 80 -32 6 c-65 12 -152 -45 -175 -117 l-13 -40 -26 25 c-39 37 -108
64 -186 71 -125 11 -127 12 -65 46 30 16 62 37 73 47 28 25 57 86 51 108 -5
19 2 20 138 21 230 3 344 45 377 140 13 35 13 46 0 79 -8 22 -29 48 -47 60
l-32 22 38 7 c49 9 96 39 110 70 17 36 15 106 -3 132 -20 28 -78 47 -127 40
-59 -8 -38 5 107 63 208 84 232 96 284 145 60 56 87 117 76 172 -13 68 -18 73
-93 73 l-67 0 57 24 c123 51 224 131 254 201 20 48 19 119 -1 111 -8 -3 -111
-59 -228 -124 -196 -109 -319 -172 -337 -172 -4 0 -10 47 -12 105 -7 125 -30
184 -82 209 -40 19 -56 20 -106 5 l-37 -11 -6 -67 c-3 -36 -3 -96 0 -132 l5
-66 -58 -5 c-97 -9 -245 -80 -360 -175 l-53 -42 -3 37 c-3 35 -5 37 -43 40
-66 6 -98 -6 -196 -69 l-94 -60 -7 55 c-9 69 -31 113 -64 128 -33 15 -106 -3
-150 -37 -39 -30 -75 -101 -82 -162 l-5 -44 -31 29 c-46 44 -93 55 -188 47
-93 -8 -89 -22 -39 115 31 87 41 188 21 220 -7 11 -27 15 -74 15 l-64 0 33 28
c57 47 76 158 39 234 l-19 38 62 60 c75 74 97 135 91 251 -3 68 -6 76 -38 109
-21 21 -47 37 -69 41 -57 10 -56 15 4 39 197 80 335 228 335 357 0 47 -1 50
-37 65 -56 23 -183 21 -256 -4 l-59 -21 -38 42 c-43 46 -184 125 -269 150 -75
22 -158 21 -197 -3 -22 -14 -67 -22 -160 -30 -71 -7 -140 -14 -154 -16 -28 -4
-25 -1 50 45 53 32 62 65 27 96 -54 47 -230 94 -348 94 l-60 0 25 33 c34 44
33 79 -3 120 -50 56 -251 140 -408 169 l-68 13 105 6 c162 11 324 51 525 131
105 41 293 136 334 167 l24 18 -22 37 c-13 20 -35 43 -49 50 l-27 14 35 5 c19
3 67 10 105 16 201 30 291 99 283 218 -3 46 -4 47 -43 56 -64 14 -277 1 -448
-28 -87 -14 -166 -25 -174 -23 -8 2 19 22 60 45 106 61 185 152 248 287 28 59
58 175 59 223 0 49 -146 33 -242 -27 l-48 -29 42 52 c81 102 102 201 58 272
-12 19 -23 35 -26 35 -7 0 -152 -89 -267 -164 -66 -43 -152 -96 -193 -118
l-74 -40 0 39 c0 28 -10 54 -32 88 l-32 48 -19 -24 c-47 -57 -84 -174 -102
-321 -6 -50 -10 -58 -37 -69 -29 -12 -78 -66 -117 -129 l-22 -35 8 100 c4 55
8 154 8 220 0 99 -3 126 -18 148 -9 15 -21 27 -25 27 -16 -1 -221 -375 -260
-475 l-11 -30 4 30 c6 41 8 108 6 181 -1 67 -6 71 -84 88 -64 15 -152 -35
-202 -114 -53 -84 -114 -291 -115 -386 0 -25 -7 -51 -17 -63 -18 -21 -18 -21
-56 53 -42 81 -89 129 -201 203 -83 54 -118 69 -301 133 -77 27 -161 58 -187
69 -26 11 -49 17 -52 13 -2 -4 -7 -27 -11 -51 l-7 -44 -77 6 c-184 13 -419
126 -445 214 -10 31 9 94 59 200 47 99 72 193 62 235 -6 23 -14 27 -82 37 -42
6 -91 11 -109 11 l-34 0 -6 143 c-3 78 -5 270 -4 427 1 176 -2 294 -9 309 -10
24 -10 24 -42 -23 -47 -68 -69 -139 -102 -326 -15 -91 -36 -190 -46 -220 l-17
-55 -8 55 c-4 30 -19 204 -33 385 -14 182 -35 390 -45 463 -35 236 -111 408
-253 567 l-44 49 -17 -44z"/>
</g>
</svg>
