
<svg xmlns="http://www.w3.org/2000/svg" version="1.1" xmlns:xlink="http://www.w3.org/1999/xlink" preserveAspectRatio="none" x="0px" y="0px" width="1020px" height="588px" viewBox="0 0 1020 588">
<defs>
<linearGradient id="Gradient_1" gradientUnits="userSpaceOnUse" x1="119.62500000000003" y1="94.4" x2="409.07500000000005" y2="94.4" spreadMethod="pad">
<stop  offset="0%" stop-color="#666666"/>

<stop  offset="1.1764705882352942%" stop-color="#454444"/>

<stop  offset="100%" stop-color="#333333"/>
</linearGradient>

<linearGradient id="Gradient_2" gradientUnits="userSpaceOnUse" x1="399.22499999999997" y1="89.9" x2="423.675" y2="89.9" spreadMethod="pad">
<stop  offset="0%" stop-color="#666666"/>

<stop  offset="100%" stop-color="#999999"/>
</linearGradient>

<linearGradient id="Gradient_3" gradientUnits="userSpaceOnUse" x1="5.324999999999989" y1="212" x2="199.275" y2="212" spreadMethod="pad">
<stop  offset="0%" stop-color="#666666"/>

<stop  offset="100%" stop-color="#999999"/>
</linearGradient>

<linearGradient id="Gradient_4" gradientUnits="userSpaceOnUse" x1="269.025" y1="95.25" x2="492.775" y2="95.25" spreadMethod="pad">
<stop  offset="0%" stop-color="#454444"/>

<stop  offset="100%" stop-color="#333333"/>
</linearGradient>

<linearGradient id="Gradient_5" gradientUnits="userSpaceOnUse" x1="74.84999999999997" y1="211.15" x2="609.55" y2="211.15" spreadMethod="pad">
<stop  offset="0%" stop-color="#009900"/>

<stop  offset="100%" stop-color="#00FF00"/>

<stop  offset="100%" stop-color="#333333"/>

<stop  offset="100%" stop-color="#333333"/>

<stop  offset="100%" stop-color="#333333"/>

<stop  offset="100%" stop-color="#333333"/>

<stop  offset="100%" stop-color="#333333"/>

<stop  offset="100%" stop-color="#333333"/>

<stop  offset="100%" stop-color="#333333"/>

<stop  offset="100%" stop-color="#333333"/>
</linearGradient>

<linearGradient id="Gradient_6" gradientUnits="userSpaceOnUse" x1="80.04999999999995" y1="172.25" x2="614.75" y2="172.25" spreadMethod="pad">
<stop  offset="0%" stop-color="#009900"/>

<stop  offset="100%" stop-color="#00FF00"/>

<stop  offset="100%" stop-color="#333333"/>

<stop  offset="100%" stop-color="#333333"/>

<stop  offset="100%" stop-color="#333333"/>

<stop  offset="100%" stop-color="#333333"/>

<stop  offset="100%" stop-color="#333333"/>

<stop  offset="100%" stop-color="#333333"/>

<stop  offset="100%" stop-color="#333333"/>

<stop  offset="100%" stop-color="#333333"/>
</linearGradient>

<linearGradient id="Gradient_7" gradientUnits="userSpaceOnUse" x1="-819.2" y1="0" x2="819.2" y2="0" spreadMethod="pad">
<stop  offset="0%" stop-color="#009900"/>

<stop  offset="100%" stop-color="#00FF00"/>

<stop  offset="100%" stop-color="#333333"/>

<stop  offset="100%" stop-color="#333333"/>

<stop  offset="100%" stop-color="#333333"/>

<stop  offset="100%" stop-color="#333333"/>

<stop  offset="100%" stop-color="#333333"/>

<stop  offset="100%" stop-color="#333333"/>

<stop  offset="100%" stop-color="#333333"/>

<stop  offset="100%" stop-color="#333333"/>
</linearGradient>

<linearGradient id="Gradient_8" gradientUnits="userSpaceOnUse" x1="81.79999999999995" y1="162.95" x2="574.5" y2="162.95" spreadMethod="pad">
<stop  offset="0%" stop-color="#003300"/>

<stop  offset="100%" stop-color="#006600"/>
</linearGradient>

<linearGradient id="Gradient_9" gradientUnits="userSpaceOnUse" x1="76.59999999999997" y1="201.85" x2="569.3" y2="201.85" spreadMethod="pad">
<stop  offset="0%" stop-color="#003300"/>

<stop  offset="100%" stop-color="#006600"/>
</linearGradient>

<linearGradient id="Gradient_10" gradientUnits="userSpaceOnUse" x1="-7.105427357601002e-15" y1="280.6" x2="79.80000000000001" y2="280.6" spreadMethod="pad">
<stop  offset="0%" stop-color="#999999"/>

<stop  offset="100%" stop-color="#666666"/>
</linearGradient>

<g id="trigger_0_Layer0_0_FILL">
<path fill="#333333" stroke="none" d="
M 189.7 62.8
Q 181.2 59.35 176.3 52.55 171.4 45.7 165.95 40.4 160.45 35.05 154.95 39.6 149.5 44.1 132.95 31.2 116.3 18.2 89.25 12.05 82.85 10.6 66.7 7.25 50.15 3.8 41.6 2.35 27.5 0.2 16.1 0 8.8 -0.1 5 1.9 2.35 3.3 1 5.85 -0.45 8.65 0.25 11.3 0.9 13.5 3 15.05 4.25 15.95 5.9 16.5 5.3 17.4 5.05 18.4 4.2 21.5 6.35 25 7.8 27.4 11.1 30.55 12.85 32.3 14.35 33.6 12.35 33.5 10.75 33.85 8.55 34.3 6.65 35.7 4.75 37.05 4.15 39.1 3.4 41.65 4.75 44.4 5.95 47 8.5 48.55 10.65 49.85 13.7 50.5 15.6 50.95 19.3 51.3 48.9 54.45 75.5 50.75 102.15 47 115.15 56.85 128.15 66.7 147.2 68.45 166.2 70.25 180.3 84.45 194.45 98.55 210.45 107.5 214.75 109.95 217.85 110.65 222.2 111.45 224.8 109.05 226.35 107.65 226.8 105.35 227.1 103.25 226.55 101 225.65 98 222.2 93.55 214.8 83.95 204.4 72.9 198.15 66.3 189.7 62.8 Z"/>
</g>

<g id="Layer3_0_FILL">
<path fill="#333333" stroke="none" d="
M 422.5 237.1
Q 422.35 238.1 422 239.1 421.75 239.75 421.45 240.35 421.55 241.3 421.7 242.7 422 244.55 422.8 248.35 423.6 252.1 423.85 254 425.25 263.55 422.45 277.6 420.9 285.45 417.55 301.25 416.95 305.55 417.4 308.15 417.7 309.85 418.6 312.05 419.15 313.3 420.25 315.8 422.9 322.65 421.1 327.65 420.5 329.4 419.3 330.75 420.5 330.8 421.6 331.1 425.65 326.45 427 318.6 431.05 295.05 432.5 271.05 433.45 251.35 422.5 237.1 Z"/>
</g>

<g id="Nozzle_0_Layer0_0_FILL">
<path fill="url(#Gradient_1)" stroke="none" d="
M 406 36.5
Q 405.8 36.4 405.65 36.35 404.75 36 401.35 35.2 400.4 35 399.6 34.75 383.3 32.25 366.9 30.85 343.7 28.3 321.3 33.25 316.35 34.25 311.55 35.6 308.45 36.45 305.3 36.95 305.15 37 305.05 37.05 303.4 37.7 301.2 37.85 300.55 38.15 300 38.3 298.85 38.55 298.3 38.75 296.9 39.4 296.15 39.7 295.55 39.95 294.95 40.15 285.45 44.8 274.35 43.45 271.75 43.4 269.1 43.45 242.85 44.05 217.45 36.95 184.15 27.45 154.4 43.65 146.65 47.9 141.7 55.25 128.35 75 121.85 98.25 118.25 111.05 120.6 124.15 122.8 136.1 131.75 144.3 150.75 161.7 174.95 153.2 219 137.8 250.75 139.3 282.45 140.8 303.5 142.3 322.6 143.05 338.75 152.1 345.9 156.15 354.15 157.5 362.25 158.95 370.4 158.8 372.6 158.3 375.6 157.55 382.05 156 386 154.15 389.05 152.75 394.8 149.35 398.2 147.55 405.3 144.75 407.35 143.95 409.1 143.35 406.15 141.55 403.9 136.9 401.8 132.35 400.85 127.9 400.1 124.6 399.75 119.85 399.1 112.75 399.3 107.9 399.4 104.95 399.85 100.5 400.45 95.6 400.65 93.15 401.05 89.2 401.45 81.3 402.55 62.3 402.95 49.6 403 46.75 403.3 45.1 403.6 43.25 404.35 41.9 404.5 41.05 404.8 40.3 404.85 40.15 404.95 40.05 405 38.95 405.35 37.9 405.6 37.15 406 36.5 Z"/>

<path fill="url(#Gradient_2)" stroke="none" d="
M 406.4 36.65
Q 406.2 36.55 406 36.45
L 406 36.5
Q 405.6 37.15 405.35 37.9 405 38.95 404.95 40.05 404.85 40.15 404.8 40.3 404.5 41.05 404.35 41.9 403.6 43.25 403.3 45.1 403 46.75 402.95 49.6 402.55 62.3 401.45 81.3 401.05 89.2 400.65 93.15 400.45 95.6 399.85 100.5 399.4 104.95 399.3 107.9 399.1 112.75 399.75 119.85 400.1 124.6 400.85 127.9 401.8 132.35 403.9 136.9 406.15 141.55 409.1 143.35 412.9 142 415.15 141.6 417.35 141.2 419.25 141.25 420.4 139.9 421 138.15 422.75 133.15 420.05 126.35 418.95 123.85 418.4 122.6 417.45 120.4 417.15 118.7 416.7 116.1 417.25 111.8 420.45 96 421.95 88.1 424.65 74.05 423.2 64.5 422.9 62.6 422.1 58.85 421.25 55.05 420.95 53.2 420.8 51.85 420.65 50.9 420.95 50.25 421.2 49.6 421.55 48.6 421.7 47.6 421.75 46.7 421.6 45.8 421.4 44.9 420.55 42.6 420.7 42.05 420.75 41.55 420.85 40.65 420.8 39.85 420.4 39.75 420.05 39.7 418 39.15 416.95 38.95 416.4 38.85 413.65 38.6 411.75 38.45 409.6 37.9 407.55 37.35 406.4 36.65 Z"/>
</g>

<g id="Nozzle_0_Layer0_1_FILL">
<path fill="url(#Gradient_3)" stroke="none" d="
M 152.85 10
Q 152.85 0 142.85 0
L 61.25 0
Q 51.25 0 51.25 10
L 51.25 227.3
Q 48.9525390625 228.42890625 47.85 229.1
L 47.8 229.15
Q 45.85 231.25 43.95 233.55 38.2 240.4 32 249.75 28.3 255.35 21.3 266.85 17.55 273.15 16 275.9 14.6 278.4 13.45 280.75 11.45 287.5 10.05 295.05 7.6 307.8 6.4 325.35 4.3 356.8 6.4 388.2 6.95 396 8 411.65 8 411.75 8 411.85 11.9 415 16.65 416.45 42.6 424.45 86.8 423.95 131 423.4 167.75 415.95 190.65 411.25 199.3 386.5 199.1 385.9 199 385.25 198.75 383.65 198.7 380.65
L 198.35 336.4
Q 198.25 324.8 197.95 319.05 197.5 309.4 196.2 301.8 194.6 292.4 190.2 278.25 189.85 277.1 189.5 276.05 182.8 261.5 173.15 248.6 163.60234375 235.8697265625 152.85 227
L 152.85 10 Z"/>
</g>

<g id="Nozzle_0_Layer0_2_FILL">
<path fill="url(#Gradient_4)" stroke="none" d="
M 492.8 106.7
L 492.8 83.85
Q 492.8 73.85 482.8 73.85
L 279.05 73.85
Q 269.05 73.85 269.05 83.85
L 269.05 106.7
Q 269.05 116.7 279.05 116.7
L 482.8 116.7
Q 492.8 116.7 492.8 106.7 Z"/>
</g>

<g id="Hose_0_Layer0_0_FILL">
<path fill="url(#Gradient_5)" stroke="none" d="
M 531.85 57.05
Q 531.7982421875 58.7361328125 531.75 60.55 530.96015625 70.472265625 528 84.05 527.9880859375 84.224609375 527.95 84.4 526.1529296875 92.3373046875 522.35 108 522.3560546875 108.0248046875 522.35 108.05 519.65 120.1 512.45 166.65 508.2 194.25 503.1 213.4 501.5 219.4 499.8 224.55 489.85 255.05 472.95 274.45 465.5 283 454.65 291.7 447.55 297.35 434.25 306.65 416.15 319.15 405 325.5 388.3 335 373.3 339.35 361.75 342.65 347.5 344.05 336.45 345.1 321.2 345.1 306.7 345.15 297.25 344.05 284.15 342.55 274.15 338.5 259.8 332.7 243.2 317.6 224.95 299.65 215.35 291.45 171.6 254.4 97.25 243.3 87.95 241.85 81.25 241.45 80.05 241.35 78.85 241.35 79 241.8 79.15 242.3 80.2 245.9 79.6 250.9 79.4 252.25 79.05 254.35 80.55 254.2 82.15 254.15 85.75 254.15 92.25 254.85 122.25 258.1 142.2 263.1 169.05 269.8 188.6 281.75 200.1 288.75 214.25 301.05 222.3 308.05 238.15 322.5 252.3 334.9 263.7 342.15 278.5 351.55 292.75 355.25 305.95 358.65 322.05 357.95 334.85 357.4 351.45 354.05 353.3 353.65 354.9 353.4 355.7 353.1 356.55 352.8 370.65 348.05 392.4 339.05 411.8 331 423.9 325 440.75 316.55 453.4 307.45 468.25 296.85 478.8 284.15 490.35 270.15 495.95 254.7 503.4 234.25 509.45 213.4 521.9 170.75 528.65 126.45 528.7853515625 119.33359375 530.4 108 531.7681640625 98.3908203125 534.2 85.75 534.36640625 84.8935546875 534.5 84.05 537.5283203125 68.3150390625 538.6 57.05 539.0548828125 52.31171875 539.15 48.35 538.655078125 49.3337890625 537.7 50.05 536.5 50.95 535.1 51 533.7 51.1 532.45 50.4 532.25859375 50.296875 532.05 50.15 531.9609375 53.3009765625 531.85 57.05
M 601.8 46.3
Q 601.8271484375 45.783984375 601.8 45.15
L 568.95 45.15
Q 568.7544921875 47.36640625 568.45 50 568.0314453125 53.3244140625 567.55 57.05 566.0107421875 68.6171875 563.75 84.05 562.1466796875 95.044140625 560.15 108 558.5556640625 118.571875 556.7 130.45 553.9 157.1 545.9 189.55 543.5 199.2 539.5 213.4 535.35 228.05 529.55 247.55 523.3 268.55 511.45 287.35 499.6 306.1 483.35 320.8 465.3 338.65 431.3 353.35 425.15 356.05 402.25 365.25 384.2 372.55 373.5 377.7 370.55 379.1 368.35 380.15 366.3 380.35 364.1 380.9 360.1 381.95 358.05 382.4 356.05 382.9 352.4 383.35 348.35 384.05 346.4 384.55 346.05 384.6 345.75 384.7 343.4 385.05 341.4 385.35 332.2 386.6 324.4 386.9 304.25 387.65 284.65 382.35 264.85 377.15 247.9 366.5 234.95 358.4 214.1 339.55 191.75 319.45 180.75 311.95 161.4 298.6 138.45 291.7 115.6 284.8 92.05 285.2 84.2 285.3 82.45 285.3 79.3 285.15 76.6 284.7 76.6 285.35 76.6 286.05 76.5 295.9 76.1 308.15 76 313.15 75.55 315.85 75.3 317.35 74.85 318.7 78.4 318.75 82.75 318.75 102.45 319.6 121.3 325.85 140.2 332.1 156.4 343.25 166.6 350.25 183.4 365.6 201.4 381.95 210.2 388.35 228.05 401.55 249.7 409.75 256.05 412.15 262.7 414.15 290.65 422.5 320.95 422.35 357.9 422.2 396.25 409.75 415.2 403.6 434.55 394.45 464.1 380.4 488.55 362.05 514.65 342.45 533.75 318.65 538.6 312.6 543 306.35 562.3 278.8 573 246.3 580.8 222.45 586.85 182.55 589.95 160.85 591.65 150.1 594.6 131.35 597.55 117.9 598.851171875 112.6490234375 599.95 108 603.665234375 92.8138671875 605.5 84.05 605.5291015625 83.949609375 605.55 83.85 607.9013671875 72.6314453125 608.85 63.05 608.6431640625 64.5341796875 608.5 65.05 607.8 67.7 606 69 605.05 69.65 603.9 69.8 602.7 69.95 601.6 69.55 599.2 68.65 598.55 66.25 598.25 65 598.65 62.05 600.2 53.6 600.95 50.55 601.7 47.5 601.8 46.3 Z"/>

<path fill="url(#Gradient_6)" stroke="none" d="
M 581.35 -6.5
L 573.9 -6.55
Q 574.4546875 -3.659375 574.5 -0.35 574.5 3.75 573.65 11.1 573.25 14.4 572.75 18.15 571.9107421875 24.4033203125 570.85 31.8 569.9818359375 38.06484375 568.95 45.15
L 601.8 45.15
Q 601.7685546875 44.616796875 601.7 44
L 601.5 41.65
Q 601.4 38.75 602.35 37.15 602.434765625 37.01328125 602.5 36.85 602.5427734375 36.6525390625 602.55 36.45 602.5 34.55 602.65 33.6 602.95 32.05 604.15 30.95 605.35 29.85 606.85 29.65 608.4 29.45 609.85 30.2 611.3 30.95 611.95 32.35 612.4900390625 33.4658203125 612.6 35.1 614.0900390625 26.0001953125 614.55 18.15 614.8 14.15 614.75 10.5 614.660546875 1.9986328125 613 -5.4 607.957421875 -5.7953125 603.7 -6.05 596.25 -6.5 581.35 -6.5
M 599.05 23.8
Q 600.35 23.8 601.55 24.5 602.7 25.15 603.35 26.3 604 27.45 604 28.8 603.95 30.15 603.3 31.25 602.65 32.4 601.5 33.05 600.3 33.75 599 33.75 597.75 33.75 596.55 33.05 595.4 32.4 594.7 31.25 594.05 30.15 594.05 28.8 594.05 27.45 594.7 26.3 595.8 24.3 598.05 23.9
L 598.95 23.8 599.05 23.8 Z"/>

<path fill="url(#Gradient_7)" stroke="none" d="
M 601.55 24.5
Q 600.35 23.8 599.05 23.8
L 598.95 23.8 598.05 23.9
Q 595.8 24.3 594.7 26.3 594.05 27.45 594.05 28.8 594.05 30.15 594.7 31.25 595.4 32.4 596.55 33.05 597.75 33.75 599 33.75 600.3 33.75 601.5 33.05 602.65 32.4 603.3 31.25 603.95 30.15 604 28.8 604 27.45 603.35 26.3 602.7 25.15 601.55 24.5
M 547.7 -3.45
Q 547.7283203125 -5.1572265625 547.85 -6.6
L 537.95 -6.6
Q 537.7990234375 -3.738671875 537.7 0.05 537.45 7.75 537 11.5 536.55 15.4 535.25 21.25 535.0578125 22.1126953125 534.85 22.9 534.7958984375 24.6640625 534.7 26.6 534.45 34.6 534.15 37.05 534 38.2 533.5 40.95 533 43.5 532.85 44.9 532.75 45.9 532.5 47.85 532.3439453125 49.1771484375 532.05 50.15 532.25859375 50.296875 532.45 50.4 533.7 51.1 535.1 51 536.5 50.95 537.7 50.05 538.655078125 49.3337890625 539.15 48.35 539.298046875 48.1154296875 539.4 47.85 539.65 47.2 539.8 46.05 539.870703125 45.5375 539.9 45.15 540.0353515625 44.441015625 540.1 44.15 540.3 43.45 540.85 42.2 541.4 40.9 541.6 40.25 542.05 38.95 542.25 36.25 542.2794921875 35.9017578125 542.3 35.55 542.8107421875 34.3796875 543.2 32.6 545.45 22.25 546.25 17.2 547.65 8.6 547.7 1.65 547.75 -0.05 547.7 -3.45
M 611.95 32.35
Q 611.3 30.95 609.85 30.2 608.4 29.45 606.85 29.65 605.35 29.85 604.15 30.95 602.95 32.05 602.65 33.6 602.5 34.55 602.55 36.45 602.5427734375 36.6525390625 602.5 36.85 602.434765625 37.01328125 602.35 37.15 601.4 38.75 601.5 41.65
L 601.7 44
Q 601.7685546875 44.616796875 601.8 45.15 601.8271484375 45.783984375 601.8 46.3 601.7 47.5 600.95 50.55 600.2 53.6 598.65 62.05 598.25 65 598.55 66.25 599.2 68.65 601.6 69.55 602.7 69.95 603.9 69.8 605.05 69.65 606 69 607.8 67.7 608.5 65.05 608.6431640625 64.5341796875 608.85 63.05 609.0365234375 61.9724609375 609.25 60.35 609.5 58.6 610.7 53.35 611.75 49.05 611.85 46.35 611.8876953125 45.142578125 611.75 43.15 611.8416015625 42.8923828125 611.9 42.6 612.55 39.4 612.6 36.45 612.6279296875 35.7359375 612.6 35.1 612.4900390625 33.4658203125 611.95 32.35 Z"/>

<path fill="url(#Gradient_8)" stroke="none" d="
M 547.85 -6.6
Q 547.7283203125 -5.1572265625 547.7 -3.45 547.75 -0.05 547.7 1.65 547.65 8.6 546.25 17.2 545.45 22.25 543.2 32.6 542.8107421875 34.3796875 542.3 35.55 542.2794921875 35.9017578125 542.25 36.25 542.05 38.95 541.6 40.25 541.4 40.9 540.85 42.2 540.3 43.45 540.1 44.15 540.0353515625 44.441015625 539.9 45.15
L 568.95 45.15
Q 569.9818359375 38.06484375 570.85 31.8 571.9107421875 24.4033203125 572.75 18.15 573.25 14.4 573.65 11.1 574.5 3.75 574.5 -0.35 574.4546875 -3.659375 573.9 -6.55
L 547.85 -6.6 Z"/>

<path fill="url(#Gradient_9)" stroke="none" d="
M 567.55 57.05
Q 568.0314453125 53.3244140625 568.45 50 568.7544921875 47.36640625 568.95 45.15
L 539.9 45.15
Q 539.870703125 45.5375 539.8 46.05 539.65 47.2 539.4 47.85 539.298046875 48.1154296875 539.15 48.35 539.0548828125 52.31171875 538.6 57.05 537.5283203125 68.3150390625 534.5 84.05 534.36640625 84.8935546875 534.2 85.75 531.7681640625 98.3908203125 530.4 108 528.7853515625 119.33359375 528.65 126.45 521.9 170.75 509.45 213.4 503.4 234.25 495.95 254.7 490.35 270.15 478.8 284.15 468.25 296.85 453.4 307.45 440.75 316.55 423.9 325 411.8 331 392.4 339.05 370.65 348.05 356.55 352.8 355.7 353.1 354.9 353.4 353.3 353.65 351.45 354.05 334.85 357.4 322.05 357.95 305.95 358.65 292.75 355.25 278.5 351.55 263.7 342.15 252.3 334.9 238.15 322.5 222.3 308.05 214.25 301.05 200.1 288.75 188.6 281.75 169.05 269.8 142.2 263.1 122.25 258.1 92.25 254.85 85.75 254.15 82.15 254.15 80.55 254.2 79.05 254.35 78.6 256.55 77.9 259.6 76.9 265.3 76.65 272.8 76.55 275.1 76.6 284.7 79.3 285.15 82.45 285.3 84.2 285.3 92.05 285.2 115.6 284.8 138.45 291.7 161.4 298.6 180.75 311.95 191.75 319.45 214.1 339.55 234.95 358.4 247.9 366.5 264.85 377.15 284.65 382.35 304.25 387.65 324.4 386.9 332.2 386.6 341.4 385.35 343.4 385.05 345.75 384.7 346.05 384.6 346.4 384.55 348.35 384.05 352.4 383.35 356.05 382.9 358.05 382.4 360.1 381.95 364.1 380.9 366.3 380.35 368.35 380.15 370.55 379.1 373.5 377.7 384.2 372.55 402.25 365.25 425.15 356.05 431.3 353.35 465.3 338.65 483.35 320.8 499.6 306.1 511.45 287.35 523.3 268.55 529.55 247.55 535.35 228.05 539.5 213.4 543.5 199.2 545.9 189.55 553.9 157.1 556.7 130.45 558.5556640625 118.571875 560.15 108 562.1466796875 95.044140625 563.75 84.05 566.0107421875 68.6171875 567.55 57.05 Z"/>

<path fill="url(#Gradient_10)" stroke="none" d="
M 50.5 234.2
Q 48.2 231.6 44.8 230.3 41.4 228.95 37.9 229.4 34.4 229.95 31.5 232.05 29.45 233.5 28.15 235.5 25.85 231.7 22.9 229.65 19.6 227.45 15.4 227.4 11.2 227.3 7.8 229.35 4.35 231.4 2.5 235.2 0.6 238.9 0.95 242.9 1.05 244.05 1.4 245.5 1.25 246.25 1.2 247.05 1.1 248.5 1.25 251.1
L 1.7 259.95
Q 1.9 264.35 1.9 266.55 1.85 270.2 1.35 277.55 1.3 281 1.5 287.9 1.5 288.4 1.5 288.85 0.8 293.3 0.45 298.8 0.15 302.6 0 310.75 -0.1 316.8 0.4 320.15 1.2 325.35 3.75 328.55 5.55 330.9 8.25 332.3 11 333.65 13.95 333.8 16.95 333.95 19.7 332.75 22.55 331.65 24.6 329.45 26.15 327.8 27.25 325.75 28.65 327.6 30.5 328.85 33.05 330.6 36.35 331.05 39.55 331.5 42.55 330.55 45.55 329.65 47.95 327.4 49.7 325.75 50.85 323.65 52.85 326 55.75 327.35 58.75 328.75 61.95 328.75 65.15 328.6 68.05 327.1 71 325.5 72.8 322.9 74.1 321.05 74.85 318.7 75.3 317.35 75.55 315.85 76 313.15 76.1 308.15 76.5 295.9 76.6 286.05 76.6 285.35 76.6 284.7 76.55 275.1 76.65 272.8 76.9 265.3 77.9 259.6 78.6 256.55 79.05 254.35 79.4 252.25 79.6 250.9 80.2 245.9 79.15 242.3 79 241.8 78.85 241.35 77.95 238.95 76.25 236.95 74.2 234.55 71.4 233.35 68.65 232.05 65.6 232.05 62.35 232.1 59.65 233.45 55.9 235.3 53.4 239.25 52.25 236.3 50.5 234.2
M 49.15 246.9
Q 49.65 244.75 51.3 244 52.3 243.6 53.45 244.05 54.6 244.4 55 245.45 55.3 246.2 55.25 247.2 55.25 247.45 55.1 249.05 54.85 250.9 55.05 253.6 55.15 255.15 55.5 258.15 55.7 262.1 55.2 267.85 54.85 271.05 54.2 277.55 53.9 281.75 54.1 288.15 54.25 297.05 54.25 298.8 54.2 303.65 53.6 312.75 53.35 315.35 52.6 316.25 51.85 317.05 50.6 317.15 49.35 317.15 48.5 316.4 47.25 315.1 47.55 311.45 48.2 304.95 48.1 292.5 48 279.65 48.5 273.45 49.2 267.4 49.45 264.35 49.9 259 49.5 255.2 49.05 252.45 48.9 251.05 48.7 248.65 49.15 246.9
M 28.45 242.95
Q 29.9 243.7 30.05 245.65 30.15 246.45 29.75 248.85 29.35 251.55 29.6 258 30.15 275.95 28.9 292.5 28.5 299.25 28.45 301.4 28.4 306.4 29.15 310.25 29.5 312.05 29.5 312.85 29.55 314.3 28.9 315.25 28.25 316.1 27 316.25 25.75 316.4 24.95 315.75 23.85 314.8 23.4 312.5 22.3 307.45 22.5 300.65 22.5 298.45 23.15 288.65 23.7 280.15 23.75 269 23.75 265.5 23.65 249.3 23.55 246.05 24.4 244.6 25.05 243.45 26.15 242.95 27.45 242.35 28.45 242.95 Z"/>

<path fill="#666666" stroke="none" d="
M 30.05 245.65
Q 29.9 243.7 28.45 242.95 27.45 242.35 26.15 242.95 25.05 243.45 24.4 244.6 23.55 246.05 23.65 249.3 23.75 265.5 23.75 269 23.7 280.15 23.15 288.65 22.5 298.45 22.5 300.65 22.3 307.45 23.4 312.5 23.85 314.8 24.95 315.75 25.75 316.4 27 316.25 28.25 316.1 28.9 315.25 29.55 314.3 29.5 312.85 29.5 312.05 29.15 310.25 28.4 306.4 28.45 301.4 28.5 299.25 28.9 292.5 30.15 275.95 29.6 258 29.35 251.55 29.75 248.85 30.15 246.45 30.05 245.65
M 51.3 244
Q 49.65 244.75 49.15 246.9 48.7 248.65 48.9 251.05 49.05 252.45 49.5 255.2 49.9 259 49.45 264.35 49.2 267.4 48.5 273.45 48 279.65 48.1 292.5 48.2 304.95 47.55 311.45 47.25 315.1 48.5 316.4 49.35 317.15 50.6 317.15 51.85 317.05 52.6 316.25 53.35 315.35 53.6 312.75 54.2 303.65 54.25 298.8 54.25 297.05 54.1 288.15 53.9 281.75 54.2 277.55 54.85 271.05 55.2 267.85 55.7 262.1 55.5 258.15 55.15 255.15 55.05 253.6 54.85 250.9 55.1 249.05 55.25 247.45 55.25 247.2 55.3 246.2 55 245.45 54.6 244.4 53.45 244.05 52.3 243.6 51.3 244 Z"/>
</g>
</defs>

<g id="Trigger" transform="matrix( 0.88287353515625, -0.469451904296875, 0.469451904296875, 0.88287353515625, 117.35,347.1) ">
<g transform="matrix( 1, 0, 0, 1, 0,0) ">
<use xlink:href="#trigger_0_Layer0_0_FILL"/>
</g>
</g>

<g transform="matrix( 1, 0, 0, 1, 0,-31.8) ">
<use xlink:href="#Layer3_0_FILL"/>
</g>

<g id="Nozzle" transform="matrix( 0.99981689453125, -0.00482177734375, 0.0048065185546875, 0.99993896484375, -2.85,159.5) ">
<g transform="matrix( 1, 0, 0, 1, 0,0) ">
<use xlink:href="#Nozzle_0_Layer0_0_FILL"/>
</g>

<g transform="matrix( 1, 0, 0, 1, 0,0) ">
<use xlink:href="#Nozzle_0_Layer0_1_FILL"/>
</g>

<g transform="matrix( 0.912384033203125, 0, 0, 1, -244.5,312.35) ">
<use xlink:href="#Nozzle_0_Layer0_2_FILL"/>
</g>
</g>

<g id="Hose" transform="matrix( 1.00006103515625, 0.0077972412109375, -0.0077972412109375, 1.00006103515625, 411.45,-31.8) ">
<g transform="matrix( 1, 0, 0, 1, 0,0) ">
<use xlink:href="#Hose_0_Layer0_0_FILL"/>
</g>
</g>
</svg>
