<svg id="Layer_2" data-name="Layer 2" xmlns="http://www.w3.org/2000/svg" xmlns:xlink="http://www.w3.org/1999/xlink" viewBox="0 0 1920 1920"><defs><style>.cls-1,.cls-2,.cls-3,.cls-4,.cls-5,.cls-6{stroke:#000;stroke-miterlimit:10;stroke-width:5px;}.cls-1{fill:url(#linear-gradient);}.cls-2{fill:url(#linear-gradient-2);}.cls-3{fill:url(#linear-gradient-3);}.cls-4{fill:url(#linear-gradient-4);}.cls-5{fill:url(#radial-gradient);}.cls-6{fill:none;}</style><linearGradient id="linear-gradient" x1="320.26" y1="762.4" x2="1076.84" y2="762.4" gradientUnits="userSpaceOnUse"><stop offset="0" stop-color="#050505"/><stop offset="0.15" stop-color="#0e0e0e"/><stop offset="0.5" stop-color="#202020"/><stop offset="1" stop-color="#0e0e0e"/></linearGradient><linearGradient id="linear-gradient-2" x1="513.55" y1="1087.33" x2="717.12" y2="1087.33" xlink:href="#linear-gradient"/><linearGradient id="linear-gradient-3" x1="513.78" y1="1099.98" x2="791.37" y2="1099.98" xlink:href="#linear-gradient"/><linearGradient id="linear-gradient-4" x1="750.71" y1="1287.51" x2="1329.53" y2="1287.51" gradientUnits="userSpaceOnUse"><stop offset="0.14" stop-color="#131313"/><stop offset="0.45" stop-color="#3d3d3d"/><stop offset="0.62" stop-color="#4f4f4f"/><stop offset="0.78" stop-color="#3c3c3c"/><stop offset="1" stop-color="#1d1d1d"/></linearGradient><radialGradient id="radial-gradient" cx="1153.17" cy="869.94" r="442.93" gradientUnits="userSpaceOnUse"><stop offset="0.12" stop-color="#181818"/><stop offset="0.61" stop-color="#1a1a1a"/><stop offset="0.79" stop-color="#212121"/><stop offset="0.91" stop-color="#2c2c2c"/><stop offset="1" stop-color="#3a3a3a"/></radialGradient></defs><path class="cls-1" d="M541.62,1059.48s-16.87-30.37-13.5-56.53-20.25-50.62-20.25-50.62c1.69-19.41-68.34-70-68.34-70l-38.82,3.37-26.15-10.12-33.75-24.47-20.25-17.72C318,811.42,332.37,749,332.37,749l7.59-5.06L346.71,722l10.13-27.84L369.5,679.8,394,650.27l59.91-11L486.78,630c21.93,3.37,56.53,8.43,56.53,8.43L588,641.83l40.5-.85,42.18,2.54c16.88-.85,60.75-4.22,60.75-4.22l7.6,3.37,11.81-6.75c32.06,4.22,20.25,8.44,20.25,8.44,16-6.75,131.63-72.56,131.63-72.56C930.59,554.08,1031,464.64,1031,464.64c7.31-5.91,40.5,4.22,40.5,4.22,45.56,163.69-215.16,592.31-215.16,592.31l-318.09.85"/><path class="cls-2" d="M716.28,1000.42l-27.85-.84C658.9,1008,572,1003.8,572,1003.8c-21.94,1.68-36.29,31.22-36.29,31.22,6.75,11.81-17.71,44.71-17.71,44.71-4.22,9.29,0,58.22,0,58.22-5.91,9.28-4.22,37.13-4.22,37.13l157.78-68.35,45.56-102.93"/><path class="cls-3" d="M750.87,1073.83c0-29.53-41.34-72.56-41.34-72.56-20.25,4.21-36.28,30.37-36.28,30.37l-53.16,45.56c-16.88,7.6-45.56,31.22-45.56,31.22l-27.85,32.06-8.43,4.22-2.54,11.82-21.93,18.56,27-6.75c6.75,11.81,67.5,18.56,67.5,18.56,5.06,8.44,20.25,11.81,20.25,11.81,13.5,0,75.93-15.18,75.93-15.18,30.38,16,60.75-11,60.75-11l26.16-60.75Z"/><path class="cls-4" d="M1329.53,1310.69c-46.41,5.84-130.78,72.5-130.78,72.5-14.35,20.83-70,104.16-70,104.16-40.5,10.84-93.65-26.66-93.65-26.66-9.28-26.67-128.25-47.5-128.25-47.5C873.06,1416.52,776.87,1299,776.87,1299c-41.34-43.33-17.72-121.66-17.72-121.66,19.41-18.34-8.44-91.67-8.44-91.67l394,28.34Z"/><path class="cls-5" d="M1036.9,460.7c19.13-6.75,34.88-7.87,50.63-7.87s43.87,7.87,60.75,4.5,93.37-15.75,109.12-20.25,99-2.25,112.5-5.63,31.5,5.63,39.38,2.25,82.12,4.5,97.87,3.38,28.13,0,34.88,11.25,1.12,18,12.37,19.12,23.48,25.66,38.25,36c22.5,15.75-15.75,110.25-15.75,110.25,3.38,15.75-96.75,92.25-96.75,92.25-7.87,25.88-68.62,158.63-68.62,158.63-19.13,31.5-42.75,150.75-42.75,150.75-11.25,56.25,5.62,135,5.62,135-6.75,15.75-10.12,105.75-10.12,105.75,13.5,7.87-23.63,50.62-23.63,50.62-.56,2-3.58,2.69-8.44,2.45-34-1.73-158.06-50.82-158.06-50.82-34.87,3.37-255.37-41.63-255.37-41.63-23.63,4.5-90-90-90-90C825.4,1111,750,1084,750,1084c10.12-7.87-41.63-95.62-41.63-95.62-11.25-45,33.75-85.5,33.75-85.5,13.5-18,42.75-33.75,42.75-33.75,28.13,1.12,47.25-33.75,47.25-33.75,13.5-5.63,33.75-52.88,33.75-52.88-14.62-11.25,9-70.87,9-70.87,3.38-21.38,41.63-36,41.63-36l42.75-56.25c39.37-18,79-160.6,79-160.6"/><path class="cls-6" d="M865.9,782.45l93.6-47.07c38.81-6.76,79.31-1.69,79.31-1.69"/><path class="cls-6" d="M885.25,1199.44c-23.63,13.5-81,124.87-81,124.87"/><path class="cls-6" d="M951.06,1223.06c-33.75,38.82-99.56,153.56-99.56,153.56"/><path class="cls-6" d="M1015.19,1234.88c-20.25,32.06-92.81,180.56-92.81,180.56"/><path class="cls-6" d="M1081,1248.38c-11.81,21.93-82.69,183.93-82.69,183.93"/><path class="cls-6" d="M1151.88,1256.81c-13.5,21.94-84.38,217.69-84.38,217.69"/></svg>