<svg id="Layer_2" data-name="Layer 2" xmlns="http://www.w3.org/2000/svg" xmlns:xlink="http://www.w3.org/1999/xlink" viewBox="0 0 1509.75 1030.5"><defs><style>.cls-1,.cls-2,.cls-3,.cls-4{stroke:#000;stroke-miterlimit:10;stroke-width:5px;}.cls-1{fill:url(#linear-gradient);}.cls-2{fill:url(#linear-gradient-2);}.cls-3{fill:url(#linear-gradient-3);}.cls-4{fill:url(#linear-gradient-4);}</style><linearGradient id="linear-gradient" x1="294.06" y1="326.08" x2="550.36" y2="505.55" gradientUnits="userSpaceOnUse"><stop offset="0" stop-color="#505050"/><stop offset="0.3" stop-color="#5a5a5a"/></linearGradient><linearGradient id="linear-gradient-2" x1="1329.15" y1="803.22" x2="1277.93" y2="758" gradientTransform="translate(-31.61 53.49) rotate(-2.38)" gradientUnits="userSpaceOnUse"><stop offset="0" stop-color="#505050"/><stop offset="1" stop-color="#5a5a5a"/></linearGradient><linearGradient id="linear-gradient-3" x1="817.62" y1="760.21" x2="809.35" y2="845.88" gradientUnits="userSpaceOnUse"><stop offset="0" stop-color="#5a5a5a"/><stop offset="0.36" stop-color="#535353"/><stop offset="1" stop-color="#505050"/></linearGradient><linearGradient id="linear-gradient-4" x1="469.91" y1="426.8" x2="1210.08" y2="895.82" gradientUnits="userSpaceOnUse"><stop offset="0" stop-color="#646464"/><stop offset="0.12" stop-color="#656361"/><stop offset="0.19" stop-color="#686259"/><stop offset="0.25" stop-color="#6e5f4b"/><stop offset="0.3" stop-color="#765b37"/><stop offset="0.34" stop-color="#81561d"/><stop offset="0.38" stop-color="#8c5000"/><stop offset="0.39" stop-color="#895105"/><stop offset="0.43" stop-color="#785424"/><stop offset="0.48" stop-color="#6b573c"/><stop offset="0.53" stop-color="#61594d"/><stop offset="0.58" stop-color="#5c5a57"/><stop offset="0.65" stop-color="#5a5a5a"/><stop offset="1" stop-color="#464646"/></linearGradient></defs><path class="cls-1" d="M734,91.86c8.44,20.25,11.82,42.18,13.5,57.37S732.81,220,722.19,228.54c-16.87,13.5-64.12,123.19-64.12,123.19L376.25,566c-11.81,27-32.06,155.25-32.06,155.25C349.25,741.54,285.13,831,285.13,831c-45.56,5.06-77.63-23.62-77.63-23.62,0-20.25-18.56-30.38-18.56-30.38-10.12,5.06-33.75-13.5-33.75-13.5,6.75-23.62-33.75-35.44-33.75-35.44-1.69-16.87-72.56-37.12-72.56-37.12,3.37-25.31,106.31-165.38,106.31-165.38,16.88-32.06,156.94-163.68,156.94-163.68,11.81-25.32,84.37-86.07,84.37-86.07,28.69-20.25,153.57-75.93,153.57-75.93C614.19,188,734,91.86,734,91.86Z"/><path class="cls-2" d="M1408.73,590.34l3.88,12.1c-22.81,20.09-33.39,36.3-33.39,36.3-9.6,12.78-15.65,57-15.65,57-32.92,20.51-18.92,86.36-18.92,86.36-16.35,13.07-19.3,50.35-19.3,50.35,10.72,14.19,4,41.49,4,41.49.79,19.11-44.22,46.88-44.22,46.88-7.35,12.69-27.82,62-27.82,62-57.42,27.16-137.36-108-137.36-108-3.42-28,3.15-140.88,3.15-140.88,87.58-114,54.33-101.34,87.58-114S1408.73,590.34,1408.73,590.34Z"/><path class="cls-3" d="M1232.32,986.23c-29.25,6.75-39.38,14.63-39.38,14.63-18-6.75-109.12-15.75-109.12-15.75-12.38-18-88.88-31.5-88.88-31.5-47.25-11.25-97.87,16.87-97.87,16.87-25.88,9-24.75,22.5-24.75,22.5-13.5,4.5-102.38,19.13-102.38,19.13-32.62-1.13-73.12-65.25-73.12-65.25-4.5-21.38-50.63-77.63-50.63-77.63-16.87-36-155.25-66.37-155.25-66.37-24.75-11.25-113.62-3.25-113.62-3.25,16.87-42.88,186.75-86.75,186.75-86.75,126,22.5,249.75,75.37,249.75,75.37,308.25,80,247.5,63.25,308.25,80S1232.32,986.23,1232.32,986.23Z"/><path class="cls-4" d="M734.22,92.54c21.94-1.68,92.81,33.75,101.25,44.72s77.63,57.38,88.6,62.44,48.93,40.5,57.37,43,105.47,65,114.75,70.88,86.91,67.5,86.91,67.5c25.59,15.75,81.84,81,81.84,81,12.38,12.37,90,81,90,81,15.75,9,63,56.25,63,56.25-10.12,11.25-145.12,58.5-145.12,58.5-31.5,7.87-112.5,87.75-112.5,87.75-37.13,30.37-38.25,122.62-38.25,122.62-13.5,7.88-21.38,24.75-21.38,24.75-15.75-5.62-74.25-4.5-74.25-4.5-3.37-1.12,7.88,6.75-3.37-1.12S984.82,884,984.82,884c-18,4.5-67.5,24.75-67.5,24.75-13.5,4.5-54-15.75-54-15.75-23.63-3.37-51.75,13.5-51.75,13.5-18-5.62-22.5-4.5-22.5-4.5-5.63-13.5-15.75-30.37-15.75-30.37-19.13-22.5-92.25-61.88-92.25-61.88-21.38-13.5-91.13-38.25-91.13-38.25-24.75-6.75-72-13.5-72-13.5-27-3.37-59.62,5.63-59.62,5.63-36-6.75-66.38,20.25-66.38,20.25-10.12,4.5-14.62,15.75-14.62,15.75-23.63,2.25-68.63,29.25-68.63,29.25L281.13,830c11.81-4.5,51.19-82.12,51.19-82.12,13.5-28.13,7.87-27.57,7.87-27.57L372.25,565c20.82-15.18,281.82-214.31,281.82-214.31,5.62-15.75,64.12-123.19,64.12-123.19C746.32,204.48,729.44,101,729.44,101Z"/></svg>