<svg id="Layer_2" data-name="Layer 2" xmlns="http://www.w3.org/2000/svg" xmlns:xlink="http://www.w3.org/1999/xlink" viewBox="0 0 1444.5 1161"><defs><style>.cls-1{fill:url(#linear-gradient);}.cls-2{fill:url(#linear-gradient-2);}.cls-3{fill:url(#linear-gradient-3);}.cls-4{fill:url(#linear-gradient-4);}</style><linearGradient id="linear-gradient" x1="330.8" y1="369.95" x2="575.68" y2="541.41" gradientUnits="userSpaceOnUse"><stop offset="0" stop-color="#505050"/><stop offset="0.3" stop-color="#5a5a5a"/><stop offset="0.46" stop-color="#50507e"/></linearGradient><linearGradient id="linear-gradient-2" x1="1246.99" y1="823.55" x2="1129.4" y2="749.5" gradientTransform="translate(100.41 -74.04) rotate(3.39)" gradientUnits="userSpaceOnUse"><stop offset="0" stop-color="#3232c5"/><stop offset="1" stop-color="#5a5a5a"/></linearGradient><linearGradient id="linear-gradient-3" x1="760.37" y1="865" x2="828.1" y2="907.94" gradientUnits="userSpaceOnUse"><stop offset="0" stop-color="#5a5a5a"/><stop offset="0.19" stop-color="#5d5d79"/><stop offset="0.59" stop-color="#6464ba"/><stop offset="0.69" stop-color="#5f5f9e"/><stop offset="0.9" stop-color="#545466"/><stop offset="1" stop-color="#505050"/></linearGradient><linearGradient id="linear-gradient-4" x1="484.53" y1="463.59" x2="1198.51" y2="916.02" gradientUnits="userSpaceOnUse"><stop offset="0" stop-color="#646464"/><stop offset="0.13" stop-color="#656361"/><stop offset="0.21" stop-color="#686259"/><stop offset="0.27" stop-color="#6e5f4b"/><stop offset="0.33" stop-color="#765b37"/><stop offset="0.38" stop-color="#81561d"/><stop offset="0.42" stop-color="#8c5000"/><stop offset="0.43" stop-color="#895105"/><stop offset="0.47" stop-color="#785424"/><stop offset="0.51" stop-color="#6b573c"/><stop offset="0.55" stop-color="#61594d"/><stop offset="0.59" stop-color="#5c5a57"/><stop offset="0.65" stop-color="#5a5a5a"/><stop offset="0.76" stop-color="#3c3cc8"/><stop offset="0.78" stop-color="#3f3fa5"/><stop offset="0.8" stop-color="#414188"/><stop offset="0.82" stop-color="#434370"/><stop offset="0.85" stop-color="#44445d"/><stop offset="0.88" stop-color="#454550"/><stop offset="0.92" stop-color="#464648"/><stop offset="1" stop-color="#464646"/></linearGradient></defs><path class="cls-1" d="M735.12,148c12.14-9.24,29.54-2.47,32.63,12.68,1.92,9.44,3.09,18.27,3.88,25.53,1.63,15-14.17,69.88-24.43,78.27C733,276,696.63,359.57,687.45,381a21.21,21.21,0,0,1-6.43,8.34L506.81,524.82c-64.39,50.07-107.69,123.37-121.07,205-1.34,8.19-2.35,14.53-2.89,18a20.93,20.93,0,0,0-.21,4.68c1.12,18.4-36.61,76.11-51.41,98a20.4,20.4,0,0,1-17,9.11c-25.53-.19-45.57-10.93-55.95-17.94a21.09,21.09,0,0,1-8.61-13,34.56,34.56,0,0,0-8.24-15.51,21,21,0,0,0-14.06-6.62c-5.26-.44-11.79-3.72-17.16-7a21.19,21.19,0,0,1-9.73-15c-1.89-12.4-16.73-20.55-25.88-24.45a21.48,21.48,0,0,1-9.09-7.13c-6.66-9.25-29.49-18.88-46.91-25.17-12.11-4.38-17.45-18.84-11.16-30.3,24.21-44.16,83.85-127.84,91.66-138.75a21.87,21.87,0,0,0,1.32-2.06C217.19,526.27,330.7,416,349,398.39a21.14,21.14,0,0,0,3.77-4.94c14.61-26.28,80.14-82.38,80.14-82.38,25.47-18.39,129.51-66.37,146-73.93a19.14,19.14,0,0,1,4.15-1.4C627.73,226.25,698.59,175.77,735.12,148Z"/><path d="M735.12,148a20.94,20.94,0,0,1,12.39-4.21l1.66.11.84,0,.81.16,1.64.31,1.59.51.79.25.76.35,1.51.7,1.42.87.71.43.65.52,1.31,1c.4.38.78.79,1.17,1.18a21.78,21.78,0,0,1,2.11,2.58c.33.44.57.95.86,1.42a12.18,12.18,0,0,1,.78,1.47,21,21,0,0,1,1.17,3.12,65.56,65.56,0,0,1,1.4,6.51q.6,3.27,1.11,6.57c.69,4.38,1.27,8.79,1.76,13.2s0,8.89-.66,13.27a221.65,221.65,0,0,1-5.93,26,219.49,219.49,0,0,1-8.74,25.16,69.72,69.72,0,0,1-6.15,11.81,18.73,18.73,0,0,1-2.12,2.59c-.81.79-1.65,1.48-2.39,2.3l-1.11,1.24-1,1.3c-.7.86-1.32,1.78-2,2.68-2.53,3.63-4.82,7.44-7,11.28s-4.33,7.75-6.39,11.68c-4.14,7.85-8.06,15.82-11.9,23.82-7.66,16-15,32.2-22.07,48.47l-5.28,12.23c-.44,1-.84,2-1.32,3.07a20.92,20.92,0,0,1-1.69,2.94,21.32,21.32,0,0,1-4.64,4.93l-21,16.42L576.3,472l-41.94,32.86-21,16.43-5.24,4.1c-1.73,1.39-3.42,2.81-5.13,4.21l-5.12,4.21c-.85.71-1.73,1.38-2.54,2.13l-2.46,2.23L488,542.58c-1.62,1.5-3.31,2.93-4.84,4.52l-9.39,9.37-8.94,9.79-1.12,1.23-1.05,1.27-2.12,2.55-4.24,5.1a330.86,330.86,0,0,0-29.81,43.76L423.26,626c-1.08,1.93-2.17,3.85-3.11,5.85-1.95,4-3.95,7.89-5.86,11.88L409,655.81c-1.69,4.08-3.2,8.23-4.81,12.34a335.8,335.8,0,0,0-14.27,50.92c-.77,4.35-1.65,8.66-2.36,13l-2.08,13.14-.51,3.24a19.91,19.91,0,0,0-.16,3l0,.75c0,.27,0,.62,0,.93a14.34,14.34,0,0,1-.07,1.87c-.07.6-.12,1.22-.21,1.81l-.32,1.74a76.23,76.23,0,0,1-4.3,13A250.57,250.57,0,0,1,368,795.7c-4.3,7.82-8.85,15.49-13.5,23.08s-9.44,15.1-14.32,22.54l-3.68,5.57-1.86,2.78-.93,1.38-.47.69-.53.75A23.08,23.08,0,0,1,320.85,861a22.83,22.83,0,0,1-3.65.79c-.62.07-1.24.14-1.86.16s-1.26,0-1.8,0c-2.28-.06-4.56-.12-6.83-.35s-4.52-.51-6.78-.8-4.48-.78-6.69-1.32a106.62,106.62,0,0,1-25.5-9.42c-2-1-4-2.16-5.94-3.32-1-.58-1.94-1.19-2.9-1.79s-1.86-1.19-2.91-2a23.57,23.57,0,0,1-8.25-12.08c-.18-.59-.32-1.2-.46-1.78s-.23-1-.39-1.48a27.63,27.63,0,0,0-1-2.91,31.62,31.62,0,0,0-2.85-5.47,34.89,34.89,0,0,0-3.81-4.86,16.82,16.82,0,0,0-4.67-3.41A20,20,0,0,0,229,809.2c-.49-.07-1-.14-1.48-.19l-.87-.09c-.32,0-.64-.07-.94-.13a25.14,25.14,0,0,1-3.57-.85,58.72,58.72,0,0,1-12.56-6c-.47-.28-1-.62-1.52-1s-1-.72-1.5-1.12a22.61,22.61,0,0,1-2.7-2.57,24.12,24.12,0,0,1-4-6.25,25.78,25.78,0,0,1-1.22-3.49c-.15-.6-.31-1.2-.41-1.81l-.16-.9-.16-.7a17,17,0,0,0-2.12-5.39,26.29,26.29,0,0,0-3.73-4.77,42.48,42.48,0,0,0-4.75-4.08,64.87,64.87,0,0,0-11.06-6.45c-1-.48-1.92-.86-3-1.35A24.06,24.06,0,0,1,170,760.4a23.29,23.29,0,0,1-5.56-4.88c-.2-.24-.4-.48-.58-.74l-.28-.37-.24-.29-.92-1.11c-.31-.37-.71-.71-1.06-1.06a11.11,11.11,0,0,0-1.12-1c-.8-.66-1.58-1.34-2.46-1.95L156.5,748l-1.35-.88a107,107,0,0,0-11.36-6.33q-5.89-2.88-12-5.39t-12.32-4.79l-1.55-.57-1.7-.72-.86-.37-.8-.46c-.54-.31-1.09-.59-1.61-.94a25.19,25.19,0,0,1-5.44-5,26.56,26.56,0,0,1-3.58-6.44,26.23,26.23,0,0,1-1.44-7.22,25.11,25.11,0,0,1,.83-7.32,17.87,17.87,0,0,1,.57-1.75,11.11,11.11,0,0,1,.69-1.71l.8-1.67.82-1.46c2.21-3.88,4.39-7.78,6.71-11.59l3.44-5.73,3.52-5.68c9.4-15.11,19.19-30,29.12-44.7s20-29.36,30.27-43.88q7.67-10.9,15.44-21.73l1.94-2.71,1-1.35.82-1.28.42-.64.44-.74.9-1.47c.57-1,1.24-1.91,1.87-2.85,1.25-1.9,2.63-3.65,3.95-5.48s2.75-3.54,4.16-5.27c11.29-13.84,23.37-26.89,35.56-39.83s24.63-25.63,37.15-38.24S308,436.71,320.7,424.29l19.1-18.58,4.79-4.62,2.4-2.31,1.21-1.16c.38-.36.74-.74,1.09-1.13a20.27,20.27,0,0,0,1.9-2.52c.53-.88,1.13-1.86,1.74-2.81l1.81-2.86.46-.71.5-.67,1-1.35a212.39,212.39,0,0,1,17.4-20.31c6.1-6.48,12.43-12.73,18.84-18.89q19.26-18.44,39.51-35.79l0,0h0c3-2,6-4,9.12-5.83,1.55-.91,3.08-1.87,4.65-2.74l4.71-2.64c3.12-1.78,6.31-3.44,9.48-5.14s6.36-3.35,9.55-5c12.77-6.59,25.66-12.95,38.58-19.23s25.91-12.43,38.92-18.53l19.55-9.08,9.79-4.5a31.72,31.72,0,0,1,5-2l5.25-1.24a156.48,156.48,0,0,0,20.35-7c6.64-2.73,13.14-5.8,19.54-9,12.81-6.51,25.22-13.77,37.41-21.37C688.77,182,712.22,165.32,735.12,148Zm0,0c-22.87,17.39-46.3,34.09-70.64,49.37-12.17,7.62-24.58,14.9-37.38,21.43-6.4,3.27-12.9,6.34-19.54,9.11a157,157,0,0,1-20.36,7.06L582,236.19a31.27,31.27,0,0,0-5,2l-9.77,4.54-19.5,9.17q-19.49,9.22-38.83,18.69t-38.45,19.45c-3.17,1.68-6.36,3.34-9.5,5.07s-6.32,3.4-9.43,5.2L446.86,303c-1.56.89-3.07,1.85-4.61,2.77-3.1,1.8-6,3.84-9,5.83l.05,0q-20.07,17.49-39.18,36c-6.35,6.19-12.62,12.47-18.65,19-3.05,3.21-6,6.56-8.88,9.87s-5.67,6.78-8.21,10.37l-1,1.33-.49.67-.43.69-1.73,2.78c-.59.92-1.14,1.84-1.75,2.86a22,22,0,0,1-2.09,2.81c-.38.44-.78.86-1.2,1.27l-1.19,1.16-2.39,2.32-4.75,4.66-19,18.71q-18.89,18.76-37.53,37.78t-36.81,38.45c-12.07,13-24,26.12-35.1,39.89-1.38,1.72-2.7,3.47-4,5.22s-2.63,3.52-3.8,5.34c-.6.91-1.25,1.8-1.77,2.73l-.82,1.38-.41.69-.48.76-1,1.53-1,1.36-1.92,2.72q-7.66,10.88-15.25,21.81-15.18,21.88-30,44c-9.85,14.75-19.55,29.61-28.84,44.69l-3.47,5.66-3.39,5.71c-2.29,3.78-4.42,7.64-6.59,11.49l-.8,1.44-.64,1.34a9.63,9.63,0,0,0-.54,1.38,14.31,14.31,0,0,0-.46,1.4,20.74,20.74,0,0,0-.64,5.87,19.24,19.24,0,0,0,4.07,10.93,19.88,19.88,0,0,0,4.32,4c.4.27.85.49,1.27.74l.63.36.68.29,1.37.58,1.57.58q6.3,2.29,12.51,4.84c4.14,1.71,8.25,3.52,12.3,5.5a112.26,112.26,0,0,1,11.9,6.61l1.44.94,1.41,1c1,.66,1.85,1.43,2.76,2.19a16.53,16.53,0,0,1,1.33,1.21c.42.43.87.83,1.28,1.29l1.2,1.46.3.36.21.29c.15.2.3.38.46.57a18.34,18.34,0,0,0,4.41,3.86,20.52,20.52,0,0,0,2.62,1.4c.94.42,2.07.89,3.07,1.38A69.92,69.92,0,0,1,190.23,766a48.14,48.14,0,0,1,5.35,4.58,32,32,0,0,1,4.45,5.7,21.67,21.67,0,0,1,2.72,6.94l.2.93.14.73c.08.49.21,1,.33,1.44a20.92,20.92,0,0,0,1,2.79,19,19,0,0,0,3.16,4.93,18.28,18.28,0,0,0,2.11,2c.38.31.78.59,1.17.87s.81.53,1.29.81a55.22,55.22,0,0,0,11.46,5.45,20.86,20.86,0,0,0,2.89.69c.24,0,.48.07.71.1l.79.09c.6.05,1.21.14,1.82.23a25.26,25.26,0,0,1,7,2.26,21.72,21.72,0,0,1,6,4.42,39.13,39.13,0,0,1,4.39,5.61,36.15,36.15,0,0,1,3.28,6.33,33.13,33.13,0,0,1,1.15,3.4c.17.57.3,1.16.45,1.74s.23,1,.38,1.44a18.58,18.58,0,0,0,6.47,9.58c.74.55,1.73,1.17,2.61,1.76s1.83,1.16,2.76,1.71c1.87,1.11,3.75,2.19,5.68,3.18a101.64,101.64,0,0,0,24.32,9c2.11.52,4.24.87,6.37,1.26s4.28.63,6.44.77,4.32.28,6.48.34c.56,0,1,0,1.52,0s1-.07,1.46-.12a18.57,18.57,0,0,0,2.85-.62,18.24,18.24,0,0,0,9.4-6.73l.44-.61.46-.68.93-1.38,1.85-2.76,3.68-5.53q7.33-11.09,14.35-22.36c4.65-7.53,9.2-15.12,13.49-22.84a244.7,244.7,0,0,0,11.79-23.59,71.65,71.65,0,0,0,4.1-12.22l.3-1.52c.07-.51.11-1,.17-1.5a9,9,0,0,0,.06-1.45c0-.25,0-.46,0-.74l0-.91a23.66,23.66,0,0,1,.22-3.66l.53-3.33,2.15-13.16c.72-4.38,1.63-8.77,2.45-13.16a340.08,340.08,0,0,1,14.82-51.44c1.66-4.15,3.22-8.33,5-12.44L411,642.16c2-4,4-8,6-12,1-2,2.09-3.94,3.19-5.89l3.29-5.83a332.77,332.77,0,0,1,30.42-44l4.31-5.11,2.16-2.56,1.08-1.28,1.13-1.23,9.09-9.81,9.54-9.38c1.56-1.6,3.27-3,4.92-4.53l5-4.45,2.49-2.23c.83-.75,1.72-1.41,2.58-2.13l5.19-4.21c1.74-1.39,3.46-2.82,5.2-4.19l5.28-4.07L533,503l42.18-32.55,84.34-65.1,21.09-16.28a20.62,20.62,0,0,0,4.49-4.69,21.37,21.37,0,0,0,1.64-2.82c.46-1,.89-2,1.33-3l5.35-12.2C700.58,350.12,708,334,715.68,318c3.88-8,7.84-15.94,12-23.78q3.12-5.9,6.45-11.66c2.23-3.84,4.54-7.65,7.1-11.28.65-.9,1.28-1.82,2-2.68l1-1.31,1.12-1.24c.74-.82,1.63-1.54,2.41-2.3a19.11,19.11,0,0,0,2.1-2.55,68.48,68.48,0,0,0,6.15-11.76,220.28,220.28,0,0,0,8.77-25.12,219.44,219.44,0,0,0,6-25.94c.63-4.38,1.24-8.83.69-13.24s-1.07-8.82-1.75-13.2c-.34-2.2-.7-4.38-1.1-6.57a65.33,65.33,0,0,0-1.39-6.5,21.6,21.6,0,0,0-1.15-3.12,12.13,12.13,0,0,0-.79-1.46c-.29-.47-.52-1-.85-1.42a21.7,21.7,0,0,0-2.1-2.58c-.39-.39-.77-.8-1.17-1.18l-1.3-1c-.22-.17-.43-.35-.65-.51l-.71-.44-1.42-.87-1.51-.7-.75-.35-.79-.25-1.59-.51-1.63-.32-.82-.15-.83-.06-1.66-.11A20.92,20.92,0,0,0,735.12,148Z"/><path class="cls-2" d="M1396.14,630.72h0a8.67,8.67,0,0,1-3.29,8.77c-21.71,16.24-32.41,29.49-32.41,29.49-8.94,9.69-17.62,40.86-20.38,51.49a8.56,8.56,0,0,1-3.74,5.15c-26.47,16.12-25.92,63.11-25,77.93a8.6,8.6,0,0,1-2.82,7c-12.31,10.84-18.51,34.09-20.43,42.56a8.6,8.6,0,0,0,.57,5.5c6.33,13.75.22,34.27-1.18,38.56a8.85,8.85,0,0,0-.35,1.7c-2.21,16.58-38,35.84-46.7,40.33a8.59,8.59,0,0,0-3.25,2.88c-8,12-25.37,43.64-30.87,53.77a8.76,8.76,0,0,1-5.66,4.33c-54.8,13-113.35-104.7-121-120.66a8.73,8.73,0,0,1-.86-3.85c.22-28.29,14.26-118.5,16.89-135.13a8.7,8.7,0,0,1,2.26-4.61c96.34-102.53,62.63-93.47,96.77-102.64,30.09-8.09,160.94-9.25,192.95-9.42A8.7,8.7,0,0,1,1396.14,630.72Z"/><path d="M1396.14,630.72a8.7,8.7,0,0,1-2.39,8c-2.21,1.89-4.61,3.54-6.85,5.39q-6.81,5.43-13.23,11.34a168.33,168.33,0,0,0-12.21,12.42c-1,1.1-1.86,2.23-2.75,3.38s-1.63,2.4-2.3,3.68a80.79,80.79,0,0,0-3.85,7.81c-2.33,5.32-4.27,10.8-6.08,16.32s-3.43,11.1-5,16.71l-1.11,4.21a9.63,9.63,0,0,1-1.88,4,8.16,8.16,0,0,1-1.63,1.53l-1.81,1.22a17.11,17.11,0,0,0-1.76,1.27c-.56.45-1.14.88-1.68,1.36a42.42,42.42,0,0,0-5.86,6.34,54,54,0,0,0-4.57,7.35,69.08,69.08,0,0,0-3.44,8c-1,2.72-1.79,5.5-2.51,8.3a123.67,123.67,0,0,0-2.86,17.11,162.19,162.19,0,0,0-.76,17.35c0,2.89.11,5.79.28,8.68l.07,1.08a11.61,11.61,0,0,1,0,1.18,9.78,9.78,0,0,1-.43,2.32,9.16,9.16,0,0,1-2.51,4A48.69,48.69,0,0,0,1299,824.76a103.7,103.7,0,0,0-6.5,16c-.88,2.75-1.68,5.52-2.38,8.32-.35,1.4-.68,2.8-1,4.21a7.55,7.55,0,0,0,.12,3.75,6.76,6.76,0,0,0,.33.89c.12.28.28.68.41,1,.28.7.59,1.4.83,2.12a34.92,34.92,0,0,1,1.1,4.37,41.71,41.71,0,0,1,.6,4.45c.08,1.48.18,3,.14,4.46a63.83,63.83,0,0,1-.67,8.85,85.83,85.83,0,0,1-1.65,8.69c-.35,1.43-.72,2.86-1.14,4.28-.19.7-.48,1.46-.58,2-.06.3-.1.6-.15,1l-.23,1.18a23.25,23.25,0,0,1-4,8.35,66.4,66.4,0,0,1-12.52,12.65,155.56,155.56,0,0,1-14.37,10.18q-7.44,4.69-15.2,8.81l-1,.51a8,8,0,0,0-.74.44,6.61,6.61,0,0,0-1.27,1.15,5.74,5.74,0,0,0-.51.68l-.58.89-1.16,1.82q-2.28,3.66-4.47,7.41c-5.86,10-11.44,20.18-17,30.35l-4.17,7.64-2.07,3.83-1,1.93a11.22,11.22,0,0,1-1.6,2.21,11,11,0,0,1-4.56,2.92,22.25,22.25,0,0,1-2.39.56c-.75.16-1.51.3-2.28.39a38.82,38.82,0,0,1-9.2.21,49.42,49.42,0,0,1-9-1.73,60.85,60.85,0,0,1-8.47-3.23,85.59,85.59,0,0,1-15.24-9.39,136.32,136.32,0,0,1-13.34-11.68c-4.21-4.14-8.17-8.49-12-13a308.19,308.19,0,0,1-21.06-28.12c-6.49-9.73-12.54-19.74-18.25-29.92q-4.29-7.65-8.3-15.43-2-3.9-3.94-7.84l-1-2-.24-.52c-.1-.21-.19-.42-.28-.64a12,12,0,0,1-.43-1.32,11.63,11.63,0,0,1-.34-2.75l.07-2.24c.06-1.48.09-3,.17-4.43l.3-4.39c.17-2.93.5-5.82.75-8.73q.84-8.71,1.9-17.39,2.09-17.34,4.56-34.61c1.61-11.53,3.36-23,5.15-34.52l2.72-17.23,1.4-8.61.35-2.15.17-1.07a12.49,12.49,0,0,1,.28-1.26,10.51,10.51,0,0,1,2.57-4.46c16-16.84,31.7-34,46.53-51.8,7.39-8.93,14.55-18.06,21.21-27.55,1.67-2.36,3.3-4.76,5-7.16a74.41,74.41,0,0,1,5.28-7.09,18.37,18.37,0,0,1,3.46-3,22.86,22.86,0,0,1,4.07-2c2.79-1,5.62-1.78,8.43-2.54,1.41-.36,2.8-.76,4.23-1.09l4.31-.88,2.15-.44,2.17-.3,4.33-.6c2.89-.45,5.79-.64,8.69-1l4.34-.44,4.35-.33c11.6-1,23.22-1.45,34.83-2,23.23-1,46.47-1.54,69.71-2q17.43-.33,34.87-.49l17.43-.14,4.36,0a10.57,10.57,0,0,1,4.29.56A8.74,8.74,0,0,1,1396.14,630.72Zm0,0a8.73,8.73,0,0,0-5.45-6.33,10.73,10.73,0,0,0-4.29-.54l-4.36,0-17.43.18q-17.43.23-34.87.59c-23.23.51-46.47,1.28-69.68,2.47-5.8.35-11.6.62-17.4,1.06l-8.69.63-8.67.76L1221,630l-4.32.49c-2.88.36-5.78.59-8.63,1.07l-4.3.66-2.14.32-2.11.46-4.22.93c-1.4.34-2.8.75-4.19,1.14-2.79.79-5.6,1.56-8.23,2.6a21,21,0,0,0-3.73,1.87,16.87,16.87,0,0,0-3.07,2.73,71.87,71.87,0,0,0-5,7c-1.61,2.42-3.22,4.85-4.87,7.25-6.57,9.63-13.65,18.9-20.95,28-14.64,18.12-30.17,35.48-46,52.57a7,7,0,0,0-1.71,3c-.07.29-.12.54-.17.87l-.16,1.08-.33,2.16-1.27,8.61L1093.08,770c-1.64,11.5-3.2,23-4.75,34.52s-3,23-4.27,34.56-2.48,23.1-2.86,34.52l-.07,2.12a6.73,6.73,0,0,0,.2,1.56q.11.39.24.75l.16.36.23.47,1,1.94c1.27,2.59,2.58,5.17,3.91,7.73q4,7.71,8.26,15.26c5.68,10.07,11.7,20,18.12,29.55a306.69,306.69,0,0,0,20.64,27.73,161.87,161.87,0,0,0,24.49,24,84.34,84.34,0,0,0,14.34,9,56.77,56.77,0,0,0,7.78,3,44.94,44.94,0,0,0,8.09,1.62,34.42,34.42,0,0,0,8.18-.12,19.77,19.77,0,0,0,2-.33,18.57,18.57,0,0,0,1.86-.41,6.52,6.52,0,0,0,3.68-3l1-1.9,2.11-3.82,4.23-7.63c5.67-10.16,11.45-20.26,17.47-30.25q2.25-3.75,4.63-7.45l1.21-1.85.62-.93a10,10,0,0,1,.81-1,10.57,10.57,0,0,1,2-1.73,9.88,9.88,0,0,1,1.13-.67l1-.49c5.13-2.63,10.17-5.45,15.08-8.47a153.21,153.21,0,0,0,14.2-9.77,63.68,63.68,0,0,0,12.1-11.88,20.55,20.55,0,0,0,3.59-7.24l.19-1c.06-.35.12-.77.21-1.17.21-.91.47-1.5.66-2.2.43-1.36.8-2.74,1.16-4.13a83,83,0,0,0,1.71-8.41,62.43,62.43,0,0,0,.76-8.51c.06-1.42,0-2.83-.07-4.25a41.67,41.67,0,0,0-.51-4.19,33.32,33.32,0,0,0-1-4.09c-.21-.66-.49-1.29-.73-2-.14-.33-.23-.61-.4-1a9.53,9.53,0,0,1-.41-1.17,9.76,9.76,0,0,1-.09-4.86c.34-1.43.69-2.85,1.07-4.26.75-2.83,1.6-5.63,2.53-8.41a104.45,104.45,0,0,1,6.84-16.19c.66-1.31,1.46-2.55,2.18-3.83l1.22-1.85c.4-.62.81-1.23,1.27-1.81a43.16,43.16,0,0,1,5.94-6.59,7.54,7.54,0,0,0,2.13-3.28,8,8,0,0,0,.39-1.95c0-.33,0-.66,0-1l0-1.09c-.14-2.92-.18-5.83-.17-8.75a167,167,0,0,1,1-17.46c1.33-11.56,3.9-23.16,9.29-33.57a56.07,56.07,0,0,1,4.69-7.41,43.65,43.65,0,0,1,6-6.38c.55-.48,1.14-.91,1.72-1.37a18.54,18.54,0,0,1,1.78-1.27,13.11,13.11,0,0,0,3.36-2.63,8.89,8.89,0,0,0,1.82-3.8l1.15-4.21a264.51,264.51,0,0,1,11.26-33,83.31,83.31,0,0,1,3.87-7.81c.69-1.28,1.52-2.48,2.33-3.69s1.81-2.28,2.76-3.38a170.62,170.62,0,0,1,12.25-12.4c4.28-3.93,8.72-7.7,13.27-11.31,2.25-1.84,4.65-3.49,6.86-5.37a8.68,8.68,0,0,0,2.41-8Z"/><path class="cls-3" d="M1203.06,1003.65c-16,4.11-24.67,8.33-28.41,10.45a6.43,6.43,0,0,1-4.86.6c-19.88-5.55-86.92-12.3-100.8-13.66a6.22,6.22,0,0,1-3.87-1.84c-15.33-16-84.94-27.85-84.94-27.85-43.5-10-90,13.17-94.63,15.57a4.93,4.93,0,0,1-.82.35c-17.08,5.83-21.82,13.6-23.11,17.83a6.23,6.23,0,0,1-4.59,4.14c-20.23,4.8-87.09,15.48-94.58,16.67a5.71,5.71,0,0,1-1.37.08c-29.32-1.75-64.86-52.88-69.73-60.1a5.86,5.86,0,0,1-.8-1.81c-5.21-19.46-44.09-65.87-48.5-71.1a5.34,5.34,0,0,1-.7-1.05c-17-32.14-140.66-59.35-149.88-61.34a5.94,5.94,0,0,1-1.06-.34c-18.72-7.71-72.07-5.36-96.85-3.76-5.71.37-8.84-6.28-4.8-10.19,35.23-34.08,157.7-66,171.82-69.6a6.38,6.38,0,0,1,2.68-.1C681,767,796.21,813.49,804,816.64a7.69,7.69,0,0,0,.85.28c298.73,74.63,239.85,59,298.79,74.65,49.36,13.1,91.07,81.53,103.36,103.49A5.92,5.92,0,0,1,1203.06,1003.65Z"/><path d="M1203.06,1003.65c-4.62,1.2-9.22,2.54-13.73,4.12a98.16,98.16,0,0,0-13.21,5.56,13.07,13.07,0,0,1-3.25,1.48,6.94,6.94,0,0,1-3.56-.2l-3.48-.86c-1.16-.26-2.34-.49-3.51-.73-4.68-.95-9.4-1.71-14.13-2.46-18.9-2.88-37.91-5.06-56.92-7.13L1077,1002l-7.14-.71a12.35,12.35,0,0,1-1.79-.23,6.48,6.48,0,0,1-1.69-.67,6.37,6.37,0,0,1-1.44-1.13l-1.3-1.21a52.8,52.8,0,0,0-12.28-7.23c-4.37-1.94-8.85-3.6-13.38-5.12-9.06-3-18.3-5.49-27.6-7.71s-18.66-4.16-28.06-5.86c-18.67-4.4-38.16-3.21-56.68,1.14a184.88,184.88,0,0,0-27.22,8.67q-3.31,1.33-6.57,2.81-1.64.74-3.24,1.5L887,987c-.55.26-1,.54-1.65.8a64,64,0,0,0-12.86,6,33.43,33.43,0,0,0-5.46,4.35,19.2,19.2,0,0,0-4,5.56c-.22.52-.43,1-.6,1.58a6.69,6.69,0,0,1-.86,1.84,7.23,7.23,0,0,1-3.1,2.56,9.08,9.08,0,0,1-1.86.56l-1.75.4c-1.18.27-2.35.54-3.52.77-9.38,2-18.79,3.71-28.2,5.42q-28.24,5.07-56.57,9.69l-3.54.58a8.29,8.29,0,0,1-2.06.16l-1.86-.19-.93-.11c-.31,0-.61-.11-.92-.17l-1.83-.37c-1.19-.32-2.39-.66-3.55-1.05a60.24,60.24,0,0,1-13-6.63,134.22,134.22,0,0,1-22-18.81A255.41,255.41,0,0,1,698.11,978c-1.47-1.91-2.9-3.84-4.32-5.78l-2.1-2.94-1-1.48a16.86,16.86,0,0,1-1.09-1.67,7.37,7.37,0,0,1-.45-1l-.29-.94c-.18-.53-.32-1.07-.52-1.61l-.61-1.61c-.22-.53-.46-1.06-.69-1.59-1-2.12-2-4.21-3.17-6.27a239.73,239.73,0,0,0-15.64-23.77c-5.61-7.69-11.47-15.22-17.46-22.64q-4.5-5.57-9.1-11l-1.16-1.38a12.23,12.23,0,0,1-1.17-1.81,21.77,21.77,0,0,0-1.84-2.73,36.68,36.68,0,0,0-4.67-4.92,77.63,77.63,0,0,0-11.33-8.12c-4-2.44-8.2-4.63-12.45-6.7-8.52-4.13-17.34-7.69-26.26-11s-18-6.29-27.08-9.09c-18.22-5.6-36.68-10.44-55.25-14.79l-7-1.59-1.74-.38c-.31-.07-.54-.11-.91-.21l-1.19-.37-3.21-1.09a11.35,11.35,0,0,0-1.64-.45l-1.68-.4-1.67-.41-1.73-.29-3.44-.59-3.5-.44a270,270,0,0,0-28.37-1.53c-9.51-.08-19,.12-28.56.49-4.76.2-9.53.41-14.29.69l-7.13.43-.45,0a4,4,0,0,1-.53,0c-.41,0-.81,0-1.22,0l-1.23-.21c-.4-.11-.8-.25-1.2-.39a8.57,8.57,0,0,1-3.87-3.14,8.36,8.36,0,0,1-1.46-4.8,8.2,8.2,0,0,1,1.63-4.81c.26-.32.54-.63.82-.93s.47-.45.71-.68l1.39-1.24c.92-.83,1.83-1.67,2.82-2.4l2.9-2.28,3-2.12c2-1.45,4.06-2.68,6.1-4a242.16,242.16,0,0,1,25.63-13.52,575.73,575.73,0,0,1,53.62-21c18.14-6.22,36.49-11.78,54.94-17q6.93-1.93,13.87-3.77l7-1.81c.62-.15,1-.3,1.93-.46a8.47,8.47,0,0,1,2.41,0c.44,0,.72.12,1,.17l.88.17,1.77.33c9.41,1.81,18.86,3.47,28.21,5.59,4.68,1,9.38,2,14.05,3l14,3.33c2.32.57,4.66,1.1,7,1.69l7,1.81,13.91,3.63c18.47,5.06,36.86,10.41,55.12,16.19s36.39,11.92,54.41,18.4c4.5,1.63,9,3.24,13.48,4.93s9,3.35,13.44,5.07,8.93,3.46,13.37,5.24l3.34,1.35.4.17.34.11.35.11.44.11,1.73.44,6.95,1.77q111.24,28.23,222.52,56.21c18.56,4.62,37.14,9.17,55.6,14.18l6.93,1.86c2.31.62,4.62,1.21,6.91,1.94,1.15.34,2.3.69,3.41,1.14s2.25.83,3.36,1.27c2.19,1,4.4,1.89,6.51,3s4.21,2.27,6.29,3.46c1,.61,2,1.27,3,1.91l1.52,1,1.47,1c4,2.65,7.73,5.65,11.43,8.68a205.31,205.31,0,0,1,20.5,20.05c6.4,7.11,12.37,14.6,18,22.29s11,15.64,16.08,23.76q3.8,6.07,7.36,12.31c.59,1,1.18,2.07,1.76,3.12a5.68,5.68,0,0,1,.61,3.48,6,6,0,0,1-1.52,3.19A6.5,6.5,0,0,1,1203.06,1003.65Zm0,0a6.44,6.44,0,0,0,3-1.81,6,6,0,0,0,1.51-3.18,5.72,5.72,0,0,0-.62-3.47c-.57-1.05-1.17-2.09-1.76-3.12q-3.59-6.23-7.39-12.3-7.59-12.16-16.1-23.73c-5.7-7.67-11.68-15.15-18.09-22.25a206,206,0,0,0-20.51-20,124.23,124.23,0,0,0-23.76-15.92c-2.1-1.12-4.32-2-6.5-3-1.11-.43-2.24-.83-3.35-1.25s-2.26-.78-3.4-1.11c-2.28-.71-4.6-1.3-6.91-1.91l-6.94-1.82c-18.48-4.92-37.07-9.38-55.66-13.91q-111.51-27.06-223-54.45l-7-1.71-1.74-.43a12.06,12.06,0,0,1-1.88-.6l-3.33-1.31q-6.66-2.62-13.38-5.12t-13.44-5c-4.48-1.65-9-3.23-13.5-4.81q-27-9.5-54.44-17.92c-18.26-5.62-36.64-10.81-55.1-15.7L636,764.37l-6.95-1.74c-2.31-.58-4.65-1.08-7-1.63l-14-3.22c-4.65-1-9.33-2-14-3-9.32-2.06-18.72-3.67-28.1-5.43l-3.4-.61a3.76,3.76,0,0,0-1.16,0c-.29,0-1,.25-1.55.38L553,751q-6.9,1.86-13.79,3.82-27.54,7.85-54.63,17.09a566.51,566.51,0,0,0-53.12,21,237.88,237.88,0,0,0-25.08,13.27c-2,1.29-4,2.49-5.87,3.88l-2.86,2L395,814.21c-.94.7-1.78,1.49-2.63,2.26L391,817.62c-.19.18-.48.41-.59.55s-.24.27-.36.41a3.27,3.27,0,0,0,0,3.84,3.55,3.55,0,0,0,1.61,1.31l.5.17a4.68,4.68,0,0,1,.54.09h.57a2.52,2.52,0,0,0,.37,0l.45,0,7.18-.42c4.79-.26,9.58-.47,14.37-.66,9.59-.36,19.19-.55,28.8-.45a272.2,272.2,0,0,1,28.9,1.62l3.62.45,3.62.63,1.81.31,1.81.44,1.81.43a14.8,14.8,0,0,1,1.81.51l3.58,1.22a4.51,4.51,0,0,1,.52.17c.2.06.57.12.84.19l1.76.39,7,1.61q28,6.57,55.52,15.1c9.15,2.87,18.26,5.93,27.26,9.3s17.92,7,26.6,11.29c4.33,2.14,8.62,4.41,12.76,6.95a81.43,81.43,0,0,1,11.88,8.67,41.51,41.51,0,0,1,5.15,5.51,26.63,26.63,0,0,1,2.13,3.24,9.42,9.42,0,0,0,.74,1.21L644.7,893c3.07,3.7,6.08,7.42,9.07,11.18,6,7.51,11.79,15.13,17.39,22.93a244.45,244.45,0,0,1,15.68,24.26c1.16,2.13,2.26,4.3,3.24,6.56.24.57.5,1.13.72,1.7l.65,1.75c.21.59.38,1.21.57,1.81l.23.77a3.27,3.27,0,0,0,.25.6,15.86,15.86,0,0,0,.87,1.34l1,1.46,2,2.91c1.39,1.94,2.79,3.86,4.22,5.75A250.06,250.06,0,0,0,719,997.87a130.47,130.47,0,0,0,21.37,18.59,58.24,58.24,0,0,0,12.4,6.44c1.09.38,2.21.7,3.31,1a32.87,32.87,0,0,0,3.38.62l1.7.2a6.4,6.4,0,0,0,1.51-.12l3.54-.55c18.89-3,37.77-6,56.62-9.24,9.41-1.63,18.83-3.28,28.18-5.17,1.18-.23,2.34-.48,3.5-.74l1.74-.38a7.7,7.7,0,0,0,1.57-.45,5.57,5.57,0,0,0,2.38-1.93,5.09,5.09,0,0,0,.66-1.39,15.82,15.82,0,0,1,.69-1.77,20.88,20.88,0,0,1,4.36-6,35.25,35.25,0,0,1,5.77-4.52,65.51,65.51,0,0,1,13.14-6c.47-.17,1.05-.51,1.58-.75l1.62-.78c1.09-.52,2.18-1,3.28-1.5q3.3-1.45,6.64-2.78a187.25,187.25,0,0,1,27.47-8.5,144.9,144.9,0,0,1,28.51-3.65,118.88,118.88,0,0,1,14.37.53l3.57.43,3.56.57c2.37.42,4.68,1,7,1.37q14.12,2.61,28.07,6c9.3,2.26,18.54,4.77,27.61,7.85,4.53,1.55,9,3.23,13.38,5.2a53,53,0,0,1,12.32,7.34l1.32,1.23a6,6,0,0,0,1.37,1.09,6.18,6.18,0,0,0,1.62.65,11.3,11.3,0,0,0,1.76.24l7.13.73,14.27,1.52c19,2.09,38,4.31,56.92,7.21,4.72.76,9.44,1.53,14.13,2.49,1.17.25,2.34.47,3.51.74l3.48.86a6.91,6.91,0,0,0,3.52.21,12.53,12.53,0,0,0,3.25-1.48,100.05,100.05,0,0,1,13.22-5.54C1193.84,1006.18,1198.44,1004.85,1203.06,1003.65Z"/><path class="cls-4" d="M734.54,148.4a9.75,9.75,0,0,1,9.94-4.85c26.42,4.06,83.86,33.35,91.3,43,8.18,10.66,75.33,55.74,86,60.65s47.49,39.34,55.68,41.8,102.35,63.11,111.36,68.84c8.62,5.5,78,60.57,83.94,65.25a10.08,10.08,0,0,0,.82.59c24.08,15.15,74.93,73.7,78.77,78.14.16.18.31.35.48.52,12.08,12,79.17,71.42,86.45,77.86a9.7,9.7,0,0,0,1.38,1c11.46,7,37.6,31.89,51.43,45.37a9.73,9.73,0,0,1-2.56,15.73c-33.06,16-122.84,47.65-129,49.81-.22.08-.44.14-.67.2-29.81,7.87-103.86,80.26-108.6,84.92-.16.16-.33.3-.5.45-30.76,25.57-35.87,95.11-36.7,114.06a9.5,9.5,0,0,1-3.72,7.21c-6.21,4.68-10.91,11-13.81,15.66a9.7,9.7,0,0,1-9.87,4.41c-20.7-3.64-65.55-2.78-65.55-2.78-3.28-1.09,7.64,6.56-3.28-1.09-10-7-33-3.91-36.63-3.36-.31.05-.62.11-.93.19-17.82,4.58-65.06,23.93-65.06,23.93-11.63,3.88-43.9-11.18-51-14.62a9.2,9.2,0,0,0-3-.88c-17.69-1.82-37.5,7.38-45.25,11.45a9.74,9.74,0,0,1-7.2.71,95.49,95.49,0,0,0-13-3,9.68,9.68,0,0,1-7.38-5.48c-4.7-10.1-10.79-20.59-12.49-23.48a9.11,9.11,0,0,0-1-1.43c-18.74-21.21-84.32-56.93-88.72-59.32-.16-.08-.31-.17-.47-.27-20.11-12.58-82.53-35-87.84-36.88-.24-.09-.47-.16-.72-.23-24.12-6.52-69.51-13-69.51-13-22.27-2.79-48.48,3.11-55.85,4.94a9.76,9.76,0,0,1-3.88.2c-30.81-4.79-57,15.38-61.76,19.33a9.86,9.86,0,0,1-1.82,1.16c-5.46,2.78-9.1,7.56-11.15,10.93a9.7,9.7,0,0,1-6.44,4.53c-20.41,4-51.83,21.73-60.11,26.54a9.62,9.62,0,0,1-4.49,1.31l-2,.08a9.76,9.76,0,0,1-8.55-15.11C327,820,347.49,779.67,347.49,779.67c8.57-17.87,9.2-23.82,8.61-25.79a9.72,9.72,0,0,1-.19-4.73l29.59-143.4a9.75,9.75,0,0,1,3.71-5.85c32.77-24.46,245-186.52,268.43-204.38a9.53,9.53,0,0,0,3-3.88c8.4-19.75,53.92-103.75,60.52-115.9a9.14,9.14,0,0,1,1.8-2.34C746,252,735.86,171.82,733.37,154.6a9.78,9.78,0,0,1,1.17-6.2Z"/><path d="M734.54,148.4a9.9,9.9,0,0,1,3.69-3.69,9.63,9.63,0,0,1,5.06-1.27,65.34,65.34,0,0,1,10.33,2.14c3.4.92,6.75,2,10.07,3.16s6.62,2.4,9.89,3.7a366.29,366.29,0,0,1,38.22,17.95,182.93,182.93,0,0,1,18,11,48.48,48.48,0,0,1,4.15,3.27c1.37,1.14,2.31,2.67,3.6,3.86a100.64,100.64,0,0,0,8,6.91c5.51,4.39,11.17,8.58,16.88,12.69s11.47,8.16,17.28,12.15c11.62,7.94,23.32,15.78,35.34,23.11,1.51.91,3,1.8,4.57,2.65s3.16,1.53,4.65,2.49c3,1.87,5.82,4,8.61,6.13,5.58,4.3,11,8.79,16.46,13.25s10.87,8.95,16.43,13.26c2.79,2.14,5.6,4.27,8.57,6.12a25.47,25.47,0,0,0,2.3,1.24c.76.31,1.67.59,2.45,1,1.6.76,3.14,1.62,4.68,2.47,6.14,3.45,12.17,7.1,18.19,10.76s12,7.36,18,11.09q17.92,11.16,35.75,22.49l17.82,11.34,8.91,5.67,4.45,2.84,2.23,1.42,2.19,1.51c5.72,4.14,11.3,8.43,16.89,12.71l16.7,12.93,33.27,26,8.3,6.54,4.14,3.27,2.08,1.63c.35.29.68.53,1,.76l1.08.74c6,3.88,11.29,8.56,16.59,13.21,10.49,9.46,20.41,19.48,30.14,29.68s19.21,20.62,28.53,31.19l1.75,2c.57.64,1.18,1.38,1.71,1.92,1.27,1.2,2.51,2.43,3.8,3.62,2.57,2.4,5.16,4.77,7.76,7.15l15.67,14.14,31.54,28.1,15.81,14,7.92,7,4,3.5c.67.5,1.16.88,2,1.4s1.54,1,2.25,1.5c5.83,4.14,11.18,8.74,16.51,13.38s10.51,9.42,15.67,14.23,10.26,9.67,15.32,14.57l1,.92c.16.16.31.29.48.47l.51.56a10.64,10.64,0,0,1,1.68,2.5,10.8,10.8,0,0,1,1.06,5.89,10.9,10.9,0,0,1-4.22,7.76,8.7,8.7,0,0,1-1.26.85l-.66.37c-.21.12-.4.2-.6.3-12.8,6.08-25.87,11.36-39,16.58s-26.27,10.21-39.47,15.14-26.43,9.76-39.69,14.52l-10,3.56c-.36.14-1,.32-1.39.45l-1.19.38a21.61,21.61,0,0,0-2.37.84c-.78.32-1.57.62-2.35,1l-2.32,1.11a145.9,145.9,0,0,0-17.75,10.89c-11.44,8-22.34,16.91-33,26s-21.11,18.55-31.37,28.15q-7.69,7.2-15.25,14.54l-1.91,1.86-2,1.81a50.37,50.37,0,0,0-3.59,3.57,66.46,66.46,0,0,0-6.2,8.12,100.74,100.74,0,0,0-9.34,18.41,165.5,165.5,0,0,0-6.41,19.83,281.15,281.15,0,0,0-7.22,41.23c-.36,3.48-.68,7-.94,10.45l-.34,5.23-.14,2.62c0,.89,0,1.66-.18,2.83a12,12,0,0,1-2.56,5.94,11.73,11.73,0,0,1-1.13,1.21c-.39.37-.9.74-1.17,1-.66.51-1.3,1-1.93,1.59a53.14,53.14,0,0,0-6.89,7.39c-1,1.34-2,2.72-3,4.14l-.7,1.07-.34.54-.45.66a12.11,12.11,0,0,1-8.19,5,11.63,11.63,0,0,1-3.28,0L1084,921c-6.81-1-13.81-1.45-20.79-1.81-14-.65-28-.75-42.06-.55h-.49l-.33-.13h.06c-.78,1.59,3.72-2.27,2.3-3.21-.19-.37-.17-.26-.14-.26l.16.18c.29.28.68.62,1.08,1l.31.27c-.71,1.93,2-3.9-1.36,4.53-2.5-.75-1-.41-1.63-.62l-.36-.25-1.35-.94-2.67-1.86c-.46-.34-.82-.49-1.23-.75a7.71,7.71,0,0,0-1.24-.67,35.55,35.55,0,0,0-11.77-2.65,88.91,88.91,0,0,0-12.64.05c-2.12.15-4.24.35-6.34.62l-1.57.21a10.79,10.79,0,0,0-1.33.27l-3.06.86c-8.18,2.47-16.33,5.43-24.43,8.44s-16.18,6.16-24.23,9.36l-12.06,4.84c-.25.1-.54.23-.84.33l-1,.29a18.21,18.21,0,0,1-1.92.35,24.68,24.68,0,0,1-3.63.1,45.69,45.69,0,0,1-6.83-.86,104.93,104.93,0,0,1-12.85-3.55c-4.18-1.41-8.28-3-12.33-4.65s-8-3.44-12-5.3l-1.48-.71-.74-.36-.58-.25a6.65,6.65,0,0,0-1.13-.34c-.19,0-.35-.06-.57-.08l-.76,0a48.82,48.82,0,0,0-6.17-.09,80.25,80.25,0,0,0-24.48,5.7,121,121,0,0,0-11.63,5.21l-.7.37c-.28.14-.61.3-.92.43a12.24,12.24,0,0,1-1.94.64,12.55,12.55,0,0,1-4,.26,12.17,12.17,0,0,1-2-.38l-1.58-.45c-1-.29-2-.56-3.08-.83-2.06-.52-4.13-1-6.18-1.37l-1.54-.26-.38-.05L795,932c-.33-.05-.66-.14-1-.22a12.09,12.09,0,0,1-3.69-1.72,12.41,12.41,0,0,1-2.91-2.83,11.93,11.93,0,0,1-1-1.75l-.72-1.5q-1.38-2.91-2.85-5.77-2.94-5.74-6.13-11.37L775,904l-.8-1.39-.41-.7a5.19,5.19,0,0,0-.34-.52,5.55,5.55,0,0,0-.35-.46c-.12-.14-.35-.36-.52-.54l-1.09-1.12L769.33,897a185.55,185.55,0,0,0-20.12-15.9c-3.51-2.5-7.12-4.87-10.7-7.28s-7.24-4.7-10.92-7c-7.32-4.59-14.75-9.05-22.23-13.39-3.74-2.18-7.5-4.32-11.26-6.45l-5.67-3.17-2.83-1.56-.75-.42-.78-.46-1.37-.79a236.5,236.5,0,0,0-23.11-11.29c-15.84-6.9-32-13.17-48.23-19.25l-12.19-4.49c-1-.36-2.07-.78-2.9-1l-3.11-.8c-2.08-.55-4.19-1-6.28-1.51-8.41-1.91-16.91-3.55-25.42-5.09s-17.06-3-25.62-4.3l-6.42-1-1.6-.23c-.51-.09-1-.13-1.56-.18l-3.15-.32c-4.24-.3-8.5-.35-12.78-.24a183.53,183.53,0,0,0-25.55,2.82c-4.24.75-8.43,1.62-12.63,2.65a12,12,0,0,1-3.88.28l-3.26-.37c-1.05-.1-2.09-.25-3.13-.33l-3.16,0a53.08,53.08,0,0,0-6.3.24,30.52,30.52,0,0,0-3.14.37l-3.13.46a81.08,81.08,0,0,0-12.22,3.39c-2,.66-3.95,1.57-5.92,2.36s-3.86,1.78-5.72,2.81a96.17,96.17,0,0,0-10.88,6.69c-.86.61-1.72,1.24-2.56,1.89-.42.31-.83.65-1.24,1l-.31.24-.39.31c-.27.2-.55.38-.82.55l-.81.45-.68.36c-.45.23-.86.51-1.29.76a24.87,24.87,0,0,0-2.42,1.8,29,29,0,0,0-4.19,4.45c-.62.82-1.21,1.67-1.76,2.54a18,18,0,0,1-1,1.5,12.34,12.34,0,0,1-1.3,1.41,11.71,11.71,0,0,1-3.2,2.09,11.91,11.91,0,0,1-1.83.61l-1.64.37c-1,.24-2.06.45-3.09.72l-3.07.87c-4.07,1.26-8.12,2.67-12.1,4.31-8,3.2-15.78,7-23.47,10.88q-5.76,3-11.42,6.12c-1.92,1-3.73,2.09-5.69,3.21a11.26,11.26,0,0,1-3.57,1.21,13.49,13.49,0,0,1-1.81.15l-1.64.06a11.44,11.44,0,0,1-7.08-2.2,11.61,11.61,0,0,1-4.19-6.09,11.18,11.18,0,0,1,.48-7.39,13.11,13.11,0,0,1,.87-1.66c.31-.51.59-.92.89-1.38l1.76-2.72c4.66-7.27,9-14.75,13.31-22.27s8.44-15.13,12.53-22.78c2-3.82,4.06-7.65,6.05-11.5l1.48-2.87,1.39-2.91c.91-2,1.8-3.92,2.65-5.89a78.17,78.17,0,0,0,4.28-12,15.9,15.9,0,0,0,.46-3,4.75,4.75,0,0,0-.1-1.21,11.4,11.4,0,0,1-.37-1.81,11.1,11.1,0,0,1,.18-3.64l.67-3.19,5.32-25.47L382,618.21l2.67-12.75a10.66,10.66,0,0,1,3.63-6l5.22-4,20.75-15.72,41.49-31.43,83-62.87,82.94-62.94,20.74-15.73L652.76,399c1.72-1.32,3.48-2.62,5.17-3.94a9.41,9.41,0,0,0,2-2.45c.51-.92.9-1.94,1.37-2.92,3.6-7.91,7.58-15.62,11.52-23.35s8-15.4,12-23.07q12.14-23,24.51-45.93l6.18-11.46,3.1-5.72,1.55-2.86a25.5,25.5,0,0,1,1.65-2.81,53.3,53.3,0,0,0,4.28-4.89,23.43,23.43,0,0,0,1.78-2.71,27.07,27.07,0,0,0,1.54-2.86,65.15,65.15,0,0,0,4.31-12.24A144,144,0,0,0,737.34,226c.47-8.66.47-17.35.15-26s-.94-17.33-1.79-26q-.63-6.48-1.45-12.93l-.87-6.45A9.8,9.8,0,0,1,734.54,148.4Zm0,0a9.8,9.8,0,0,0-1.15,6.28l.87,6.45q.82,6.45,1.47,12.93c.85,8.63,1.49,17.29,1.81,26s.34,17.36-.12,26a144.33,144.33,0,0,1-3.52,25.77,64.89,64.89,0,0,1-4.31,12.26,26.31,26.31,0,0,1-1.53,2.87,22.5,22.5,0,0,1-1.79,2.73,54,54,0,0,1-4.27,4.89,23.58,23.58,0,0,0-1.64,2.8l-1.55,2.86-3.09,5.72-6.17,11.46q-12.33,22.94-24.46,46-6.08,11.52-12,23.11c-3.92,7.74-7.87,15.47-11.45,23.36-.46,1-.84,2-1.38,3a9.69,9.69,0,0,1-2.1,2.54c-1.72,1.36-3.45,2.65-5.17,4l-10.34,7.9L622,423l-82.74,63.21-82.68,63.27L415.2,581.12l-20.67,15.82-5.13,3.94a8.88,8.88,0,0,0-3,5l-2.6,12.75L363,720.61l-5.2,25.5-.65,3.19a8.44,8.44,0,0,0-.13,2.83,8,8,0,0,0,.28,1.38,6.65,6.65,0,0,1,.22,2A18.85,18.85,0,0,1,357,759a82.4,82.4,0,0,1-4.36,12.5c-.87,2-1.75,4-2.67,6l-1.4,3-1.48,2.91q-3,5.8-6,11.56-6.08,11.52-12.44,22.91c-4.27,7.57-8.62,15.1-13.28,22.47L313.62,843c-.29.45-.62.94-.86,1.36a8.29,8.29,0,0,0-.63,1.22,8,8,0,0,0-.32,5.34,8.45,8.45,0,0,0,3.07,4.43A8.32,8.32,0,0,0,320,857l1.61-.07a11.44,11.44,0,0,0,1.43-.12,8.18,8.18,0,0,0,2.56-.88c1.8-1,3.75-2.17,5.63-3.22q5.7-3.2,11.49-6.23c7.74-4,15.58-7.83,23.69-11.12,4-1.69,8.18-3.16,12.39-4.48l3.18-.92c1.07-.29,2.17-.51,3.25-.77l1.53-.36a8.14,8.14,0,0,0,1.26-.43,8,8,0,0,0,2.21-1.45,8.38,8.38,0,0,0,.89-1,11.54,11.54,0,0,0,.8-1.21c.6-1,1.25-1.9,1.93-2.81a31.93,31.93,0,0,1,4.7-5,29.05,29.05,0,0,1,2.79-2.1c.5-.3,1-.63,1.51-.9l.75-.4.6-.34c.19-.12.37-.24.54-.37l.57-.45c.43-.35.86-.71,1.3-1,.88-.69,1.77-1.34,2.67-2a99.51,99.51,0,0,1,11.25-7c1.93-1.08,4-2,5.94-3s4-1.79,6.15-2.49a84.38,84.38,0,0,1,12.82-3.61l3.3-.51a30.71,30.71,0,0,1,3.32-.41,57.49,57.49,0,0,1,6.69-.29l3.35,0c1.12.08,2.23.23,3.34.34l3.2.34a7.8,7.8,0,0,0,2.58-.21c4.23-1,8.54-2,12.84-2.75a187.15,187.15,0,0,1,26.13-3,130.07,130.07,0,0,1,13.24.2l3.33.32c.55.06,1.1.1,1.67.19l1.61.23,6.45,1q12.88,2,25.74,4.23c8.56,1.53,17.11,3.15,25.63,5.06,2.13.5,4.26,1,6.38,1.51l3.19.82c1.27.34,2.23.74,3.26,1.09l12.25,4.47c16.29,6,32.51,12.3,48.51,19.21a239.58,239.58,0,0,1,23.67,11.48l1.44.84.63.36c.15.1.46.25.68.37l2.86,1.57,5.71,3.17q5.68,3.2,11.33,6.47,11.29,6.54,22.38,13.45c3.7,2.28,7.35,4.67,11,7s7.28,4.82,10.83,7.36a188.94,188.94,0,0,1,20.71,16.33l2.36,2.41,1.18,1.21c.2.22.37.37.6.64s.44.55.64.83a9.88,9.88,0,0,1,.54.84l.42.71.82,1.42,1.63,2.84q3.23,5.72,6.23,11.54,1.5,2.93,2.92,5.9l.68,1.43a8.34,8.34,0,0,0,.63,1,7.31,7.31,0,0,0,1.73,1.69,7.18,7.18,0,0,0,2.19,1c.19,0,.39.1.59.13l.3,0,.42.06,1.68.28c2.22.4,4.38.89,6.52,1.44,1.08.27,2.14.56,3.2.86l1.56.44a8,8,0,0,0,1.19.22,7.22,7.22,0,0,0,2.41-.16,7.7,7.7,0,0,0,1.15-.37c.19-.08.35-.17.55-.27l.74-.38a125.06,125.06,0,0,1,12.11-5.44,85,85,0,0,1,26-6.06,53.72,53.72,0,0,1,6.83.1l.86.06a10,10,0,0,1,1,.15,12,12,0,0,1,2,.59c.31.12.63.27.91.4l.72.35,1.46.69c3.89,1.82,7.83,3.56,11.79,5.2s8,3.18,12,4.55a100.54,100.54,0,0,0,12.22,3.39,40.23,40.23,0,0,0,6.06.78,20.88,20.88,0,0,0,2.87-.07,12.89,12.89,0,0,0,1.28-.23l.55-.13.66-.27,12.1-4.85c8.09-3.19,16.19-6.34,24.34-9.37s16.34-6,24.77-8.53l3.21-.89a14.56,14.56,0,0,1,1.86-.37l1.66-.23c2.2-.28,4.4-.48,6.61-.64a94.53,94.53,0,0,1,13.36,0,40.14,40.14,0,0,1,13.47,3.12,11,11,0,0,1,1.62.87c.51.32,1.13.65,1.55,1l2.66,1.86,1.32.92.31.21c-.4-.07,1.31.44-.94-.19-3.52,8.23-1,2.23-1.93,4l-.3-.27c-.43-.36-.86-.73-1.34-1.21a5.63,5.63,0,0,1-.39-.42,3.85,3.85,0,0,1-.61-.91c-1.64-1.25,3.26-5.29,2.74-3.6a5.29,5.29,0,0,1,.83.2l-.81-.12c14.15-.19,28.25-.07,42.4.6,7.07.37,14.15.84,21.27,1.9l2.58.4a7.26,7.26,0,0,0,5.6-1.55,7.53,7.53,0,0,0,1.37-1.45l.3-.43.37-.58.74-1.14c1-1.5,2.08-3,3.2-4.41a57.47,57.47,0,0,1,7.52-8c.7-.61,1.42-1.2,2.16-1.76.41-.33.62-.48.87-.71a6.64,6.64,0,0,0,.68-.72,7.39,7.39,0,0,0,1.57-3.63c.08-.57.1-1.56.15-2.43l.15-2.66.36-5.3q.4-5.31,1-10.59a284.24,284.24,0,0,1,7.47-41.88,168.51,168.51,0,0,1,6.63-20.32,105.24,105.24,0,0,1,9.8-19.16,71.41,71.41,0,0,1,6.63-8.63c1.29-1.31,2.49-2.68,3.9-3.86l1.93-1.73,1.88-1.82q7.61-7.37,15.37-14.55,15.52-14.38,31.65-28.11c10.79-9.1,21.8-18,33.45-26.07a147.48,147.48,0,0,1,18.28-11.09l2.45-1.16c.83-.37,1.69-.69,2.53-1a24.33,24.33,0,0,1,2.61-.91l1.32-.41c.43-.14.66-.19,1.13-.36l10-3.5q19.9-7,39.72-14.32c13.2-4.86,26.38-9.8,39.48-14.92s26.17-10.36,38.84-16.3l.58-.28.49-.28a6.36,6.36,0,0,0,.94-.62,8.76,8.76,0,0,0,1.57-1.59,8.38,8.38,0,0,0,1.58-4.15,8,8,0,0,0-.77-4.37,7.74,7.74,0,0,0-1.24-1.86l-.38-.43c-.13-.14-.31-.3-.46-.45l-.94-.92q-7.54-7.38-15.22-14.62T1359,597.43c-5.27-4.63-10.59-9.24-16.23-13.29-.69-.53-1.43-.95-2.14-1.44s-1.58-1.09-2.3-1.66l-4-3.51-7.88-7-15.75-14.08-31.4-28.25-15.62-14.24c-2.59-2.39-5.18-4.78-7.74-7.2-1.29-1.2-2.55-2.46-3.83-3.68-.7-.73-1.19-1.35-1.79-2l-1.73-2q-13.87-15.9-28.34-31.28c-9.66-10.22-19.51-20.28-29.9-29.74-5.24-4.65-10.51-9.34-16.35-13.15l-1.09-.77a12.59,12.59,0,0,1-1.1-.82l-2.07-1.64-4.13-3.29-8.26-6.58-33.13-26.2-16.64-13c-5.56-4.31-11.13-8.64-16.8-12.78l-2.15-1.5-2.22-1.43L1082,354l-8.88-5.71-17.79-11.38q-17.79-11.37-35.68-22.6-9-5.61-17.94-11.14c-6-3.68-12-7.34-18.14-10.8-1.54-.86-3.07-1.72-4.65-2.47-.79-.41-1.57-.65-2.44-1s-1.58-.82-2.34-1.28c-3-1.88-5.8-4-8.59-6.17-5.56-4.33-11-8.84-16.4-13.31s-10.85-9-16.41-13.3c-2.79-2.14-5.6-4.27-8.57-6.14-1.47-.95-3.1-1.62-4.64-2.5s-3.06-1.75-4.57-2.66c-12-7.35-23.72-15.19-35.33-23.15-5.8-4-11.56-8-17.27-12.17S851,199.9,845.48,195.5a100.9,100.9,0,0,1-8-6.93c-1.3-1.2-2.24-2.73-3.6-3.86a46.58,46.58,0,0,0-4.13-3.26,182.72,182.72,0,0,0-18-11,364.09,364.09,0,0,0-38.19-18c-3.27-1.3-6.56-2.55-9.89-3.71s-6.67-2.25-10.07-3.17a66.15,66.15,0,0,0-10.32-2.15,9.64,9.64,0,0,0-5.06,1.26A10,10,0,0,0,734.54,148.4Z"/></svg>