<svg xmlns="http://www.w3.org/2000/svg" xmlns:xlink="http://www.w3.org/1999/xlink" viewBox="0 0 1408.5 1109.25"><defs><style>.cls-1,.cls-2,.cls-3{stroke:#000;stroke-miterlimit:10;stroke-width:5px;}.cls-1{fill:url(#linear-gradient);}.cls-2{fill:none;}.cls-3{fill:url(#linear-gradient-2);}</style><linearGradient id="linear-gradient" x1="303.96" y1="354.45" x2="1174.33" y2="905.98" gradientUnits="userSpaceOnUse"><stop offset="0" stop-color="#1e1eba"/><stop offset="0.06" stop-color="#2421b5"/><stop offset="0.13" stop-color="#352ba6"/><stop offset="0.21" stop-color="#503b8e"/><stop offset="0.3" stop-color="#76516d"/><stop offset="0.35" stop-color="#8c5d5a"/><stop offset="0.4" stop-color="#6d467e"/><stop offset="0.49" stop-color="#3c20b7"/><stop offset="0.56" stop-color="#1d09db"/><stop offset="0.59" stop-color="#1100e9"/><stop offset="0.64" stop-color="#2115df"/><stop offset="0.7" stop-color="#3530d2"/><stop offset="0.76" stop-color="#4240cb"/><stop offset="0.8" stop-color="#4646c8"/><stop offset="1" stop-color="#464646"/></linearGradient><linearGradient id="linear-gradient-2" x1="588.3" y1="780.02" x2="755.04" y2="885.68" xlink:href="#linear-gradient"/></defs><g id="Layer_3" data-name="Layer 3"><path class="cls-1" d="M970.31,297c-75.93-43.88-155.25-140.06-237.93-143.44S140.06,531.56,128.25,621,229.5,813.38,259.88,818.44c24.11,4,132.29-27.57,163.62-36.5,5.11-1.46,8.17-2.32,8.5-2.32,30.38,0,148.5,18.57,167.06,37.13s54,140.06,108,163.69,142.88-31.88,163.69-38.82c30.37-10.12,101.25-16.87,126.56-3.37s108,43.87,131.63,35.44,108-109.69,111.37-150.19,113.07-189,69.19-229.5-113.06-135-167.06-173.81S970.31,297,970.31,297Z"/><path class="cls-2" d="M513.84,689.34C496.12,726.47,432,779.62,432,779.62"/><path class="cls-3" d="M571.22,803.41c53.16,12.65,202.5,59.9,202.5,59.9"/><path class="cls-2" d="M1309.5,594c-27,58.5-114.75,96.75-114.75,96.75"/><path class="cls-2" d="M722.22,154.25c29.73,40.16-37.42,125-37.42,125"/></g></svg>