<svg xmlns="http://www.w3.org/2000/svg" xmlns:xlink="http://www.w3.org/1999/xlink" viewBox="0 0 1498.5 1100.25"><defs><style>.cls-1{fill:url(#linear-gradient);}.cls-2{fill:url(#linear-gradient-2);}.cls-3{fill:url(#linear-gradient-3);}.cls-4{fill:url(#linear-gradient-4);}</style><linearGradient id="linear-gradient" x1="304.8" y1="307.2" x2="1175.17" y2="858.73" gradientUnits="userSpaceOnUse"><stop offset="0" stop-color="#0a09ba"/><stop offset="0.05" stop-color="#100db9"/><stop offset="0.12" stop-color="#2118b8"/><stop offset="0.19" stop-color="#3c2ab5"/><stop offset="0.27" stop-color="#6242b1"/><stop offset="0.35" stop-color="#8c5dad"/><stop offset="0.4" stop-color="#6b47c0"/><stop offset="0.49" stop-color="#3221e2"/><stop offset="0.56" stop-color="#0e09f7"/><stop offset="0.59" stop-color="blue"/><stop offset="0.61" stop-color="#0506f9"/><stop offset="0.68" stop-color="#181ede"/><stop offset="0.75" stop-color="#242dce"/><stop offset="0.8" stop-color="#2832c8"/><stop offset="1" stop-color="#4646b7"/></linearGradient><linearGradient id="linear-gradient-2" x1="602.83" y1="192.03" x2="791.13" y2="192.03" gradientTransform="matrix(1.17, -0.12, 0.02, 1.01, -141.64, 88.34)" gradientUnits="userSpaceOnUse"><stop offset="0" stop-color="#9087ff"/><stop offset="1" stop-color="#fff"/></linearGradient><linearGradient id="linear-gradient-3" x1="172.43" y1="690.26" x2="312.37" y2="690.26" gradientTransform="matrix(0.84, 0.54, -0.67, 1.03, 509.51, -158.88)" xlink:href="#linear-gradient-2"/><linearGradient id="linear-gradient-4" x1="927.3" y1="453.31" x2="1067.24" y2="453.31" gradientTransform="matrix(0.78, -1.25, 1.04, 0.65, -89.16, 1765.18)" xlink:href="#linear-gradient-2"/></defs><g id="Layer_3" data-name="Layer 3"><path class="cls-1" d="M971.16,249.75c-75.94-43.87-155.25-140.06-237.94-143.44s-592.31,378-604.13,467.44S230.34,766.12,260.72,771.19c24.12,4,132.29-27.57,163.62-36.5,5.11-1.46,8.18-2.31,8.5-2.31,30.38,0,148.5,18.56,167.07,37.12s54,140.06,108,163.69,142.87-31.88,163.68-38.81C902,884.25,972.84,877.5,998.16,891s108,43.88,131.62,35.44,108-109.69,111.38-150.19,113.06-189,69.18-229.5-113.06-135-167.06-173.81S971.16,249.75,971.16,249.75Z"/><path d="M971,250c-7.16-4.18-14.17-8.64-21-13.31s-13.6-9.53-20.23-14.54c-13.29-10-26.22-20.38-39.21-30.71s-26-20.68-39.3-30.56q-10-7.46-20.25-14.44c-6.87-4.63-13.88-9.07-21-13.26s-14.47-8.07-22-11.49a183.35,183.35,0,0,0-23.14-8.83,140.77,140.77,0,0,0-24.18-4.95l-6.15-.44a29.79,29.79,0,0,0-6,.13,71.23,71.23,0,0,0-12,2.55,194,194,0,0,0-23.13,8.75c-7.56,3.35-15,7-22.36,10.78-14.71,7.6-29.13,15.79-43.37,24.27-28.48,17-56.26,35.12-83.75,53.68q-20.61,13.93-40.93,28.3t-40.45,29Q382.11,323.56,305.32,387c-25.49,21.21-50.64,42.85-75,65.32-12.19,11.24-24.2,22.67-35.88,34.42s-23.06,23.81-33.71,36.47c-5.33,6.32-10.46,12.81-15.21,19.55A117.85,117.85,0,0,0,133.17,564a50.07,50.07,0,0,0-2,5.73,35.23,35.23,0,0,0-1.08,5.93,97,97,0,0,0-.69,12.29,120.25,120.25,0,0,0,2.73,24.48c3.42,16.14,9.73,31.58,17.44,46.18A277,277,0,0,0,176.83,700a333.79,333.79,0,0,0,33.6,36.52c6,5.66,12.33,11.06,18.86,16.14a143.23,143.23,0,0,0,20.64,13.62,57.13,57.13,0,0,0,5.58,2.56,25.15,25.15,0,0,0,5.81,1.62,58.91,58.91,0,0,0,12.23-.14c8.21-.85,16.38-2.26,24.51-3.86,16.25-3.23,32.38-7.15,48.45-11.27s32.07-8.5,48.05-13l23.92-6.87c4-1.15,8-2.32,12-3.43l1.54-.41a3.72,3.72,0,0,1,1-.15h.79c1,0,2.1,0,3.14.07,2.09.07,4.17.2,6.25.34,16.61,1.23,33.09,3.46,49.52,6s32.77,5.6,49,9.23c8.12,1.82,16.2,3.8,24.22,6.09a182.37,182.37,0,0,1,23.7,8.27l2.87,1.37c1,.46,1.87,1,2.81,1.53a30.16,30.16,0,0,1,5.35,3.82,10.11,10.11,0,0,1,1.15,1.21l1.1,1.24,1.91,2.61c1.16,1.78,2.31,3.56,3.34,5.39,4.2,7.29,7.73,14.82,11.32,22.32,7.09,15,14,30.13,21.39,44.92a405.14,405.14,0,0,0,24.42,43.09,186.23,186.23,0,0,0,14.82,19.66A104.24,104.24,0,0,0,698,925.05l1.22.89,1.29.79,2.56,1.58a24.93,24.93,0,0,0,2.65,1.41l2.68,1.34c.91.43,1.87.73,2.8,1.1s1.86.74,2.81,1.06l2.9.83a28.92,28.92,0,0,0,2.91.76A89.15,89.15,0,0,0,744,936.63a147.76,147.76,0,0,0,24.24-3.46,231.46,231.46,0,0,0,23.71-6.71,428.82,428.82,0,0,0,45.73-19l22.44-10.8a100.09,100.09,0,0,1,11.76-4.93c4-1.3,8.11-2.37,12.2-3.33a313.46,313.46,0,0,1,49.67-6.92c8.35-.53,16.72-.72,25.11-.48A153.17,153.17,0,0,1,984,883.64a66,66,0,0,1,12.41,3.69c1,.44,2,.95,3,1.43l2.71,1.39q2.75,1.36,5.54,2.65c7.47,3.43,15.12,6.56,22.82,9.53,15.42,5.91,31.1,11.22,47,15.58,8,2.17,16,4.11,24,5.51,4,.7,8.07,1.28,12.09,1.57a51.86,51.86,0,0,0,11.78-.23l1.4-.23c.44-.11.86-.25,1.3-.37a14.06,14.06,0,0,0,2.5-1,39.56,39.56,0,0,0,5-3,108.39,108.39,0,0,0,9.44-7.61c6.1-5.44,11.9-11.3,17.53-17.32,11.24-12.06,21.83-24.77,31.86-37.89a409.16,409.16,0,0,0,27.8-40.89,192.14,192.14,0,0,0,11.17-21.85c.84-1.85,1.47-3.77,2.2-5.65.38-1,.62-1.91.93-2.87s.65-1.91.85-2.87l.67-2.89c.25-1,.3-1.92.46-2.88l.2-1.45.2-1.68c.16-1.1.36-2.19.6-3.25a90.27,90.27,0,0,1,3.82-12.24c1.5-3.94,3.15-7.8,4.86-11.61,3.42-7.64,7.1-15.11,10.84-22.54,7.47-14.86,15.23-29.53,22.67-44.34s14.65-29.71,21-45c3.19-7.61,6.15-15.31,8.72-23.13a162.25,162.25,0,0,0,6.06-23.78c1.33-8,1.84-16.23.3-24a31.94,31.94,0,0,0-4.21-10.88,20.63,20.63,0,0,0-1.67-2.37l-.91-1.13c-.32-.36-.67-.7-1-1.05l-1-1-1.13-1.09-2.24-2.18c-12-11.64-23.1-24-34.11-36.47-21.93-25-43.24-50.41-65.58-74.93-11.16-12.27-22.64-24.24-34.63-35.67l-4.53-4.24c-1.52-1.41-3-2.86-4.59-4.18-3.15-2.69-6.25-5.43-9.42-8.09l-9.81-7.6-10.09-7.29L1051.94,308Zm.27-.42,81.06,57.87,81.19,57.7,10.16,7.2,9.94,7.56c3.22,2.65,6.37,5.37,9.55,8.05,1.61,1.31,3.11,2.76,4.65,4.16l4.6,4.21c12.14,11.37,23.76,23.27,35,35.46,22.61,24.36,44.21,49.6,66.34,74.31,11.11,12.3,22.32,24.53,34.28,35.9l2.23,2.14c.74.7,1.49,1.41,2.29,2.22.38.4.78.78,1.16,1.19l1,1.28a24.48,24.48,0,0,1,1.94,2.69,35.68,35.68,0,0,1,4.84,12.16c1.75,8.54,1.23,17.19-.08,25.51a166.57,166.57,0,0,1-6,24.47c-2.56,8-5.49,15.81-8.66,23.52-6.36,15.44-13.54,30.47-20.94,45.36s-15.07,29.62-22.5,44.43c-3.7,7.4-7.34,14.84-10.69,22.35-1.68,3.76-3.28,7.55-4.72,11.36a85.9,85.9,0,0,0-3.59,11.52c-.21,1-.38,1.92-.51,2.86l-.17,1.41-.22,1.64c-.18,1.09-.25,2.22-.51,3.27l-.74,3.17c-.22,1.07-.6,2.06-.9,3.1s-.59,2.07-1,3.06c-.76,2-1.43,4-2.3,5.94a197.69,197.69,0,0,1-11.42,22.49,416.21,416.21,0,0,1-28.08,41.48q-7.55,10-15.61,19.55t-16.58,18.76c-5.72,6.1-11.6,12.05-17.9,17.66a109.74,109.74,0,0,1-9.93,8,43.53,43.53,0,0,1-5.68,3.45,19.55,19.55,0,0,1-3.28,1.28c-.57.15-1.14.33-1.7.47l-1.68.28a57.14,57.14,0,0,1-13,.28c-4.26-.31-8.45-.91-12.6-1.63-8.3-1.45-16.44-3.43-24.5-5.63s-16-4.68-23.94-7.34-15.76-5.48-23.53-8.51-15.49-6.2-23.1-9.72c-1.9-.88-3.8-1.79-5.68-2.73L997,893.28c-.88-.41-1.73-.85-2.62-1.24A60.29,60.29,0,0,0,983,888.62a149.76,149.76,0,0,0-24.3-2.56c-8.21-.25-16.44-.08-24.66.41a308.64,308.64,0,0,0-48.88,6.69c-4,.92-8,2-11.82,3.19A95.84,95.84,0,0,0,862.1,901l-22.46,10.73a432.38,432.38,0,0,1-46.28,19c-15.85,5.28-32.28,9.42-49.2,10.25a93.56,93.56,0,0,1-25.33-2c-1.05-.18-2.07-.54-3.1-.82l-3.08-.9c-1-.35-2-.77-3-1.14s-2-.74-3-1.21l-2.88-1.44a25.62,25.62,0,0,1-2.83-1.53l-2.73-1.7-1.36-.85-1.29-.94a107.76,107.76,0,0,1-18.51-17.29A188.08,188.08,0,0,1,662,891c-18.37-28-31.68-58.68-45.59-88.75-3.52-7.49-7-15-11-22.15-1-1.8-2.08-3.51-3.17-5.21l-1.75-2.43-1-1.09a7.59,7.59,0,0,0-1-1,27,27,0,0,0-4.74-3.42c-.88-.49-1.73-1-2.64-1.46l-2.74-1.34a181.26,181.26,0,0,0-23.22-8.27c-7.93-2.32-16-4.35-24-6.21-16.14-3.71-32.43-6.81-48.79-9.49s-32.8-5-49.29-6.28c-2.06-.14-4.12-.28-6.17-.36-1-.06-2.06-.06-3.09-.09l-.76,0c-.2,0-.18,0-.52.09l-1.48.38c-4,1.08-8,2.23-12,3.36l-24,6.73c-16,4.47-32,8.82-48.12,12.92s-32.25,8-48.56,11.18c-8.16,1.59-16.37,3-24.68,3.83a61,61,0,0,1-12.61.11,27.39,27.39,0,0,1-6.15-1.73,58.15,58.15,0,0,1-5.72-2.64,147,147,0,0,1-20.85-13.8c-6.59-5.1-12.91-10.52-19-16.2A336.15,336.15,0,0,1,175.55,701a284.87,284.87,0,0,1-27.61-41.55c-7.84-14.68-14.26-30.25-17.85-46.61a122.5,122.5,0,0,1-3-24.9,97.64,97.64,0,0,1,.6-12.56,38.35,38.35,0,0,1,1.11-6.3,54.13,54.13,0,0,1,2.08-6,121,121,0,0,1,12.42-21.83c4.77-6.87,9.89-13.45,15.21-19.86,10.63-12.82,22-25,33.61-36.88s23.6-23.43,35.74-34.78c24.3-22.69,49.31-44.58,74.74-66s51.32-42.21,77.56-62.59,52.77-40.38,79.68-59.86q20.17-14.64,40.59-28.92t41.16-28.1C569.27,185.83,597.31,168,626,151.21c14.36-8.37,28.9-16.45,43.75-24,7.43-3.74,15-7.32,22.6-10.63A197,197,0,0,1,715.86,108a73.32,73.32,0,0,1,12.37-2.52,32.31,32.31,0,0,1,6.37-.08l6.26.51a141.81,141.81,0,0,1,24.49,5.24,186.47,186.47,0,0,1,23.27,9.12c7.55,3.51,14.83,7.56,22,11.75a473.4,473.4,0,0,1,41.18,28.08c13.29,10,26.22,20.38,39.16,30.78s25.87,20.8,39.13,30.78c6.61,5,13.36,9.84,20.18,14.56S964.12,245.33,971.29,249.54Z"/><path d="M785,851.18c-8.25-3.1-16.4-6.44-24.59-9.67L736,831.41c-8.14-3.34-16.18-6.92-24.26-10.42l-24.19-10.62q-12-5.49-24-11.06c-4-1.84-8-3.72-12-5.6s-8-3.76-11.9-5.74l-11.84-5.88-11.77-6c-3.89-2.06-7.75-4.2-11.62-6.29s-7.66-4.38-11.46-6.6l.1-.17c3.89,2.05,7.74,4.18,11.66,6.18s7.84,4,11.79,5.94l11.87,5.77,11.93,5.65q23.91,11.21,48,22Q736.5,830.21,785.06,851Z"/><path d="M1187.25,631c6.84-.88,13.66-1.81,20.44-3s13.54-2.33,20.26-3.77l10-2.24c3.34-.77,6.66-1.61,10-2.49,6.61-1.78,13.16-3.79,19.57-6.15,12.84-4.51,25.39-10.36,35.76-19a45.15,45.15,0,0,0,12.33-15.72,34.56,34.56,0,0,0,2.87-9.67,42.67,42.67,0,0,0,.14-10.23l.2,0a40.09,40.09,0,0,1,.32,10.32,35.7,35.7,0,0,1-2.55,10,46.08,46.08,0,0,1-12.29,16.48A86.21,86.21,0,0,1,1287.17,607a151.72,151.72,0,0,1-19,8.22,268,268,0,0,1-40,10.53,371.86,371.86,0,0,1-41,5.44Z"/><path class="cls-2" d="M574.79,222.78c42.67-29.16,75.25-47.57,81.62-51.11a14,14,0,0,1,2.41-1.06c9.4-3.16,68.71-22,121.1-12.14,4.59.86,8,4,8.53,8.08,1.85,13-1.22,29.22-4,40.07-1.57,6.18-8.83,10.39-15.59,9-57-12-129,5.91-183.57,25.16C571.92,245.47,563.23,230.67,574.79,222.78Z"/><path class="cls-3" d="M247.54,644.18c-16.06-8.33-49.19-15.15-54.06.61s7.83,35.83,13.86,44.73c17.81,26.29,92.55,47.53,92.55,47.53C280.1,722.09,247.54,644.18,247.54,644.18Z"/><path class="cls-4" d="M1111.88,827.43c-12.48,23.42-26.45,69.27-9.49,72s42.16-19,53.4-29.14c33.18-30,71.36-134.85,71.36-134.85C1206.44,765.44,1111.88,827.43,1111.88,827.43Z"/></g></svg>