<svg xmlns="http://www.w3.org/2000/svg" xmlns:xlink="http://www.w3.org/1999/xlink" viewBox="0 0 1920 1920"><defs><style>.cls-1{fill:url(#linear-gradient);}</style><linearGradient id="linear-gradient" x1="540.34" y1="744.55" x2="1410.71" y2="1296.09" gradientUnits="userSpaceOnUse"><stop offset="0" stop-color="#002916"/><stop offset="0.05" stop-color="#003219"/><stop offset="0.12" stop-color="#004920"/><stop offset="0.21" stop-color="#006f2b"/><stop offset="0.25" stop-color="#008331"/><stop offset="0.32" stop-color="#007329"/><stop offset="0.4" stop-color="#006320"/><stop offset="0.47" stop-color="#005d1d"/><stop offset="0.71" stop-color="#62a471"/><stop offset="0.76" stop-color="#509264"/><stop offset="0.92" stop-color="#165c3c"/><stop offset="1" stop-color="#00472d"/></linearGradient></defs><g id="Layer_3" data-name="Layer 3"><path class="cls-1" d="M1206.7,687.1C1130.76,643.23,1051.45,547,968.76,543.66s-592.31,378-604.13,467.44,101.25,192.38,131.63,197.44c24.12,4,132.29-27.57,163.62-36.5,5.11-1.46,8.18-2.31,8.5-2.31,30.38,0,148.5,18.56,167.07,37.12s54,140.06,108,163.69,142.87-31.88,163.68-38.81c30.38-10.13,101.25-16.88,126.57-3.38s108,43.88,131.62,35.44,108-109.69,111.38-150.19,113.06-189,69.18-229.5-113.06-135-167.06-173.81S1206.7,687.1,1206.7,687.1Z"/><path d="M1206.56,687.31c-7.16-4.18-14.17-8.64-21-13.31s-13.6-9.53-20.23-14.54c-13.29-10-26.22-20.37-39.21-30.7s-26-20.69-39.29-30.57q-10-7.46-20.26-14.43t-21-13.27c-7.19-4.11-14.47-8.07-22-11.49a183.35,183.35,0,0,0-23.14-8.83,141.72,141.72,0,0,0-24.18-4.95l-6.15-.44a29.79,29.79,0,0,0-6,.13,71.23,71.23,0,0,0-12,2.55,195.76,195.76,0,0,0-23.13,8.76c-7.56,3.35-15,7-22.36,10.77-14.71,7.6-29.13,15.79-43.37,24.28-28.48,17-56.26,35.12-83.75,53.67q-20.61,13.93-40.93,28.3t-40.45,29q-80.37,58.69-157.16,122.1c-25.49,21.21-50.64,42.85-75,65.32-12.19,11.24-24.2,22.67-35.88,34.43s-23.06,23.8-33.71,36.46c-5.33,6.32-10.46,12.81-15.21,19.55a118.28,118.28,0,0,0-12.32,21.28,49.91,49.91,0,0,0-2,5.72,35.16,35.16,0,0,0-1.08,5.94,96.8,96.8,0,0,0-.69,12.28,120.17,120.17,0,0,0,2.73,24.48c3.42,16.14,9.73,31.58,17.44,46.19a277.39,277.39,0,0,0,27.29,41.39,333.89,333.89,0,0,0,33.6,36.53c6,5.65,12.33,11.06,18.86,16.13a143.23,143.23,0,0,0,20.64,13.62,57.13,57.13,0,0,0,5.58,2.56,25.69,25.69,0,0,0,5.81,1.63,58.92,58.92,0,0,0,12.23-.15c8.21-.84,16.38-2.25,24.51-3.86,16.25-3.23,32.38-7.15,48.45-11.26s32.07-8.51,48.05-13l23.92-6.87c4-1.15,8-2.32,12-3.43l1.54-.41a4.16,4.16,0,0,1,1-.15l.79,0c1,0,2.1,0,3.14.07,2.09.07,4.17.2,6.25.33,16.61,1.23,33.09,3.47,49.52,6s32.77,5.6,49,9.23c8.12,1.82,16.2,3.8,24.22,6.09a183.87,183.87,0,0,1,23.7,8.27l2.87,1.37c1,.46,1.87,1,2.81,1.53a30.22,30.22,0,0,1,5.35,3.83,10,10,0,0,1,1.15,1.2l1.1,1.24,1.91,2.61c1.16,1.78,2.31,3.56,3.34,5.39,4.2,7.29,7.73,14.82,11.32,22.32,7.09,15,14,30.13,21.39,44.93a406,406,0,0,0,24.42,43.08,185.21,185.21,0,0,0,14.82,19.66,104.24,104.24,0,0,0,17.86,16.54l1.22.89,1.29.79,2.56,1.58a23.31,23.31,0,0,0,2.65,1.42l2.68,1.33c.91.43,1.87.73,2.8,1.11s1.86.73,2.81,1l2.9.83a28.92,28.92,0,0,0,2.91.76,88.75,88.75,0,0,0,24.15,1.82,146.7,146.7,0,0,0,24.24-3.46,231.46,231.46,0,0,0,23.71-6.71,428.82,428.82,0,0,0,45.73-19l22.44-10.79a98.42,98.42,0,0,1,11.76-4.93c4-1.31,8.11-2.38,12.2-3.34a313.46,313.46,0,0,1,49.67-6.92c8.35-.52,16.72-.72,25.11-.48a154.26,154.26,0,0,1,25.17,2.59,66,66,0,0,1,12.41,3.7c1,.43,2,1,3,1.42l2.71,1.39q2.74,1.37,5.54,2.65c7.47,3.43,15.12,6.56,22.82,9.53,15.42,5.92,31.1,11.22,47,15.58,8,2.18,16,4.12,24,5.51,4,.7,8.07,1.28,12.09,1.57a51.86,51.86,0,0,0,11.78-.23l1.4-.23c.44-.11.86-.25,1.3-.37a14.06,14.06,0,0,0,2.5-1,39.56,39.56,0,0,0,5-3,106.55,106.55,0,0,0,9.44-7.61c6.1-5.44,11.9-11.3,17.53-17.32,11.24-12.06,21.83-24.77,31.86-37.89a409.16,409.16,0,0,0,27.8-40.89,192,192,0,0,0,11.17-21.84c.84-1.86,1.47-3.78,2.2-5.66.38-.94.62-1.91.93-2.87s.65-1.9.85-2.87l.67-2.89c.25-1,.3-1.92.46-2.88l.2-1.44.2-1.68c.16-1.11.36-2.2.6-3.26a90.13,90.13,0,0,1,3.82-12.23c1.5-4,3.15-7.8,4.86-11.62,3.42-7.64,7.1-15.11,10.84-22.54,7.47-14.86,15.23-29.53,22.67-44.34s14.65-29.71,21-45c3.19-7.61,6.15-15.31,8.72-23.12a162.37,162.37,0,0,0,6.06-23.79c1.33-8,1.84-16.23.3-24a32,32,0,0,0-4.21-10.88,23,23,0,0,0-1.67-2.37l-.91-1.13c-.32-.36-.67-.7-1-1s-.65-.68-1-1l-1.13-1.09-2.24-2.18c-12-11.64-23.1-24-34.11-36.47-21.93-25-43.24-50.41-65.58-74.93-11.16-12.27-22.64-24.23-34.63-35.67l-4.53-4.24c-1.52-1.41-3-2.86-4.59-4.18-3.15-2.69-6.25-5.43-9.42-8.09l-9.81-7.6-10.09-7.29-80.79-58.22Zm.27-.42,81.06,57.87,81.19,57.7,10.16,7.2,9.94,7.57c3.22,2.64,6.37,5.36,9.55,8,1.61,1.32,3.11,2.76,4.65,4.16l4.6,4.22c12.14,11.36,23.76,23.26,35,35.45,22.61,24.36,44.21,49.6,66.34,74.31,11.11,12.3,22.32,24.53,34.28,35.9l2.23,2.14c.74.7,1.49,1.41,2.29,2.22.38.4.78.78,1.16,1.19l1.05,1.28a26.54,26.54,0,0,1,1.94,2.69,35.65,35.65,0,0,1,4.84,12.17c1.75,8.53,1.23,17.18-.08,25.5a166.25,166.25,0,0,1-6,24.47c-2.56,8-5.49,15.81-8.66,23.53-6.36,15.43-13.54,30.46-20.94,45.35s-15.07,29.62-22.5,44.43c-3.7,7.41-7.34,14.84-10.69,22.36-1.68,3.76-3.28,7.54-4.72,11.35a86.81,86.81,0,0,0-3.59,11.52c-.21,1-.38,1.92-.51,2.87l-.17,1.41-.22,1.64c-.18,1.08-.25,2.21-.51,3.26l-.74,3.17c-.22,1.07-.6,2.07-.9,3.1s-.59,2.07-1,3.06c-.77,2-1.44,4-2.31,5.94a197.69,197.69,0,0,1-11.42,22.49,416.21,416.21,0,0,1-28.08,41.48q-7.55,10-15.61,19.55t-16.58,18.77c-5.72,6.1-11.6,12-17.9,17.65a109.84,109.84,0,0,1-9.93,8,44.61,44.61,0,0,1-5.68,3.44,19.55,19.55,0,0,1-3.28,1.28c-.57.16-1.14.33-1.7.47l-1.68.29a57.71,57.71,0,0,1-13,.27,125,125,0,0,1-12.6-1.63c-8.3-1.45-16.44-3.42-24.5-5.63s-16-4.68-23.94-7.34-15.76-5.48-23.53-8.5-15.49-6.21-23.1-9.72c-1.9-.89-3.8-1.8-5.68-2.74l-2.82-1.46c-.88-.41-1.73-.85-2.62-1.24a61,61,0,0,0-11.41-3.42,148.65,148.65,0,0,0-24.3-2.55c-8.21-.26-16.44-.09-24.66.41a308.63,308.63,0,0,0-48.88,6.68c-4,.92-8,2-11.82,3.19a95.84,95.84,0,0,0-11.2,4.68l-22.46,10.73a432.38,432.38,0,0,1-46.28,19c-15.85,5.28-32.28,9.42-49.2,10.25a93.16,93.16,0,0,1-25.33-2c-1-.18-2.07-.54-3.1-.82l-3.08-.9c-1-.35-2-.76-3-1.14s-2-.74-3-1.21l-2.88-1.44a25.62,25.62,0,0,1-2.83-1.53l-2.73-1.7-1.36-.84-1.29-1a107.76,107.76,0,0,1-18.51-17.29,188.08,188.08,0,0,1-15.06-20.14c-18.36-28-31.68-58.68-45.59-88.75-3.52-7.49-7-15-11.05-22.15-1-1.8-2.08-3.51-3.17-5.21l-1.75-2.43-1-1.09a7.59,7.59,0,0,0-1-1,27,27,0,0,0-4.74-3.42c-.88-.48-1.73-1-2.64-1.46l-2.74-1.33a179.79,179.79,0,0,0-23.22-8.28c-7.93-2.32-16-4.34-24-6.21-16.14-3.71-32.43-6.8-48.79-9.48s-32.8-5-49.29-6.28c-2.06-.15-4.12-.29-6.17-.37-1-.06-2.06-.06-3.09-.09h-.76c-.2,0-.18,0-.52.08l-1.48.38c-4,1.09-8,2.23-12,3.36l-24,6.74c-16,4.46-32,8.81-48.12,12.91s-32.25,8-48.56,11.18c-8.16,1.59-16.37,3-24.68,3.83a60.34,60.34,0,0,1-12.61.11,27.39,27.39,0,0,1-6.15-1.73,58.15,58.15,0,0,1-5.72-2.64,147,147,0,0,1-20.85-13.8c-6.59-5.1-12.91-10.52-19-16.19a336.25,336.25,0,0,1-33.83-36.65,284,284,0,0,1-27.6-41.55c-7.85-14.68-14.27-30.25-17.86-46.6a122.59,122.59,0,0,1-2.95-24.9,97.8,97.8,0,0,1,.6-12.57,38.54,38.54,0,0,1,1.11-6.3,54.13,54.13,0,0,1,2.08-6,121.34,121.34,0,0,1,12.42-21.83c4.77-6.86,9.89-13.45,15.21-19.86,10.63-12.82,22-25,33.61-36.88s23.6-23.43,35.74-34.78c24.3-22.68,49.31-44.58,74.74-66s51.32-42.21,77.56-62.59,52.77-40.38,79.68-59.86Q715.61,684,736,669.74t41.16-28.09c27.63-18.47,55.67-36.32,84.38-53.09,14.36-8.37,28.9-16.45,43.75-23.95,7.43-3.74,15-7.32,22.6-10.63a198.7,198.7,0,0,1,23.49-8.64,74.32,74.32,0,0,1,12.37-2.52,31.56,31.56,0,0,1,6.37-.07l6.26.5a143.71,143.71,0,0,1,24.49,5.24,186.47,186.47,0,0,1,23.27,9.12c7.55,3.52,14.83,7.56,22,11.75a473.4,473.4,0,0,1,41.18,28.08c13.29,10,26.22,20.38,39.16,30.78s25.87,20.8,39.13,30.78c6.61,5,13.36,9.84,20.18,14.56S1199.66,682.69,1206.83,686.89Z"/><path d="M1020.46,1288.67c-16.89-5.29-33.42-11.44-49.8-17.93-8.23-3.17-16.32-6.64-24.47-10-4.07-1.69-8.09-3.49-12.12-5.25L922,1250.18c-8-3.69-16-7.33-24-11.14q-6-2.86-11.88-5.81c-4-1.93-7.91-3.9-11.81-6s-7.84-4-11.72-6.16L851,1214.69q-5.73-3.35-11.4-6.77c-3.78-2.3-7.46-4.79-11.13-7.25l.24-.43c3.89,2,7.75,4.17,11.67,6.17s7.84,4,11.79,5.91l11.88,5.76,11.94,5.63q23.91,11.18,48,21.92,48.12,21.73,96.65,42.58Z"/><path d="M1422.78,1068.19c13.58-2.79,27-5.6,40.3-8.74L1473,1057q4.93-1.24,9.83-2.68c6.53-1.83,13-3.8,19.31-6.14a158,158,0,0,0,18.51-7.74,92.26,92.26,0,0,0,16.74-10.37,56.36,56.36,0,0,0,7-6.7,38.42,38.42,0,0,0,5.46-8,39,39,0,0,0,4.14-19.34l.49-.07a39.94,39.94,0,0,1,.35,10.36,35.75,35.75,0,0,1-2.55,10.07A46.34,46.34,0,0,1,1540,1033a86.49,86.49,0,0,1-17.16,11.59,151.64,151.64,0,0,1-19,8.28,268.53,268.53,0,0,1-40,10.46,369.53,369.53,0,0,1-41,5.37Z"/></g></svg>